<?xml version="1.0" encoding="us-ascii" standalone="no"?><svg xmlns="http://www.w3.org/2000/svg" xmlns:xlink="http://www.w3.org/1999/xlink" contentStyleType="text/css" height="343px" preserveAspectRatio="none" style="width:743px;height:343px;background:#FFFFFF;" version="1.1" viewBox="0 0 743 343" width="743px" zoomAndPan="magnify"><defs/><g><line style="stroke:#181818;stroke-width:0.5;stroke-dasharray:5.0,5.0;" x1="30" x2="30" y1="81.4883" y2="262.041"/><line style="stroke:#181818;stroke-width:0.5;stroke-dasharray:5.0,5.0;" x1="419" x2="419" y1="81.4883" y2="262.041"/><line style="stroke:#181818;stroke-width:0.5;stroke-dasharray:5.0,5.0;" x1="696" x2="696" y1="81.4883" y2="262.041"/><text fill="#000000" font-family="sans-serif" font-size="14" lengthAdjust="spacing" textLength="45" x="5" y="78.5352">Admin</text><ellipse cx="30.5" cy="13.5" fill="#E2E2F0" rx="8" ry="8" style="stroke:#181818;stroke-width:0.5;"/><path d="M30.5,21.5 L30.5,48.5 M17.5,29.5 L43.5,29.5 M30.5,48.5 L17.5,63.5 M30.5,48.5 L43.5,63.5 " fill="none" style="stroke:#181818;stroke-width:0.5;"/><text fill="#000000" font-family="sans-serif" font-size="14" lengthAdjust="spacing" textLength="45" x="5" y="274.5762">Admin</text><ellipse cx="30.5" cy="286.0293" fill="#E2E2F0" rx="8" ry="8" style="stroke:#181818;stroke-width:0.5;"/><path d="M30.5,294.0293 L30.5,321.0293 M17.5,302.0293 L43.5,302.0293 M30.5,321.0293 L17.5,336.0293 M30.5,321.0293 L43.5,336.0293 " fill="none" style="stroke:#181818;stroke-width:0.5;"/><rect fill="#E2E2F0" height="30.4883" rx="2.5" ry="2.5" style="stroke:#181818;stroke-width:0.5;" width="123" x="358" y="50"/><text fill="#000000" font-family="sans-serif" font-size="14" lengthAdjust="spacing" textLength="109" x="365" y="70.5352">Backend Service</text><rect fill="#E2E2F0" height="30.4883" rx="2.5" ry="2.5" style="stroke:#181818;stroke-width:0.5;" width="123" x="358" y="261.041"/><text fill="#000000" font-family="sans-serif" font-size="14" lengthAdjust="spacing" textLength="109" x="365" y="281.5762">Backend Service</text><text fill="#000000" font-family="sans-serif" font-size="14" lengthAdjust="spacing" textLength="63" x="662" y="78.5352">Database</text><path d="M678.5,29 C678.5,19 696.5,19 696.5,19 C696.5,19 714.5,19 714.5,29 L714.5,55 C714.5,65 696.5,65 696.5,65 C696.5,65 678.5,65 678.5,55 L678.5,29 " fill="#E2E2F0" style="stroke:#181818;stroke-width:1.5;"/><path d="M678.5,29 C678.5,39 696.5,39 696.5,39 C696.5,39 714.5,39 714.5,29 " fill="none" style="stroke:#181818;stroke-width:1.5;"/><text fill="#000000" font-family="sans-serif" font-size="14" lengthAdjust="spacing" textLength="63" x="662" y="274.5762">Database</text><path d="M678.5,287.5293 C678.5,277.5293 696.5,277.5293 696.5,277.5293 C696.5,277.5293 714.5,277.5293 714.5,287.5293 L714.5,313.5293 C714.5,323.5293 696.5,323.5293 696.5,323.5293 C696.5,323.5293 678.5,323.5293 678.5,313.5293 L678.5,287.5293 " fill="#E2E2F0" style="stroke:#181818;stroke-width:1.5;"/><path d="M678.5,287.5293 C678.5,297.5293 696.5,297.5293 696.5,297.5293 C696.5,297.5293 714.5,297.5293 714.5,287.5293 " fill="none" style="stroke:#181818;stroke-width:1.5;"/><rect fill="#EEEEEE" height="3" style="stroke:#EEEEEE;stroke-width:1.0;" width="736" x="0" y="112.1436"/><line style="stroke:#000000;stroke-width:1.0;" x1="0" x2="736" y1="112.1436" y2="112.1436"/><line style="stroke:#000000;stroke-width:1.0;" x1="0" x2="736" y1="115.1436" y2="115.1436"/><rect fill="#EEEEEE" height="23.3105" style="stroke:#000000;stroke-width:2.0;" width="226" x="255" y="101.4883"/><text fill="#000000" font-family="sans-serif" font-size="13" font-weight="bold" lengthAdjust="spacing" textLength="208" x="261" y="118.0566">Create Medicine Category Flow</text><polygon fill="#181818" points="407.5,152.1094,417.5,156.1094,407.5,160.1094,411.5,156.1094" style="stroke:#181818;stroke-width:1.0;"/><line style="stroke:#181818;stroke-width:1.0;" x1="30.5" x2="413.5" y1="156.1094" y2="156.1094"/><text fill="#000000" font-family="sans-serif" font-size="13" font-weight="bold" lengthAdjust="spacing" textLength="9" x="37.5" y="151.3672">1</text><text fill="#000000" font-family="sans-serif" font-size="13" lengthAdjust="spacing" textLength="228" x="50.5" y="151.3672">Request to create medicine category</text><polygon fill="#181818" points="684.5,181.4199,694.5,185.4199,684.5,189.4199,688.5,185.4199" style="stroke:#181818;stroke-width:1.0;"/><line style="stroke:#181818;stroke-width:1.0;" x1="419.5" x2="690.5" y1="185.4199" y2="185.4199"/><text fill="#000000" font-family="sans-serif" font-size="13" font-weight="bold" lengthAdjust="spacing" textLength="9" x="426.5" y="180.6777">2</text><text fill="#000000" font-family="sans-serif" font-size="13" lengthAdjust="spacing" textLength="187" x="439.5" y="180.6777">Save medicine category entity</text><polygon fill="#181818" points="430.5,210.7305,420.5,214.7305,430.5,218.7305,426.5,214.7305" style="stroke:#181818;stroke-width:1.0;"/><line style="stroke:#181818;stroke-width:1.0;" x1="424.5" x2="695.5" y1="214.7305" y2="214.7305"/><text fill="#000000" font-family="sans-serif" font-size="13" font-weight="bold" lengthAdjust="spacing" textLength="9" x="436.5" y="209.9883">3</text><text fill="#000000" font-family="sans-serif" font-size="13" lengthAdjust="spacing" textLength="240" x="449.5" y="209.9883">Return saved medicine category entity</text><polygon fill="#181818" points="41.5,240.041,31.5,244.041,41.5,248.041,37.5,244.041" style="stroke:#181818;stroke-width:1.0;"/><line style="stroke:#181818;stroke-width:1.0;" x1="35.5" x2="418.5" y1="244.041" y2="244.041"/><text fill="#000000" font-family="sans-serif" font-size="13" font-weight="bold" lengthAdjust="spacing" textLength="9" x="47.5" y="239.2988">4</text><text fill="#000000" font-family="sans-serif" font-size="13" lengthAdjust="spacing" textLength="352" x="60.5" y="239.2988">Return success response with medicine category details</text><!--SRC=[TO_D2W8n38JlUOfXxxw0i8BhuisBFa5iWnRTTcrJnRUtx0ygw2r3yirCE6lmkJjA96AZ8M9jE-V12TKmLTHpL6TSprxHiBc8jyDwdWyIxyv8HPQLZvm4RJCSj9EkYEeQcoYiWftOOkO5cw9E8JwnlOO7wfh6uCLg3bbYBxSiIQ41PgIxcJOJJNEBmhND4WU-_xY2U7Nwf5Bisrzpz4Y5iV-XZuIXuflBnaXAY9BwuClV3wVd7pvMbDqrlG00]--></g></svg>