<?xml version="1.0" encoding="us-ascii" standalone="no"?><svg xmlns="http://www.w3.org/2000/svg" xmlns:xlink="http://www.w3.org/1999/xlink" contentStyleType="text/css" height="644px" preserveAspectRatio="none" style="width:732px;height:644px;background:#FFFFFF;" version="1.1" viewBox="0 0 732 644" width="732px" zoomAndPan="magnify"><defs/><g><rect fill="none" height="345.7266" style="stroke:#000000;stroke-width:1.5;" width="705" x="10" y="200.4199"/><rect fill="none" height="195.1738" style="stroke:#000000;stroke-width:1.5;" width="685" x="20" y="283.3516"/><line style="stroke:#181818;stroke-width:0.5;stroke-dasharray:5.0,5.0;" x1="55" x2="55" y1="81.4883" y2="563.1465"/><line style="stroke:#181818;stroke-width:0.5;stroke-dasharray:5.0,5.0;" x1="410" x2="410" y1="81.4883" y2="563.1465"/><line style="stroke:#181818;stroke-width:0.5;stroke-dasharray:5.0,5.0;" x1="660" x2="660" y1="81.4883" y2="563.1465"/><text fill="#000000" font-family="sans-serif" font-size="14" lengthAdjust="spacing" textLength="45" x="30" y="78.5352">Admin</text><ellipse cx="55.5" cy="13.5" fill="#E2E2F0" rx="8" ry="8" style="stroke:#181818;stroke-width:0.5;"/><path d="M55.5,21.5 L55.5,48.5 M42.5,29.5 L68.5,29.5 M55.5,48.5 L42.5,63.5 M55.5,48.5 L68.5,63.5 " fill="none" style="stroke:#181818;stroke-width:0.5;"/><text fill="#000000" font-family="sans-serif" font-size="14" lengthAdjust="spacing" textLength="45" x="30" y="575.6816">Admin</text><ellipse cx="55.5" cy="587.1348" fill="#E2E2F0" rx="8" ry="8" style="stroke:#181818;stroke-width:0.5;"/><path d="M55.5,595.1348 L55.5,622.1348 M42.5,603.1348 L68.5,603.1348 M55.5,622.1348 L42.5,637.1348 M55.5,622.1348 L68.5,637.1348 " fill="none" style="stroke:#181818;stroke-width:0.5;"/><rect fill="#E2E2F0" height="30.4883" rx="2.5" ry="2.5" style="stroke:#181818;stroke-width:0.5;" width="123" x="349" y="50"/><text fill="#000000" font-family="sans-serif" font-size="14" lengthAdjust="spacing" textLength="109" x="356" y="70.5352">Backend Service</text><rect fill="#E2E2F0" height="30.4883" rx="2.5" ry="2.5" style="stroke:#181818;stroke-width:0.5;" width="123" x="349" y="562.1465"/><text fill="#000000" font-family="sans-serif" font-size="14" lengthAdjust="spacing" textLength="109" x="356" y="582.6816">Backend Service</text><text fill="#000000" font-family="sans-serif" font-size="14" lengthAdjust="spacing" textLength="63" x="626" y="78.5352">Database</text><path d="M642.5,29 C642.5,19 660.5,19 660.5,19 C660.5,19 678.5,19 678.5,29 L678.5,55 C678.5,65 660.5,65 660.5,65 C660.5,65 642.5,65 642.5,55 L642.5,29 " fill="#E2E2F0" style="stroke:#181818;stroke-width:1.5;"/><path d="M642.5,29 C642.5,39 660.5,39 660.5,39 C660.5,39 678.5,39 678.5,29 " fill="none" style="stroke:#181818;stroke-width:1.5;"/><text fill="#000000" font-family="sans-serif" font-size="14" lengthAdjust="spacing" textLength="63" x="626" y="575.6816">Database</text><path d="M642.5,588.6348 C642.5,578.6348 660.5,578.6348 660.5,578.6348 C660.5,578.6348 678.5,578.6348 678.5,588.6348 L678.5,614.6348 C678.5,624.6348 660.5,624.6348 660.5,624.6348 C660.5,624.6348 642.5,624.6348 642.5,614.6348 L642.5,588.6348 " fill="#E2E2F0" style="stroke:#181818;stroke-width:1.5;"/><path d="M642.5,588.6348 C642.5,598.6348 660.5,598.6348 660.5,598.6348 C660.5,598.6348 678.5,598.6348 678.5,588.6348 " fill="none" style="stroke:#181818;stroke-width:1.5;"/><rect fill="#EEEEEE" height="3" style="stroke:#EEEEEE;stroke-width:1.0;" width="725" x="0" y="112.1436"/><line style="stroke:#000000;stroke-width:1.0;" x1="0" x2="725" y1="112.1436" y2="112.1436"/><line style="stroke:#000000;stroke-width:1.0;" x1="0" x2="725" y1="115.1436" y2="115.1436"/><rect fill="#EEEEEE" height="23.3105" style="stroke:#000000;stroke-width:2.0;" width="225" x="250" y="101.4883"/><text fill="#000000" font-family="sans-serif" font-size="13" font-weight="bold" lengthAdjust="spacing" textLength="207" x="256" y="118.0566">Delete Medicine Category Flow</text><polygon fill="#181818" points="398.5,152.1094,408.5,156.1094,398.5,160.1094,402.5,156.1094" style="stroke:#181818;stroke-width:1.0;"/><line style="stroke:#181818;stroke-width:1.0;" x1="55.5" x2="404.5" y1="156.1094" y2="156.1094"/><text fill="#000000" font-family="sans-serif" font-size="13" font-weight="bold" lengthAdjust="spacing" textLength="9" x="62.5" y="151.3672">1</text><text fill="#000000" font-family="sans-serif" font-size="13" lengthAdjust="spacing" textLength="228" x="75.5" y="151.3672">Request to delete medicine category</text><polygon fill="#181818" points="648.5,181.4199,658.5,185.4199,648.5,189.4199,652.5,185.4199" style="stroke:#181818;stroke-width:1.0;"/><line style="stroke:#181818;stroke-width:1.0;" x1="410.5" x2="654.5" y1="185.4199" y2="185.4199"/><text fill="#000000" font-family="sans-serif" font-size="13" font-weight="bold" lengthAdjust="spacing" textLength="9" x="417.5" y="180.6777">2</text><text fill="#000000" font-family="sans-serif" font-size="13" lengthAdjust="spacing" textLength="213" x="430.5" y="180.6777">Check if medicine category exists</text><path d="M10,200.4199 L72,200.4199 L72,207.7305 L62,217.7305 L10,217.7305 L10,200.4199 " fill="#EEEEEE" style="stroke:#000000;stroke-width:1.5;"/><rect fill="none" height="345.7266" style="stroke:#000000;stroke-width:1.5;" width="705" x="10" y="200.4199"/><text fill="#000000" font-family="sans-serif" font-size="13" font-weight="bold" lengthAdjust="spacing" textLength="17" x="25" y="213.9883">alt</text><a href="medicine category exists" target="_top" title="medicine category exists" xlink:actuate="onRequest" xlink:href="medicine category exists" xlink:show="new" xlink:title="medicine category exists" xlink:type="simple"><text fill="#0000FF" font-family="sans-serif" font-size="11" font-weight="bold" lengthAdjust="spacing" text-decoration="underline" textLength="138" x="87" y="213.0547">medicine category exists</text></a><polygon fill="#181818" points="421.5,235.041,411.5,239.041,421.5,243.041,417.5,239.041" style="stroke:#181818;stroke-width:1.0;"/><line style="stroke:#181818;stroke-width:1.0;" x1="415.5" x2="659.5" y1="239.041" y2="239.041"/><text fill="#000000" font-family="sans-serif" font-size="13" font-weight="bold" lengthAdjust="spacing" textLength="9" x="427.5" y="234.2988">3</text><text fill="#000000" font-family="sans-serif" font-size="13" lengthAdjust="spacing" textLength="160" x="440.5" y="234.2988">Return medicine category</text><polygon fill="#181818" points="648.5,264.3516,658.5,268.3516,648.5,272.3516,652.5,268.3516" style="stroke:#181818;stroke-width:1.0;"/><line style="stroke:#181818;stroke-width:1.0;" x1="410.5" x2="654.5" y1="268.3516" y2="268.3516"/><text fill="#000000" font-family="sans-serif" font-size="13" font-weight="bold" lengthAdjust="spacing" textLength="9" x="417.5" y="263.6094">4</text><text fill="#000000" font-family="sans-serif" font-size="13" lengthAdjust="spacing" textLength="198" x="430.5" y="263.6094">Check if category is being used</text><path d="M20,283.3516 L82,283.3516 L82,290.6621 L72,300.6621 L20,300.6621 L20,283.3516 " fill="#EEEEEE" style="stroke:#000000;stroke-width:1.5;"/><rect fill="none" height="195.1738" style="stroke:#000000;stroke-width:1.5;" width="685" x="20" y="283.3516"/><text fill="#000000" font-family="sans-serif" font-size="13" font-weight="bold" lengthAdjust="spacing" textLength="17" x="35" y="296.9199">alt</text><a href="category is being used" target="_top" title="category is being used" xlink:actuate="onRequest" xlink:href="category is being used" xlink:show="new" xlink:title="category is being used" xlink:type="simple"><text fill="#0000FF" font-family="sans-serif" font-size="11" font-weight="bold" lengthAdjust="spacing" text-decoration="underline" textLength="126" x="97" y="295.9863">category is being used</text></a><polygon fill="#181818" points="421.5,317.9727,411.5,321.9727,421.5,325.9727,417.5,321.9727" style="stroke:#181818;stroke-width:1.0;"/><line style="stroke:#181818;stroke-width:1.0;" x1="415.5" x2="659.5" y1="321.9727" y2="321.9727"/><text fill="#000000" font-family="sans-serif" font-size="13" font-weight="bold" lengthAdjust="spacing" textLength="9" x="427.5" y="317.2305">5</text><text fill="#000000" font-family="sans-serif" font-size="13" lengthAdjust="spacing" textLength="175" x="440.5" y="317.2305">Return category in use error</text><polygon fill="#181818" points="66.5,347.2832,56.5,351.2832,66.5,355.2832,62.5,351.2832" style="stroke:#181818;stroke-width:1.0;"/><line style="stroke:#181818;stroke-width:1.0;" x1="60.5" x2="409.5" y1="351.2832" y2="351.2832"/><text fill="#000000" font-family="sans-serif" font-size="13" font-weight="bold" lengthAdjust="spacing" textLength="9" x="72.5" y="346.541">6</text><text fill="#000000" font-family="sans-serif" font-size="13" lengthAdjust="spacing" textLength="318" x="85.5" y="346.541">Return error response (CATEGORY_IS_BEING_USED)</text><line style="stroke:#000000;stroke-width:1.0;stroke-dasharray:2.0,2.0;" x1="20" x2="705" y1="360.2832" y2="360.2832"/><polygon fill="#181818" points="421.5,378.5938,411.5,382.5938,421.5,386.5938,417.5,382.5938" style="stroke:#181818;stroke-width:1.0;"/><line style="stroke:#181818;stroke-width:1.0;" x1="415.5" x2="659.5" y1="382.5938" y2="382.5938"/><text fill="#000000" font-family="sans-serif" font-size="13" font-weight="bold" lengthAdjust="spacing" textLength="9" x="427.5" y="377.8516">7</text><text fill="#000000" font-family="sans-serif" font-size="13" lengthAdjust="spacing" textLength="204" x="440.5" y="377.8516">Confirm category can be deleted</text><polygon fill="#181818" points="648.5,407.9043,658.5,411.9043,648.5,415.9043,652.5,411.9043" style="stroke:#181818;stroke-width:1.0;"/><line style="stroke:#181818;stroke-width:1.0;" x1="410.5" x2="654.5" y1="411.9043" y2="411.9043"/><text fill="#000000" font-family="sans-serif" font-size="13" font-weight="bold" lengthAdjust="spacing" textLength="9" x="417.5" y="407.1621">8</text><text fill="#000000" font-family="sans-serif" font-size="13" lengthAdjust="spacing" textLength="159" x="430.5" y="407.1621">Delete medicine category</text><polygon fill="#181818" points="421.5,437.2148,411.5,441.2148,421.5,445.2148,417.5,441.2148" style="stroke:#181818;stroke-width:1.0;"/><line style="stroke:#181818;stroke-width:1.0;" x1="415.5" x2="659.5" y1="441.2148" y2="441.2148"/><text fill="#000000" font-family="sans-serif" font-size="13" font-weight="bold" lengthAdjust="spacing" textLength="9" x="427.5" y="436.4727">9</text><text fill="#000000" font-family="sans-serif" font-size="13" lengthAdjust="spacing" textLength="107" x="440.5" y="436.4727">Deletion success</text><polygon fill="#181818" points="66.5,466.5254,56.5,470.5254,66.5,474.5254,62.5,470.5254" style="stroke:#181818;stroke-width:1.0;"/><line style="stroke:#181818;stroke-width:1.0;" x1="60.5" x2="409.5" y1="470.5254" y2="470.5254"/><text fill="#000000" font-family="sans-serif" font-size="13" font-weight="bold" lengthAdjust="spacing" textLength="18" x="72.5" y="465.7832">10</text><text fill="#000000" font-family="sans-serif" font-size="13" lengthAdjust="spacing" textLength="156" x="94.5" y="465.7832">Return success response</text><line style="stroke:#000000;stroke-width:1.0;stroke-dasharray:2.0,2.0;" x1="10" x2="715" y1="486.5254" y2="486.5254"/><polygon fill="#181818" points="421.5,504.8359,411.5,508.8359,421.5,512.8359,417.5,508.8359" style="stroke:#181818;stroke-width:1.0;"/><line style="stroke:#181818;stroke-width:1.0;" x1="415.5" x2="659.5" y1="508.8359" y2="508.8359"/><text fill="#000000" font-family="sans-serif" font-size="13" font-weight="bold" lengthAdjust="spacing" textLength="18" x="427.5" y="504.0938">11</text><text fill="#000000" font-family="sans-serif" font-size="13" lengthAdjust="spacing" textLength="193" x="449.5" y="504.0938">Return category not exist error</text><polygon fill="#181818" points="66.5,534.1465,56.5,538.1465,66.5,542.1465,62.5,538.1465" style="stroke:#181818;stroke-width:1.0;"/><line style="stroke:#181818;stroke-width:1.0;" x1="60.5" x2="409.5" y1="538.1465" y2="538.1465"/><text fill="#000000" font-family="sans-serif" font-size="13" font-weight="bold" lengthAdjust="spacing" textLength="18" x="72.5" y="533.4043">12</text><text fill="#000000" font-family="sans-serif" font-size="13" lengthAdjust="spacing" textLength="292" x="94.5" y="533.4043">Return error response (CATEGORY_NOT_EXIST)</text><!--SRC=[bPBBQiCm44Nt-eh1gsRH7mYu43yQicW2SGejfHX5cgGYzYYLv3x-lexyI4fjGhsIqJsQCoFnoccgoYqQnhXmsi1Cbeg0MmZyAc17RfmIwiZ9GSJ50KdwxMwTeVbG0WCckUDRRX6Io0UIzZzWB0mXmG8TmWFA-Z12YBd3lJRVS5_eJmX3rXI-lUkAJ66DxnLQ1qw3REYoeqLBiywYvf9e2l4RYWEetTyau9UopZ9UE7W9nhQ3LmRrLtVmMyHLXWQgdx9Z1lt9oi8M5UsXiYWzqZWC1rg3SOipHYS0q1XjUkR2nW-qntmC3DgZffgwYMURTBvQF-UBB8_InNAUFsPfCl47OM5np2BMj5EcF6i8JhL-UqDoIEGqbcJi0aVA-BpI1BOI0gsztc0Rx5jiEY79-cwkp9EqQrx1nKZ_FyxbQfEdJujiCs4r-0C0]--></g></svg>