<?xml version="1.0" encoding="us-ascii" standalone="no"?><svg xmlns="http://www.w3.org/2000/svg" xmlns:xlink="http://www.w3.org/1999/xlink" contentStyleType="text/css" height="343px" preserveAspectRatio="none" style="width:789px;height:343px;background:#FFFFFF;" version="1.1" viewBox="0 0 789 343" width="789px" zoomAndPan="magnify"><defs/><g><line style="stroke:#181818;stroke-width:0.5;stroke-dasharray:5.0,5.0;" x1="30" x2="30" y1="81.4883" y2="262.041"/><line style="stroke:#181818;stroke-width:0.5;stroke-dasharray:5.0,5.0;" x1="415" x2="415" y1="81.4883" y2="262.041"/><line style="stroke:#181818;stroke-width:0.5;stroke-dasharray:5.0,5.0;" x1="742" x2="742" y1="81.4883" y2="262.041"/><text fill="#000000" font-family="sans-serif" font-size="14" lengthAdjust="spacing" textLength="45" x="5" y="78.5352">Admin</text><ellipse cx="30.5" cy="13.5" fill="#E2E2F0" rx="8" ry="8" style="stroke:#181818;stroke-width:0.5;"/><path d="M30.5,21.5 L30.5,48.5 M17.5,29.5 L43.5,29.5 M30.5,48.5 L17.5,63.5 M30.5,48.5 L43.5,63.5 " fill="none" style="stroke:#181818;stroke-width:0.5;"/><text fill="#000000" font-family="sans-serif" font-size="14" lengthAdjust="spacing" textLength="45" x="5" y="274.5762">Admin</text><ellipse cx="30.5" cy="286.0293" fill="#E2E2F0" rx="8" ry="8" style="stroke:#181818;stroke-width:0.5;"/><path d="M30.5,294.0293 L30.5,321.0293 M17.5,302.0293 L43.5,302.0293 M30.5,321.0293 L17.5,336.0293 M30.5,321.0293 L43.5,336.0293 " fill="none" style="stroke:#181818;stroke-width:0.5;"/><rect fill="#E2E2F0" height="30.4883" rx="2.5" ry="2.5" style="stroke:#181818;stroke-width:0.5;" width="123" x="354" y="50"/><text fill="#000000" font-family="sans-serif" font-size="14" lengthAdjust="spacing" textLength="109" x="361" y="70.5352">Backend Service</text><rect fill="#E2E2F0" height="30.4883" rx="2.5" ry="2.5" style="stroke:#181818;stroke-width:0.5;" width="123" x="354" y="261.041"/><text fill="#000000" font-family="sans-serif" font-size="14" lengthAdjust="spacing" textLength="109" x="361" y="281.5762">Backend Service</text><text fill="#000000" font-family="sans-serif" font-size="14" lengthAdjust="spacing" textLength="63" x="708" y="78.5352">Database</text><path d="M724.5,29 C724.5,19 742.5,19 742.5,19 C742.5,19 760.5,19 760.5,29 L760.5,55 C760.5,65 742.5,65 742.5,65 C742.5,65 724.5,65 724.5,55 L724.5,29 " fill="#E2E2F0" style="stroke:#181818;stroke-width:1.5;"/><path d="M724.5,29 C724.5,39 742.5,39 742.5,39 C742.5,39 760.5,39 760.5,29 " fill="none" style="stroke:#181818;stroke-width:1.5;"/><text fill="#000000" font-family="sans-serif" font-size="14" lengthAdjust="spacing" textLength="63" x="708" y="274.5762">Database</text><path d="M724.5,287.5293 C724.5,277.5293 742.5,277.5293 742.5,277.5293 C742.5,277.5293 760.5,277.5293 760.5,287.5293 L760.5,313.5293 C760.5,323.5293 742.5,323.5293 742.5,323.5293 C742.5,323.5293 724.5,323.5293 724.5,313.5293 L724.5,287.5293 " fill="#E2E2F0" style="stroke:#181818;stroke-width:1.5;"/><path d="M724.5,287.5293 C724.5,297.5293 742.5,297.5293 742.5,297.5293 C742.5,297.5293 760.5,297.5293 760.5,287.5293 " fill="none" style="stroke:#181818;stroke-width:1.5;"/><rect fill="#EEEEEE" height="3" style="stroke:#EEEEEE;stroke-width:1.0;" width="782" x="0" y="112.1436"/><line style="stroke:#000000;stroke-width:1.0;" x1="0" x2="782" y1="112.1436" y2="112.1436"/><line style="stroke:#000000;stroke-width:1.0;" x1="0" x2="782" y1="115.1436" y2="115.1436"/><rect fill="#EEEEEE" height="23.3105" style="stroke:#000000;stroke-width:2.0;" width="216" x="283" y="101.4883"/><text fill="#000000" font-family="sans-serif" font-size="13" font-weight="bold" lengthAdjust="spacing" textLength="198" x="289" y="118.0566">Get Medicine Categories Flow</text><polygon fill="#181818" points="403.5,152.1094,413.5,156.1094,403.5,160.1094,407.5,156.1094" style="stroke:#181818;stroke-width:1.0;"/><line style="stroke:#181818;stroke-width:1.0;" x1="30.5" x2="409.5" y1="156.1094" y2="156.1094"/><text fill="#000000" font-family="sans-serif" font-size="13" font-weight="bold" lengthAdjust="spacing" textLength="9" x="37.5" y="151.3672">1</text><text fill="#000000" font-family="sans-serif" font-size="13" lengthAdjust="spacing" textLength="221" x="50.5" y="151.3672">Request to get medicine categories</text><polygon fill="#181818" points="730.5,181.4199,740.5,185.4199,730.5,189.4199,734.5,185.4199" style="stroke:#181818;stroke-width:1.0;"/><line style="stroke:#181818;stroke-width:1.0;" x1="415.5" x2="736.5" y1="185.4199" y2="185.4199"/><text fill="#000000" font-family="sans-serif" font-size="13" font-weight="bold" lengthAdjust="spacing" textLength="9" x="422.5" y="180.6777">2</text><text fill="#000000" font-family="sans-serif" font-size="13" lengthAdjust="spacing" textLength="290" x="435.5" y="180.6777">Query medicine categories with specifications</text><polygon fill="#181818" points="426.5,210.7305,416.5,214.7305,426.5,218.7305,422.5,214.7305" style="stroke:#181818;stroke-width:1.0;"/><line style="stroke:#181818;stroke-width:1.0;" x1="420.5" x2="741.5" y1="214.7305" y2="214.7305"/><text fill="#000000" font-family="sans-serif" font-size="13" font-weight="bold" lengthAdjust="spacing" textLength="9" x="432.5" y="209.9883">3</text><text fill="#000000" font-family="sans-serif" font-size="13" lengthAdjust="spacing" textLength="171" x="445.5" y="209.9883">Return medicine categories</text><polygon fill="#181818" points="41.5,240.041,31.5,244.041,41.5,248.041,37.5,244.041" style="stroke:#181818;stroke-width:1.0;"/><line style="stroke:#181818;stroke-width:1.0;" x1="35.5" x2="414.5" y1="244.041" y2="244.041"/><text fill="#000000" font-family="sans-serif" font-size="13" font-weight="bold" lengthAdjust="spacing" textLength="9" x="47.5" y="239.2988">4</text><text fill="#000000" font-family="sans-serif" font-size="13" lengthAdjust="spacing" textLength="348" x="60.5" y="239.2988">Return success response with medicine categories data</text><!--SRC=[XP1DJiD038NtFiLJzboWKYeHedR50ZY1Cp75QZCJnXugRi-Gaaf8bRhpptl-dip5KopJ89c8WwUCnt7I23OqIzNGpDarwCpHqN4uIXoNzLg_IVxI80sDx3om2Vfk4VH_VKFKjjYBurd6UYaAdjZbaBAAONTAPxGjNRWFsvMnmQjy5Z679nogULhDuMgcDKErzTq6BqNozoqXpkeVi5c2lciTQuf6DUP_d9SSxs6Mc5UnbH3435bihYVbmhaLuFSvFm00]--></g></svg>