<?xml version="1.0" encoding="us-ascii" standalone="no"?><svg xmlns="http://www.w3.org/2000/svg" xmlns:xlink="http://www.w3.org/1999/xlink" contentStyleType="text/css" height="493px" preserveAspectRatio="none" style="width:827px;height:493px;background:#FFFFFF;" version="1.1" viewBox="0 0 827 493" width="827px" zoomAndPan="magnify"><defs/><g><rect fill="none" height="195.1738" style="stroke:#000000;stroke-width:1.5;" width="800" x="10" y="200.4199"/><line style="stroke:#181818;stroke-width:0.5;stroke-dasharray:5.0,5.0;" x1="45" x2="45" y1="81.4883" y2="412.5938"/><line style="stroke:#181818;stroke-width:0.5;stroke-dasharray:5.0,5.0;" x1="474" x2="474" y1="81.4883" y2="412.5938"/><line style="stroke:#181818;stroke-width:0.5;stroke-dasharray:5.0,5.0;" x1="765" x2="765" y1="81.4883" y2="412.5938"/><text fill="#000000" font-family="sans-serif" font-size="14" lengthAdjust="spacing" textLength="45" x="20" y="78.5352">Admin</text><ellipse cx="45.5" cy="13.5" fill="#E2E2F0" rx="8" ry="8" style="stroke:#181818;stroke-width:0.5;"/><path d="M45.5,21.5 L45.5,48.5 M32.5,29.5 L58.5,29.5 M45.5,48.5 L32.5,63.5 M45.5,48.5 L58.5,63.5 " fill="none" style="stroke:#181818;stroke-width:0.5;"/><text fill="#000000" font-family="sans-serif" font-size="14" lengthAdjust="spacing" textLength="45" x="20" y="425.1289">Admin</text><ellipse cx="45.5" cy="436.582" fill="#E2E2F0" rx="8" ry="8" style="stroke:#181818;stroke-width:0.5;"/><path d="M45.5,444.582 L45.5,471.582 M32.5,452.582 L58.5,452.582 M45.5,471.582 L32.5,486.582 M45.5,471.582 L58.5,486.582 " fill="none" style="stroke:#181818;stroke-width:0.5;"/><rect fill="#E2E2F0" height="30.4883" rx="2.5" ry="2.5" style="stroke:#181818;stroke-width:0.5;" width="123" x="413" y="50"/><text fill="#000000" font-family="sans-serif" font-size="14" lengthAdjust="spacing" textLength="109" x="420" y="70.5352">Backend Service</text><rect fill="#E2E2F0" height="30.4883" rx="2.5" ry="2.5" style="stroke:#181818;stroke-width:0.5;" width="123" x="413" y="411.5938"/><text fill="#000000" font-family="sans-serif" font-size="14" lengthAdjust="spacing" textLength="109" x="420" y="432.1289">Backend Service</text><text fill="#000000" font-family="sans-serif" font-size="14" lengthAdjust="spacing" textLength="63" x="731" y="78.5352">Database</text><path d="M747.5,29 C747.5,19 765.5,19 765.5,19 C765.5,19 783.5,19 783.5,29 L783.5,55 C783.5,65 765.5,65 765.5,65 C765.5,65 747.5,65 747.5,55 L747.5,29 " fill="#E2E2F0" style="stroke:#181818;stroke-width:1.5;"/><path d="M747.5,29 C747.5,39 765.5,39 765.5,39 C765.5,39 783.5,39 783.5,29 " fill="none" style="stroke:#181818;stroke-width:1.5;"/><text fill="#000000" font-family="sans-serif" font-size="14" lengthAdjust="spacing" textLength="63" x="731" y="425.1289">Database</text><path d="M747.5,438.082 C747.5,428.082 765.5,428.082 765.5,428.082 C765.5,428.082 783.5,428.082 783.5,438.082 L783.5,464.082 C783.5,474.082 765.5,474.082 765.5,474.082 C765.5,474.082 747.5,474.082 747.5,464.082 L747.5,438.082 " fill="#E2E2F0" style="stroke:#181818;stroke-width:1.5;"/><path d="M747.5,438.082 C747.5,448.082 765.5,448.082 765.5,448.082 C765.5,448.082 783.5,448.082 783.5,438.082 " fill="none" style="stroke:#181818;stroke-width:1.5;"/><rect fill="#EEEEEE" height="3" style="stroke:#EEEEEE;stroke-width:1.0;" width="820" x="0" y="112.1436"/><line style="stroke:#000000;stroke-width:1.0;" x1="0" x2="820" y1="112.1436" y2="112.1436"/><line style="stroke:#000000;stroke-width:1.0;" x1="0" x2="820" y1="115.1436" y2="115.1436"/><rect fill="#EEEEEE" height="23.3105" style="stroke:#000000;stroke-width:2.0;" width="231" x="294.5" y="101.4883"/><text fill="#000000" font-family="sans-serif" font-size="13" font-weight="bold" lengthAdjust="spacing" textLength="213" x="300.5" y="118.0566">Update Medicine Category Flow</text><polygon fill="#181818" points="462.5,152.1094,472.5,156.1094,462.5,160.1094,466.5,156.1094" style="stroke:#181818;stroke-width:1.0;"/><line style="stroke:#181818;stroke-width:1.0;" x1="45.5" x2="468.5" y1="156.1094" y2="156.1094"/><text fill="#000000" font-family="sans-serif" font-size="13" font-weight="bold" lengthAdjust="spacing" textLength="9" x="52.5" y="151.3672">1</text><text fill="#000000" font-family="sans-serif" font-size="13" lengthAdjust="spacing" textLength="233" x="65.5" y="151.3672">Request to update medicine category</text><polygon fill="#181818" points="753.5,181.4199,763.5,185.4199,753.5,189.4199,757.5,185.4199" style="stroke:#181818;stroke-width:1.0;"/><line style="stroke:#181818;stroke-width:1.0;" x1="474.5" x2="759.5" y1="185.4199" y2="185.4199"/><text fill="#000000" font-family="sans-serif" font-size="13" font-weight="bold" lengthAdjust="spacing" textLength="9" x="481.5" y="180.6777">2</text><text fill="#000000" font-family="sans-serif" font-size="13" lengthAdjust="spacing" textLength="213" x="494.5" y="180.6777">Check if medicine category exists</text><path d="M10,200.4199 L72,200.4199 L72,207.7305 L62,217.7305 L10,217.7305 L10,200.4199 " fill="#EEEEEE" style="stroke:#000000;stroke-width:1.5;"/><rect fill="none" height="195.1738" style="stroke:#000000;stroke-width:1.5;" width="800" x="10" y="200.4199"/><text fill="#000000" font-family="sans-serif" font-size="13" font-weight="bold" lengthAdjust="spacing" textLength="17" x="25" y="213.9883">alt</text><a href="medicine category exists" target="_top" title="medicine category exists" xlink:actuate="onRequest" xlink:href="medicine category exists" xlink:show="new" xlink:title="medicine category exists" xlink:type="simple"><text fill="#0000FF" font-family="sans-serif" font-size="11" font-weight="bold" lengthAdjust="spacing" text-decoration="underline" textLength="138" x="87" y="213.0547">medicine category exists</text></a><polygon fill="#181818" points="485.5,235.041,475.5,239.041,485.5,243.041,481.5,239.041" style="stroke:#181818;stroke-width:1.0;"/><line style="stroke:#181818;stroke-width:1.0;" x1="479.5" x2="764.5" y1="239.041" y2="239.041"/><text fill="#000000" font-family="sans-serif" font-size="13" font-weight="bold" lengthAdjust="spacing" textLength="9" x="491.5" y="234.2988">3</text><text fill="#000000" font-family="sans-serif" font-size="13" lengthAdjust="spacing" textLength="160" x="504.5" y="234.2988">Return medicine category</text><polygon fill="#181818" points="753.5,264.3516,763.5,268.3516,753.5,272.3516,757.5,268.3516" style="stroke:#181818;stroke-width:1.0;"/><line style="stroke:#181818;stroke-width:1.0;" x1="474.5" x2="759.5" y1="268.3516" y2="268.3516"/><text fill="#000000" font-family="sans-serif" font-size="13" font-weight="bold" lengthAdjust="spacing" textLength="9" x="481.5" y="263.6094">4</text><text fill="#000000" font-family="sans-serif" font-size="13" lengthAdjust="spacing" textLength="254" x="494.5" y="263.6094">Update medicine category with new data</text><polygon fill="#181818" points="485.5,293.6621,475.5,297.6621,485.5,301.6621,481.5,297.6621" style="stroke:#181818;stroke-width:1.0;"/><line style="stroke:#181818;stroke-width:1.0;" x1="479.5" x2="764.5" y1="297.6621" y2="297.6621"/><text fill="#000000" font-family="sans-serif" font-size="13" font-weight="bold" lengthAdjust="spacing" textLength="9" x="491.5" y="292.9199">5</text><text fill="#000000" font-family="sans-serif" font-size="13" lengthAdjust="spacing" textLength="82" x="504.5" y="292.9199">Save success</text><polygon fill="#181818" points="56.5,322.9727,46.5,326.9727,56.5,330.9727,52.5,326.9727" style="stroke:#181818;stroke-width:1.0;"/><line style="stroke:#181818;stroke-width:1.0;" x1="50.5" x2="473.5" y1="326.9727" y2="326.9727"/><text fill="#000000" font-family="sans-serif" font-size="13" font-weight="bold" lengthAdjust="spacing" textLength="9" x="62.5" y="322.2305">6</text><text fill="#000000" font-family="sans-serif" font-size="13" lengthAdjust="spacing" textLength="392" x="75.5" y="322.2305">Return success response with updated medicine category data</text><line style="stroke:#000000;stroke-width:1.0;stroke-dasharray:2.0,2.0;" x1="10" x2="810" y1="335.9727" y2="335.9727"/><polygon fill="#181818" points="485.5,354.2832,475.5,358.2832,485.5,362.2832,481.5,358.2832" style="stroke:#181818;stroke-width:1.0;"/><line style="stroke:#181818;stroke-width:1.0;" x1="479.5" x2="764.5" y1="358.2832" y2="358.2832"/><text fill="#000000" font-family="sans-serif" font-size="13" font-weight="bold" lengthAdjust="spacing" textLength="9" x="491.5" y="353.541">7</text><text fill="#000000" font-family="sans-serif" font-size="13" lengthAdjust="spacing" textLength="193" x="504.5" y="353.541">Return category not exist error</text><polygon fill="#181818" points="56.5,383.5938,46.5,387.5938,56.5,391.5938,52.5,387.5938" style="stroke:#181818;stroke-width:1.0;"/><line style="stroke:#181818;stroke-width:1.0;" x1="50.5" x2="473.5" y1="387.5938" y2="387.5938"/><text fill="#000000" font-family="sans-serif" font-size="13" font-weight="bold" lengthAdjust="spacing" textLength="9" x="62.5" y="382.8516">8</text><text fill="#000000" font-family="sans-serif" font-size="13" lengthAdjust="spacing" textLength="136" x="75.5" y="382.8516">Return error response</text><!--SRC=[VL3BJiCm4BpxAqQ-ymELWaGQSUD2rHFYuDeBjPhOmLutyFUupaEYfDtJhdPcPtPKOkzITw0WXDBi0vvCPnrKX2oT5BqARBNjbMFKIf_8cRAU-ns5izKaXL6i3YeIche0cccMGbGLzdtU4rx8v6EEiCtJfmy_U6xzWAeIe_33uooomIjz9OeCzaWZkvlPUcABsKNcDVK6soFf4-p7VoJesqQEGhMCDtbhBTy5SkKF_XhX5DoA-WLxvM1_moa6oqSu6d39QKrbfyw4cBIc6Aylbt0M8nC8WMBlNKwyt1upCYlIHP7QI7UUMy3EynW6A0GVxZifaCM7o9XV]--></g></svg>