<?xml version="1.0" encoding="us-ascii" standalone="no"?><svg xmlns="http://www.w3.org/2000/svg" xmlns:xlink="http://www.w3.org/1999/xlink" contentStyleType="text/css" height="493px" preserveAspectRatio="none" style="width:515px;height:493px;background:#FFFFFF;" version="1.1" viewBox="0 0 515 493" width="515px" zoomAndPan="magnify"><defs/><g><rect fill="none" height="195.1738" style="stroke:#000000;stroke-width:1.5;" width="488" x="10" y="200.4199"/><line style="stroke:#181818;stroke-width:0.5;stroke-dasharray:5.0,5.0;" x1="45" x2="45" y1="81.4883" y2="412.5938"/><line style="stroke:#181818;stroke-width:0.5;stroke-dasharray:5.0,5.0;" x1="264" x2="264" y1="81.4883" y2="412.5938"/><line style="stroke:#181818;stroke-width:0.5;stroke-dasharray:5.0,5.0;" x1="453" x2="453" y1="81.4883" y2="412.5938"/><text fill="#000000" font-family="sans-serif" font-size="14" lengthAdjust="spacing" textLength="45" x="20" y="78.5352">Admin</text><ellipse cx="45.5" cy="13.5" fill="#E2E2F0" rx="8" ry="8" style="stroke:#181818;stroke-width:0.5;"/><path d="M45.5,21.5 L45.5,48.5 M32.5,29.5 L58.5,29.5 M45.5,48.5 L32.5,63.5 M45.5,48.5 L58.5,63.5 " fill="none" style="stroke:#181818;stroke-width:0.5;"/><text fill="#000000" font-family="sans-serif" font-size="14" lengthAdjust="spacing" textLength="45" x="20" y="425.1289">Admin</text><ellipse cx="45.5" cy="436.582" fill="#E2E2F0" rx="8" ry="8" style="stroke:#181818;stroke-width:0.5;"/><path d="M45.5,444.582 L45.5,471.582 M32.5,452.582 L58.5,452.582 M45.5,471.582 L32.5,486.582 M45.5,471.582 L58.5,486.582 " fill="none" style="stroke:#181818;stroke-width:0.5;"/><rect fill="#E2E2F0" height="30.4883" rx="2.5" ry="2.5" style="stroke:#181818;stroke-width:0.5;" width="123" x="203" y="50"/><text fill="#000000" font-family="sans-serif" font-size="14" lengthAdjust="spacing" textLength="109" x="210" y="70.5352">Backend Service</text><rect fill="#E2E2F0" height="30.4883" rx="2.5" ry="2.5" style="stroke:#181818;stroke-width:0.5;" width="123" x="203" y="411.5938"/><text fill="#000000" font-family="sans-serif" font-size="14" lengthAdjust="spacing" textLength="109" x="210" y="432.1289">Backend Service</text><text fill="#000000" font-family="sans-serif" font-size="14" lengthAdjust="spacing" textLength="63" x="419" y="78.5352">Database</text><path d="M435.5,29 C435.5,19 453.5,19 453.5,19 C453.5,19 471.5,19 471.5,29 L471.5,55 C471.5,65 453.5,65 453.5,65 C453.5,65 435.5,65 435.5,55 L435.5,29 " fill="#E2E2F0" style="stroke:#181818;stroke-width:1.5;"/><path d="M435.5,29 C435.5,39 453.5,39 453.5,39 C453.5,39 471.5,39 471.5,29 " fill="none" style="stroke:#181818;stroke-width:1.5;"/><text fill="#000000" font-family="sans-serif" font-size="14" lengthAdjust="spacing" textLength="63" x="419" y="425.1289">Database</text><path d="M435.5,438.082 C435.5,428.082 453.5,428.082 453.5,428.082 C453.5,428.082 471.5,428.082 471.5,438.082 L471.5,464.082 C471.5,474.082 453.5,474.082 453.5,474.082 C453.5,474.082 435.5,474.082 435.5,464.082 L435.5,438.082 " fill="#E2E2F0" style="stroke:#181818;stroke-width:1.5;"/><path d="M435.5,438.082 C435.5,448.082 453.5,448.082 453.5,448.082 C453.5,448.082 471.5,448.082 471.5,438.082 " fill="none" style="stroke:#181818;stroke-width:1.5;"/><rect fill="#EEEEEE" height="3" style="stroke:#EEEEEE;stroke-width:1.0;" width="508" x="0" y="112.1436"/><line style="stroke:#000000;stroke-width:1.0;" x1="0" x2="508" y1="112.1436" y2="112.1436"/><line style="stroke:#000000;stroke-width:1.0;" x1="0" x2="508" y1="115.1436" y2="115.1436"/><rect fill="#EEEEEE" height="23.3105" style="stroke:#000000;stroke-width:2.0;" width="174" x="167" y="101.4883"/><text fill="#000000" font-family="sans-serif" font-size="13" font-weight="bold" lengthAdjust="spacing" textLength="156" x="173" y="118.0566">Medicine Creation Flow</text><polygon fill="#181818" points="252.5,152.1094,262.5,156.1094,252.5,160.1094,256.5,156.1094" style="stroke:#181818;stroke-width:1.0;"/><line style="stroke:#181818;stroke-width:1.0;" x1="45.5" x2="258.5" y1="156.1094" y2="156.1094"/><text fill="#000000" font-family="sans-serif" font-size="13" font-weight="bold" lengthAdjust="spacing" textLength="9" x="52.5" y="151.3672">1</text><text fill="#000000" font-family="sans-serif" font-size="13" lengthAdjust="spacing" textLength="152" x="65.5" y="151.3672">Create medicine request</text><polygon fill="#181818" points="441.5,181.4199,451.5,185.4199,441.5,189.4199,445.5,185.4199" style="stroke:#181818;stroke-width:1.0;"/><line style="stroke:#181818;stroke-width:1.0;" x1="264.5" x2="447.5" y1="185.4199" y2="185.4199"/><text fill="#000000" font-family="sans-serif" font-size="13" font-weight="bold" lengthAdjust="spacing" textLength="9" x="271.5" y="180.6777">2</text><text fill="#000000" font-family="sans-serif" font-size="13" lengthAdjust="spacing" textLength="152" x="284.5" y="180.6777">Check if category exists</text><path d="M10,200.4199 L72,200.4199 L72,207.7305 L62,217.7305 L10,217.7305 L10,200.4199 " fill="#EEEEEE" style="stroke:#000000;stroke-width:1.5;"/><rect fill="none" height="195.1738" style="stroke:#000000;stroke-width:1.5;" width="488" x="10" y="200.4199"/><text fill="#000000" font-family="sans-serif" font-size="13" font-weight="bold" lengthAdjust="spacing" textLength="17" x="25" y="213.9883">alt</text><a href="category not found" target="_top" title="category not found" xlink:actuate="onRequest" xlink:href="category not found" xlink:show="new" xlink:title="category not found" xlink:type="simple"><text fill="#0000FF" font-family="sans-serif" font-size="11" font-weight="bold" lengthAdjust="spacing" text-decoration="underline" textLength="106" x="87" y="213.0547">category not found</text></a><polygon fill="#181818" points="275.5,235.041,265.5,239.041,275.5,243.041,271.5,239.041" style="stroke:#181818;stroke-width:1.0;"/><line style="stroke:#181818;stroke-width:1.0;" x1="269.5" x2="452.5" y1="239.041" y2="239.041"/><text fill="#000000" font-family="sans-serif" font-size="13" font-weight="bold" lengthAdjust="spacing" textLength="9" x="281.5" y="234.2988">3</text><text fill="#000000" font-family="sans-serif" font-size="13" lengthAdjust="spacing" textLength="120" x="294.5" y="234.2988">category not found</text><polygon fill="#181818" points="56.5,264.3516,46.5,268.3516,56.5,272.3516,52.5,268.3516" style="stroke:#181818;stroke-width:1.0;"/><line style="stroke:#181818;stroke-width:1.0;" x1="50.5" x2="263.5" y1="268.3516" y2="268.3516"/><text fill="#000000" font-family="sans-serif" font-size="13" font-weight="bold" lengthAdjust="spacing" textLength="9" x="62.5" y="263.6094">4</text><text fill="#000000" font-family="sans-serif" font-size="13" lengthAdjust="spacing" textLength="182" x="75.5" y="263.6094">Error: CATEGORY_NOT_EXIST</text><line style="stroke:#000000;stroke-width:1.0;stroke-dasharray:2.0,2.0;" x1="10" x2="498" y1="277.3516" y2="277.3516"/><polygon fill="#181818" points="275.5,295.6621,265.5,299.6621,275.5,303.6621,271.5,299.6621" style="stroke:#181818;stroke-width:1.0;"/><line style="stroke:#181818;stroke-width:1.0;" x1="269.5" x2="452.5" y1="299.6621" y2="299.6621"/><text fill="#000000" font-family="sans-serif" font-size="13" font-weight="bold" lengthAdjust="spacing" textLength="9" x="281.5" y="294.9199">5</text><text fill="#000000" font-family="sans-serif" font-size="13" lengthAdjust="spacing" textLength="96" x="294.5" y="294.9199">category exists</text><polygon fill="#181818" points="441.5,324.9727,451.5,328.9727,441.5,332.9727,445.5,328.9727" style="stroke:#181818;stroke-width:1.0;"/><line style="stroke:#181818;stroke-width:1.0;" x1="264.5" x2="447.5" y1="328.9727" y2="328.9727"/><text fill="#000000" font-family="sans-serif" font-size="13" font-weight="bold" lengthAdjust="spacing" textLength="9" x="271.5" y="324.2305">6</text><text fill="#000000" font-family="sans-serif" font-size="13" lengthAdjust="spacing" textLength="89" x="284.5" y="324.2305">Save medicine</text><polygon fill="#181818" points="275.5,354.2832,265.5,358.2832,275.5,362.2832,271.5,358.2832" style="stroke:#181818;stroke-width:1.0;"/><line style="stroke:#181818;stroke-width:1.0;" x1="269.5" x2="452.5" y1="358.2832" y2="358.2832"/><text fill="#000000" font-family="sans-serif" font-size="13" font-weight="bold" lengthAdjust="spacing" textLength="9" x="281.5" y="353.541">7</text><text fill="#000000" font-family="sans-serif" font-size="13" lengthAdjust="spacing" textLength="82" x="294.5" y="353.541">save success</text><polygon fill="#181818" points="56.5,383.5938,46.5,387.5938,56.5,391.5938,52.5,387.5938" style="stroke:#181818;stroke-width:1.0;"/><line style="stroke:#181818;stroke-width:1.0;" x1="50.5" x2="263.5" y1="387.5938" y2="387.5938"/><text fill="#000000" font-family="sans-serif" font-size="13" font-weight="bold" lengthAdjust="spacing" textLength="9" x="62.5" y="382.8516">8</text><text fill="#000000" font-family="sans-serif" font-size="13" lengthAdjust="spacing" textLength="165" x="75.5" y="382.8516">Medicine creation success</text><!--SRC=[VP3BJWCn34Nt_Weh-_v0fK7gC0DY0PMOMO0Ggjp4XQWpIPj7WRydJPjIyShASKxklJR5O4qSb-m0I0RhSAP6RP0yYbm9s90BMkeDcO0roJKRbPzBtR7RQSa250LQacTiwWmqnxi0g2gyPPLK3EEbOmhQ6hmQx1jM5HmS9nT5VNf06CVonV4siWzGB1FRr0bxPRb6lKAPw1VhFf3VjGyUQ0Zu94vTOmEkR3HAF0Eca_ATk_taCdLcbXDEiNNEkcGxwzlh-VtZucxUBzg7cwu77Zp_AtqCzartFqH7kwz9VzFmUy17ATdxFuATTYlBRWkVk4y0]--></g></svg>