<?xml version="1.0" encoding="us-ascii" standalone="no"?><svg xmlns="http://www.w3.org/2000/svg" xmlns:xlink="http://www.w3.org/1999/xlink" contentStyleType="text/css" height="644px" preserveAspectRatio="none" style="width:783px;height:644px;background:#FFFFFF;" version="1.1" viewBox="0 0 783 644" width="783px" zoomAndPan="magnify"><defs/><g><rect fill="none" height="345.7266" style="stroke:#000000;stroke-width:1.5;" width="756" x="10" y="200.4199"/><rect fill="none" height="195.1738" style="stroke:#000000;stroke-width:1.5;" width="736" x="20" y="343.9727"/><line style="stroke:#181818;stroke-width:0.5;stroke-dasharray:5.0,5.0;" x1="55" x2="55" y1="81.4883" y2="563.1465"/><line style="stroke:#181818;stroke-width:0.5;stroke-dasharray:5.0,5.0;" x1="348" x2="348" y1="81.4883" y2="563.1465"/><line style="stroke:#181818;stroke-width:0.5;stroke-dasharray:5.0,5.0;" x1="711" x2="711" y1="81.4883" y2="563.1465"/><text fill="#000000" font-family="sans-serif" font-size="14" lengthAdjust="spacing" textLength="45" x="30" y="78.5352">Admin</text><ellipse cx="55.5" cy="13.5" fill="#E2E2F0" rx="8" ry="8" style="stroke:#181818;stroke-width:0.5;"/><path d="M55.5,21.5 L55.5,48.5 M42.5,29.5 L68.5,29.5 M55.5,48.5 L42.5,63.5 M55.5,48.5 L68.5,63.5 " fill="none" style="stroke:#181818;stroke-width:0.5;"/><text fill="#000000" font-family="sans-serif" font-size="14" lengthAdjust="spacing" textLength="45" x="30" y="575.6816">Admin</text><ellipse cx="55.5" cy="587.1348" fill="#E2E2F0" rx="8" ry="8" style="stroke:#181818;stroke-width:0.5;"/><path d="M55.5,595.1348 L55.5,622.1348 M42.5,603.1348 L68.5,603.1348 M55.5,622.1348 L42.5,637.1348 M55.5,622.1348 L68.5,637.1348 " fill="none" style="stroke:#181818;stroke-width:0.5;"/><rect fill="#E2E2F0" height="30.4883" rx="2.5" ry="2.5" style="stroke:#181818;stroke-width:0.5;" width="123" x="287" y="50"/><text fill="#000000" font-family="sans-serif" font-size="14" lengthAdjust="spacing" textLength="109" x="294" y="70.5352">Backend Service</text><rect fill="#E2E2F0" height="30.4883" rx="2.5" ry="2.5" style="stroke:#181818;stroke-width:0.5;" width="123" x="287" y="562.1465"/><text fill="#000000" font-family="sans-serif" font-size="14" lengthAdjust="spacing" textLength="109" x="294" y="582.6816">Backend Service</text><text fill="#000000" font-family="sans-serif" font-size="14" lengthAdjust="spacing" textLength="63" x="677" y="78.5352">Database</text><path d="M693.5,29 C693.5,19 711.5,19 711.5,19 C711.5,19 729.5,19 729.5,29 L729.5,55 C729.5,65 711.5,65 711.5,65 C711.5,65 693.5,65 693.5,55 L693.5,29 " fill="#E2E2F0" style="stroke:#181818;stroke-width:1.5;"/><path d="M693.5,29 C693.5,39 711.5,39 711.5,39 C711.5,39 729.5,39 729.5,29 " fill="none" style="stroke:#181818;stroke-width:1.5;"/><text fill="#000000" font-family="sans-serif" font-size="14" lengthAdjust="spacing" textLength="63" x="677" y="575.6816">Database</text><path d="M693.5,588.6348 C693.5,578.6348 711.5,578.6348 711.5,578.6348 C711.5,578.6348 729.5,578.6348 729.5,588.6348 L729.5,614.6348 C729.5,624.6348 711.5,624.6348 711.5,624.6348 C711.5,624.6348 693.5,624.6348 693.5,614.6348 L693.5,588.6348 " fill="#E2E2F0" style="stroke:#181818;stroke-width:1.5;"/><path d="M693.5,588.6348 C693.5,598.6348 711.5,598.6348 711.5,598.6348 C711.5,598.6348 729.5,598.6348 729.5,588.6348 " fill="none" style="stroke:#181818;stroke-width:1.5;"/><rect fill="#EEEEEE" height="3" style="stroke:#EEEEEE;stroke-width:1.0;" width="776" x="0" y="112.1436"/><line style="stroke:#000000;stroke-width:1.0;" x1="0" x2="776" y1="112.1436" y2="112.1436"/><line style="stroke:#000000;stroke-width:1.0;" x1="0" x2="776" y1="115.1436" y2="115.1436"/><rect fill="#EEEEEE" height="23.3105" style="stroke:#000000;stroke-width:2.0;" width="160" x="308" y="101.4883"/><text fill="#000000" font-family="sans-serif" font-size="13" font-weight="bold" lengthAdjust="spacing" textLength="142" x="314" y="118.0566">Delete Medicine Flow</text><polygon fill="#181818" points="336.5,152.1094,346.5,156.1094,336.5,160.1094,340.5,156.1094" style="stroke:#181818;stroke-width:1.0;"/><line style="stroke:#181818;stroke-width:1.0;" x1="55.5" x2="342.5" y1="156.1094" y2="156.1094"/><text fill="#000000" font-family="sans-serif" font-size="13" font-weight="bold" lengthAdjust="spacing" textLength="9" x="62.5" y="151.3672">1</text><text fill="#000000" font-family="sans-serif" font-size="13" lengthAdjust="spacing" textLength="256" x="75.5" y="151.3672">Delete medicine request with medicineId</text><polygon fill="#181818" points="699.5,181.4199,709.5,185.4199,699.5,189.4199,703.5,185.4199" style="stroke:#181818;stroke-width:1.0;"/><line style="stroke:#181818;stroke-width:1.0;" x1="348.5" x2="705.5" y1="185.4199" y2="185.4199"/><text fill="#000000" font-family="sans-serif" font-size="13" font-weight="bold" lengthAdjust="spacing" textLength="9" x="355.5" y="180.6777">2</text><text fill="#000000" font-family="sans-serif" font-size="13" lengthAdjust="spacing" textLength="180" x="368.5" y="180.6777">Find medicine by medicineId</text><path d="M10,200.4199 L72,200.4199 L72,207.7305 L62,217.7305 L10,217.7305 L10,200.4199 " fill="#EEEEEE" style="stroke:#000000;stroke-width:1.5;"/><rect fill="none" height="345.7266" style="stroke:#000000;stroke-width:1.5;" width="756" x="10" y="200.4199"/><text fill="#000000" font-family="sans-serif" font-size="13" font-weight="bold" lengthAdjust="spacing" textLength="17" x="25" y="213.9883">alt</text><a href="medicine not found" target="_top" title="medicine not found" xlink:actuate="onRequest" xlink:href="medicine not found" xlink:show="new" xlink:title="medicine not found" xlink:type="simple"><text fill="#0000FF" font-family="sans-serif" font-size="11" font-weight="bold" lengthAdjust="spacing" text-decoration="underline" textLength="110" x="87" y="213.0547">medicine not found</text></a><polygon fill="#181818" points="359.5,235.041,349.5,239.041,359.5,243.041,355.5,239.041" style="stroke:#181818;stroke-width:1.0;"/><line style="stroke:#181818;stroke-width:1.0;" x1="353.5" x2="710.5" y1="239.041" y2="239.041"/><text fill="#000000" font-family="sans-serif" font-size="13" font-weight="bold" lengthAdjust="spacing" textLength="9" x="365.5" y="234.2988">3</text><text fill="#000000" font-family="sans-serif" font-size="13" lengthAdjust="spacing" textLength="123" x="378.5" y="234.2988">medicine not found</text><polygon fill="#181818" points="66.5,264.3516,56.5,268.3516,66.5,272.3516,62.5,268.3516" style="stroke:#181818;stroke-width:1.0;"/><line style="stroke:#181818;stroke-width:1.0;" x1="60.5" x2="347.5" y1="268.3516" y2="268.3516"/><text fill="#000000" font-family="sans-serif" font-size="13" font-weight="bold" lengthAdjust="spacing" textLength="9" x="72.5" y="263.6094">4</text><text fill="#000000" font-family="sans-serif" font-size="13" lengthAdjust="spacing" textLength="176" x="85.5" y="263.6094">Error: MEDICINE_NOT_EXIST</text><line style="stroke:#000000;stroke-width:1.0;stroke-dasharray:2.0,2.0;" x1="10" x2="766" y1="277.3516" y2="277.3516"/><polygon fill="#181818" points="359.5,295.6621,349.5,299.6621,359.5,303.6621,355.5,299.6621" style="stroke:#181818;stroke-width:1.0;"/><line style="stroke:#181818;stroke-width:1.0;" x1="353.5" x2="710.5" y1="299.6621" y2="299.6621"/><text fill="#000000" font-family="sans-serif" font-size="13" font-weight="bold" lengthAdjust="spacing" textLength="9" x="365.5" y="294.9199">5</text><text fill="#000000" font-family="sans-serif" font-size="13" lengthAdjust="spacing" textLength="98" x="378.5" y="294.9199">medicine found</text><polygon fill="#181818" points="699.5,324.9727,709.5,328.9727,699.5,332.9727,703.5,328.9727" style="stroke:#181818;stroke-width:1.0;"/><line style="stroke:#181818;stroke-width:1.0;" x1="348.5" x2="705.5" y1="328.9727" y2="328.9727"/><text fill="#000000" font-family="sans-serif" font-size="13" font-weight="bold" lengthAdjust="spacing" textLength="9" x="355.5" y="324.2305">6</text><text fill="#000000" font-family="sans-serif" font-size="13" lengthAdjust="spacing" textLength="326" x="368.5" y="324.2305">Check if medicine is referenced in purchase records</text><path d="M20,343.9727 L82,343.9727 L82,351.2832 L72,361.2832 L20,361.2832 L20,343.9727 " fill="#EEEEEE" style="stroke:#000000;stroke-width:1.5;"/><rect fill="none" height="195.1738" style="stroke:#000000;stroke-width:1.5;" width="736" x="20" y="343.9727"/><text fill="#000000" font-family="sans-serif" font-size="13" font-weight="bold" lengthAdjust="spacing" textLength="17" x="35" y="357.541">alt</text><a href="medicine is in use" target="_top" title="medicine is in use" xlink:actuate="onRequest" xlink:href="medicine is in use" xlink:show="new" xlink:title="medicine is in use" xlink:type="simple"><text fill="#0000FF" font-family="sans-serif" font-size="11" font-weight="bold" lengthAdjust="spacing" text-decoration="underline" textLength="103" x="97" y="356.6074">medicine is in use</text></a><polygon fill="#181818" points="359.5,378.5938,349.5,382.5938,359.5,386.5938,355.5,382.5938" style="stroke:#181818;stroke-width:1.0;"/><line style="stroke:#181818;stroke-width:1.0;" x1="353.5" x2="710.5" y1="382.5938" y2="382.5938"/><text fill="#000000" font-family="sans-serif" font-size="13" font-weight="bold" lengthAdjust="spacing" textLength="9" x="365.5" y="377.8516">7</text><text fill="#000000" font-family="sans-serif" font-size="13" lengthAdjust="spacing" textLength="103" x="378.5" y="377.8516">Reference exists</text><polygon fill="#181818" points="66.5,407.9043,56.5,411.9043,66.5,415.9043,62.5,411.9043" style="stroke:#181818;stroke-width:1.0;"/><line style="stroke:#181818;stroke-width:1.0;" x1="60.5" x2="347.5" y1="411.9043" y2="411.9043"/><text fill="#000000" font-family="sans-serif" font-size="13" font-weight="bold" lengthAdjust="spacing" textLength="9" x="72.5" y="407.1621">8</text><text fill="#000000" font-family="sans-serif" font-size="13" lengthAdjust="spacing" textLength="168" x="85.5" y="407.1621">Error: MED_IS_BEING_USED</text><line style="stroke:#000000;stroke-width:1.0;stroke-dasharray:2.0,2.0;" x1="20" x2="756" y1="420.9043" y2="420.9043"/><polygon fill="#181818" points="359.5,439.2148,349.5,443.2148,359.5,447.2148,355.5,443.2148" style="stroke:#181818;stroke-width:1.0;"/><line style="stroke:#181818;stroke-width:1.0;" x1="353.5" x2="710.5" y1="443.2148" y2="443.2148"/><text fill="#000000" font-family="sans-serif" font-size="13" font-weight="bold" lengthAdjust="spacing" textLength="9" x="365.5" y="438.4727">9</text><text fill="#000000" font-family="sans-serif" font-size="13" lengthAdjust="spacing" textLength="128" x="378.5" y="438.4727">No references found</text><polygon fill="#181818" points="699.5,468.5254,709.5,472.5254,699.5,476.5254,703.5,472.5254" style="stroke:#181818;stroke-width:1.0;"/><line style="stroke:#181818;stroke-width:1.0;" x1="348.5" x2="705.5" y1="472.5254" y2="472.5254"/><text fill="#000000" font-family="sans-serif" font-size="13" font-weight="bold" lengthAdjust="spacing" textLength="18" x="355.5" y="467.7832">10</text><text fill="#000000" font-family="sans-serif" font-size="13" lengthAdjust="spacing" textLength="145" x="377.5" y="467.7832">Delete medicine record</text><polygon fill="#181818" points="359.5,497.8359,349.5,501.8359,359.5,505.8359,355.5,501.8359" style="stroke:#181818;stroke-width:1.0;"/><line style="stroke:#181818;stroke-width:1.0;" x1="353.5" x2="710.5" y1="501.8359" y2="501.8359"/><text fill="#000000" font-family="sans-serif" font-size="13" font-weight="bold" lengthAdjust="spacing" textLength="18" x="365.5" y="497.0938">11</text><text fill="#000000" font-family="sans-serif" font-size="13" lengthAdjust="spacing" textLength="92" x="387.5" y="497.0938">delete success</text><polygon fill="#181818" points="66.5,527.1465,56.5,531.1465,66.5,535.1465,62.5,531.1465" style="stroke:#181818;stroke-width:1.0;"/><line style="stroke:#181818;stroke-width:1.0;" x1="60.5" x2="347.5" y1="531.1465" y2="531.1465"/><text fill="#000000" font-family="sans-serif" font-size="13" font-weight="bold" lengthAdjust="spacing" textLength="18" x="72.5" y="526.4043">12</text><text fill="#000000" font-family="sans-serif" font-size="13" lengthAdjust="spacing" textLength="152" x="94.5" y="526.4043">Medicine delete success</text><!--SRC=[VPBTQeD048Nlzoa6x_i2WeKQJV4Y5ceAXL9aipkI9MOttP-cVVjEDjL8OoC8e_lDcND6UV16X_q6BMDSU6FXGUwL1kuWYLN23jnw9TI1Qmyv5plKCXuFTOFsKmbCcEIURxX3AF885B_F2MDP1WNsw15MA4bC8onxSuGiO-TvT_U3TZgG-u6q-17GUJWglntVLf8D1gYto5DOAgh7fitt5EMzXxTaFDJ6GsU2biax0xh8yDJ0DHUfoRneEeNIMcDJM9L5jQZgigsVrctvMZLhXht3czApigSOYosA7QZkWYf7A-ZGeXOeWPPr25PiJuksA8oLBihyYKXDH0RQ_ZdYZ9VdGHJmIpdlHkvMqBPgshoiwiVsfIcBs39cdPbHcujtDmaz4_pwiv_2_ISipxGBWeHlMHz_k9aE8XdTFm00]--></g></svg>