<?xml version="1.0" encoding="us-ascii" standalone="no"?><svg xmlns="http://www.w3.org/2000/svg" xmlns:xlink="http://www.w3.org/1999/xlink" contentStyleType="text/css" height="427px" preserveAspectRatio="none" style="width:825px;height:427px;background:#FFFFFF;" version="1.1" viewBox="0 0 825 427" width="825px" zoomAndPan="magnify"><defs/><g><line style="stroke:#181818;stroke-width:0.5;stroke-dasharray:5.0,5.0;" x1="45" x2="45" y1="81.4883" y2="346.6621"/><line style="stroke:#181818;stroke-width:0.5;stroke-dasharray:5.0,5.0;" x1="392" x2="392" y1="81.4883" y2="346.6621"/><line style="stroke:#181818;stroke-width:0.5;stroke-dasharray:5.0,5.0;" x1="778" x2="778" y1="81.4883" y2="346.6621"/><text fill="#000000" font-family="sans-serif" font-size="14" lengthAdjust="spacing" textLength="75" x="5" y="78.5352">Pharmacist</text><ellipse cx="45.5" cy="13.5" fill="#E2E2F0" rx="8" ry="8" style="stroke:#181818;stroke-width:0.5;"/><path d="M45.5,21.5 L45.5,48.5 M32.5,29.5 L58.5,29.5 M45.5,48.5 L32.5,63.5 M45.5,48.5 L58.5,63.5 " fill="none" style="stroke:#181818;stroke-width:0.5;"/><text fill="#000000" font-family="sans-serif" font-size="14" lengthAdjust="spacing" textLength="75" x="5" y="359.1973">Pharmacist</text><ellipse cx="45.5" cy="370.6504" fill="#E2E2F0" rx="8" ry="8" style="stroke:#181818;stroke-width:0.5;"/><path d="M45.5,378.6504 L45.5,405.6504 M32.5,386.6504 L58.5,386.6504 M45.5,405.6504 L32.5,420.6504 M45.5,405.6504 L58.5,420.6504 " fill="none" style="stroke:#181818;stroke-width:0.5;"/><rect fill="#E2E2F0" height="30.4883" rx="2.5" ry="2.5" style="stroke:#181818;stroke-width:0.5;" width="123" x="331" y="50"/><text fill="#000000" font-family="sans-serif" font-size="14" lengthAdjust="spacing" textLength="109" x="338" y="70.5352">Backend Service</text><rect fill="#E2E2F0" height="30.4883" rx="2.5" ry="2.5" style="stroke:#181818;stroke-width:0.5;" width="123" x="331" y="345.6621"/><text fill="#000000" font-family="sans-serif" font-size="14" lengthAdjust="spacing" textLength="109" x="338" y="366.1973">Backend Service</text><text fill="#000000" font-family="sans-serif" font-size="14" lengthAdjust="spacing" textLength="63" x="744" y="78.5352">Database</text><path d="M760.5,29 C760.5,19 778.5,19 778.5,19 C778.5,19 796.5,19 796.5,29 L796.5,55 C796.5,65 778.5,65 778.5,65 C778.5,65 760.5,65 760.5,55 L760.5,29 " fill="#E2E2F0" style="stroke:#181818;stroke-width:1.5;"/><path d="M760.5,29 C760.5,39 778.5,39 778.5,39 C778.5,39 796.5,39 796.5,29 " fill="none" style="stroke:#181818;stroke-width:1.5;"/><text fill="#000000" font-family="sans-serif" font-size="14" lengthAdjust="spacing" textLength="63" x="744" y="359.1973">Database</text><path d="M760.5,372.1504 C760.5,362.1504 778.5,362.1504 778.5,362.1504 C778.5,362.1504 796.5,362.1504 796.5,372.1504 L796.5,398.1504 C796.5,408.1504 778.5,408.1504 778.5,408.1504 C778.5,408.1504 760.5,408.1504 760.5,398.1504 L760.5,372.1504 " fill="#E2E2F0" style="stroke:#181818;stroke-width:1.5;"/><path d="M760.5,372.1504 C760.5,382.1504 778.5,382.1504 778.5,382.1504 C778.5,382.1504 796.5,382.1504 796.5,372.1504 " fill="none" style="stroke:#181818;stroke-width:1.5;"/><rect fill="#EEEEEE" height="3" style="stroke:#EEEEEE;stroke-width:1.0;" width="818" x="0" y="112.1436"/><line style="stroke:#000000;stroke-width:1.0;" x1="0" x2="818" y1="112.1436" y2="112.1436"/><line style="stroke:#000000;stroke-width:1.0;" x1="0" x2="818" y1="115.1436" y2="115.1436"/><rect fill="#EEEEEE" height="23.3105" style="stroke:#000000;stroke-width:2.0;" width="160" x="329" y="101.4883"/><text fill="#000000" font-family="sans-serif" font-size="13" font-weight="bold" lengthAdjust="spacing" textLength="142" x="335" y="118.0566">Fetch Medicines Flow</text><polygon fill="#181818" points="380.5,152.1094,390.5,156.1094,380.5,160.1094,384.5,156.1094" style="stroke:#181818;stroke-width:1.0;"/><line style="stroke:#181818;stroke-width:1.0;" x1="45.5" x2="386.5" y1="156.1094" y2="156.1094"/><text fill="#000000" font-family="sans-serif" font-size="13" font-weight="bold" lengthAdjust="spacing" textLength="9" x="52.5" y="151.3672">1</text><text fill="#000000" font-family="sans-serif" font-size="13" lengthAdjust="spacing" textLength="310" x="65.5" y="151.3672">Get medicines request with filters and pagination</text><line style="stroke:#181818;stroke-width:1.0;" x1="392.5" x2="434.5" y1="185.4199" y2="185.4199"/><line style="stroke:#181818;stroke-width:1.0;" x1="434.5" x2="434.5" y1="185.4199" y2="198.4199"/><line style="stroke:#181818;stroke-width:1.0;" x1="393.5" x2="434.5" y1="198.4199" y2="198.4199"/><polygon fill="#181818" points="403.5,194.4199,393.5,198.4199,403.5,202.4199,399.5,198.4199" style="stroke:#181818;stroke-width:1.0;"/><text fill="#000000" font-family="sans-serif" font-size="13" font-weight="bold" lengthAdjust="spacing" textLength="9" x="399.5" y="180.6777">2</text><text fill="#000000" font-family="sans-serif" font-size="13" lengthAdjust="spacing" textLength="359" x="412.5" y="180.6777">Build specification from filters (name, category, quantity)</text><polygon fill="#181818" points="766.5,223.7305,776.5,227.7305,766.5,231.7305,770.5,227.7305" style="stroke:#181818;stroke-width:1.0;"/><line style="stroke:#181818;stroke-width:1.0;" x1="392.5" x2="772.5" y1="227.7305" y2="227.7305"/><text fill="#000000" font-family="sans-serif" font-size="13" font-weight="bold" lengthAdjust="spacing" textLength="9" x="399.5" y="222.9883">3</text><text fill="#000000" font-family="sans-serif" font-size="13" lengthAdjust="spacing" textLength="308" x="412.5" y="222.9883">Query medicines with specification and pageable</text><polygon fill="#181818" points="403.5,253.041,393.5,257.041,403.5,261.041,399.5,257.041" style="stroke:#181818;stroke-width:1.0;"/><line style="stroke:#181818;stroke-width:1.0;" x1="397.5" x2="777.5" y1="257.041" y2="257.041"/><text fill="#000000" font-family="sans-serif" font-size="13" font-weight="bold" lengthAdjust="spacing" textLength="9" x="409.5" y="252.2988">4</text><text fill="#000000" font-family="sans-serif" font-size="13" lengthAdjust="spacing" textLength="199" x="422.5" y="252.2988">Return paginated medicines list</text><line style="stroke:#181818;stroke-width:1.0;" x1="392.5" x2="434.5" y1="286.3516" y2="286.3516"/><line style="stroke:#181818;stroke-width:1.0;" x1="434.5" x2="434.5" y1="286.3516" y2="299.3516"/><line style="stroke:#181818;stroke-width:1.0;" x1="393.5" x2="434.5" y1="299.3516" y2="299.3516"/><polygon fill="#181818" points="403.5,295.3516,393.5,299.3516,403.5,303.3516,399.5,299.3516" style="stroke:#181818;stroke-width:1.0;"/><text fill="#000000" font-family="sans-serif" font-size="13" font-weight="bold" lengthAdjust="spacing" textLength="9" x="399.5" y="281.6094">5</text><text fill="#000000" font-family="sans-serif" font-size="13" lengthAdjust="spacing" textLength="255" x="412.5" y="281.6094">Map medicines to MedicineResponse list</text><polygon fill="#181818" points="56.5,324.6621,46.5,328.6621,56.5,332.6621,52.5,328.6621" style="stroke:#181818;stroke-width:1.0;"/><line style="stroke:#181818;stroke-width:1.0;" x1="50.5" x2="391.5" y1="328.6621" y2="328.6621"/><text fill="#000000" font-family="sans-serif" font-size="13" font-weight="bold" lengthAdjust="spacing" textLength="9" x="62.5" y="323.9199">6</text><text fill="#000000" font-family="sans-serif" font-size="13" lengthAdjust="spacing" textLength="240" x="75.5" y="323.9199">Return medicines with pagination info</text><!--SRC=[RP11QiCm44NtEiNWLGhf1GBkmfXq5KZJ4upbSJpKbXHfbE3RLvZOLaDt6lJd_pSVerWJnuQyKgZ5UZZtw4VK70GmGB6DXNBeXJKxD08LwXyoxQnPtj_axwofK2qADXW8wceMrC-vKAeiuKYYUpXHcxmC1JWEzW5bgRBazuybu02V932kOa-tI4dnOEcXuq781y0Kxl3A1eMjKGjFxb957be8ZZHth6STTDwEgyVEu4XxI5zqjNxQmoscErccjzolhWxm5SbF6TACyjVv2KJO3AHI2Jd9XIHwi_1IcpaDwVP_wK_eCfdOjRqB1MTDQlfrTIjpJNmXtWe3Dftz1G00]--></g></svg>