<?xml version="1.0" encoding="us-ascii" standalone="no"?><svg xmlns="http://www.w3.org/2000/svg" xmlns:xlink="http://www.w3.org/1999/xlink" contentStyleType="text/css" height="578px" preserveAspectRatio="none" style="width:783px;height:578px;background:#FFFFFF;" version="1.1" viewBox="0 0 783 578" width="783px" zoomAndPan="magnify"><defs/><g><rect fill="none" height="279.7949" style="stroke:#000000;stroke-width:1.5;" width="756" x="10" y="200.4199"/><line style="stroke:#181818;stroke-width:0.5;stroke-dasharray:5.0,5.0;" x1="45" x2="45" y1="81.4883" y2="497.2148"/><line style="stroke:#181818;stroke-width:0.5;stroke-dasharray:5.0,5.0;" x1="342" x2="342" y1="81.4883" y2="497.2148"/><line style="stroke:#181818;stroke-width:0.5;stroke-dasharray:5.0,5.0;" x1="721" x2="721" y1="81.4883" y2="497.2148"/><text fill="#000000" font-family="sans-serif" font-size="14" lengthAdjust="spacing" textLength="45" x="20" y="78.5352">Admin</text><ellipse cx="45.5" cy="13.5" fill="#E2E2F0" rx="8" ry="8" style="stroke:#181818;stroke-width:0.5;"/><path d="M45.5,21.5 L45.5,48.5 M32.5,29.5 L58.5,29.5 M45.5,48.5 L32.5,63.5 M45.5,48.5 L58.5,63.5 " fill="none" style="stroke:#181818;stroke-width:0.5;"/><text fill="#000000" font-family="sans-serif" font-size="14" lengthAdjust="spacing" textLength="45" x="20" y="509.75">Admin</text><ellipse cx="45.5" cy="521.2031" fill="#E2E2F0" rx="8" ry="8" style="stroke:#181818;stroke-width:0.5;"/><path d="M45.5,529.2031 L45.5,556.2031 M32.5,537.2031 L58.5,537.2031 M45.5,556.2031 L32.5,571.2031 M45.5,556.2031 L58.5,571.2031 " fill="none" style="stroke:#181818;stroke-width:0.5;"/><rect fill="#E2E2F0" height="30.4883" rx="2.5" ry="2.5" style="stroke:#181818;stroke-width:0.5;" width="123" x="281" y="50"/><text fill="#000000" font-family="sans-serif" font-size="14" lengthAdjust="spacing" textLength="109" x="288" y="70.5352">Backend Service</text><rect fill="#E2E2F0" height="30.4883" rx="2.5" ry="2.5" style="stroke:#181818;stroke-width:0.5;" width="123" x="281" y="496.2148"/><text fill="#000000" font-family="sans-serif" font-size="14" lengthAdjust="spacing" textLength="109" x="288" y="516.75">Backend Service</text><text fill="#000000" font-family="sans-serif" font-size="14" lengthAdjust="spacing" textLength="63" x="687" y="78.5352">Database</text><path d="M703.5,29 C703.5,19 721.5,19 721.5,19 C721.5,19 739.5,19 739.5,29 L739.5,55 C739.5,65 721.5,65 721.5,65 C721.5,65 703.5,65 703.5,55 L703.5,29 " fill="#E2E2F0" style="stroke:#181818;stroke-width:1.5;"/><path d="M703.5,29 C703.5,39 721.5,39 721.5,39 C721.5,39 739.5,39 739.5,29 " fill="none" style="stroke:#181818;stroke-width:1.5;"/><text fill="#000000" font-family="sans-serif" font-size="14" lengthAdjust="spacing" textLength="63" x="687" y="509.75">Database</text><path d="M703.5,522.7031 C703.5,512.7031 721.5,512.7031 721.5,512.7031 C721.5,512.7031 739.5,512.7031 739.5,522.7031 L739.5,548.7031 C739.5,558.7031 721.5,558.7031 721.5,558.7031 C721.5,558.7031 703.5,558.7031 703.5,548.7031 L703.5,522.7031 " fill="#E2E2F0" style="stroke:#181818;stroke-width:1.5;"/><path d="M703.5,522.7031 C703.5,532.7031 721.5,532.7031 721.5,532.7031 C721.5,532.7031 739.5,532.7031 739.5,522.7031 " fill="none" style="stroke:#181818;stroke-width:1.5;"/><rect fill="#EEEEEE" height="3" style="stroke:#EEEEEE;stroke-width:1.0;" width="776" x="0" y="112.1436"/><line style="stroke:#000000;stroke-width:1.0;" x1="0" x2="776" y1="112.1436" y2="112.1436"/><line style="stroke:#000000;stroke-width:1.0;" x1="0" x2="776" y1="115.1436" y2="115.1436"/><rect fill="#EEEEEE" height="23.3105" style="stroke:#000000;stroke-width:2.0;" width="166" x="305" y="101.4883"/><text fill="#000000" font-family="sans-serif" font-size="13" font-weight="bold" lengthAdjust="spacing" textLength="148" x="311" y="118.0566">Update Medicine Flow</text><polygon fill="#181818" points="330.5,152.1094,340.5,156.1094,330.5,160.1094,334.5,156.1094" style="stroke:#181818;stroke-width:1.0;"/><line style="stroke:#181818;stroke-width:1.0;" x1="45.5" x2="336.5" y1="156.1094" y2="156.1094"/><text fill="#000000" font-family="sans-serif" font-size="13" font-weight="bold" lengthAdjust="spacing" textLength="9" x="52.5" y="151.3672">1</text><text fill="#000000" font-family="sans-serif" font-size="13" lengthAdjust="spacing" textLength="260" x="65.5" y="151.3672">Update medicine request with medicineId</text><polygon fill="#181818" points="709.5,181.4199,719.5,185.4199,709.5,189.4199,713.5,185.4199" style="stroke:#181818;stroke-width:1.0;"/><line style="stroke:#181818;stroke-width:1.0;" x1="342.5" x2="715.5" y1="185.4199" y2="185.4199"/><text fill="#000000" font-family="sans-serif" font-size="13" font-weight="bold" lengthAdjust="spacing" textLength="9" x="349.5" y="180.6777">2</text><text fill="#000000" font-family="sans-serif" font-size="13" lengthAdjust="spacing" textLength="180" x="362.5" y="180.6777">Find medicine by medicineId</text><path d="M10,200.4199 L72,200.4199 L72,207.7305 L62,217.7305 L10,217.7305 L10,200.4199 " fill="#EEEEEE" style="stroke:#000000;stroke-width:1.5;"/><rect fill="none" height="279.7949" style="stroke:#000000;stroke-width:1.5;" width="756" x="10" y="200.4199"/><text fill="#000000" font-family="sans-serif" font-size="13" font-weight="bold" lengthAdjust="spacing" textLength="17" x="25" y="213.9883">alt</text><a href="medicine not found" target="_top" title="medicine not found" xlink:actuate="onRequest" xlink:href="medicine not found" xlink:show="new" xlink:title="medicine not found" xlink:type="simple"><text fill="#0000FF" font-family="sans-serif" font-size="11" font-weight="bold" lengthAdjust="spacing" text-decoration="underline" textLength="110" x="87" y="213.0547">medicine not found</text></a><polygon fill="#181818" points="353.5,235.041,343.5,239.041,353.5,243.041,349.5,239.041" style="stroke:#181818;stroke-width:1.0;"/><line style="stroke:#181818;stroke-width:1.0;" x1="347.5" x2="720.5" y1="239.041" y2="239.041"/><text fill="#000000" font-family="sans-serif" font-size="13" font-weight="bold" lengthAdjust="spacing" textLength="9" x="359.5" y="234.2988">3</text><text fill="#000000" font-family="sans-serif" font-size="13" lengthAdjust="spacing" textLength="123" x="372.5" y="234.2988">medicine not found</text><polygon fill="#181818" points="56.5,264.3516,46.5,268.3516,56.5,272.3516,52.5,268.3516" style="stroke:#181818;stroke-width:1.0;"/><line style="stroke:#181818;stroke-width:1.0;" x1="50.5" x2="341.5" y1="268.3516" y2="268.3516"/><text fill="#000000" font-family="sans-serif" font-size="13" font-weight="bold" lengthAdjust="spacing" textLength="9" x="62.5" y="263.6094">4</text><text fill="#000000" font-family="sans-serif" font-size="13" lengthAdjust="spacing" textLength="176" x="75.5" y="263.6094">Error: MEDICINE_NOT_EXIST</text><line style="stroke:#000000;stroke-width:1.0;stroke-dasharray:2.0,2.0;" x1="10" x2="766" y1="277.3516" y2="277.3516"/><polygon fill="#181818" points="353.5,295.6621,343.5,299.6621,353.5,303.6621,349.5,299.6621" style="stroke:#181818;stroke-width:1.0;"/><line style="stroke:#181818;stroke-width:1.0;" x1="347.5" x2="720.5" y1="299.6621" y2="299.6621"/><text fill="#000000" font-family="sans-serif" font-size="13" font-weight="bold" lengthAdjust="spacing" textLength="9" x="359.5" y="294.9199">5</text><text fill="#000000" font-family="sans-serif" font-size="13" lengthAdjust="spacing" textLength="98" x="372.5" y="294.9199">medicine found</text><line style="stroke:#181818;stroke-width:1.0;" x1="342.5" x2="384.5" y1="328.9727" y2="328.9727"/><line style="stroke:#181818;stroke-width:1.0;" x1="384.5" x2="384.5" y1="328.9727" y2="341.9727"/><line style="stroke:#181818;stroke-width:1.0;" x1="343.5" x2="384.5" y1="341.9727" y2="341.9727"/><polygon fill="#181818" points="353.5,337.9727,343.5,341.9727,353.5,345.9727,349.5,341.9727" style="stroke:#181818;stroke-width:1.0;"/><text fill="#000000" font-family="sans-serif" font-size="13" font-weight="bold" lengthAdjust="spacing" textLength="9" x="349.5" y="324.2305">6</text><text fill="#000000" font-family="sans-serif" font-size="13" lengthAdjust="spacing" textLength="352" x="362.5" y="324.2305">Map UpdateMedicineRequest to existing Medicine entity</text><line style="stroke:#181818;stroke-width:1.0;" x1="342.5" x2="384.5" y1="371.2832" y2="371.2832"/><line style="stroke:#181818;stroke-width:1.0;" x1="384.5" x2="384.5" y1="371.2832" y2="384.2832"/><line style="stroke:#181818;stroke-width:1.0;" x1="343.5" x2="384.5" y1="384.2832" y2="384.2832"/><polygon fill="#181818" points="353.5,380.2832,343.5,384.2832,353.5,388.2832,349.5,384.2832" style="stroke:#181818;stroke-width:1.0;"/><text fill="#000000" font-family="sans-serif" font-size="13" font-weight="bold" lengthAdjust="spacing" textLength="9" x="349.5" y="366.541">7</text><text fill="#000000" font-family="sans-serif" font-size="13" lengthAdjust="spacing" textLength="212" x="362.5" y="366.541">Set updated_by and updated_date</text><polygon fill="#181818" points="709.5,409.5938,719.5,413.5938,709.5,417.5938,713.5,413.5938" style="stroke:#181818;stroke-width:1.0;"/><line style="stroke:#181818;stroke-width:1.0;" x1="342.5" x2="715.5" y1="413.5938" y2="413.5938"/><text fill="#000000" font-family="sans-serif" font-size="13" font-weight="bold" lengthAdjust="spacing" textLength="9" x="349.5" y="408.8516">8</text><text fill="#000000" font-family="sans-serif" font-size="13" lengthAdjust="spacing" textLength="144" x="362.5" y="408.8516">Save updated medicine</text><polygon fill="#181818" points="353.5,438.9043,343.5,442.9043,353.5,446.9043,349.5,442.9043" style="stroke:#181818;stroke-width:1.0;"/><line style="stroke:#181818;stroke-width:1.0;" x1="347.5" x2="720.5" y1="442.9043" y2="442.9043"/><text fill="#000000" font-family="sans-serif" font-size="13" font-weight="bold" lengthAdjust="spacing" textLength="9" x="359.5" y="438.1621">9</text><text fill="#000000" font-family="sans-serif" font-size="13" lengthAdjust="spacing" textLength="82" x="372.5" y="438.1621">save success</text><polygon fill="#181818" points="56.5,468.2148,46.5,472.2148,56.5,476.2148,52.5,472.2148" style="stroke:#181818;stroke-width:1.0;"/><line style="stroke:#181818;stroke-width:1.0;" x1="50.5" x2="341.5" y1="472.2148" y2="472.2148"/><text fill="#000000" font-family="sans-serif" font-size="13" font-weight="bold" lengthAdjust="spacing" textLength="18" x="62.5" y="467.4727">10</text><text fill="#000000" font-family="sans-serif" font-size="13" lengthAdjust="spacing" textLength="157" x="84.5" y="467.4727">Medicine update success</text><!--SRC=[VP3HIiCm58RlynI7tli2XGhETj2BJh0J195nsXndi4jgShgvjpVhcbXqCnVX9ESxV_xyEB3HmwuXAmIsR2pSoPtIW0wIiKf4ZvPLgthK30jiFqZBiHtgcknUjPG8YOmDEe9yCGBvT4w4o39uwdsVe2BfnJJ1iZC7o39nVk_cDcYdWTm5qjBdG8xXeFWztfPI10D-Db-ai5I-ZaFDSOvYn_2InAOs36zcq39v5U2NDpmty9SRgTbxe-aK2ckDJQ4gylA-N1MRrSDwKpoNzLfGv-XVwOko4Qkmds88UJrE8R01-bAEbTx-P4cQ5H-lgjN4C8ngSkDpGTyEnzF-U-uKPerx2b0qVUb3xWIweMt9kIifHPjdlKXxwXi0]--></g></svg>