<?xml version="1.0" encoding="us-ascii" standalone="no"?><svg xmlns="http://www.w3.org/2000/svg" xmlns:xlink="http://www.w3.org/1999/xlink" contentStyleType="text/css" height="1137px" preserveAspectRatio="none" style="width:753px;height:1137px;background:#FFFFFF;" version="1.1" viewBox="0 0 753 1137" width="753px" zoomAndPan="magnify"><defs/><g><rect fill="none" height="278.4395" style="stroke:#000000;stroke-width:1.5;" width="392" x="344.5" y="298.041"/><rect fill="none" height="159.1973" style="stroke:#000000;stroke-width:1.5;" width="342.5" x="354.5" y="380.9727"/><rect fill="none" height="146.1973" style="stroke:#000000;stroke-width:1.5;" width="382" x="354.5" y="763.0332"/><line style="stroke:#181818;stroke-width:0.5;stroke-dasharray:5.0,5.0;" x1="41" x2="41" y1="81.4883" y2="1056.4727"/><line style="stroke:#181818;stroke-width:0.5;stroke-dasharray:5.0,5.0;" x1="124" x2="124" y1="81.4883" y2="1056.4727"/><line style="stroke:#181818;stroke-width:0.5;stroke-dasharray:5.0,5.0;" x1="425.5" x2="425.5" y1="81.4883" y2="1056.4727"/><line style="stroke:#181818;stroke-width:0.5;stroke-dasharray:5.0,5.0;" x1="691.5" x2="691.5" y1="81.4883" y2="1056.4727"/><text fill="#000000" font-family="sans-serif" font-size="14" lengthAdjust="spacing" textLength="67" x="5" y="78.5352">Customer</text><ellipse cx="41.5" cy="13.5" fill="#E2E2F0" rx="8" ry="8" style="stroke:#181818;stroke-width:0.5;"/><path d="M41.5,21.5 L41.5,48.5 M28.5,29.5 L54.5,29.5 M41.5,48.5 L28.5,63.5 M41.5,48.5 L54.5,63.5 " fill="none" style="stroke:#181818;stroke-width:0.5;"/><text fill="#000000" font-family="sans-serif" font-size="14" lengthAdjust="spacing" textLength="67" x="5" y="1069.0078">Customer</text><ellipse cx="41.5" cy="1080.4609" fill="#E2E2F0" rx="8" ry="8" style="stroke:#181818;stroke-width:0.5;"/><path d="M41.5,1088.4609 L41.5,1115.4609 M28.5,1096.4609 L54.5,1096.4609 M41.5,1115.4609 L28.5,1130.4609 M41.5,1115.4609 L54.5,1130.4609 " fill="none" style="stroke:#181818;stroke-width:0.5;"/><text fill="#000000" font-family="sans-serif" font-size="14" lengthAdjust="spacing" textLength="66" x="88" y="78.5352">Employee</text><ellipse cx="124" cy="13.5" fill="#E2E2F0" rx="8" ry="8" style="stroke:#181818;stroke-width:0.5;"/><path d="M124,21.5 L124,48.5 M111,29.5 L137,29.5 M124,48.5 L111,63.5 M124,48.5 L137,63.5 " fill="none" style="stroke:#181818;stroke-width:0.5;"/><text fill="#000000" font-family="sans-serif" font-size="14" lengthAdjust="spacing" textLength="66" x="88" y="1069.0078">Employee</text><ellipse cx="124" cy="1080.4609" fill="#E2E2F0" rx="8" ry="8" style="stroke:#181818;stroke-width:0.5;"/><path d="M124,1088.4609 L124,1115.4609 M111,1096.4609 L137,1096.4609 M124,1115.4609 L111,1130.4609 M124,1115.4609 L137,1130.4609 " fill="none" style="stroke:#181818;stroke-width:0.5;"/><rect fill="#E2E2F0" height="30.4883" rx="2.5" ry="2.5" style="stroke:#181818;stroke-width:0.5;" width="123" x="364.5" y="50"/><text fill="#000000" font-family="sans-serif" font-size="14" lengthAdjust="spacing" textLength="109" x="371.5" y="70.5352">Backend Service</text><rect fill="#E2E2F0" height="30.4883" rx="2.5" ry="2.5" style="stroke:#181818;stroke-width:0.5;" width="123" x="364.5" y="1055.4727"/><text fill="#000000" font-family="sans-serif" font-size="14" lengthAdjust="spacing" textLength="109" x="371.5" y="1076.0078">Backend Service</text><text fill="#000000" font-family="sans-serif" font-size="14" lengthAdjust="spacing" textLength="63" x="657.5" y="78.5352">Database</text><path d="M674,29 C674,19 692,19 692,19 C692,19 710,19 710,29 L710,55 C710,65 692,65 692,65 C692,65 674,65 674,55 L674,29 " fill="#E2E2F0" style="stroke:#181818;stroke-width:1.5;"/><path d="M674,29 C674,39 692,39 692,39 C692,39 710,39 710,29 " fill="none" style="stroke:#181818;stroke-width:1.5;"/><text fill="#000000" font-family="sans-serif" font-size="14" lengthAdjust="spacing" textLength="63" x="657.5" y="1069.0078">Database</text><path d="M674,1081.9609 C674,1071.9609 692,1071.9609 692,1071.9609 C692,1071.9609 710,1071.9609 710,1081.9609 L710,1107.9609 C710,1117.9609 692,1117.9609 692,1117.9609 C692,1117.9609 674,1117.9609 674,1107.9609 L674,1081.9609 " fill="#E2E2F0" style="stroke:#181818;stroke-width:1.5;"/><path d="M674,1081.9609 C674,1091.9609 692,1091.9609 692,1091.9609 C692,1091.9609 710,1091.9609 710,1081.9609 " fill="none" style="stroke:#181818;stroke-width:1.5;"/><rect fill="#EEEEEE" height="3" style="stroke:#EEEEEE;stroke-width:1.0;" width="746.5" x="0" y="112.1436"/><line style="stroke:#000000;stroke-width:1.0;" x1="0" x2="746.5" y1="112.1436" y2="112.1436"/><line style="stroke:#000000;stroke-width:1.0;" x1="0" x2="746.5" y1="115.1436" y2="115.1436"/><rect fill="#EEEEEE" height="23.3105" style="stroke:#000000;stroke-width:2.0;" width="127" x="309.75" y="101.4883"/><text fill="#000000" font-family="sans-serif" font-size="13" font-weight="bold" lengthAdjust="spacing" textLength="109" x="315.75" y="118.0566">Create Sale Flow</text><polygon fill="#181818" points="414,152.1094,424,156.1094,414,160.1094,418,156.1094" style="stroke:#181818;stroke-width:1.0;"/><line style="stroke:#181818;stroke-width:1.0;" x1="124" x2="420" y1="156.1094" y2="156.1094"/><text fill="#000000" font-family="sans-serif" font-size="13" font-weight="bold" lengthAdjust="spacing" textLength="9" x="131" y="151.3672">1</text><text fill="#000000" font-family="sans-serif" font-size="13" lengthAdjust="spacing" textLength="265" x="144" y="151.3672">Request to create sale (CreateSaleRequest)</text><line style="stroke:#181818;stroke-width:1.0;" x1="426" x2="468" y1="185.4199" y2="185.4199"/><line style="stroke:#181818;stroke-width:1.0;" x1="468" x2="468" y1="185.4199" y2="198.4199"/><line style="stroke:#181818;stroke-width:1.0;" x1="427" x2="468" y1="198.4199" y2="198.4199"/><polygon fill="#181818" points="437,194.4199,427,198.4199,437,202.4199,433,198.4199" style="stroke:#181818;stroke-width:1.0;"/><text fill="#000000" font-family="sans-serif" font-size="13" font-weight="bold" lengthAdjust="spacing" textLength="9" x="433" y="180.6777">2</text><text fill="#000000" font-family="sans-serif" font-size="13" lengthAdjust="spacing" textLength="140" x="446" y="180.6777">Get current time (now)</text><line style="stroke:#181818;stroke-width:1.0;" x1="426" x2="468" y1="227.7305" y2="227.7305"/><line style="stroke:#181818;stroke-width:1.0;" x1="468" x2="468" y1="227.7305" y2="240.7305"/><line style="stroke:#181818;stroke-width:1.0;" x1="427" x2="468" y1="240.7305" y2="240.7305"/><polygon fill="#181818" points="437,236.7305,427,240.7305,437,244.7305,433,240.7305" style="stroke:#181818;stroke-width:1.0;"/><text fill="#000000" font-family="sans-serif" font-size="13" font-weight="bold" lengthAdjust="spacing" textLength="9" x="433" y="222.9883">3</text><text fill="#000000" font-family="sans-serif" font-size="13" lengthAdjust="spacing" textLength="231" x="446" y="222.9883">Map CreateSaleRequest to Sale entity</text><line style="stroke:#181818;stroke-width:1.0;" x1="426" x2="468" y1="270.041" y2="270.041"/><line style="stroke:#181818;stroke-width:1.0;" x1="468" x2="468" y1="270.041" y2="283.041"/><line style="stroke:#181818;stroke-width:1.0;" x1="427" x2="468" y1="283.041" y2="283.041"/><polygon fill="#181818" points="437,279.041,427,283.041,437,287.041,433,283.041" style="stroke:#181818;stroke-width:1.0;"/><text fill="#000000" font-family="sans-serif" font-size="13" font-weight="bold" lengthAdjust="spacing" textLength="9" x="433" y="265.2988">4</text><text fill="#000000" font-family="sans-serif" font-size="13" lengthAdjust="spacing" textLength="188" x="446" y="265.2988">Map saleItems to SaleItem list</text><path d="M344.5,298.041 L406.5,298.041 L406.5,305.3516 L396.5,315.3516 L344.5,315.3516 L344.5,298.041 " fill="#EEEEEE" style="stroke:#000000;stroke-width:1.5;"/><rect fill="none" height="278.4395" style="stroke:#000000;stroke-width:1.5;" width="392" x="344.5" y="298.041"/><text fill="#000000" font-family="sans-serif" font-size="13" font-weight="bold" lengthAdjust="spacing" textLength="17" x="359.5" y="311.6094">alt</text><text fill="#000000" font-family="sans-serif" font-size="11" font-weight="bold" lengthAdjust="spacing" textLength="133" x="421.5" y="310.6758">[Customer ID provided]</text><polygon fill="#181818" points="680,332.6621,690,336.6621,680,340.6621,684,336.6621" style="stroke:#181818;stroke-width:1.0;"/><line style="stroke:#181818;stroke-width:1.0;" x1="426" x2="686" y1="336.6621" y2="336.6621"/><text fill="#000000" font-family="sans-serif" font-size="13" font-weight="bold" lengthAdjust="spacing" textLength="9" x="433" y="331.9199">5</text><text fill="#000000" font-family="sans-serif" font-size="13" lengthAdjust="spacing" textLength="127" x="446" y="331.9199">Find customer by ID</text><polygon fill="#181818" points="437,361.9727,427,365.9727,437,369.9727,433,365.9727" style="stroke:#181818;stroke-width:1.0;"/><line style="stroke:#181818;stroke-width:1.0;" x1="431" x2="691" y1="365.9727" y2="365.9727"/><text fill="#000000" font-family="sans-serif" font-size="13" font-weight="bold" lengthAdjust="spacing" textLength="9" x="443" y="361.2305">6</text><text fill="#000000" font-family="sans-serif" font-size="13" lengthAdjust="spacing" textLength="135" x="456" y="361.2305">Return customer data</text><path d="M354.5,380.9727 L416.5,380.9727 L416.5,388.2832 L406.5,398.2832 L354.5,398.2832 L354.5,380.9727 " fill="#EEEEEE" style="stroke:#000000;stroke-width:1.5;"/><rect fill="none" height="159.1973" style="stroke:#000000;stroke-width:1.5;" width="342.5" x="354.5" y="380.9727"/><text fill="#000000" font-family="sans-serif" font-size="13" font-weight="bold" lengthAdjust="spacing" textLength="17" x="369.5" y="394.541">alt</text><text fill="#000000" font-family="sans-serif" font-size="11" font-weight="bold" lengthAdjust="spacing" textLength="67" x="431.5" y="393.6074">[Use points]</text><line style="stroke:#181818;stroke-width:1.0;" x1="426" x2="468" y1="419.5938" y2="419.5938"/><line style="stroke:#181818;stroke-width:1.0;" x1="468" x2="468" y1="419.5938" y2="432.5938"/><line style="stroke:#181818;stroke-width:1.0;" x1="427" x2="468" y1="432.5938" y2="432.5938"/><polygon fill="#181818" points="437,428.5938,427,432.5938,437,436.5938,433,432.5938" style="stroke:#181818;stroke-width:1.0;"/><text fill="#000000" font-family="sans-serif" font-size="13" font-weight="bold" lengthAdjust="spacing" textLength="9" x="433" y="414.8516">7</text><text fill="#000000" font-family="sans-serif" font-size="13" lengthAdjust="spacing" textLength="206" x="446" y="414.8516">Deduct points from totalAmount</text><line style="stroke:#181818;stroke-width:1.0;" x1="426" x2="468" y1="461.9043" y2="461.9043"/><line style="stroke:#181818;stroke-width:1.0;" x1="468" x2="468" y1="461.9043" y2="474.9043"/><line style="stroke:#181818;stroke-width:1.0;" x1="427" x2="468" y1="474.9043" y2="474.9043"/><polygon fill="#181818" points="437,470.9043,427,474.9043,437,478.9043,433,474.9043" style="stroke:#181818;stroke-width:1.0;"/><text fill="#000000" font-family="sans-serif" font-size="13" font-weight="bold" lengthAdjust="spacing" textLength="9" x="433" y="457.1621">8</text><text fill="#000000" font-family="sans-serif" font-size="13" lengthAdjust="spacing" textLength="155" x="446" y="457.1621">Set customer points to 0</text><line style="stroke:#000000;stroke-width:1.0;stroke-dasharray:2.0,2.0;" x1="354.5" x2="697" y1="483.9043" y2="483.9043"/><text fill="#000000" font-family="sans-serif" font-size="11" font-weight="bold" lengthAdjust="spacing" textLength="101" x="359.5" y="494.5391">[Not using points]</text><line style="stroke:#181818;stroke-width:1.0;" x1="426" x2="468" y1="519.1699" y2="519.1699"/><line style="stroke:#181818;stroke-width:1.0;" x1="468" x2="468" y1="519.1699" y2="532.1699"/><line style="stroke:#181818;stroke-width:1.0;" x1="427" x2="468" y1="532.1699" y2="532.1699"/><polygon fill="#181818" points="437,528.1699,427,532.1699,437,536.1699,433,532.1699" style="stroke:#181818;stroke-width:1.0;"/><text fill="#000000" font-family="sans-serif" font-size="13" font-weight="bold" lengthAdjust="spacing" textLength="9" x="433" y="514.4277">9</text><text fill="#000000" font-family="sans-serif" font-size="13" lengthAdjust="spacing" textLength="239" x="446" y="514.4277">Calculate and update customer points</text><polygon fill="#181818" points="680,564.4805,690,568.4805,680,572.4805,684,568.4805" style="stroke:#181818;stroke-width:1.0;"/><line style="stroke:#181818;stroke-width:1.0;" x1="426" x2="686" y1="568.4805" y2="568.4805"/><text fill="#000000" font-family="sans-serif" font-size="13" font-weight="bold" lengthAdjust="spacing" textLength="18" x="433" y="563.7383">10</text><text fill="#000000" font-family="sans-serif" font-size="13" lengthAdjust="spacing" textLength="146" x="455" y="563.7383">Save updated customer</text><line style="stroke:#181818;stroke-width:1.0;" x1="426" x2="468" y1="604.791" y2="604.791"/><line style="stroke:#181818;stroke-width:1.0;" x1="468" x2="468" y1="604.791" y2="617.791"/><line style="stroke:#181818;stroke-width:1.0;" x1="427" x2="468" y1="617.791" y2="617.791"/><polygon fill="#181818" points="437,613.791,427,617.791,437,621.791,433,617.791" style="stroke:#181818;stroke-width:1.0;"/><text fill="#000000" font-family="sans-serif" font-size="13" font-weight="bold" lengthAdjust="spacing" textLength="18" x="433" y="600.0488">11</text><text fill="#000000" font-family="sans-serif" font-size="13" lengthAdjust="spacing" textLength="141" x="455" y="600.0488">Calculate totalAmount</text><polygon fill="#181818" points="680,643.1016,690,647.1016,680,651.1016,684,647.1016" style="stroke:#181818;stroke-width:1.0;"/><line style="stroke:#181818;stroke-width:1.0;" x1="426" x2="686" y1="647.1016" y2="647.1016"/><text fill="#000000" font-family="sans-serif" font-size="13" font-weight="bold" lengthAdjust="spacing" textLength="18" x="433" y="642.3594">12</text><text fill="#000000" font-family="sans-serif" font-size="13" lengthAdjust="spacing" textLength="97" x="455" y="642.3594">Save sale entity</text><line style="stroke:#181818;stroke-width:1.0;" x1="426" x2="468" y1="676.4121" y2="676.4121"/><line style="stroke:#181818;stroke-width:1.0;" x1="468" x2="468" y1="676.4121" y2="689.4121"/><line style="stroke:#181818;stroke-width:1.0;" x1="427" x2="468" y1="689.4121" y2="689.4121"/><polygon fill="#181818" points="437,685.4121,427,689.4121,437,693.4121,433,689.4121" style="stroke:#181818;stroke-width:1.0;"/><text fill="#000000" font-family="sans-serif" font-size="13" font-weight="bold" lengthAdjust="spacing" textLength="18" x="433" y="671.6699">13</text><text fill="#000000" font-family="sans-serif" font-size="13" lengthAdjust="spacing" textLength="191" x="455" y="671.6699">Prepare inventory request map</text><polygon fill="#181818" points="680,714.7227,690,718.7227,680,722.7227,684,718.7227" style="stroke:#181818;stroke-width:1.0;"/><line style="stroke:#181818;stroke-width:1.0;" x1="426" x2="686" y1="718.7227" y2="718.7227"/><text fill="#000000" font-family="sans-serif" font-size="13" font-weight="bold" lengthAdjust="spacing" textLength="18" x="433" y="713.9805">14</text><text fill="#000000" font-family="sans-serif" font-size="13" lengthAdjust="spacing" textLength="134" x="455" y="713.9805">Find inventory by IDs</text><polygon fill="#181818" points="437,744.0332,427,748.0332,437,752.0332,433,748.0332" style="stroke:#181818;stroke-width:1.0;"/><line style="stroke:#181818;stroke-width:1.0;" x1="431" x2="691" y1="748.0332" y2="748.0332"/><text fill="#000000" font-family="sans-serif" font-size="13" font-weight="bold" lengthAdjust="spacing" textLength="18" x="443" y="743.291">15</text><text fill="#000000" font-family="sans-serif" font-size="13" lengthAdjust="spacing" textLength="135" x="465" y="743.291">Return inventory data</text><path d="M354.5,763.0332 L416.5,763.0332 L416.5,770.3438 L406.5,780.3438 L354.5,780.3438 L354.5,763.0332 " fill="#EEEEEE" style="stroke:#000000;stroke-width:1.5;"/><rect fill="none" height="146.1973" style="stroke:#000000;stroke-width:1.5;" width="382" x="354.5" y="763.0332"/><text fill="#000000" font-family="sans-serif" font-size="13" font-weight="bold" lengthAdjust="spacing" textLength="17" x="369.5" y="776.6016">alt</text><text fill="#000000" font-family="sans-serif" font-size="11" font-weight="bold" lengthAdjust="spacing" textLength="97" x="431.5" y="775.668">[Inventory exists]</text><line style="stroke:#181818;stroke-width:1.0;" x1="426" x2="468" y1="801.6543" y2="801.6543"/><line style="stroke:#181818;stroke-width:1.0;" x1="468" x2="468" y1="801.6543" y2="814.6543"/><line style="stroke:#181818;stroke-width:1.0;" x1="427" x2="468" y1="814.6543" y2="814.6543"/><polygon fill="#181818" points="437,810.6543,427,814.6543,437,818.6543,433,814.6543" style="stroke:#181818;stroke-width:1.0;"/><text fill="#000000" font-family="sans-serif" font-size="13" font-weight="bold" lengthAdjust="spacing" textLength="18" x="433" y="796.9121">16</text><text fill="#000000" font-family="sans-serif" font-size="13" lengthAdjust="spacing" textLength="174" x="455" y="796.9121">Update inventory quantities</text><polygon fill="#181818" points="680,839.9648,690,843.9648,680,847.9648,684,843.9648" style="stroke:#181818;stroke-width:1.0;"/><line style="stroke:#181818;stroke-width:1.0;" x1="426" x2="686" y1="843.9648" y2="843.9648"/><text fill="#000000" font-family="sans-serif" font-size="13" font-weight="bold" lengthAdjust="spacing" textLength="18" x="433" y="839.2227">17</text><text fill="#000000" font-family="sans-serif" font-size="13" lengthAdjust="spacing" textLength="146" x="455" y="839.2227">Save updated inventory</text><line style="stroke:#000000;stroke-width:1.0;stroke-dasharray:2.0,2.0;" x1="354.5" x2="736.5" y1="852.9648" y2="852.9648"/><text fill="#000000" font-family="sans-serif" font-size="11" font-weight="bold" lengthAdjust="spacing" textLength="120" x="359.5" y="863.5996">[Inventory not found]</text><line style="stroke:#181818;stroke-width:1.0;" x1="426" x2="468" y1="888.2305" y2="888.2305"/><line style="stroke:#181818;stroke-width:1.0;" x1="468" x2="468" y1="888.2305" y2="901.2305"/><line style="stroke:#181818;stroke-width:1.0;" x1="427" x2="468" y1="901.2305" y2="901.2305"/><polygon fill="#181818" points="437,897.2305,427,901.2305,437,905.2305,433,901.2305" style="stroke:#181818;stroke-width:1.0;"/><text fill="#000000" font-family="sans-serif" font-size="13" font-weight="bold" lengthAdjust="spacing" textLength="18" x="433" y="883.4883">18</text><text fill="#000000" font-family="sans-serif" font-size="13" lengthAdjust="spacing" textLength="226" x="455" y="883.4883">Throw INVENTORY_NOT_EXIST error</text><polygon fill="#181818" points="680,933.541,690,937.541,680,941.541,684,937.541" style="stroke:#181818;stroke-width:1.0;"/><line style="stroke:#181818;stroke-width:1.0;" x1="426" x2="686" y1="937.541" y2="937.541"/><text fill="#000000" font-family="sans-serif" font-size="13" font-weight="bold" lengthAdjust="spacing" textLength="18" x="433" y="932.7988">19</text><text fill="#000000" font-family="sans-serif" font-size="13" lengthAdjust="spacing" textLength="118" x="455" y="932.7988">Generate sale code</text><polygon fill="#181818" points="680,962.8516,690,966.8516,680,970.8516,684,966.8516" style="stroke:#181818;stroke-width:1.0;"/><line style="stroke:#181818;stroke-width:1.0;" x1="426" x2="686" y1="966.8516" y2="966.8516"/><text fill="#000000" font-family="sans-serif" font-size="13" font-weight="bold" lengthAdjust="spacing" textLength="18" x="433" y="962.1094">20</text><text fill="#000000" font-family="sans-serif" font-size="13" lengthAdjust="spacing" textLength="120" x="455" y="962.1094">Log sale in SaleLog</text><line style="stroke:#181818;stroke-width:1.0;" x1="426" x2="468" y1="996.1621" y2="996.1621"/><line style="stroke:#181818;stroke-width:1.0;" x1="468" x2="468" y1="996.1621" y2="1009.1621"/><line style="stroke:#181818;stroke-width:1.0;" x1="427" x2="468" y1="1009.1621" y2="1009.1621"/><polygon fill="#181818" points="437,1005.1621,427,1009.1621,437,1013.1621,433,1009.1621" style="stroke:#181818;stroke-width:1.0;"/><text fill="#000000" font-family="sans-serif" font-size="13" font-weight="bold" lengthAdjust="spacing" textLength="18" x="433" y="991.4199">21</text><text fill="#000000" font-family="sans-serif" font-size="13" lengthAdjust="spacing" textLength="201" x="455" y="991.4199">Map Sale entity to SaleResponse</text><polygon fill="#181818" points="135,1034.4727,125,1038.4727,135,1042.4727,131,1038.4727" style="stroke:#181818;stroke-width:1.0;"/><line style="stroke:#181818;stroke-width:1.0;" x1="129" x2="425" y1="1038.4727" y2="1038.4727"/><text fill="#000000" font-family="sans-serif" font-size="13" font-weight="bold" lengthAdjust="spacing" textLength="18" x="141" y="1033.7305">22</text><text fill="#000000" font-family="sans-serif" font-size="13" lengthAdjust="spacing" textLength="236" x="163" y="1033.7305">Return SaleResponse with sale details</text><!--SRC=[ZLHBRnen4BxxLumujOTAFKUYKc59XDIIYYLLUugCTv9OtRKtzXZAl-_O-mnPadAorzzZ_8q76SYQKEtH2I4LMGVBuCbMw41wc7MRMNkugkhIdX3JORUPYLewqahNqX0ifFg3faY8RfsZEsZ5m4AIt4kFa2qI86ltCo7cSrWwb8IGonBXkhH7cCz5x_ZfIoTz1Ljy3kW9o89gE3voFZG2aTyYFegkX37z1WbKS0wvND8L4uqzJaE_onfUgKRVL2GBQ3fT9CQYreILxmXn0wNsn66ND4Izpg1szg0BB0JmRoIOBQxWMlDQTU3zYV49nY6-J8M2CmCmXfrmqUkEGw-jDkJJfpENNYF38YXgaV3WRCMraoo_LZOOUfEQfrHRxrQ0x_qvaR1a_uqb25wRn_-fP2bB5ShOMyadeIxYyao_aJQJeUNoW2rj24z4i7ZRRdpVAKq_wloar0-7F108sXmOPjq9NFjkAbcBgTuEoDHSBwOxEy1IQzCRMlVVy2y_B2ykvNdN93XeF0SPBw7HlnjVJnAfZuEduOu-S5B5HTlTa-D1Ncz-hZQxs-tl-ytjxdxrQvtl09sphniIlM_GeEkdMja2pn7Vx6Dpg4qQBDwBYsCu6jLk4BVeQsly2ztkdwQFUmo4ewQdnh90ahhq_m00]--></g></svg>