<?xml version="1.0" encoding="us-ascii" standalone="no"?><svg xmlns="http://www.w3.org/2000/svg" xmlns:xlink="http://www.w3.org/1999/xlink" contentStyleType="text/css" height="744px" preserveAspectRatio="none" style="width:748px;height:744px;background:#FFFFFF;" version="1.1" viewBox="0 0 748 744" width="748px" zoomAndPan="magnify"><defs/><g><rect fill="none" height="331.75" style="stroke:#000000;stroke-width:1.5;" width="653.5" x="78" y="242.7305"/><line style="stroke:#181818;stroke-width:0.5;stroke-dasharray:5.0,5.0;" x1="41" x2="41" y1="81.4883" y2="663.1016"/><line style="stroke:#181818;stroke-width:0.5;stroke-dasharray:5.0,5.0;" x1="124" x2="124" y1="81.4883" y2="663.1016"/><line style="stroke:#181818;stroke-width:0.5;stroke-dasharray:5.0,5.0;" x1="378.5" x2="378.5" y1="81.4883" y2="663.1016"/><line style="stroke:#181818;stroke-width:0.5;stroke-dasharray:5.0,5.0;" x1="686.5" x2="686.5" y1="81.4883" y2="663.1016"/><text fill="#000000" font-family="sans-serif" font-size="14" lengthAdjust="spacing" textLength="67" x="5" y="78.5352">Customer</text><ellipse cx="41.5" cy="13.5" fill="#E2E2F0" rx="8" ry="8" style="stroke:#181818;stroke-width:0.5;"/><path d="M41.5,21.5 L41.5,48.5 M28.5,29.5 L54.5,29.5 M41.5,48.5 L28.5,63.5 M41.5,48.5 L54.5,63.5 " fill="none" style="stroke:#181818;stroke-width:0.5;"/><text fill="#000000" font-family="sans-serif" font-size="14" lengthAdjust="spacing" textLength="67" x="5" y="675.6367">Customer</text><ellipse cx="41.5" cy="687.0898" fill="#E2E2F0" rx="8" ry="8" style="stroke:#181818;stroke-width:0.5;"/><path d="M41.5,695.0898 L41.5,722.0898 M28.5,703.0898 L54.5,703.0898 M41.5,722.0898 L28.5,737.0898 M41.5,722.0898 L54.5,737.0898 " fill="none" style="stroke:#181818;stroke-width:0.5;"/><text fill="#000000" font-family="sans-serif" font-size="14" lengthAdjust="spacing" textLength="66" x="88" y="78.5352">Employee</text><ellipse cx="124" cy="13.5" fill="#E2E2F0" rx="8" ry="8" style="stroke:#181818;stroke-width:0.5;"/><path d="M124,21.5 L124,48.5 M111,29.5 L137,29.5 M124,48.5 L111,63.5 M124,48.5 L137,63.5 " fill="none" style="stroke:#181818;stroke-width:0.5;"/><text fill="#000000" font-family="sans-serif" font-size="14" lengthAdjust="spacing" textLength="66" x="88" y="675.6367">Employee</text><ellipse cx="124" cy="687.0898" fill="#E2E2F0" rx="8" ry="8" style="stroke:#181818;stroke-width:0.5;"/><path d="M124,695.0898 L124,722.0898 M111,703.0898 L137,703.0898 M124,722.0898 L111,737.0898 M124,722.0898 L137,737.0898 " fill="none" style="stroke:#181818;stroke-width:0.5;"/><rect fill="#E2E2F0" height="30.4883" rx="2.5" ry="2.5" style="stroke:#181818;stroke-width:0.5;" width="123" x="317.5" y="50"/><text fill="#000000" font-family="sans-serif" font-size="14" lengthAdjust="spacing" textLength="109" x="324.5" y="70.5352">Backend Service</text><rect fill="#E2E2F0" height="30.4883" rx="2.5" ry="2.5" style="stroke:#181818;stroke-width:0.5;" width="123" x="317.5" y="662.1016"/><text fill="#000000" font-family="sans-serif" font-size="14" lengthAdjust="spacing" textLength="109" x="324.5" y="682.6367">Backend Service</text><text fill="#000000" font-family="sans-serif" font-size="14" lengthAdjust="spacing" textLength="63" x="652.5" y="78.5352">Database</text><path d="M669,29 C669,19 687,19 687,19 C687,19 705,19 705,29 L705,55 C705,65 687,65 687,65 C687,65 669,65 669,55 L669,29 " fill="#E2E2F0" style="stroke:#181818;stroke-width:1.5;"/><path d="M669,29 C669,39 687,39 687,39 C687,39 705,39 705,29 " fill="none" style="stroke:#181818;stroke-width:1.5;"/><text fill="#000000" font-family="sans-serif" font-size="14" lengthAdjust="spacing" textLength="63" x="652.5" y="675.6367">Database</text><path d="M669,688.5898 C669,678.5898 687,678.5898 687,678.5898 C687,678.5898 705,678.5898 705,688.5898 L705,714.5898 C705,724.5898 687,724.5898 687,724.5898 C687,724.5898 669,724.5898 669,714.5898 L669,688.5898 " fill="#E2E2F0" style="stroke:#181818;stroke-width:1.5;"/><path d="M669,688.5898 C669,698.5898 687,698.5898 687,698.5898 C687,698.5898 705,698.5898 705,688.5898 " fill="none" style="stroke:#181818;stroke-width:1.5;"/><rect fill="#EEEEEE" height="3" style="stroke:#EEEEEE;stroke-width:1.0;" width="741.5" x="0" y="112.1436"/><line style="stroke:#000000;stroke-width:1.0;" x1="0" x2="741.5" y1="112.1436" y2="112.1436"/><line style="stroke:#000000;stroke-width:1.0;" x1="0" x2="741.5" y1="115.1436" y2="115.1436"/><rect fill="#EEEEEE" height="23.3105" style="stroke:#000000;stroke-width:2.0;" width="101" x="320.25" y="101.4883"/><text fill="#000000" font-family="sans-serif" font-size="13" font-weight="bold" lengthAdjust="spacing" textLength="83" x="326.25" y="118.0566">Refund Flow</text><polygon fill="#181818" points="367,152.1094,377,156.1094,367,160.1094,371,156.1094" style="stroke:#181818;stroke-width:1.0;"/><line style="stroke:#181818;stroke-width:1.0;" x1="124" x2="373" y1="156.1094" y2="156.1094"/><text fill="#000000" font-family="sans-serif" font-size="13" font-weight="bold" lengthAdjust="spacing" textLength="9" x="131" y="151.3672">1</text><text fill="#000000" font-family="sans-serif" font-size="13" lengthAdjust="spacing" textLength="218" x="144" y="151.3672">Request to refund (RefundRequest)</text><line style="stroke:#181818;stroke-width:1.0;" x1="379" x2="421" y1="185.4199" y2="185.4199"/><line style="stroke:#181818;stroke-width:1.0;" x1="421" x2="421" y1="185.4199" y2="198.4199"/><line style="stroke:#181818;stroke-width:1.0;" x1="380" x2="421" y1="198.4199" y2="198.4199"/><polygon fill="#181818" points="390,194.4199,380,198.4199,390,202.4199,386,198.4199" style="stroke:#181818;stroke-width:1.0;"/><text fill="#000000" font-family="sans-serif" font-size="13" font-weight="bold" lengthAdjust="spacing" textLength="9" x="386" y="180.6777">2</text><text fill="#000000" font-family="sans-serif" font-size="13" lengthAdjust="spacing" textLength="187" x="399" y="180.6777">Generate sale code (saleCode)</text><polygon fill="#181818" points="675,223.7305,685,227.7305,675,231.7305,679,227.7305" style="stroke:#181818;stroke-width:1.0;"/><line style="stroke:#181818;stroke-width:1.0;" x1="379" x2="681" y1="227.7305" y2="227.7305"/><text fill="#000000" font-family="sans-serif" font-size="13" font-weight="bold" lengthAdjust="spacing" textLength="9" x="386" y="222.9883">3</text><text fill="#000000" font-family="sans-serif" font-size="13" lengthAdjust="spacing" textLength="271" x="399" y="222.9883">Find inventory by ID (request.refundItemId)</text><path d="M78,242.7305 L140,242.7305 L140,250.041 L130,260.041 L78,260.041 L78,242.7305 " fill="#EEEEEE" style="stroke:#000000;stroke-width:1.5;"/><rect fill="none" height="331.75" style="stroke:#000000;stroke-width:1.5;" width="653.5" x="78" y="242.7305"/><text fill="#000000" font-family="sans-serif" font-size="13" font-weight="bold" lengthAdjust="spacing" textLength="17" x="93" y="256.2988">alt</text><text fill="#000000" font-family="sans-serif" font-size="11" font-weight="bold" lengthAdjust="spacing" textLength="97" x="155" y="255.3652">[Inventory exists]</text><polygon fill="#181818" points="390,277.3516,380,281.3516,390,285.3516,386,281.3516" style="stroke:#181818;stroke-width:1.0;"/><line style="stroke:#181818;stroke-width:1.0;" x1="384" x2="686" y1="281.3516" y2="281.3516"/><text fill="#000000" font-family="sans-serif" font-size="13" font-weight="bold" lengthAdjust="spacing" textLength="9" x="396" y="276.6094">4</text><text fill="#000000" font-family="sans-serif" font-size="13" lengthAdjust="spacing" textLength="135" x="409" y="276.6094">Return inventory data</text><line style="stroke:#181818;stroke-width:1.0;" x1="379" x2="421" y1="310.6621" y2="310.6621"/><line style="stroke:#181818;stroke-width:1.0;" x1="421" x2="421" y1="310.6621" y2="323.6621"/><line style="stroke:#181818;stroke-width:1.0;" x1="380" x2="421" y1="323.6621" y2="323.6621"/><polygon fill="#181818" points="390,319.6621,380,323.6621,390,327.6621,386,323.6621" style="stroke:#181818;stroke-width:1.0;"/><text fill="#000000" font-family="sans-serif" font-size="13" font-weight="bold" lengthAdjust="spacing" textLength="9" x="386" y="305.9199">5</text><text fill="#000000" font-family="sans-serif" font-size="13" lengthAdjust="spacing" textLength="163" x="399" y="305.9199">Update inventory quantity</text><polygon fill="#181818" points="675,348.9727,685,352.9727,675,356.9727,679,352.9727" style="stroke:#181818;stroke-width:1.0;"/><line style="stroke:#181818;stroke-width:1.0;" x1="379" x2="681" y1="352.9727" y2="352.9727"/><text fill="#000000" font-family="sans-serif" font-size="13" font-weight="bold" lengthAdjust="spacing" textLength="9" x="386" y="348.2305">6</text><text fill="#000000" font-family="sans-serif" font-size="13" lengthAdjust="spacing" textLength="146" x="399" y="348.2305">Save updated inventory</text><line style="stroke:#181818;stroke-width:1.0;" x1="379" x2="421" y1="382.2832" y2="382.2832"/><line style="stroke:#181818;stroke-width:1.0;" x1="421" x2="421" y1="382.2832" y2="395.2832"/><line style="stroke:#181818;stroke-width:1.0;" x1="380" x2="421" y1="395.2832" y2="395.2832"/><polygon fill="#181818" points="390,391.2832,380,395.2832,390,399.2832,386,395.2832" style="stroke:#181818;stroke-width:1.0;"/><text fill="#000000" font-family="sans-serif" font-size="13" font-weight="bold" lengthAdjust="spacing" textLength="9" x="386" y="377.541">7</text><text fill="#000000" font-family="sans-serif" font-size="13" lengthAdjust="spacing" textLength="155" x="399" y="377.541">Calculate refund amount</text><line style="stroke:#181818;stroke-width:1.0;" x1="379" x2="421" y1="424.5938" y2="424.5938"/><line style="stroke:#181818;stroke-width:1.0;" x1="421" x2="421" y1="424.5938" y2="437.5938"/><line style="stroke:#181818;stroke-width:1.0;" x1="380" x2="421" y1="437.5938" y2="437.5938"/><polygon fill="#181818" points="390,433.5938,380,437.5938,390,441.5938,386,437.5938" style="stroke:#181818;stroke-width:1.0;"/><text fill="#000000" font-family="sans-serif" font-size="13" font-weight="bold" lengthAdjust="spacing" textLength="9" x="386" y="419.8516">8</text><text fill="#000000" font-family="sans-serif" font-size="13" lengthAdjust="spacing" textLength="271" x="399" y="419.8516">Set refundAmountAtomic and refundItemId</text><line style="stroke:#181818;stroke-width:1.0;" x1="379" x2="421" y1="466.9043" y2="466.9043"/><line style="stroke:#181818;stroke-width:1.0;" x1="421" x2="421" y1="466.9043" y2="479.9043"/><line style="stroke:#181818;stroke-width:1.0;" x1="380" x2="421" y1="479.9043" y2="479.9043"/><polygon fill="#181818" points="390,475.9043,380,479.9043,390,483.9043,386,479.9043" style="stroke:#181818;stroke-width:1.0;"/><text fill="#000000" font-family="sans-serif" font-size="13" font-weight="bold" lengthAdjust="spacing" textLength="9" x="386" y="462.1621">9</text><text fill="#000000" font-family="sans-serif" font-size="13" lengthAdjust="spacing" textLength="139" x="399" y="462.1621">Build RefundResponse</text><polygon fill="#181818" points="135,505.2148,125,509.2148,135,513.2148,131,509.2148" style="stroke:#181818;stroke-width:1.0;"/><line style="stroke:#181818;stroke-width:1.0;" x1="129" x2="378" y1="509.2148" y2="509.2148"/><text fill="#000000" font-family="sans-serif" font-size="13" font-weight="bold" lengthAdjust="spacing" textLength="18" x="141" y="504.4727">10</text><text fill="#000000" font-family="sans-serif" font-size="13" lengthAdjust="spacing" textLength="149" x="163" y="504.4727">Return RefundResponse</text><line style="stroke:#000000;stroke-width:1.0;stroke-dasharray:2.0,2.0;" x1="78" x2="731.5" y1="518.2148" y2="518.2148"/><text fill="#000000" font-family="sans-serif" font-size="11" font-weight="bold" lengthAdjust="spacing" textLength="120" x="83" y="528.8496">[Inventory not found]</text><line style="stroke:#181818;stroke-width:1.0;" x1="379" x2="421" y1="553.4805" y2="553.4805"/><line style="stroke:#181818;stroke-width:1.0;" x1="421" x2="421" y1="553.4805" y2="566.4805"/><line style="stroke:#181818;stroke-width:1.0;" x1="380" x2="421" y1="566.4805" y2="566.4805"/><polygon fill="#181818" points="390,562.4805,380,566.4805,390,570.4805,386,566.4805" style="stroke:#181818;stroke-width:1.0;"/><text fill="#000000" font-family="sans-serif" font-size="13" font-weight="bold" lengthAdjust="spacing" textLength="18" x="386" y="548.7383">11</text><text fill="#000000" font-family="sans-serif" font-size="13" lengthAdjust="spacing" textLength="226" x="408" y="548.7383">Throw INVENTORY_NOT_EXIST error</text><line style="stroke:#181818;stroke-width:1.0;" x1="379" x2="421" y1="602.791" y2="602.791"/><line style="stroke:#181818;stroke-width:1.0;" x1="421" x2="421" y1="602.791" y2="615.791"/><line style="stroke:#181818;stroke-width:1.0;" x1="380" x2="421" y1="615.791" y2="615.791"/><polygon fill="#181818" points="390,611.791,380,615.791,390,619.791,386,615.791" style="stroke:#181818;stroke-width:1.0;"/><text fill="#000000" font-family="sans-serif" font-size="13" font-weight="bold" lengthAdjust="spacing" textLength="18" x="386" y="598.0488">12</text><text fill="#000000" font-family="sans-serif" font-size="13" lengthAdjust="spacing" textLength="83" x="408" y="598.0488">Build SaleLog</text><polygon fill="#181818" points="675,641.1016,685,645.1016,675,649.1016,679,645.1016" style="stroke:#181818;stroke-width:1.0;"/><line style="stroke:#181818;stroke-width:1.0;" x1="379" x2="681" y1="645.1016" y2="645.1016"/><text fill="#000000" font-family="sans-serif" font-size="13" font-weight="bold" lengthAdjust="spacing" textLength="18" x="386" y="640.3594">13</text><text fill="#000000" font-family="sans-serif" font-size="13" lengthAdjust="spacing" textLength="80" x="408" y="640.3594">Save SaleLog</text><!--SRC=[TPBFRi8m3CRlUGgB4nos1q3g94fXgZI1HBjfEw7GcYrQcfJ4OUlRB_q77Q8vEVBFzfSlvewqSiK13MCy8srWwIpf0Wrm2vF-CkcIgwAKka9ialrbmafkI6IYv8eWvDatghmX-ZX1SnQP1tDE_C0jGXGsGDJT9um50Upmw3ozble7We1TXZqyzLtddZavj0IamRJuj2th4ZFM3nrMFQD2mmd1SecGwHnXMeTB7ytOi2GAvx0MFXRgZCg_kO931N44KzCEU6p7neH5dCyObmJn1SLVOSaoyCU_yBzkSaODkjPMDE0zlQzbNgkzqYVdlHLKtLRKSXD-Hd1DnK0s6ss-v39pikxVESWBxHIDyWbIHouQSE5NGcJ0FJRqOdnWw8JCeVycMsfbyHRkF_lYr0sEqc_DrMYb2OvUJ3uwDFqoVetYpTjgasvt7_lDDjsltkCa1JH66-OXniRL9duxNlGdk-Trd_i3]--></g></svg>