<?xml version="1.0" encoding="us-ascii" standalone="no"?><svg xmlns="http://www.w3.org/2000/svg" xmlns:xlink="http://www.w3.org/1999/xlink" contentStyleType="text/css" height="427px" preserveAspectRatio="none" style="width:564px;height:427px;background:#FFFFFF;" version="1.1" viewBox="0 0 564 427" width="564px" zoomAndPan="magnify"><defs/><g><line style="stroke:#181818;stroke-width:0.5;stroke-dasharray:5.0,5.0;" x1="23" x2="23" y1="81.4883" y2="346.6621"/><line style="stroke:#181818;stroke-width:0.5;stroke-dasharray:5.0,5.0;" x1="245" x2="245" y1="81.4883" y2="346.6621"/><line style="stroke:#181818;stroke-width:0.5;stroke-dasharray:5.0,5.0;" x1="517" x2="517" y1="81.4883" y2="346.6621"/><text fill="#000000" font-family="sans-serif" font-size="14" lengthAdjust="spacing" textLength="31" x="5" y="78.5352">User</text><ellipse cx="23.5" cy="13.5" fill="#E2E2F0" rx="8" ry="8" style="stroke:#181818;stroke-width:0.5;"/><path d="M23.5,21.5 L23.5,48.5 M10.5,29.5 L36.5,29.5 M23.5,48.5 L10.5,63.5 M23.5,48.5 L36.5,63.5 " fill="none" style="stroke:#181818;stroke-width:0.5;"/><text fill="#000000" font-family="sans-serif" font-size="14" lengthAdjust="spacing" textLength="31" x="5" y="359.1973">User</text><ellipse cx="23.5" cy="370.6504" fill="#E2E2F0" rx="8" ry="8" style="stroke:#181818;stroke-width:0.5;"/><path d="M23.5,378.6504 L23.5,405.6504 M10.5,386.6504 L36.5,386.6504 M23.5,405.6504 L10.5,420.6504 M23.5,405.6504 L36.5,420.6504 " fill="none" style="stroke:#181818;stroke-width:0.5;"/><rect fill="#E2E2F0" height="30.4883" rx="2.5" ry="2.5" style="stroke:#181818;stroke-width:0.5;" width="123" x="184" y="50"/><text fill="#000000" font-family="sans-serif" font-size="14" lengthAdjust="spacing" textLength="109" x="191" y="70.5352">Backend Service</text><rect fill="#E2E2F0" height="30.4883" rx="2.5" ry="2.5" style="stroke:#181818;stroke-width:0.5;" width="123" x="184" y="345.6621"/><text fill="#000000" font-family="sans-serif" font-size="14" lengthAdjust="spacing" textLength="109" x="191" y="366.1973">Backend Service</text><text fill="#000000" font-family="sans-serif" font-size="14" lengthAdjust="spacing" textLength="63" x="483" y="78.5352">Database</text><path d="M499.5,29 C499.5,19 517.5,19 517.5,19 C517.5,19 535.5,19 535.5,29 L535.5,55 C535.5,65 517.5,65 517.5,65 C517.5,65 499.5,65 499.5,55 L499.5,29 " fill="#E2E2F0" style="stroke:#181818;stroke-width:1.5;"/><path d="M499.5,29 C499.5,39 517.5,39 517.5,39 C517.5,39 535.5,39 535.5,29 " fill="none" style="stroke:#181818;stroke-width:1.5;"/><text fill="#000000" font-family="sans-serif" font-size="14" lengthAdjust="spacing" textLength="63" x="483" y="359.1973">Database</text><path d="M499.5,372.1504 C499.5,362.1504 517.5,362.1504 517.5,362.1504 C517.5,362.1504 535.5,362.1504 535.5,372.1504 L535.5,398.1504 C535.5,408.1504 517.5,408.1504 517.5,408.1504 C517.5,408.1504 499.5,408.1504 499.5,398.1504 L499.5,372.1504 " fill="#E2E2F0" style="stroke:#181818;stroke-width:1.5;"/><path d="M499.5,372.1504 C499.5,382.1504 517.5,382.1504 517.5,382.1504 C517.5,382.1504 535.5,382.1504 535.5,372.1504 " fill="none" style="stroke:#181818;stroke-width:1.5;"/><rect fill="#EEEEEE" height="3" style="stroke:#EEEEEE;stroke-width:1.0;" width="557" x="0" y="112.1436"/><line style="stroke:#000000;stroke-width:1.0;" x1="0" x2="557" y1="112.1436" y2="112.1436"/><line style="stroke:#000000;stroke-width:1.0;" x1="0" x2="557" y1="115.1436" y2="115.1436"/><rect fill="#EEEEEE" height="23.3105" style="stroke:#000000;stroke-width:2.0;" width="144" x="206.5" y="101.4883"/><text fill="#000000" font-family="sans-serif" font-size="13" font-weight="bold" lengthAdjust="spacing" textLength="126" x="212.5" y="118.0566">Get Inventory Flow</text><polygon fill="#181818" points="233.5,152.1094,243.5,156.1094,233.5,160.1094,237.5,156.1094" style="stroke:#181818;stroke-width:1.0;"/><line style="stroke:#181818;stroke-width:1.0;" x1="23.5" x2="239.5" y1="156.1094" y2="156.1094"/><text fill="#000000" font-family="sans-serif" font-size="13" font-weight="bold" lengthAdjust="spacing" textLength="9" x="30.5" y="151.3672">1</text><text fill="#000000" font-family="sans-serif" font-size="13" lengthAdjust="spacing" textLength="144" x="43.5" y="151.3672">Request inventory data</text><line style="stroke:#181818;stroke-width:1.0;" x1="245.5" x2="287.5" y1="185.4199" y2="185.4199"/><line style="stroke:#181818;stroke-width:1.0;" x1="287.5" x2="287.5" y1="185.4199" y2="198.4199"/><line style="stroke:#181818;stroke-width:1.0;" x1="246.5" x2="287.5" y1="198.4199" y2="198.4199"/><polygon fill="#181818" points="256.5,194.4199,246.5,198.4199,256.5,202.4199,252.5,198.4199" style="stroke:#181818;stroke-width:1.0;"/><text fill="#000000" font-family="sans-serif" font-size="13" font-weight="bold" lengthAdjust="spacing" textLength="9" x="252.5" y="180.6777">2</text><text fill="#000000" font-family="sans-serif" font-size="13" lengthAdjust="spacing" textLength="245" x="265.5" y="180.6777">Create search criteria based on request</text><polygon fill="#181818" points="505.5,223.7305,515.5,227.7305,505.5,231.7305,509.5,227.7305" style="stroke:#181818;stroke-width:1.0;"/><line style="stroke:#181818;stroke-width:1.0;" x1="245.5" x2="511.5" y1="227.7305" y2="227.7305"/><text fill="#000000" font-family="sans-serif" font-size="13" font-weight="bold" lengthAdjust="spacing" textLength="9" x="252.5" y="222.9883">3</text><text fill="#000000" font-family="sans-serif" font-size="13" lengthAdjust="spacing" textLength="131" x="265.5" y="222.9883">Query inventory data</text><polygon fill="#181818" points="256.5,253.041,246.5,257.041,256.5,261.041,252.5,257.041" style="stroke:#181818;stroke-width:1.0;"/><line style="stroke:#181818;stroke-width:1.0;" x1="250.5" x2="516.5" y1="257.041" y2="257.041"/><text fill="#000000" font-family="sans-serif" font-size="13" font-weight="bold" lengthAdjust="spacing" textLength="9" x="262.5" y="252.2988">4</text><text fill="#000000" font-family="sans-serif" font-size="13" lengthAdjust="spacing" textLength="151" x="275.5" y="252.2988">Return inventory results</text><line style="stroke:#181818;stroke-width:1.0;" x1="245.5" x2="287.5" y1="286.3516" y2="286.3516"/><line style="stroke:#181818;stroke-width:1.0;" x1="287.5" x2="287.5" y1="286.3516" y2="299.3516"/><line style="stroke:#181818;stroke-width:1.0;" x1="246.5" x2="287.5" y1="299.3516" y2="299.3516"/><polygon fill="#181818" points="256.5,295.3516,246.5,299.3516,256.5,303.3516,252.5,299.3516" style="stroke:#181818;stroke-width:1.0;"/><text fill="#000000" font-family="sans-serif" font-size="13" font-weight="bold" lengthAdjust="spacing" textLength="9" x="252.5" y="281.6094">5</text><text fill="#000000" font-family="sans-serif" font-size="13" lengthAdjust="spacing" textLength="152" x="265.5" y="281.6094">Convert results to DTOs</text><polygon fill="#181818" points="34.5,324.6621,24.5,328.6621,34.5,332.6621,30.5,328.6621" style="stroke:#181818;stroke-width:1.0;"/><line style="stroke:#181818;stroke-width:1.0;" x1="28.5" x2="244.5" y1="328.6621" y2="328.6621"/><text fill="#000000" font-family="sans-serif" font-size="13" font-weight="bold" lengthAdjust="spacing" textLength="9" x="40.5" y="323.9199">6</text><text fill="#000000" font-family="sans-serif" font-size="13" lengthAdjust="spacing" textLength="185" x="53.5" y="323.9199">Send inventory data response</text><!--SRC=[RP1DJiGm38NtFiLJzroWKbcK2iGAyNS0Jsg9Y24fjZE8svCKYZg8dIr_Vk_PN3odydOG9UBWMV5iec13rugE5bQF8IwS72E7LqdpEjtgHz5J3DBHpCu7Di4qhi3qqtT4mu0RSTocawHgyOdhO_x0CD3gTN6v2VTuaFSYveY_Q9EbpMoFNgcm2qnOmmk2HXUDZ6Ov8oVejzH-Tnfxt1Ufgd_qQ-Jp55uqxI0LAqSt-Zz8hfpw1i4pfgSxsxFjphw-gdRdpcrfoSc4lW00]--></g></svg>