<?xml version="1.0" encoding="us-ascii" standalone="no"?><svg xmlns="http://www.w3.org/2000/svg" xmlns:xlink="http://www.w3.org/1999/xlink" contentStyleType="text/css" height="600px" preserveAspectRatio="none" style="width:549px;height:600px;background:#FFFFFF;" version="1.1" viewBox="0 0 549 600" width="549px" zoomAndPan="magnify"><defs/><g><rect fill="none" height="116.8867" style="stroke:#000000;stroke-width:1.5;" width="314.5" x="164.5" y="213.4199"/><line style="stroke:#181818;stroke-width:0.5;stroke-dasharray:5.0,5.0;" x1="41" x2="41" y1="81.4883" y2="519.8594"/><line style="stroke:#181818;stroke-width:0.5;stroke-dasharray:5.0,5.0;" x1="235.5" x2="235.5" y1="81.4883" y2="519.8594"/><line style="stroke:#181818;stroke-width:0.5;stroke-dasharray:5.0,5.0;" x1="502.5" x2="502.5" y1="81.4883" y2="519.8594"/><text fill="#000000" font-family="sans-serif" font-size="14" lengthAdjust="spacing" textLength="66" x="5" y="78.5352">Employee</text><ellipse cx="41" cy="13.5" fill="#E2E2F0" rx="8" ry="8" style="stroke:#181818;stroke-width:0.5;"/><path d="M41,21.5 L41,48.5 M28,29.5 L54,29.5 M41,48.5 L28,63.5 M41,48.5 L54,63.5 " fill="none" style="stroke:#181818;stroke-width:0.5;"/><text fill="#000000" font-family="sans-serif" font-size="14" lengthAdjust="spacing" textLength="66" x="5" y="532.3945">Employee</text><ellipse cx="41" cy="543.8477" fill="#E2E2F0" rx="8" ry="8" style="stroke:#181818;stroke-width:0.5;"/><path d="M41,551.8477 L41,578.8477 M28,559.8477 L54,559.8477 M41,578.8477 L28,593.8477 M41,578.8477 L54,593.8477 " fill="none" style="stroke:#181818;stroke-width:0.5;"/><rect fill="#E2E2F0" height="30.4883" rx="2.5" ry="2.5" style="stroke:#181818;stroke-width:0.5;" width="123" x="174.5" y="50"/><text fill="#000000" font-family="sans-serif" font-size="14" lengthAdjust="spacing" textLength="109" x="181.5" y="70.5352">Backend Service</text><rect fill="#E2E2F0" height="30.4883" rx="2.5" ry="2.5" style="stroke:#181818;stroke-width:0.5;" width="123" x="174.5" y="518.8594"/><text fill="#000000" font-family="sans-serif" font-size="14" lengthAdjust="spacing" textLength="109" x="181.5" y="539.3945">Backend Service</text><text fill="#000000" font-family="sans-serif" font-size="14" lengthAdjust="spacing" textLength="63" x="468.5" y="78.5352">Database</text><path d="M485,29 C485,19 503,19 503,19 C503,19 521,19 521,29 L521,55 C521,65 503,65 503,65 C503,65 485,65 485,55 L485,29 " fill="#E2E2F0" style="stroke:#181818;stroke-width:1.5;"/><path d="M485,29 C485,39 503,39 503,39 C503,39 521,39 521,29 " fill="none" style="stroke:#181818;stroke-width:1.5;"/><text fill="#000000" font-family="sans-serif" font-size="14" lengthAdjust="spacing" textLength="63" x="468.5" y="532.3945">Database</text><path d="M485,545.3477 C485,535.3477 503,535.3477 503,535.3477 C503,535.3477 521,535.3477 521,545.3477 L521,571.3477 C521,581.3477 503,581.3477 503,581.3477 C503,581.3477 485,581.3477 485,571.3477 L485,545.3477 " fill="#E2E2F0" style="stroke:#181818;stroke-width:1.5;"/><path d="M485,545.3477 C485,555.3477 503,555.3477 503,555.3477 C503,555.3477 521,555.3477 521,545.3477 " fill="none" style="stroke:#181818;stroke-width:1.5;"/><rect fill="#EEEEEE" height="3" style="stroke:#EEEEEE;stroke-width:1.0;" width="542.5" x="0" y="112.1436"/><line style="stroke:#000000;stroke-width:1.0;" x1="0" x2="542.5" y1="112.1436" y2="112.1436"/><line style="stroke:#000000;stroke-width:1.0;" x1="0" x2="542.5" y1="115.1436" y2="115.1436"/><rect fill="#EEEEEE" height="23.3105" style="stroke:#000000;stroke-width:2.0;" width="113" x="214.75" y="101.4883"/><text fill="#000000" font-family="sans-serif" font-size="13" font-weight="bold" lengthAdjust="spacing" textLength="95" x="220.75" y="118.0566">Get Sales Flow</text><polygon fill="#181818" points="224,152.1094,234,156.1094,224,160.1094,228,156.1094" style="stroke:#181818;stroke-width:1.0;"/><line style="stroke:#181818;stroke-width:1.0;" x1="41" x2="230" y1="156.1094" y2="156.1094"/><text fill="#000000" font-family="sans-serif" font-size="13" font-weight="bold" lengthAdjust="spacing" textLength="9" x="48" y="151.3672">1</text><text fill="#000000" font-family="sans-serif" font-size="13" lengthAdjust="spacing" textLength="117" x="61" y="151.3672">Request sales data</text><line style="stroke:#181818;stroke-width:1.0;" x1="236" x2="278" y1="185.4199" y2="185.4199"/><line style="stroke:#181818;stroke-width:1.0;" x1="278" x2="278" y1="185.4199" y2="198.4199"/><line style="stroke:#181818;stroke-width:1.0;" x1="237" x2="278" y1="198.4199" y2="198.4199"/><polygon fill="#181818" points="247,194.4199,237,198.4199,247,202.4199,243,198.4199" style="stroke:#181818;stroke-width:1.0;"/><text fill="#000000" font-family="sans-serif" font-size="13" font-weight="bold" lengthAdjust="spacing" textLength="9" x="243" y="180.6777">2</text><text fill="#000000" font-family="sans-serif" font-size="13" lengthAdjust="spacing" textLength="141" x="256" y="180.6777">Check if user is admin</text><path d="M164.5,213.4199 L226.5,213.4199 L226.5,220.7305 L216.5,230.7305 L164.5,230.7305 L164.5,213.4199 " fill="#EEEEEE" style="stroke:#000000;stroke-width:1.5;"/><rect fill="none" height="116.8867" style="stroke:#000000;stroke-width:1.5;" width="314.5" x="164.5" y="213.4199"/><text fill="#000000" font-family="sans-serif" font-size="13" font-weight="bold" lengthAdjust="spacing" textLength="17" x="179.5" y="226.9883">alt</text><a href="Is Admin" target="_top" title="Is Admin" xlink:actuate="onRequest" xlink:href="Is Admin" xlink:show="new" xlink:title="Is Admin" xlink:type="simple"><text fill="#0000FF" font-family="sans-serif" font-size="11" font-weight="bold" lengthAdjust="spacing" text-decoration="underline" textLength="51" x="241.5" y="226.0547">Is Admin</text></a><line style="stroke:#181818;stroke-width:1.0;" x1="236" x2="278" y1="252.041" y2="252.041"/><line style="stroke:#181818;stroke-width:1.0;" x1="278" x2="278" y1="252.041" y2="265.041"/><line style="stroke:#181818;stroke-width:1.0;" x1="237" x2="278" y1="265.041" y2="265.041"/><polygon fill="#181818" points="247,261.041,237,265.041,247,269.041,243,265.041" style="stroke:#181818;stroke-width:1.0;"/><text fill="#000000" font-family="sans-serif" font-size="13" font-weight="bold" lengthAdjust="spacing" textLength="9" x="243" y="247.2988">3</text><text fill="#000000" font-family="sans-serif" font-size="13" lengthAdjust="spacing" textLength="140" x="256" y="247.2988">Set employeeId to null</text><line style="stroke:#000000;stroke-width:1.0;stroke-dasharray:2.0,2.0;" x1="164.5" x2="479" y1="274.041" y2="274.041"/><a href="Is Regular Employee" target="_top" title="Is Regular Employee" xlink:actuate="onRequest" xlink:href="Is Regular Employee" xlink:show="new" xlink:title="Is Regular Employee" xlink:type="simple"><text fill="#0000FF" font-family="sans-serif" font-size="11" font-weight="bold" lengthAdjust="spacing" text-decoration="underline" textLength="115" x="169.5" y="284.6758">Is Regular Employee</text></a><line style="stroke:#181818;stroke-width:1.0;" x1="236" x2="278" y1="309.3066" y2="309.3066"/><line style="stroke:#181818;stroke-width:1.0;" x1="278" x2="278" y1="309.3066" y2="322.3066"/><line style="stroke:#181818;stroke-width:1.0;" x1="237" x2="278" y1="322.3066" y2="322.3066"/><polygon fill="#181818" points="247,318.3066,237,322.3066,247,326.3066,243,322.3066" style="stroke:#181818;stroke-width:1.0;"/><text fill="#000000" font-family="sans-serif" font-size="13" font-weight="bold" lengthAdjust="spacing" textLength="9" x="243" y="304.5645">4</text><text fill="#000000" font-family="sans-serif" font-size="13" lengthAdjust="spacing" textLength="211" x="256" y="304.5645">Get employeeId from current user</text><line style="stroke:#181818;stroke-width:1.0;" x1="236" x2="278" y1="358.6172" y2="358.6172"/><line style="stroke:#181818;stroke-width:1.0;" x1="278" x2="278" y1="358.6172" y2="371.6172"/><line style="stroke:#181818;stroke-width:1.0;" x1="237" x2="278" y1="371.6172" y2="371.6172"/><polygon fill="#181818" points="247,367.6172,237,371.6172,247,375.6172,243,371.6172" style="stroke:#181818;stroke-width:1.0;"/><text fill="#000000" font-family="sans-serif" font-size="13" font-weight="bold" lengthAdjust="spacing" textLength="9" x="243" y="353.875">5</text><text fill="#000000" font-family="sans-serif" font-size="13" lengthAdjust="spacing" textLength="174" x="256" y="353.875">Prepare query for sales data</text><polygon fill="#181818" points="491,396.9277,501,400.9277,491,404.9277,495,400.9277" style="stroke:#181818;stroke-width:1.0;"/><line style="stroke:#181818;stroke-width:1.0;" x1="236" x2="497" y1="400.9277" y2="400.9277"/><text fill="#000000" font-family="sans-serif" font-size="13" font-weight="bold" lengthAdjust="spacing" textLength="9" x="243" y="396.1855">6</text><text fill="#000000" font-family="sans-serif" font-size="13" lengthAdjust="spacing" textLength="195" x="256" y="396.1855">Fetch sales data from database</text><polygon fill="#181818" points="247,426.2383,237,430.2383,247,434.2383,243,430.2383" style="stroke:#181818;stroke-width:1.0;"/><line style="stroke:#181818;stroke-width:1.0;" x1="241" x2="502" y1="430.2383" y2="430.2383"/><text fill="#000000" font-family="sans-serif" font-size="13" font-weight="bold" lengthAdjust="spacing" textLength="9" x="253" y="425.4961">7</text><text fill="#000000" font-family="sans-serif" font-size="13" lengthAdjust="spacing" textLength="155" x="266" y="425.4961">Return sales data results</text><line style="stroke:#181818;stroke-width:1.0;" x1="236" x2="278" y1="459.5488" y2="459.5488"/><line style="stroke:#181818;stroke-width:1.0;" x1="278" x2="278" y1="459.5488" y2="472.5488"/><line style="stroke:#181818;stroke-width:1.0;" x1="237" x2="278" y1="472.5488" y2="472.5488"/><polygon fill="#181818" points="247,468.5488,237,472.5488,247,476.5488,243,472.5488" style="stroke:#181818;stroke-width:1.0;"/><text fill="#000000" font-family="sans-serif" font-size="13" font-weight="bold" lengthAdjust="spacing" textLength="9" x="243" y="454.8066">8</text><text fill="#000000" font-family="sans-serif" font-size="13" lengthAdjust="spacing" textLength="240" x="256" y="454.8066">Convert sales data to response format</text><polygon fill="#181818" points="52,497.8594,42,501.8594,52,505.8594,48,501.8594" style="stroke:#181818;stroke-width:1.0;"/><line style="stroke:#181818;stroke-width:1.0;" x1="46" x2="235" y1="501.8594" y2="501.8594"/><text fill="#000000" font-family="sans-serif" font-size="13" font-weight="bold" lengthAdjust="spacing" textLength="9" x="58" y="497.1172">9</text><text fill="#000000" font-family="sans-serif" font-size="13" lengthAdjust="spacing" textLength="158" x="71" y="497.1172">Send sales data response</text><!--SRC=[VP71Ri8m38RlVWghzxq0KYSD68WReiTf1vEQKP4cdUCmyVPpExeLgLfETVhxz-ylb3M6t1vP0CXf57njEnzlp4W9Yx4ee2FHnZKT1SKbkGk7Ub2CtnNBjN4ch4dfI8bnlHm4wtjT09GbRbcn8iy9Dpv-OLd2xxodvz5uWGV-p9mKqo3jBM4SD9Mjpkmks9mm9nPi4bBTDi4syOflnIxXIryNxu1svWmgYyFt0BiQDMB8tWDxopyO7FWZU_gZye_Nzj7h9B55bqNOYFNvm5GmkyPUsF0osivomvCzmlpUw-K2DwpkFFd_CsU43WRzaQDc2LEvSCfUqtoGLGnNbYds7ecrT34O4KlMaauxHomzIRjvd3CqmJS0]--></g></svg>