<?xml version="1.0" encoding="us-ascii" standalone="no"?><svg xmlns="http://www.w3.org/2000/svg" xmlns:xlink="http://www.w3.org/1999/xlink" contentStyleType="text/css" height="712px" preserveAspectRatio="none" style="width:691px;height:712px;background:#FFFFFF;" version="1.1" viewBox="0 0 691 712" width="691px" zoomAndPan="magnify"><defs/><g><rect fill="none" height="144.2422" style="stroke:#000000;stroke-width:1.5;" width="427.5" x="222.5" y="398.9727"/><line style="stroke:#181818;stroke-width:0.5;stroke-dasharray:5.0,5.0;" x1="41" x2="41" y1="81.4883" y2="631.8359"/><line style="stroke:#181818;stroke-width:0.5;stroke-dasharray:5.0,5.0;" x1="293.5" x2="293.5" y1="81.4883" y2="631.8359"/><line style="stroke:#181818;stroke-width:0.5;stroke-dasharray:5.0,5.0;" x1="644.5" x2="644.5" y1="81.4883" y2="631.8359"/><text fill="#000000" font-family="sans-serif" font-size="14" lengthAdjust="spacing" textLength="66" x="5" y="78.5352">Employee</text><ellipse cx="41" cy="13.5" fill="#E2E2F0" rx="8" ry="8" style="stroke:#181818;stroke-width:0.5;"/><path d="M41,21.5 L41,48.5 M28,29.5 L54,29.5 M41,48.5 L28,63.5 M41,48.5 L54,63.5 " fill="none" style="stroke:#181818;stroke-width:0.5;"/><text fill="#000000" font-family="sans-serif" font-size="14" lengthAdjust="spacing" textLength="66" x="5" y="644.3711">Employee</text><ellipse cx="41" cy="655.8242" fill="#E2E2F0" rx="8" ry="8" style="stroke:#181818;stroke-width:0.5;"/><path d="M41,663.8242 L41,690.8242 M28,671.8242 L54,671.8242 M41,690.8242 L28,705.8242 M41,690.8242 L54,705.8242 " fill="none" style="stroke:#181818;stroke-width:0.5;"/><rect fill="#E2E2F0" height="30.4883" rx="2.5" ry="2.5" style="stroke:#181818;stroke-width:0.5;" width="123" x="232.5" y="50"/><text fill="#000000" font-family="sans-serif" font-size="14" lengthAdjust="spacing" textLength="109" x="239.5" y="70.5352">Backend Service</text><rect fill="#E2E2F0" height="30.4883" rx="2.5" ry="2.5" style="stroke:#181818;stroke-width:0.5;" width="123" x="232.5" y="630.8359"/><text fill="#000000" font-family="sans-serif" font-size="14" lengthAdjust="spacing" textLength="109" x="239.5" y="651.3711">Backend Service</text><text fill="#000000" font-family="sans-serif" font-size="14" lengthAdjust="spacing" textLength="63" x="610.5" y="78.5352">Database</text><path d="M627,29 C627,19 645,19 645,19 C645,19 663,19 663,29 L663,55 C663,65 645,65 645,65 C645,65 627,65 627,55 L627,29 " fill="#E2E2F0" style="stroke:#181818;stroke-width:1.5;"/><path d="M627,29 C627,39 645,39 645,39 C645,39 663,39 663,29 " fill="none" style="stroke:#181818;stroke-width:1.5;"/><text fill="#000000" font-family="sans-serif" font-size="14" lengthAdjust="spacing" textLength="63" x="610.5" y="644.3711">Database</text><path d="M627,657.3242 C627,647.3242 645,647.3242 645,647.3242 C645,647.3242 663,647.3242 663,657.3242 L663,683.3242 C663,693.3242 645,693.3242 645,693.3242 C645,693.3242 627,693.3242 627,683.3242 L627,657.3242 " fill="#E2E2F0" style="stroke:#181818;stroke-width:1.5;"/><path d="M627,657.3242 C627,667.3242 645,667.3242 645,667.3242 C645,667.3242 663,667.3242 663,657.3242 " fill="none" style="stroke:#181818;stroke-width:1.5;"/><rect fill="#EEEEEE" height="3" style="stroke:#EEEEEE;stroke-width:1.0;" width="684.5" x="0" y="112.1436"/><line style="stroke:#000000;stroke-width:1.0;" x1="0" x2="684.5" y1="112.1436" y2="112.1436"/><line style="stroke:#000000;stroke-width:1.0;" x1="0" x2="684.5" y1="115.1436" y2="115.1436"/><rect fill="#EEEEEE" height="23.3105" style="stroke:#000000;stroke-width:2.0;" width="177" x="253.75" y="101.4883"/><text fill="#000000" font-family="sans-serif" font-size="13" font-weight="bold" lengthAdjust="spacing" textLength="159" x="259.75" y="118.0566">Get Sale Chart Info Flow</text><polygon fill="#181818" points="282,152.1094,292,156.1094,282,160.1094,286,156.1094" style="stroke:#181818;stroke-width:1.0;"/><line style="stroke:#181818;stroke-width:1.0;" x1="41" x2="288" y1="156.1094" y2="156.1094"/><text fill="#000000" font-family="sans-serif" font-size="13" font-weight="bold" lengthAdjust="spacing" textLength="9" x="48" y="151.3672">1</text><text fill="#000000" font-family="sans-serif" font-size="13" lengthAdjust="spacing" textLength="193" x="61" y="151.3672">Request sale chart information</text><line style="stroke:#181818;stroke-width:1.0;" x1="294" x2="336" y1="185.4199" y2="185.4199"/><line style="stroke:#181818;stroke-width:1.0;" x1="336" x2="336" y1="185.4199" y2="198.4199"/><line style="stroke:#181818;stroke-width:1.0;" x1="295" x2="336" y1="198.4199" y2="198.4199"/><polygon fill="#181818" points="305,194.4199,295,198.4199,305,202.4199,301,198.4199" style="stroke:#181818;stroke-width:1.0;"/><text fill="#000000" font-family="sans-serif" font-size="13" font-weight="bold" lengthAdjust="spacing" textLength="9" x="301" y="180.6777">2</text><text fill="#000000" font-family="sans-serif" font-size="13" lengthAdjust="spacing" textLength="199" x="314" y="180.6777">Define start and end of the year</text><line style="stroke:#181818;stroke-width:1.0;" x1="294" x2="336" y1="227.7305" y2="227.7305"/><line style="stroke:#181818;stroke-width:1.0;" x1="336" x2="336" y1="227.7305" y2="240.7305"/><line style="stroke:#181818;stroke-width:1.0;" x1="295" x2="336" y1="240.7305" y2="240.7305"/><polygon fill="#181818" points="305,236.7305,295,240.7305,305,244.7305,301,240.7305" style="stroke:#181818;stroke-width:1.0;"/><text fill="#000000" font-family="sans-serif" font-size="13" font-weight="bold" lengthAdjust="spacing" textLength="9" x="301" y="222.9883">3</text><text fill="#000000" font-family="sans-serif" font-size="13" lengthAdjust="spacing" textLength="257" x="314" y="222.9883">Create query for sales data by date range</text><polygon fill="#181818" points="633,266.041,643,270.041,633,274.041,637,270.041" style="stroke:#181818;stroke-width:1.0;"/><line style="stroke:#181818;stroke-width:1.0;" x1="294" x2="639" y1="270.041" y2="270.041"/><text fill="#000000" font-family="sans-serif" font-size="13" font-weight="bold" lengthAdjust="spacing" textLength="9" x="301" y="265.2988">4</text><text fill="#000000" font-family="sans-serif" font-size="13" lengthAdjust="spacing" textLength="195" x="314" y="265.2988">Fetch sales data from database</text><polygon fill="#181818" points="305,295.3516,295,299.3516,305,303.3516,301,299.3516" style="stroke:#181818;stroke-width:1.0;"/><line style="stroke:#181818;stroke-width:1.0;" x1="299" x2="644" y1="299.3516" y2="299.3516"/><text fill="#000000" font-family="sans-serif" font-size="13" font-weight="bold" lengthAdjust="spacing" textLength="9" x="311" y="294.6094">5</text><text fill="#000000" font-family="sans-serif" font-size="13" lengthAdjust="spacing" textLength="169" x="324" y="294.6094">Return list of sales records</text><line style="stroke:#181818;stroke-width:1.0;" x1="294" x2="336" y1="328.6621" y2="328.6621"/><line style="stroke:#181818;stroke-width:1.0;" x1="336" x2="336" y1="328.6621" y2="341.6621"/><line style="stroke:#181818;stroke-width:1.0;" x1="295" x2="336" y1="341.6621" y2="341.6621"/><polygon fill="#181818" points="305,337.6621,295,341.6621,305,345.6621,301,341.6621" style="stroke:#181818;stroke-width:1.0;"/><text fill="#000000" font-family="sans-serif" font-size="13" font-weight="bold" lengthAdjust="spacing" textLength="9" x="301" y="323.9199">6</text><text fill="#000000" font-family="sans-serif" font-size="13" lengthAdjust="spacing" textLength="189" x="314" y="323.9199">Group sales records by month</text><line style="stroke:#181818;stroke-width:1.0;" x1="294" x2="336" y1="370.9727" y2="370.9727"/><line style="stroke:#181818;stroke-width:1.0;" x1="336" x2="336" y1="370.9727" y2="383.9727"/><line style="stroke:#181818;stroke-width:1.0;" x1="295" x2="336" y1="383.9727" y2="383.9727"/><polygon fill="#181818" points="305,379.9727,295,383.9727,305,387.9727,301,383.9727" style="stroke:#181818;stroke-width:1.0;"/><text fill="#000000" font-family="sans-serif" font-size="13" font-weight="bold" lengthAdjust="spacing" textLength="9" x="301" y="366.2305">7</text><text fill="#000000" font-family="sans-serif" font-size="13" lengthAdjust="spacing" textLength="207" x="314" y="366.2305">Prepare response for each month</text><path d="M222.5,398.9727 L284.5,398.9727 L284.5,406.2832 L274.5,416.2832 L222.5,416.2832 L222.5,398.9727 " fill="#EEEEEE" style="stroke:#000000;stroke-width:1.5;"/><rect fill="none" height="144.2422" style="stroke:#000000;stroke-width:1.5;" width="427.5" x="222.5" y="398.9727"/><text fill="#000000" font-family="sans-serif" font-size="13" font-weight="bold" lengthAdjust="spacing" textLength="17" x="237.5" y="412.541">alt</text><text fill="#000000" font-family="sans-serif" font-size="11" font-weight="bold" lengthAdjust="spacing" textLength="129" x="299.5" y="411.6074">[Process sales records]</text><line style="stroke:#181818;stroke-width:1.0;" x1="294" x2="336" y1="437.5938" y2="437.5938"/><line style="stroke:#181818;stroke-width:1.0;" x1="336" x2="336" y1="437.5938" y2="450.5938"/><line style="stroke:#181818;stroke-width:1.0;" x1="295" x2="336" y1="450.5938" y2="450.5938"/><polygon fill="#181818" points="305,446.5938,295,450.5938,305,454.5938,301,450.5938" style="stroke:#181818;stroke-width:1.0;"/><text fill="#000000" font-family="sans-serif" font-size="13" font-weight="bold" lengthAdjust="spacing" textLength="9" x="301" y="432.8516">8</text><text fill="#000000" font-family="sans-serif" font-size="13" lengthAdjust="spacing" textLength="293" x="314" y="432.8516">Set initial refund and sale amounts and counts</text><line style="stroke:#181818;stroke-width:1.0;" x1="294" x2="336" y1="479.9043" y2="479.9043"/><line style="stroke:#181818;stroke-width:1.0;" x1="336" x2="336" y1="479.9043" y2="492.9043"/><line style="stroke:#181818;stroke-width:1.0;" x1="295" x2="336" y1="492.9043" y2="492.9043"/><polygon fill="#181818" points="305,488.9043,295,492.9043,305,496.9043,301,492.9043" style="stroke:#181818;stroke-width:1.0;"/><text fill="#000000" font-family="sans-serif" font-size="13" font-weight="bold" lengthAdjust="spacing" textLength="9" x="301" y="475.1621">9</text><text fill="#000000" font-family="sans-serif" font-size="13" lengthAdjust="spacing" textLength="184" x="314" y="475.1621">Go through each sales record</text><line style="stroke:#181818;stroke-width:1.0;" x1="294" x2="336" y1="522.2148" y2="522.2148"/><line style="stroke:#181818;stroke-width:1.0;" x1="336" x2="336" y1="522.2148" y2="535.2148"/><line style="stroke:#181818;stroke-width:1.0;" x1="295" x2="336" y1="535.2148" y2="535.2148"/><polygon fill="#181818" points="305,531.2148,295,535.2148,305,539.2148,301,535.2148" style="stroke:#181818;stroke-width:1.0;"/><text fill="#000000" font-family="sans-serif" font-size="13" font-weight="bold" lengthAdjust="spacing" textLength="18" x="301" y="517.4727">10</text><text fill="#000000" font-family="sans-serif" font-size="13" lengthAdjust="spacing" textLength="315" x="323" y="517.4727">Update amounts and counts based on type of sale</text><line style="stroke:#181818;stroke-width:1.0;" x1="294" x2="336" y1="571.5254" y2="571.5254"/><line style="stroke:#181818;stroke-width:1.0;" x1="336" x2="336" y1="571.5254" y2="584.5254"/><line style="stroke:#181818;stroke-width:1.0;" x1="295" x2="336" y1="584.5254" y2="584.5254"/><polygon fill="#181818" points="305,580.5254,295,584.5254,305,588.5254,301,584.5254" style="stroke:#181818;stroke-width:1.0;"/><text fill="#000000" font-family="sans-serif" font-size="13" font-weight="bold" lengthAdjust="spacing" textLength="18" x="301" y="566.7832">11</text><text fill="#000000" font-family="sans-serif" font-size="13" lengthAdjust="spacing" textLength="241" x="323" y="566.7832">Create response list for sale chart info</text><polygon fill="#181818" points="52,609.8359,42,613.8359,52,617.8359,48,613.8359" style="stroke:#181818;stroke-width:1.0;"/><line style="stroke:#181818;stroke-width:1.0;" x1="46" x2="293" y1="613.8359" y2="613.8359"/><text fill="#000000" font-family="sans-serif" font-size="13" font-weight="bold" lengthAdjust="spacing" textLength="18" x="58" y="609.0938">12</text><text fill="#000000" font-family="sans-serif" font-size="13" lengthAdjust="spacing" textLength="207" x="80" y="609.0938">Send sale chart information back</text><!--SRC=[VLBHRi8m37pFLrYyxmUGs0DqeBrDG_i04rmQqSPTucxgtyy92ogZh5BKfBtpsNV1GTWFtO62CMY50xnqVSiZ4M24HJaiJ8z1d7KzUe4rsZFvOqQK_Px2bxCAFABW0ID1jSw0wlUyC6QrWXq9xB4bs3HQ45vzpR1j-HjMAtDLVdek4ajufy-1ea1C99j9JacXGt7iJP6VKYggdIU8ai2eFnE0Qv26O2GCiwHD81G25GiZQFqi625D0uSnlGa2-XDDsTLw2LiIsqpHTU0EYWj6NRWTHuRWeNKwahPqeGMo78xHp3Qs2ppqjy3KKCTUcbd2Mo0DIxkbsBFN8D8qXDhaXOEjA8OjnVX77_IPgxYdPBeJXwrYwo55hoj7WXqFNcB-OFFsOPaTQmGwpQcvj3CLVqZwwBFrzpAGxDLSFSZOKp7JAEc_VA-cv0HApfEBDIMN2vaSAFFUNK7jmvxD3m00]--></g></svg>