<?xml version="1.0" encoding="us-ascii" standalone="no"?><svg xmlns="http://www.w3.org/2000/svg" xmlns:xlink="http://www.w3.org/1999/xlink" contentStyleType="text/css" height="643px" preserveAspectRatio="none" style="width:777px;height:643px;background:#FFFFFF;" version="1.1" viewBox="0 0 777 643" width="777px" zoomAndPan="magnify"><defs/><g><rect fill="none" height="116.8867" style="stroke:#000000;stroke-width:1.5;" width="216.5" x="325.5" y="213.4199"/><line style="stroke:#181818;stroke-width:0.5;stroke-dasharray:5.0,5.0;" x1="41" x2="41" y1="81.4883" y2="562.1699"/><line style="stroke:#181818;stroke-width:0.5;stroke-dasharray:5.0,5.0;" x1="396.5" x2="396.5" y1="81.4883" y2="562.1699"/><line style="stroke:#181818;stroke-width:0.5;stroke-dasharray:5.0,5.0;" x1="730.5" x2="730.5" y1="81.4883" y2="562.1699"/><text fill="#000000" font-family="sans-serif" font-size="14" lengthAdjust="spacing" textLength="66" x="5" y="78.5352">Employee</text><ellipse cx="41" cy="13.5" fill="#E2E2F0" rx="8" ry="8" style="stroke:#181818;stroke-width:0.5;"/><path d="M41,21.5 L41,48.5 M28,29.5 L54,29.5 M41,48.5 L28,63.5 M41,48.5 L54,63.5 " fill="none" style="stroke:#181818;stroke-width:0.5;"/><text fill="#000000" font-family="sans-serif" font-size="14" lengthAdjust="spacing" textLength="66" x="5" y="574.7051">Employee</text><ellipse cx="41" cy="586.1582" fill="#E2E2F0" rx="8" ry="8" style="stroke:#181818;stroke-width:0.5;"/><path d="M41,594.1582 L41,621.1582 M28,602.1582 L54,602.1582 M41,621.1582 L28,636.1582 M41,621.1582 L54,636.1582 " fill="none" style="stroke:#181818;stroke-width:0.5;"/><rect fill="#E2E2F0" height="30.4883" rx="2.5" ry="2.5" style="stroke:#181818;stroke-width:0.5;" width="123" x="335.5" y="50"/><text fill="#000000" font-family="sans-serif" font-size="14" lengthAdjust="spacing" textLength="109" x="342.5" y="70.5352">Backend Service</text><rect fill="#E2E2F0" height="30.4883" rx="2.5" ry="2.5" style="stroke:#181818;stroke-width:0.5;" width="123" x="335.5" y="561.1699"/><text fill="#000000" font-family="sans-serif" font-size="14" lengthAdjust="spacing" textLength="109" x="342.5" y="581.7051">Backend Service</text><text fill="#000000" font-family="sans-serif" font-size="14" lengthAdjust="spacing" textLength="63" x="696.5" y="78.5352">Database</text><path d="M713,29 C713,19 731,19 731,19 C731,19 749,19 749,29 L749,55 C749,65 731,65 731,65 C731,65 713,65 713,55 L713,29 " fill="#E2E2F0" style="stroke:#181818;stroke-width:1.5;"/><path d="M713,29 C713,39 731,39 731,39 C731,39 749,39 749,29 " fill="none" style="stroke:#181818;stroke-width:1.5;"/><text fill="#000000" font-family="sans-serif" font-size="14" lengthAdjust="spacing" textLength="63" x="696.5" y="574.7051">Database</text><path d="M713,587.6582 C713,577.6582 731,577.6582 731,577.6582 C731,577.6582 749,577.6582 749,587.6582 L749,613.6582 C749,623.6582 731,623.6582 731,623.6582 C731,623.6582 713,623.6582 713,613.6582 L713,587.6582 " fill="#E2E2F0" style="stroke:#181818;stroke-width:1.5;"/><path d="M713,587.6582 C713,597.6582 731,597.6582 731,597.6582 C731,597.6582 749,597.6582 749,587.6582 " fill="none" style="stroke:#181818;stroke-width:1.5;"/><rect fill="#EEEEEE" height="3" style="stroke:#EEEEEE;stroke-width:1.0;" width="770.5" x="0" y="112.1436"/><line style="stroke:#000000;stroke-width:1.0;" x1="0" x2="770.5" y1="112.1436" y2="112.1436"/><line style="stroke:#000000;stroke-width:1.0;" x1="0" x2="770.5" y1="115.1436" y2="115.1436"/><rect fill="#EEEEEE" height="23.3105" style="stroke:#000000;stroke-width:2.0;" width="171" x="299.75" y="101.4883"/><text fill="#000000" font-family="sans-serif" font-size="13" font-weight="bold" lengthAdjust="spacing" textLength="153" x="305.75" y="118.0566">Get Profit Per Day Flow</text><polygon fill="#181818" points="385,152.1094,395,156.1094,385,160.1094,389,156.1094" style="stroke:#181818;stroke-width:1.0;"/><line style="stroke:#181818;stroke-width:1.0;" x1="41" x2="391" y1="156.1094" y2="156.1094"/><text fill="#000000" font-family="sans-serif" font-size="13" font-weight="bold" lengthAdjust="spacing" textLength="9" x="48" y="151.3672">1</text><text fill="#000000" font-family="sans-serif" font-size="13" lengthAdjust="spacing" textLength="319" x="61" y="151.3672">Request to get profit per day (ProfitPerDayRequest)</text><line style="stroke:#181818;stroke-width:1.0;" x1="397" x2="439" y1="185.4199" y2="185.4199"/><line style="stroke:#181818;stroke-width:1.0;" x1="439" x2="439" y1="185.4199" y2="198.4199"/><line style="stroke:#181818;stroke-width:1.0;" x1="398" x2="439" y1="198.4199" y2="198.4199"/><polygon fill="#181818" points="408,194.4199,398,198.4199,408,202.4199,404,198.4199" style="stroke:#181818;stroke-width:1.0;"/><text fill="#000000" font-family="sans-serif" font-size="13" font-weight="bold" lengthAdjust="spacing" textLength="9" x="404" y="180.6777">2</text><text fill="#000000" font-family="sans-serif" font-size="13" lengthAdjust="spacing" textLength="230" x="417" y="180.6777">Determine date for profit calculation</text><path d="M325.5,213.4199 L387.5,213.4199 L387.5,220.7305 L377.5,230.7305 L325.5,230.7305 L325.5,213.4199 " fill="#EEEEEE" style="stroke:#000000;stroke-width:1.5;"/><rect fill="none" height="116.8867" style="stroke:#000000;stroke-width:1.5;" width="216.5" x="325.5" y="213.4199"/><text fill="#000000" font-family="sans-serif" font-size="13" font-weight="bold" lengthAdjust="spacing" textLength="17" x="340.5" y="226.9883">alt</text><text fill="#000000" font-family="sans-serif" font-size="11" font-weight="bold" lengthAdjust="spacing" textLength="85" x="402.5" y="226.0547">[date provided]</text><line style="stroke:#181818;stroke-width:1.0;" x1="397" x2="439" y1="252.041" y2="252.041"/><line style="stroke:#181818;stroke-width:1.0;" x1="439" x2="439" y1="252.041" y2="265.041"/><line style="stroke:#181818;stroke-width:1.0;" x1="398" x2="439" y1="265.041" y2="265.041"/><polygon fill="#181818" points="408,261.041,398,265.041,408,269.041,404,265.041" style="stroke:#181818;stroke-width:1.0;"/><text fill="#000000" font-family="sans-serif" font-size="13" font-weight="bold" lengthAdjust="spacing" textLength="9" x="404" y="247.2988">3</text><text fill="#000000" font-family="sans-serif" font-size="13" lengthAdjust="spacing" textLength="113" x="417" y="247.2988">Use provided date</text><line style="stroke:#000000;stroke-width:1.0;stroke-dasharray:2.0,2.0;" x1="325.5" x2="542" y1="274.041" y2="274.041"/><text fill="#000000" font-family="sans-serif" font-size="11" font-weight="bold" lengthAdjust="spacing" textLength="103" x="330.5" y="284.6758">[no date provided]</text><line style="stroke:#181818;stroke-width:1.0;" x1="397" x2="439" y1="309.3066" y2="309.3066"/><line style="stroke:#181818;stroke-width:1.0;" x1="439" x2="439" y1="309.3066" y2="322.3066"/><line style="stroke:#181818;stroke-width:1.0;" x1="398" x2="439" y1="322.3066" y2="322.3066"/><polygon fill="#181818" points="408,318.3066,398,322.3066,408,326.3066,404,322.3066" style="stroke:#181818;stroke-width:1.0;"/><text fill="#000000" font-family="sans-serif" font-size="13" font-weight="bold" lengthAdjust="spacing" textLength="9" x="404" y="304.5645">4</text><text fill="#000000" font-family="sans-serif" font-size="13" lengthAdjust="spacing" textLength="103" x="417" y="304.5645">Use current date</text><line style="stroke:#181818;stroke-width:1.0;" x1="397" x2="439" y1="358.6172" y2="358.6172"/><line style="stroke:#181818;stroke-width:1.0;" x1="439" x2="439" y1="358.6172" y2="371.6172"/><line style="stroke:#181818;stroke-width:1.0;" x1="398" x2="439" y1="371.6172" y2="371.6172"/><polygon fill="#181818" points="408,367.6172,398,371.6172,408,375.6172,404,371.6172" style="stroke:#181818;stroke-width:1.0;"/><text fill="#000000" font-family="sans-serif" font-size="13" font-weight="bold" lengthAdjust="spacing" textLength="9" x="404" y="353.875">5</text><text fill="#000000" font-family="sans-serif" font-size="13" lengthAdjust="spacing" textLength="283" x="417" y="353.875">Create startOfDay and endOfDay timestamps</text><line style="stroke:#181818;stroke-width:1.0;" x1="397" x2="439" y1="400.9277" y2="400.9277"/><line style="stroke:#181818;stroke-width:1.0;" x1="439" x2="439" y1="400.9277" y2="413.9277"/><line style="stroke:#181818;stroke-width:1.0;" x1="398" x2="439" y1="413.9277" y2="413.9277"/><polygon fill="#181818" points="408,409.9277,398,413.9277,408,417.9277,404,413.9277" style="stroke:#181818;stroke-width:1.0;"/><text fill="#000000" font-family="sans-serif" font-size="13" font-weight="bold" lengthAdjust="spacing" textLength="9" x="404" y="396.1855">6</text><text fill="#000000" font-family="sans-serif" font-size="13" lengthAdjust="spacing" textLength="307" x="417" y="396.1855">Create Specification for SaleLogs with date range</text><polygon fill="#181818" points="719,439.2383,729,443.2383,719,447.2383,723,443.2383" style="stroke:#181818;stroke-width:1.0;"/><line style="stroke:#181818;stroke-width:1.0;" x1="397" x2="725" y1="443.2383" y2="443.2383"/><text fill="#000000" font-family="sans-serif" font-size="13" font-weight="bold" lengthAdjust="spacing" textLength="9" x="404" y="438.4961">7</text><text fill="#000000" font-family="sans-serif" font-size="13" lengthAdjust="spacing" textLength="212" x="417" y="438.4961">Query SaleLogs with Specification</text><polygon fill="#181818" points="408,468.5488,398,472.5488,408,476.5488,404,472.5488" style="stroke:#181818;stroke-width:1.0;"/><line style="stroke:#181818;stroke-width:1.0;" x1="402" x2="730" y1="472.5488" y2="472.5488"/><text fill="#000000" font-family="sans-serif" font-size="13" font-weight="bold" lengthAdjust="spacing" textLength="9" x="414" y="467.8066">8</text><text fill="#000000" font-family="sans-serif" font-size="13" lengthAdjust="spacing" textLength="183" x="427" y="467.8066">Return List&lt;SaleLog&gt; results</text><line style="stroke:#181818;stroke-width:1.0;" x1="397" x2="439" y1="501.8594" y2="501.8594"/><line style="stroke:#181818;stroke-width:1.0;" x1="439" x2="439" y1="501.8594" y2="514.8594"/><line style="stroke:#181818;stroke-width:1.0;" x1="398" x2="439" y1="514.8594" y2="514.8594"/><polygon fill="#181818" points="408,510.8594,398,514.8594,408,518.8594,404,514.8594" style="stroke:#181818;stroke-width:1.0;"/><text fill="#000000" font-family="sans-serif" font-size="13" font-weight="bold" lengthAdjust="spacing" textLength="9" x="404" y="497.1172">9</text><text fill="#000000" font-family="sans-serif" font-size="13" lengthAdjust="spacing" textLength="216" x="417" y="497.1172">Calculate total profit using stream</text><polygon fill="#181818" points="52,540.1699,42,544.1699,52,548.1699,48,544.1699" style="stroke:#181818;stroke-width:1.0;"/><line style="stroke:#181818;stroke-width:1.0;" x1="46" x2="396" y1="544.1699" y2="544.1699"/><text fill="#000000" font-family="sans-serif" font-size="13" font-weight="bold" lengthAdjust="spacing" textLength="18" x="58" y="539.4277">10</text><text fill="#000000" font-family="sans-serif" font-size="13" lengthAdjust="spacing" textLength="182" x="80" y="539.4277">Return ProfitPerDayResponse</text><!--SRC=[bLBBJiCm4BpxArOzmO4Vg4WF8S2b4e-A3zWwcs3XsCPUjyhViysZjAWWaKkotfdPdOmnitUvsr9K2ZNx2FTTiBud0aomc8k52XZPQ1FGCPIeFyZL0sB-tb3S6It06Xctc0YgSW1KKxrGgYZWaHYUes-Cl2X2XJqyMB-7eb37mJUhUS8INkapKs9W3wrGmqWDGgs5UZLAYP88JT1hDQzqgbCHK-oC8-4nGID69osDLcUBRBnJQ7diIszdQgeLo7D9xorzWmQA8Yj7pl-3htECv7YYkrfTtFmkqa4niGJmr1n-60f2McF1fXFJs8Nq5tiJI9l6wC7cu7w3bjQ-JR0t_3uk7T6rTAfIbKjuoHJx7-WpDIKvdoV6EJfOcyIt4sq5aLAsd7vnE2L0aZAZdOF9oRXMV8k3xfGttvFZgFDBa89tYTGN]--></g></svg>