<?xml version="1.0" encoding="us-ascii" standalone="no"?><svg xmlns="http://www.w3.org/2000/svg" xmlns:xlink="http://www.w3.org/1999/xlink" contentStyleType="text/css" height="595px" preserveAspectRatio="none" style="width:875px;height:595px;background:#FFFFFF;" version="1.1" viewBox="0 0 875 595" width="875px" zoomAndPan="magnify"><defs/><g><rect fill="none" height="267.3945" style="stroke:#000000;stroke-width:1.5;" width="848" x="10" y="229.7305"/><rect fill="none" height="149.5078" style="stroke:#000000;stroke-width:1.5;" width="828" x="20" y="340.6172"/><line style="stroke:#181818;stroke-width:0.5;stroke-dasharray:5.0,5.0;" x1="66" x2="66" y1="81.4883" y2="514.125"/><line style="stroke:#181818;stroke-width:0.5;stroke-dasharray:5.0,5.0;" x1="455.5" x2="455.5" y1="81.4883" y2="514.125"/><line style="stroke:#181818;stroke-width:0.5;stroke-dasharray:5.0,5.0;" x1="779" x2="779" y1="81.4883" y2="514.125"/><text fill="#000000" font-family="sans-serif" font-size="14" lengthAdjust="spacing" textLength="66" x="30" y="78.5352">Employee</text><ellipse cx="66" cy="13.5" fill="#E2E2F0" rx="8" ry="8" style="stroke:#181818;stroke-width:0.5;"/><path d="M66,21.5 L66,48.5 M53,29.5 L79,29.5 M66,48.5 L53,63.5 M66,48.5 L79,63.5 " fill="none" style="stroke:#181818;stroke-width:0.5;"/><text fill="#000000" font-family="sans-serif" font-size="14" lengthAdjust="spacing" textLength="66" x="30" y="526.6602">Employee</text><ellipse cx="66" cy="538.1133" fill="#E2E2F0" rx="8" ry="8" style="stroke:#181818;stroke-width:0.5;"/><path d="M66,546.1133 L66,573.1133 M53,554.1133 L79,554.1133 M66,573.1133 L53,588.1133 M66,573.1133 L79,588.1133 " fill="none" style="stroke:#181818;stroke-width:0.5;"/><rect fill="#E2E2F0" height="30.4883" rx="2.5" ry="2.5" style="stroke:#181818;stroke-width:0.5;" width="123" x="394.5" y="50"/><text fill="#000000" font-family="sans-serif" font-size="14" lengthAdjust="spacing" textLength="109" x="401.5" y="70.5352">Backend Service</text><rect fill="#E2E2F0" height="30.4883" rx="2.5" ry="2.5" style="stroke:#181818;stroke-width:0.5;" width="123" x="394.5" y="513.125"/><text fill="#000000" font-family="sans-serif" font-size="14" lengthAdjust="spacing" textLength="109" x="401.5" y="533.6602">Backend Service</text><text fill="#000000" font-family="sans-serif" font-size="14" lengthAdjust="spacing" textLength="112" x="720" y="78.5352">Identity Provider</text><path d="M761,29 C761,19 779,19 779,19 C779,19 797,19 797,29 L797,55 C797,65 779,65 779,65 C779,65 761,65 761,55 L761,29 " fill="#E2E2F0" style="stroke:#181818;stroke-width:1.5;"/><path d="M761,29 C761,39 779,39 779,39 C779,39 797,39 797,29 " fill="none" style="stroke:#181818;stroke-width:1.5;"/><text fill="#000000" font-family="sans-serif" font-size="14" lengthAdjust="spacing" textLength="112" x="720" y="526.6602">Identity Provider</text><path d="M761,539.6133 C761,529.6133 779,529.6133 779,529.6133 C779,529.6133 797,529.6133 797,539.6133 L797,565.6133 C797,575.6133 779,575.6133 779,575.6133 C779,575.6133 761,575.6133 761,565.6133 L761,539.6133 " fill="#E2E2F0" style="stroke:#181818;stroke-width:1.5;"/><path d="M761,539.6133 C761,549.6133 779,549.6133 779,549.6133 C779,549.6133 797,549.6133 797,539.6133 " fill="none" style="stroke:#181818;stroke-width:1.5;"/><rect fill="#EEEEEE" height="3" style="stroke:#EEEEEE;stroke-width:1.0;" width="868" x="0" y="112.1436"/><line style="stroke:#000000;stroke-width:1.0;" x1="0" x2="868" y1="112.1436" y2="112.1436"/><line style="stroke:#000000;stroke-width:1.0;" x1="0" x2="868" y1="115.1436" y2="115.1436"/><rect fill="#EEEEEE" height="23.3105" style="stroke:#000000;stroke-width:2.0;" width="172" x="348" y="101.4883"/><text fill="#000000" font-family="sans-serif" font-size="13" font-weight="bold" lengthAdjust="spacing" textLength="154" x="354" y="118.0566">Change Password Flow</text><polygon fill="#181818" points="444,152.1094,454,156.1094,444,160.1094,448,156.1094" style="stroke:#181818;stroke-width:1.0;"/><line style="stroke:#181818;stroke-width:1.0;" x1="66" x2="450" y1="156.1094" y2="156.1094"/><text fill="#000000" font-family="sans-serif" font-size="13" font-weight="bold" lengthAdjust="spacing" textLength="9" x="73" y="151.3672">1</text><text fill="#000000" font-family="sans-serif" font-size="13" lengthAdjust="spacing" textLength="254" x="86" y="151.3672">Request to change password (old &amp; new)</text><polygon fill="#181818" points="767,181.4199,777,185.4199,767,189.4199,771,185.4199" style="stroke:#181818;stroke-width:1.0;"/><line style="stroke:#181818;stroke-width:1.0;" x1="456" x2="773" y1="185.4199" y2="185.4199"/><text fill="#000000" font-family="sans-serif" font-size="13" font-weight="bold" lengthAdjust="spacing" textLength="9" x="463" y="180.6777">2</text><text fill="#000000" font-family="sans-serif" font-size="13" lengthAdjust="spacing" textLength="286" x="476" y="180.6777">Check if old password is correct by get token</text><polygon fill="#181818" points="467,210.7305,457,214.7305,467,218.7305,463,214.7305" style="stroke:#181818;stroke-width:1.0;"/><line style="stroke:#181818;stroke-width:1.0;" x1="461" x2="778" y1="214.7305" y2="214.7305"/><text fill="#000000" font-family="sans-serif" font-size="13" font-weight="bold" lengthAdjust="spacing" textLength="9" x="473" y="209.9883">3</text><text fill="#000000" font-family="sans-serif" font-size="13" lengthAdjust="spacing" textLength="120" x="486" y="209.9883">return token or not</text><path d="M10,229.7305 L72,229.7305 L72,237.041 L62,247.041 L10,247.041 L10,229.7305 " fill="#EEEEEE" style="stroke:#000000;stroke-width:1.5;"/><rect fill="none" height="267.3945" style="stroke:#000000;stroke-width:1.5;" width="848" x="10" y="229.7305"/><text fill="#000000" font-family="sans-serif" font-size="13" font-weight="bold" lengthAdjust="spacing" textLength="17" x="25" y="243.2988">alt</text><text fill="#000000" font-family="sans-serif" font-size="11" font-weight="bold" lengthAdjust="spacing" textLength="142" x="87" y="242.3652">[Old password is invalid]</text><polygon fill="#181818" points="77,264.3516,67,268.3516,77,272.3516,73,268.3516" style="stroke:#181818;stroke-width:1.0;"/><line style="stroke:#181818;stroke-width:1.0;" x1="71" x2="455" y1="268.3516" y2="268.3516"/><text fill="#000000" font-family="sans-serif" font-size="13" font-weight="bold" lengthAdjust="spacing" textLength="9" x="83" y="263.6094">4</text><text fill="#000000" font-family="sans-serif" font-size="13" lengthAdjust="spacing" textLength="296" x="96" y="263.6094">Send error message (Old password is incorrect)</text><line style="stroke:#000000;stroke-width:1.0;stroke-dasharray:2.0,2.0;" x1="10" x2="858" y1="277.3516" y2="277.3516"/><text fill="#000000" font-family="sans-serif" font-size="11" font-weight="bold" lengthAdjust="spacing" textLength="131" x="15" y="287.9863">[Old password is valid]</text><line style="stroke:#181818;stroke-width:1.0;" x1="456" x2="498" y1="312.6172" y2="312.6172"/><line style="stroke:#181818;stroke-width:1.0;" x1="498" x2="498" y1="312.6172" y2="325.6172"/><line style="stroke:#181818;stroke-width:1.0;" x1="457" x2="498" y1="325.6172" y2="325.6172"/><polygon fill="#181818" points="467,321.6172,457,325.6172,467,329.6172,463,325.6172" style="stroke:#181818;stroke-width:1.0;"/><text fill="#000000" font-family="sans-serif" font-size="13" font-weight="bold" lengthAdjust="spacing" textLength="9" x="463" y="307.875">5</text><text fill="#000000" font-family="sans-serif" font-size="13" lengthAdjust="spacing" textLength="287" x="476" y="307.875">Check if new password matches confirmation</text><path d="M20,340.6172 L82,340.6172 L82,347.9277 L72,357.9277 L20,357.9277 L20,340.6172 " fill="#EEEEEE" style="stroke:#000000;stroke-width:1.5;"/><rect fill="none" height="149.5078" style="stroke:#000000;stroke-width:1.5;" width="828" x="20" y="340.6172"/><text fill="#000000" font-family="sans-serif" font-size="13" font-weight="bold" lengthAdjust="spacing" textLength="17" x="35" y="354.1855">alt</text><text fill="#000000" font-family="sans-serif" font-size="11" font-weight="bold" lengthAdjust="spacing" textLength="194" x="97" y="353.252">[New password confirmation fails]</text><polygon fill="#181818" points="77,375.2383,67,379.2383,77,383.2383,73,379.2383" style="stroke:#181818;stroke-width:1.0;"/><line style="stroke:#181818;stroke-width:1.0;" x1="71" x2="455" y1="379.2383" y2="379.2383"/><text fill="#000000" font-family="sans-serif" font-size="13" font-weight="bold" lengthAdjust="spacing" textLength="9" x="83" y="374.4961">6</text><text fill="#000000" font-family="sans-serif" font-size="13" lengthAdjust="spacing" textLength="350" x="96" y="374.4961">Send error message (New password confirmation failed)</text><line style="stroke:#000000;stroke-width:1.0;stroke-dasharray:2.0,2.0;" x1="20" x2="848" y1="388.2383" y2="388.2383"/><text fill="#000000" font-family="sans-serif" font-size="11" font-weight="bold" lengthAdjust="spacing" textLength="228" x="25" y="398.873">[New password confirmation successful]</text><polygon fill="#181818" points="767,419.5039,777,423.5039,767,427.5039,771,423.5039" style="stroke:#181818;stroke-width:1.0;"/><line style="stroke:#181818;stroke-width:1.0;" x1="456" x2="773" y1="423.5039" y2="423.5039"/><text fill="#000000" font-family="sans-serif" font-size="13" font-weight="bold" lengthAdjust="spacing" textLength="9" x="463" y="418.7617">7</text><text fill="#000000" font-family="sans-serif" font-size="13" lengthAdjust="spacing" textLength="139" x="476" y="418.7617">Update user password</text><polygon fill="#181818" points="467,448.8145,457,452.8145,467,456.8145,463,452.8145" style="stroke:#181818;stroke-width:1.0;"/><line style="stroke:#181818;stroke-width:1.0;" x1="461" x2="778" y1="452.8145" y2="452.8145"/><text fill="#000000" font-family="sans-serif" font-size="13" font-weight="bold" lengthAdjust="spacing" textLength="9" x="473" y="448.0723">8</text><text fill="#000000" font-family="sans-serif" font-size="13" lengthAdjust="spacing" textLength="164" x="486" y="448.0723">Confirm password change</text><polygon fill="#181818" points="77,478.125,67,482.125,77,486.125,73,482.125" style="stroke:#181818;stroke-width:1.0;"/><line style="stroke:#181818;stroke-width:1.0;" x1="71" x2="455" y1="482.125" y2="482.125"/><text fill="#000000" font-family="sans-serif" font-size="13" font-weight="bold" lengthAdjust="spacing" textLength="9" x="83" y="477.3828">9</text><text fill="#000000" font-family="sans-serif" font-size="13" lengthAdjust="spacing" textLength="353" x="96" y="477.3828">Send success message (Password changed successfully)</text><!--SRC=[bLBTIiCm5BxFKnns8Tk5Bp2e5mu56UXGV82pv7GBIvDwacpqxJtjrgxEALeeDEdtUnBCAVXShOcLGfq2mqDLkz0G0KQOz8k9gf6JrRP6d-0UzOwywH3zznlntce16aounaYmf4QxWBiEzcJ89viQM77OMqCyKQeeOB55lo5OOOo7m0OUNJX0KQWXnErTxpQ7L_h851Ea0Fh8gtlUD3W3D-3fC5Dz8g7s4UPYH7e7jeGMED1i11sOIITODx2XLbkuQeW-jcTAcVqH0J8e7v92b-3bGj7wFJfh5CWpoj9NcikeP8UOHQEY656AJB-Bd8BD53aPvkN_gnP3rA6j3EHCgp3fBRMLVMbPLZRuJg9jyJn6ZX5GedMnm_shqU-2P6QTP5VkPsZCMejWcTsr0EVZVQ_bsX7aI3me3OohfxausenykolrXvwdJEUcgwyIPfJQDQUQtgZs_GG0]--></g></svg>