<?xml version="1.0" encoding="us-ascii" standalone="no"?><svg xmlns="http://www.w3.org/2000/svg" xmlns:xlink="http://www.w3.org/1999/xlink" contentStyleType="text/css" height="622px" preserveAspectRatio="none" style="width:720px;height:622px;background:#FFFFFF;" version="1.1" viewBox="0 0 720 622" width="720px" zoomAndPan="magnify"><defs/><g><rect fill="none" height="324.0156" style="stroke:#000000;stroke-width:1.5;" width="693" x="10" y="200.4199"/><line style="stroke:#181818;stroke-width:0.5;stroke-dasharray:5.0,5.0;" x1="45" x2="45" y1="81.4883" y2="541.4355"/><line style="stroke:#181818;stroke-width:0.5;stroke-dasharray:5.0,5.0;" x1="283" x2="283" y1="81.4883" y2="541.4355"/><line style="stroke:#181818;stroke-width:0.5;stroke-dasharray:5.0,5.0;" x1="460.5" x2="460.5" y1="81.4883" y2="541.4355"/><line style="stroke:#181818;stroke-width:0.5;stroke-dasharray:5.0,5.0;" x1="658" x2="658" y1="81.4883" y2="541.4355"/><text fill="#000000" font-family="sans-serif" font-size="14" lengthAdjust="spacing" textLength="45" x="20" y="78.5352">Admin</text><ellipse cx="45.5" cy="13.5" fill="#E2E2F0" rx="8" ry="8" style="stroke:#181818;stroke-width:0.5;"/><path d="M45.5,21.5 L45.5,48.5 M32.5,29.5 L58.5,29.5 M45.5,48.5 L32.5,63.5 M45.5,48.5 L58.5,63.5 " fill="none" style="stroke:#181818;stroke-width:0.5;"/><text fill="#000000" font-family="sans-serif" font-size="14" lengthAdjust="spacing" textLength="45" x="20" y="553.9707">Admin</text><ellipse cx="45.5" cy="565.4238" fill="#E2E2F0" rx="8" ry="8" style="stroke:#181818;stroke-width:0.5;"/><path d="M45.5,573.4238 L45.5,600.4238 M32.5,581.4238 L58.5,581.4238 M45.5,600.4238 L32.5,615.4238 M45.5,600.4238 L58.5,615.4238 " fill="none" style="stroke:#181818;stroke-width:0.5;"/><rect fill="#E2E2F0" height="30.4883" rx="2.5" ry="2.5" style="stroke:#181818;stroke-width:0.5;" width="123" x="222" y="50"/><text fill="#000000" font-family="sans-serif" font-size="14" lengthAdjust="spacing" textLength="109" x="229" y="70.5352">Backend Service</text><rect fill="#E2E2F0" height="30.4883" rx="2.5" ry="2.5" style="stroke:#181818;stroke-width:0.5;" width="123" x="222" y="540.4355"/><text fill="#000000" font-family="sans-serif" font-size="14" lengthAdjust="spacing" textLength="109" x="229" y="560.9707">Backend Service</text><rect fill="#E2E2F0" height="30.4883" rx="2.5" ry="2.5" style="stroke:#181818;stroke-width:0.5;" width="200" x="360.5" y="50"/><text fill="#000000" font-family="sans-serif" font-size="14" lengthAdjust="spacing" textLength="186" x="367.5" y="70.5352">Keycloak (Identity Provider)</text><rect fill="#E2E2F0" height="30.4883" rx="2.5" ry="2.5" style="stroke:#181818;stroke-width:0.5;" width="200" x="360.5" y="540.4355"/><text fill="#000000" font-family="sans-serif" font-size="14" lengthAdjust="spacing" textLength="186" x="367.5" y="560.9707">Keycloak (Identity Provider)</text><text fill="#000000" font-family="sans-serif" font-size="14" lengthAdjust="spacing" textLength="63" x="624" y="78.5352">Database</text><path d="M640.5,29 C640.5,19 658.5,19 658.5,19 C658.5,19 676.5,19 676.5,29 L676.5,55 C676.5,65 658.5,65 658.5,65 C658.5,65 640.5,65 640.5,55 L640.5,29 " fill="#E2E2F0" style="stroke:#181818;stroke-width:1.5;"/><path d="M640.5,29 C640.5,39 658.5,39 658.5,39 C658.5,39 676.5,39 676.5,29 " fill="none" style="stroke:#181818;stroke-width:1.5;"/><text fill="#000000" font-family="sans-serif" font-size="14" lengthAdjust="spacing" textLength="63" x="624" y="553.9707">Database</text><path d="M640.5,566.9238 C640.5,556.9238 658.5,556.9238 658.5,556.9238 C658.5,556.9238 676.5,556.9238 676.5,566.9238 L676.5,592.9238 C676.5,602.9238 658.5,602.9238 658.5,602.9238 C658.5,602.9238 640.5,602.9238 640.5,592.9238 L640.5,566.9238 " fill="#E2E2F0" style="stroke:#181818;stroke-width:1.5;"/><path d="M640.5,566.9238 C640.5,576.9238 658.5,576.9238 658.5,576.9238 C658.5,576.9238 676.5,576.9238 676.5,566.9238 " fill="none" style="stroke:#181818;stroke-width:1.5;"/><rect fill="#EEEEEE" height="3" style="stroke:#EEEEEE;stroke-width:1.0;" width="713" x="0" y="112.1436"/><line style="stroke:#000000;stroke-width:1.0;" x1="0" x2="713" y1="112.1436" y2="112.1436"/><line style="stroke:#000000;stroke-width:1.0;" x1="0" x2="713" y1="115.1436" y2="115.1436"/><rect fill="#EEEEEE" height="23.3105" style="stroke:#000000;stroke-width:2.0;" width="179" x="267" y="101.4883"/><text fill="#000000" font-family="sans-serif" font-size="13" font-weight="bold" lengthAdjust="spacing" textLength="161" x="273" y="118.0566">Employee Creation Flow</text><polygon fill="#181818" points="271.5,152.1094,281.5,156.1094,271.5,160.1094,275.5,156.1094" style="stroke:#181818;stroke-width:1.0;"/><line style="stroke:#181818;stroke-width:1.0;" x1="45.5" x2="277.5" y1="156.1094" y2="156.1094"/><text fill="#000000" font-family="sans-serif" font-size="13" font-weight="bold" lengthAdjust="spacing" textLength="9" x="52.5" y="151.3672">1</text><text fill="#000000" font-family="sans-serif" font-size="13" lengthAdjust="spacing" textLength="166" x="65.5" y="151.3672">Employee creation request</text><polygon fill="#181818" points="448.5,181.4199,458.5,185.4199,448.5,189.4199,452.5,185.4199" style="stroke:#181818;stroke-width:1.0;"/><line style="stroke:#181818;stroke-width:1.0;stroke-dasharray:2.0,2.0;" x1="283.5" x2="454.5" y1="185.4199" y2="185.4199"/><text fill="#000000" font-family="sans-serif" font-size="13" font-weight="bold" lengthAdjust="spacing" textLength="9" x="290.5" y="180.6777">2</text><text fill="#000000" font-family="sans-serif" font-size="13" lengthAdjust="spacing" textLength="71" x="303.5" y="180.6777">Create user</text><path d="M10,200.4199 L72,200.4199 L72,207.7305 L62,217.7305 L10,217.7305 L10,200.4199 " fill="#EEEEEE" style="stroke:#000000;stroke-width:1.5;"/><rect fill="none" height="324.0156" style="stroke:#000000;stroke-width:1.5;" width="693" x="10" y="200.4199"/><text fill="#000000" font-family="sans-serif" font-size="13" font-weight="bold" lengthAdjust="spacing" textLength="17" x="25" y="213.9883">alt</text><a href="User exists" target="_top" title="User exists" xlink:actuate="onRequest" xlink:href="User exists" xlink:show="new" xlink:title="User exists" xlink:type="simple"><text fill="#0000FF" font-family="sans-serif" font-size="11" font-weight="bold" lengthAdjust="spacing" text-decoration="underline" textLength="61" x="87" y="213.0547">User exists</text></a><polygon fill="#181818" points="294.5,235.041,284.5,239.041,294.5,243.041,290.5,239.041" style="stroke:#181818;stroke-width:1.0;"/><line style="stroke:#181818;stroke-width:1.0;" x1="288.5" x2="459.5" y1="239.041" y2="239.041"/><text fill="#000000" font-family="sans-serif" font-size="13" font-weight="bold" lengthAdjust="spacing" textLength="9" x="300.5" y="234.2988">3</text><text fill="#000000" font-family="sans-serif" font-size="13" lengthAdjust="spacing" textLength="119" x="313.5" y="234.2988">User already exists</text><polygon fill="#181818" points="56.5,264.3516,46.5,268.3516,56.5,272.3516,52.5,268.3516" style="stroke:#181818;stroke-width:1.0;"/><line style="stroke:#181818;stroke-width:1.0;" x1="50.5" x2="282.5" y1="268.3516" y2="268.3516"/><text fill="#000000" font-family="sans-serif" font-size="13" font-weight="bold" lengthAdjust="spacing" textLength="9" x="62.5" y="263.6094">4</text><text fill="#000000" font-family="sans-serif" font-size="13" lengthAdjust="spacing" textLength="112" x="75.5" y="263.6094">Notify user exists</text><line style="stroke:#000000;stroke-width:1.0;stroke-dasharray:2.0,2.0;" x1="10" x2="703" y1="277.3516" y2="277.3516"/><a href="Error case" target="_top" title="Error case" xlink:actuate="onRequest" xlink:href="Error case" xlink:show="new" xlink:title="Error case" xlink:type="simple"><text fill="#0000FF" font-family="sans-serif" font-size="11" font-weight="bold" lengthAdjust="spacing" text-decoration="underline" textLength="57" x="15" y="287.9863">Error case</text></a><polygon fill="#181818" points="294.5,308.6172,284.5,312.6172,294.5,316.6172,290.5,312.6172" style="stroke:#181818;stroke-width:1.0;"/><line style="stroke:#181818;stroke-width:1.0;" x1="288.5" x2="459.5" y1="312.6172" y2="312.6172"/><text fill="#000000" font-family="sans-serif" font-size="13" font-weight="bold" lengthAdjust="spacing" textLength="9" x="300.5" y="307.875">5</text><text fill="#000000" font-family="sans-serif" font-size="13" lengthAdjust="spacing" textLength="140" x="313.5" y="307.875">General error occurred</text><polygon fill="#181818" points="56.5,337.9277,46.5,341.9277,56.5,345.9277,52.5,341.9277" style="stroke:#181818;stroke-width:1.0;"/><line style="stroke:#181818;stroke-width:1.0;" x1="50.5" x2="282.5" y1="341.9277" y2="341.9277"/><text fill="#000000" font-family="sans-serif" font-size="13" font-weight="bold" lengthAdjust="spacing" textLength="9" x="62.5" y="337.1855">6</text><text fill="#000000" font-family="sans-serif" font-size="13" lengthAdjust="spacing" textLength="73" x="75.5" y="337.1855">Notify error</text><line style="stroke:#000000;stroke-width:1.0;stroke-dasharray:2.0,2.0;" x1="10" x2="703" y1="350.9277" y2="350.9277"/><a href="Success case" target="_top" title="Success case" xlink:actuate="onRequest" xlink:href="Success case" xlink:show="new" xlink:title="Success case" xlink:type="simple"><text fill="#0000FF" font-family="sans-serif" font-size="11" font-weight="bold" lengthAdjust="spacing" text-decoration="underline" textLength="71" x="15" y="361.5625">Success case</text></a><line style="stroke:#181818;stroke-width:1.0;" x1="460.5" x2="502.5" y1="386.1934" y2="386.1934"/><line style="stroke:#181818;stroke-width:1.0;" x1="502.5" x2="502.5" y1="386.1934" y2="399.1934"/><line style="stroke:#181818;stroke-width:1.0;" x1="461.5" x2="502.5" y1="399.1934" y2="399.1934"/><polygon fill="#181818" points="471.5,395.1934,461.5,399.1934,471.5,403.1934,467.5,399.1934" style="stroke:#181818;stroke-width:1.0;"/><text fill="#000000" font-family="sans-serif" font-size="13" font-weight="bold" lengthAdjust="spacing" textLength="9" x="467.5" y="381.4512">7</text><text fill="#000000" font-family="sans-serif" font-size="13" lengthAdjust="spacing" textLength="171" x="480.5" y="381.4512">Create user and assign role</text><polygon fill="#181818" points="294.5,424.5039,284.5,428.5039,294.5,432.5039,290.5,428.5039" style="stroke:#181818;stroke-width:1.0;"/><line style="stroke:#181818;stroke-width:1.0;stroke-dasharray:2.0,2.0;" x1="288.5" x2="459.5" y1="428.5039" y2="428.5039"/><text fill="#000000" font-family="sans-serif" font-size="13" font-weight="bold" lengthAdjust="spacing" textLength="9" x="300.5" y="423.7617">8</text><text fill="#000000" font-family="sans-serif" font-size="13" lengthAdjust="spacing" textLength="117" x="313.5" y="423.7617">Return employeeId</text><polygon fill="#181818" points="646.5,453.8145,656.5,457.8145,646.5,461.8145,650.5,457.8145" style="stroke:#181818;stroke-width:1.0;"/><line style="stroke:#181818;stroke-width:1.0;stroke-dasharray:2.0,2.0;" x1="283.5" x2="652.5" y1="457.8145" y2="457.8145"/><text fill="#000000" font-family="sans-serif" font-size="13" font-weight="bold" lengthAdjust="spacing" textLength="9" x="290.5" y="453.0723">9</text><text fill="#000000" font-family="sans-serif" font-size="13" lengthAdjust="spacing" textLength="138" x="303.5" y="453.0723">Save employee details</text><polygon fill="#181818" points="294.5,483.125,284.5,487.125,294.5,491.125,290.5,487.125" style="stroke:#181818;stroke-width:1.0;"/><line style="stroke:#181818;stroke-width:1.0;" x1="288.5" x2="657.5" y1="487.125" y2="487.125"/><text fill="#000000" font-family="sans-serif" font-size="13" font-weight="bold" lengthAdjust="spacing" textLength="18" x="300.5" y="482.3828">10</text><text fill="#000000" font-family="sans-serif" font-size="13" lengthAdjust="spacing" textLength="99" x="322.5" y="482.3828">Save successful</text><polygon fill="#181818" points="56.5,512.4355,46.5,516.4355,56.5,520.4355,52.5,516.4355" style="stroke:#181818;stroke-width:1.0;"/><line style="stroke:#181818;stroke-width:1.0;" x1="50.5" x2="282.5" y1="516.4355" y2="516.4355"/><text fill="#000000" font-family="sans-serif" font-size="13" font-weight="bold" lengthAdjust="spacing" textLength="18" x="62.5" y="511.6934">11</text><text fill="#000000" font-family="sans-serif" font-size="13" lengthAdjust="spacing" textLength="192" x="84.5" y="511.6934">Employee created successfully</text><!--SRC=[VP71JW8n48RlVOf9JthW1JPP4X4qnCGOYIVYOMW7qz1jiPsY-_RMBhikHEXfcdxJ_vz_CB5tgTbG408L-m1tkZ4EC88ibHHx36oKsQDZcA7QaTFbkQzN50v6qIduHAso7dU572utIqsE3RVm4lp1Q0gtKcXat60acCyAFJ_UfH1r3OjcRtrB1FU1a8rty63z5zIrw8nEfhsfwezLFHleCr5aqNkTPBntKtLV4gIOfqVBi9PlkGJwDf6ZV1UGp-1zB5GmjBbTjqUym8FCj8knWcVFPjiMYHuacsTToqK8EMtrE-WLfKTo5D025TehbK8WVLsiiBtCAYb5CLuI-ZSCmBBYQ3voWjxIMTVOtojn2WxecFpop5f6vxCALdYWWG5DZCPsYUMTZxyhOEmiRvEzCEVfdacFEcmhCli3]--></g></svg>