<?xml version="1.0" encoding="us-ascii" standalone="no"?><svg xmlns="http://www.w3.org/2000/svg" xmlns:xlink="http://www.w3.org/1999/xlink" contentStyleType="text/css" height="743px" preserveAspectRatio="none" style="width:646px;height:743px;background:#FFFFFF;" version="1.1" viewBox="0 0 646 743" width="646px" zoomAndPan="magnify"><defs/><g><rect fill="none" height="445.2129" style="stroke:#000000;stroke-width:1.5;" width="619" x="10" y="200.4199"/><rect fill="none" height="208.1289" style="stroke:#000000;stroke-width:1.5;" width="599" x="20" y="430.5039"/><line style="stroke:#181818;stroke-width:0.5;stroke-dasharray:5.0,5.0;" x1="55" x2="55" y1="81.4883" y2="662.6328"/><line style="stroke:#181818;stroke-width:0.5;stroke-dasharray:5.0,5.0;" x1="258" x2="258" y1="81.4883" y2="662.6328"/><line style="stroke:#181818;stroke-width:0.5;stroke-dasharray:5.0,5.0;" x1="430" x2="430" y1="81.4883" y2="662.6328"/><line style="stroke:#181818;stroke-width:0.5;stroke-dasharray:5.0,5.0;" x1="574" x2="574" y1="81.4883" y2="662.6328"/><text fill="#000000" font-family="sans-serif" font-size="14" lengthAdjust="spacing" textLength="45" x="30" y="78.5352">Admin</text><ellipse cx="55.5" cy="13.5" fill="#E2E2F0" rx="8" ry="8" style="stroke:#181818;stroke-width:0.5;"/><path d="M55.5,21.5 L55.5,48.5 M42.5,29.5 L68.5,29.5 M55.5,48.5 L42.5,63.5 M55.5,48.5 L68.5,63.5 " fill="none" style="stroke:#181818;stroke-width:0.5;"/><text fill="#000000" font-family="sans-serif" font-size="14" lengthAdjust="spacing" textLength="45" x="30" y="675.168">Admin</text><ellipse cx="55.5" cy="686.6211" fill="#E2E2F0" rx="8" ry="8" style="stroke:#181818;stroke-width:0.5;"/><path d="M55.5,694.6211 L55.5,721.6211 M42.5,702.6211 L68.5,702.6211 M55.5,721.6211 L42.5,736.6211 M55.5,721.6211 L68.5,736.6211 " fill="none" style="stroke:#181818;stroke-width:0.5;"/><rect fill="#E2E2F0" height="30.4883" rx="2.5" ry="2.5" style="stroke:#181818;stroke-width:0.5;" width="123" x="197" y="50"/><text fill="#000000" font-family="sans-serif" font-size="14" lengthAdjust="spacing" textLength="109" x="204" y="70.5352">Backend Service</text><rect fill="#E2E2F0" height="30.4883" rx="2.5" ry="2.5" style="stroke:#181818;stroke-width:0.5;" width="123" x="197" y="661.6328"/><text fill="#000000" font-family="sans-serif" font-size="14" lengthAdjust="spacing" textLength="109" x="204" y="682.168">Backend Service</text><rect fill="#E2E2F0" height="30.4883" rx="2.5" ry="2.5" style="stroke:#181818;stroke-width:0.5;" width="200" x="330" y="50"/><text fill="#000000" font-family="sans-serif" font-size="14" lengthAdjust="spacing" textLength="186" x="337" y="70.5352">Keycloak (Identity Provider)</text><rect fill="#E2E2F0" height="30.4883" rx="2.5" ry="2.5" style="stroke:#181818;stroke-width:0.5;" width="200" x="330" y="661.6328"/><text fill="#000000" font-family="sans-serif" font-size="14" lengthAdjust="spacing" textLength="186" x="337" y="682.168">Keycloak (Identity Provider)</text><text fill="#000000" font-family="sans-serif" font-size="14" lengthAdjust="spacing" textLength="63" x="540" y="78.5352">Database</text><path d="M556.5,29 C556.5,19 574.5,19 574.5,19 C574.5,19 592.5,19 592.5,29 L592.5,55 C592.5,65 574.5,65 574.5,65 C574.5,65 556.5,65 556.5,55 L556.5,29 " fill="#E2E2F0" style="stroke:#181818;stroke-width:1.5;"/><path d="M556.5,29 C556.5,39 574.5,39 574.5,39 C574.5,39 592.5,39 592.5,29 " fill="none" style="stroke:#181818;stroke-width:1.5;"/><text fill="#000000" font-family="sans-serif" font-size="14" lengthAdjust="spacing" textLength="63" x="540" y="675.168">Database</text><path d="M556.5,688.1211 C556.5,678.1211 574.5,678.1211 574.5,678.1211 C574.5,678.1211 592.5,678.1211 592.5,688.1211 L592.5,714.1211 C592.5,724.1211 574.5,724.1211 574.5,724.1211 C574.5,724.1211 556.5,724.1211 556.5,714.1211 L556.5,688.1211 " fill="#E2E2F0" style="stroke:#181818;stroke-width:1.5;"/><path d="M556.5,688.1211 C556.5,698.1211 574.5,698.1211 574.5,698.1211 C574.5,698.1211 592.5,698.1211 592.5,688.1211 " fill="none" style="stroke:#181818;stroke-width:1.5;"/><rect fill="#EEEEEE" height="3" style="stroke:#EEEEEE;stroke-width:1.0;" width="639" x="0" y="112.1436"/><line style="stroke:#000000;stroke-width:1.0;" x1="0" x2="639" y1="112.1436" y2="112.1436"/><line style="stroke:#000000;stroke-width:1.0;" x1="0" x2="639" y1="115.1436" y2="115.1436"/><rect fill="#EEEEEE" height="23.3105" style="stroke:#000000;stroke-width:2.0;" width="179" x="230" y="101.4883"/><text fill="#000000" font-family="sans-serif" font-size="13" font-weight="bold" lengthAdjust="spacing" textLength="161" x="236" y="118.0566">Employee Deleting Flow</text><polygon fill="#181818" points="246.5,152.1094,256.5,156.1094,246.5,160.1094,250.5,156.1094" style="stroke:#181818;stroke-width:1.0;"/><line style="stroke:#181818;stroke-width:1.0;" x1="55.5" x2="252.5" y1="156.1094" y2="156.1094"/><text fill="#000000" font-family="sans-serif" font-size="13" font-weight="bold" lengthAdjust="spacing" textLength="9" x="62.5" y="151.3672">1</text><text fill="#000000" font-family="sans-serif" font-size="13" lengthAdjust="spacing" textLength="166" x="75.5" y="151.3672">Employee creation request</text><polygon fill="#181818" points="418,181.4199,428,185.4199,418,189.4199,422,185.4199" style="stroke:#181818;stroke-width:1.0;"/><line style="stroke:#181818;stroke-width:1.0;" x1="258.5" x2="424" y1="185.4199" y2="185.4199"/><text fill="#000000" font-family="sans-serif" font-size="13" font-weight="bold" lengthAdjust="spacing" textLength="9" x="265.5" y="180.6777">2</text><text fill="#000000" font-family="sans-serif" font-size="13" lengthAdjust="spacing" textLength="69" x="278.5" y="180.6777">delete user</text><path d="M10,200.4199 L72,200.4199 L72,207.7305 L62,217.7305 L10,217.7305 L10,200.4199 " fill="#EEEEEE" style="stroke:#000000;stroke-width:1.5;"/><rect fill="none" height="445.2129" style="stroke:#000000;stroke-width:1.5;" width="619" x="10" y="200.4199"/><text fill="#000000" font-family="sans-serif" font-size="13" font-weight="bold" lengthAdjust="spacing" textLength="17" x="25" y="213.9883">alt</text><a href="User not exist" target="_top" title="User not exist" xlink:actuate="onRequest" xlink:href="User not exist" xlink:show="new" xlink:title="User not exist" xlink:type="simple"><text fill="#0000FF" font-family="sans-serif" font-size="11" font-weight="bold" lengthAdjust="spacing" text-decoration="underline" textLength="77" x="87" y="213.0547">User not exist</text></a><polygon fill="#181818" points="269.5,235.041,259.5,239.041,269.5,243.041,265.5,239.041" style="stroke:#181818;stroke-width:1.0;"/><line style="stroke:#181818;stroke-width:1.0;" x1="263.5" x2="429" y1="239.041" y2="239.041"/><text fill="#000000" font-family="sans-serif" font-size="13" font-weight="bold" lengthAdjust="spacing" textLength="9" x="275.5" y="234.2988">3</text><text fill="#000000" font-family="sans-serif" font-size="13" lengthAdjust="spacing" textLength="93" x="288.5" y="234.2988">user not found</text><polygon fill="#181818" points="66.5,264.3516,56.5,268.3516,66.5,272.3516,62.5,268.3516" style="stroke:#181818;stroke-width:1.0;"/><line style="stroke:#181818;stroke-width:1.0;" x1="60.5" x2="257.5" y1="268.3516" y2="268.3516"/><text fill="#000000" font-family="sans-serif" font-size="13" font-weight="bold" lengthAdjust="spacing" textLength="9" x="72.5" y="263.6094">4</text><text fill="#000000" font-family="sans-serif" font-size="13" lengthAdjust="spacing" textLength="135" x="85.5" y="263.6094">employee is not exist</text><line style="stroke:#000000;stroke-width:1.0;stroke-dasharray:2.0,2.0;" x1="10" x2="629" y1="277.3516" y2="277.3516"/><a href="Other errors" target="_top" title="Other errors" xlink:actuate="onRequest" xlink:href="Other errors" xlink:show="new" xlink:title="Other errors" xlink:type="simple"><text fill="#0000FF" font-family="sans-serif" font-size="11" font-weight="bold" lengthAdjust="spacing" text-decoration="underline" textLength="69" x="15" y="287.9863">Other errors</text></a><polygon fill="#181818" points="269.5,308.6172,259.5,312.6172,269.5,316.6172,265.5,312.6172" style="stroke:#181818;stroke-width:1.0;"/><line style="stroke:#181818;stroke-width:1.0;" x1="263.5" x2="429" y1="312.6172" y2="312.6172"/><text fill="#000000" font-family="sans-serif" font-size="13" font-weight="bold" lengthAdjust="spacing" textLength="9" x="275.5" y="307.875">5</text><text fill="#000000" font-family="sans-serif" font-size="13" lengthAdjust="spacing" textLength="80" x="288.5" y="307.875">general error</text><polygon fill="#181818" points="66.5,337.9277,56.5,341.9277,66.5,345.9277,62.5,341.9277" style="stroke:#181818;stroke-width:1.0;"/><line style="stroke:#181818;stroke-width:1.0;" x1="60.5" x2="257.5" y1="341.9277" y2="341.9277"/><text fill="#000000" font-family="sans-serif" font-size="13" font-weight="bold" lengthAdjust="spacing" textLength="9" x="72.5" y="337.1855">6</text><text fill="#000000" font-family="sans-serif" font-size="13" lengthAdjust="spacing" textLength="80" x="85.5" y="337.1855">general error</text><line style="stroke:#000000;stroke-width:1.0;stroke-dasharray:2.0,2.0;" x1="10" x2="629" y1="350.9277" y2="350.9277"/><a href="employee exist" target="_top" title="employee exist" xlink:actuate="onRequest" xlink:href="employee exist" xlink:show="new" xlink:title="employee exist" xlink:type="simple"><text fill="#0000FF" font-family="sans-serif" font-size="11" font-weight="bold" lengthAdjust="spacing" text-decoration="underline" textLength="83" x="15" y="361.5625">employee exist</text></a><polygon fill="#181818" points="269.5,382.1934,259.5,386.1934,269.5,390.1934,265.5,386.1934" style="stroke:#181818;stroke-width:1.0;"/><line style="stroke:#181818;stroke-width:1.0;" x1="263.5" x2="429" y1="386.1934" y2="386.1934"/><text fill="#000000" font-family="sans-serif" font-size="13" font-weight="bold" lengthAdjust="spacing" textLength="9" x="275.5" y="381.4512">7</text><text fill="#000000" font-family="sans-serif" font-size="13" lengthAdjust="spacing" textLength="92" x="288.5" y="381.4512">delete success</text><polygon fill="#181818" points="562.5,411.5039,572.5,415.5039,562.5,419.5039,566.5,415.5039" style="stroke:#181818;stroke-width:1.0;"/><line style="stroke:#181818;stroke-width:1.0;" x1="258.5" x2="568.5" y1="415.5039" y2="415.5039"/><text fill="#000000" font-family="sans-serif" font-size="13" font-weight="bold" lengthAdjust="spacing" textLength="9" x="265.5" y="410.7617">8</text><text fill="#000000" font-family="sans-serif" font-size="13" lengthAdjust="spacing" textLength="133" x="278.5" y="410.7617">Fetch employee by id</text><path d="M20,430.5039 L82,430.5039 L82,437.8145 L72,447.8145 L20,447.8145 L20,430.5039 " fill="#EEEEEE" style="stroke:#000000;stroke-width:1.5;"/><rect fill="none" height="208.1289" style="stroke:#000000;stroke-width:1.5;" width="599" x="20" y="430.5039"/><text fill="#000000" font-family="sans-serif" font-size="13" font-weight="bold" lengthAdjust="spacing" textLength="17" x="35" y="444.0723">alt</text><a href="user not exist" target="_top" title="user not exist" xlink:actuate="onRequest" xlink:href="user not exist" xlink:show="new" xlink:title="user not exist" xlink:type="simple"><text fill="#0000FF" font-family="sans-serif" font-size="11" font-weight="bold" lengthAdjust="spacing" text-decoration="underline" textLength="76" x="97" y="443.1387">user not exist</text></a><polygon fill="#181818" points="269.5,465.125,259.5,469.125,269.5,473.125,265.5,469.125" style="stroke:#181818;stroke-width:1.0;"/><line style="stroke:#181818;stroke-width:1.0;" x1="263.5" x2="573.5" y1="469.125" y2="469.125"/><text fill="#000000" font-family="sans-serif" font-size="13" font-weight="bold" lengthAdjust="spacing" textLength="9" x="275.5" y="464.3828">9</text><text fill="#000000" font-family="sans-serif" font-size="13" lengthAdjust="spacing" textLength="62" x="288.5" y="464.3828">not found</text><polygon fill="#181818" points="66.5,494.4355,56.5,498.4355,66.5,502.4355,62.5,498.4355" style="stroke:#181818;stroke-width:1.0;"/><line style="stroke:#181818;stroke-width:1.0;" x1="60.5" x2="257.5" y1="498.4355" y2="498.4355"/><text fill="#000000" font-family="sans-serif" font-size="13" font-weight="bold" lengthAdjust="spacing" textLength="18" x="72.5" y="493.6934">10</text><text fill="#000000" font-family="sans-serif" font-size="13" lengthAdjust="spacing" textLength="120" x="94.5" y="493.6934">employee not exist</text><line style="stroke:#000000;stroke-width:1.0;stroke-dasharray:2.0,2.0;" x1="20" x2="619" y1="507.4355" y2="507.4355"/><a href="employee exist in db" target="_top" title="employee exist in db" xlink:actuate="onRequest" xlink:href="employee exist in db" xlink:show="new" xlink:title="employee exist in db" xlink:type="simple"><text fill="#0000FF" font-family="sans-serif" font-size="11" font-weight="bold" lengthAdjust="spacing" text-decoration="underline" textLength="116" x="25" y="518.0703">employee exist in db</text></a><polygon fill="#181818" points="269.5,538.7012,259.5,542.7012,269.5,546.7012,265.5,542.7012" style="stroke:#181818;stroke-width:1.0;"/><line style="stroke:#181818;stroke-width:1.0;" x1="263.5" x2="573.5" y1="542.7012" y2="542.7012"/><text fill="#000000" font-family="sans-serif" font-size="13" font-weight="bold" lengthAdjust="spacing" textLength="18" x="275.5" y="537.959">11</text><text fill="#000000" font-family="sans-serif" font-size="13" lengthAdjust="spacing" textLength="60" x="297.5" y="537.959">employee</text><polygon fill="#181818" points="562.5,568.0117,572.5,572.0117,562.5,576.0117,566.5,572.0117" style="stroke:#181818;stroke-width:1.0;"/><line style="stroke:#181818;stroke-width:1.0;" x1="258.5" x2="568.5" y1="572.0117" y2="572.0117"/><text fill="#000000" font-family="sans-serif" font-size="13" font-weight="bold" lengthAdjust="spacing" textLength="18" x="265.5" y="567.2695">12</text><text fill="#000000" font-family="sans-serif" font-size="13" lengthAdjust="spacing" textLength="102" x="287.5" y="567.2695">delete employee</text><polygon fill="#181818" points="269.5,597.3223,259.5,601.3223,269.5,605.3223,265.5,601.3223" style="stroke:#181818;stroke-width:1.0;"/><line style="stroke:#181818;stroke-width:1.0;" x1="263.5" x2="573.5" y1="601.3223" y2="601.3223"/><text fill="#000000" font-family="sans-serif" font-size="13" font-weight="bold" lengthAdjust="spacing" textLength="18" x="275.5" y="596.5801">13</text><text fill="#000000" font-family="sans-serif" font-size="13" lengthAdjust="spacing" textLength="46" x="297.5" y="596.5801">deleted</text><polygon fill="#181818" points="66.5,626.6328,56.5,630.6328,66.5,634.6328,62.5,630.6328" style="stroke:#181818;stroke-width:1.0;"/><line style="stroke:#181818;stroke-width:1.0;" x1="60.5" x2="257.5" y1="630.6328" y2="630.6328"/><text fill="#000000" font-family="sans-serif" font-size="13" font-weight="bold" lengthAdjust="spacing" textLength="18" x="72.5" y="625.8906">14</text><text fill="#000000" font-family="sans-serif" font-size="13" lengthAdjust="spacing" textLength="92" x="94.5" y="625.8906">delete success</text><!--SRC=[XPBBQWCX58RtFiN1LRle2mnCeI4Db2nQA5s5BXmzJIH6KpscdRUlSp4pIIU982X-dFyo8o8v6tSLUiQ49EVXIUsq1H60joVEziAJbdelBC5Co2rQrJxdyplwWvPu2YwnbiQ9RKiUBtSl2Yrfgk7DkuDMwEyvKu949GB2VDRIy_xE6IjBUDxjZQinlQ91qdOD2-D-e2nPP_JXCPig1bPw5AIT1O_V4GEnx3NHsKm1gfc844CABmp1Yd-a8rX7WByw4FzaaDRH_LWgPlBBHQjQRgJHMYi0inyTXgaCJSgwug-qIIFGU-V3DQKrMlJ2TEG5eLEc5pYgtmpJ5n6Yb1Z2kSPyLi02IMw6F5KDkWlTzHQdUcjM-gHZeTF2RfGsDDQ0aw4W_G2gkgoNwIcv9bOV_1zsDgR3hfcUQ301BEq_]--></g></svg>