<?xml version="1.0" encoding="us-ascii" standalone="no"?><svg xmlns="http://www.w3.org/2000/svg" xmlns:xlink="http://www.w3.org/1999/xlink" contentStyleType="text/css" height="548px" preserveAspectRatio="none" style="width:480px;height:548px;background:#FFFFFF;" version="1.1" viewBox="0 0 480 548" width="480px" zoomAndPan="magnify"><defs/><g><rect fill="none" height="250.4395" style="stroke:#000000;stroke-width:1.5;" width="453" x="10" y="200.4199"/><line style="stroke:#181818;stroke-width:0.5;stroke-dasharray:5.0,5.0;" x1="45" x2="45" y1="81.4883" y2="467.8594"/><line style="stroke:#181818;stroke-width:0.5;stroke-dasharray:5.0,5.0;" x1="248" x2="248" y1="81.4883" y2="467.8594"/><line style="stroke:#181818;stroke-width:0.5;stroke-dasharray:5.0,5.0;" x1="418" x2="418" y1="81.4883" y2="467.8594"/><text fill="#000000" font-family="sans-serif" font-size="14" lengthAdjust="spacing" textLength="45" x="20" y="78.5352">Admin</text><ellipse cx="45.5" cy="13.5" fill="#E2E2F0" rx="8" ry="8" style="stroke:#181818;stroke-width:0.5;"/><path d="M45.5,21.5 L45.5,48.5 M32.5,29.5 L58.5,29.5 M45.5,48.5 L32.5,63.5 M45.5,48.5 L58.5,63.5 " fill="none" style="stroke:#181818;stroke-width:0.5;"/><text fill="#000000" font-family="sans-serif" font-size="14" lengthAdjust="spacing" textLength="45" x="20" y="480.3945">Admin</text><ellipse cx="45.5" cy="491.8477" fill="#E2E2F0" rx="8" ry="8" style="stroke:#181818;stroke-width:0.5;"/><path d="M45.5,499.8477 L45.5,526.8477 M32.5,507.8477 L58.5,507.8477 M45.5,526.8477 L32.5,541.8477 M45.5,526.8477 L58.5,541.8477 " fill="none" style="stroke:#181818;stroke-width:0.5;"/><rect fill="#E2E2F0" height="30.4883" rx="2.5" ry="2.5" style="stroke:#181818;stroke-width:0.5;" width="123" x="187" y="50"/><text fill="#000000" font-family="sans-serif" font-size="14" lengthAdjust="spacing" textLength="109" x="194" y="70.5352">Backend Service</text><rect fill="#E2E2F0" height="30.4883" rx="2.5" ry="2.5" style="stroke:#181818;stroke-width:0.5;" width="123" x="187" y="466.8594"/><text fill="#000000" font-family="sans-serif" font-size="14" lengthAdjust="spacing" textLength="109" x="194" y="487.3945">Backend Service</text><text fill="#000000" font-family="sans-serif" font-size="14" lengthAdjust="spacing" textLength="63" x="384" y="78.5352">Database</text><path d="M400.5,29 C400.5,19 418.5,19 418.5,19 C418.5,19 436.5,19 436.5,29 L436.5,55 C436.5,65 418.5,65 418.5,65 C418.5,65 400.5,65 400.5,55 L400.5,29 " fill="#E2E2F0" style="stroke:#181818;stroke-width:1.5;"/><path d="M400.5,29 C400.5,39 418.5,39 418.5,39 C418.5,39 436.5,39 436.5,29 " fill="none" style="stroke:#181818;stroke-width:1.5;"/><text fill="#000000" font-family="sans-serif" font-size="14" lengthAdjust="spacing" textLength="63" x="384" y="480.3945">Database</text><path d="M400.5,493.3477 C400.5,483.3477 418.5,483.3477 418.5,483.3477 C418.5,483.3477 436.5,483.3477 436.5,493.3477 L436.5,519.3477 C436.5,529.3477 418.5,529.3477 418.5,529.3477 C418.5,529.3477 400.5,529.3477 400.5,519.3477 L400.5,493.3477 " fill="#E2E2F0" style="stroke:#181818;stroke-width:1.5;"/><path d="M400.5,493.3477 C400.5,503.3477 418.5,503.3477 418.5,503.3477 C418.5,503.3477 436.5,503.3477 436.5,493.3477 " fill="none" style="stroke:#181818;stroke-width:1.5;"/><rect fill="#EEEEEE" height="3" style="stroke:#EEEEEE;stroke-width:1.0;" width="473" x="0" y="112.1436"/><line style="stroke:#000000;stroke-width:1.0;" x1="0" x2="473" y1="112.1436" y2="112.1436"/><line style="stroke:#000000;stroke-width:1.0;" x1="0" x2="473" y1="115.1436" y2="115.1436"/><rect fill="#EEEEEE" height="23.3105" style="stroke:#000000;stroke-width:2.0;" width="185" x="144" y="101.4883"/><text fill="#000000" font-family="sans-serif" font-size="13" font-weight="bold" lengthAdjust="spacing" textLength="167" x="150" y="118.0566">Employee Updating Flow</text><polygon fill="#181818" points="236.5,152.1094,246.5,156.1094,236.5,160.1094,240.5,156.1094" style="stroke:#181818;stroke-width:1.0;"/><line style="stroke:#181818;stroke-width:1.0;" x1="45.5" x2="242.5" y1="156.1094" y2="156.1094"/><text fill="#000000" font-family="sans-serif" font-size="13" font-weight="bold" lengthAdjust="spacing" textLength="9" x="52.5" y="151.3672">1</text><text fill="#000000" font-family="sans-serif" font-size="13" lengthAdjust="spacing" textLength="166" x="65.5" y="151.3672">Employee creation request</text><polygon fill="#181818" points="406.5,181.4199,416.5,185.4199,406.5,189.4199,410.5,185.4199" style="stroke:#181818;stroke-width:1.0;"/><line style="stroke:#181818;stroke-width:1.0;" x1="248.5" x2="412.5" y1="185.4199" y2="185.4199"/><text fill="#000000" font-family="sans-serif" font-size="13" font-weight="bold" lengthAdjust="spacing" textLength="9" x="255.5" y="180.6777">2</text><text fill="#000000" font-family="sans-serif" font-size="13" lengthAdjust="spacing" textLength="133" x="268.5" y="180.6777">Fetch employee by id</text><path d="M10,200.4199 L72,200.4199 L72,207.7305 L62,217.7305 L10,217.7305 L10,200.4199 " fill="#EEEEEE" style="stroke:#000000;stroke-width:1.5;"/><rect fill="none" height="250.4395" style="stroke:#000000;stroke-width:1.5;" width="453" x="10" y="200.4199"/><text fill="#000000" font-family="sans-serif" font-size="13" font-weight="bold" lengthAdjust="spacing" textLength="17" x="25" y="213.9883">alt</text><a href="employee" target="_top" title="employee" xlink:actuate="onRequest" xlink:href="employee" xlink:show="new" xlink:title="employee" xlink:type="simple"><text fill="#0000FF" font-family="sans-serif" font-size="11" font-weight="bold" lengthAdjust="spacing" text-decoration="underline" textLength="54" x="87" y="213.0547">not exists</text></a><polygon fill="#181818" points="259.5,235.041,249.5,239.041,259.5,243.041,255.5,239.041" style="stroke:#181818;stroke-width:1.0;"/><line style="stroke:#181818;stroke-width:1.0;" x1="253.5" x2="417.5" y1="239.041" y2="239.041"/><text fill="#000000" font-family="sans-serif" font-size="13" font-weight="bold" lengthAdjust="spacing" textLength="9" x="265.5" y="234.2988">3</text><text fill="#000000" font-family="sans-serif" font-size="13" lengthAdjust="spacing" textLength="62" x="278.5" y="234.2988">not found</text><polygon fill="#181818" points="56.5,264.3516,46.5,268.3516,56.5,272.3516,52.5,268.3516" style="stroke:#181818;stroke-width:1.0;"/><line style="stroke:#181818;stroke-width:1.0;" x1="50.5" x2="247.5" y1="268.3516" y2="268.3516"/><text fill="#000000" font-family="sans-serif" font-size="13" font-weight="bold" lengthAdjust="spacing" textLength="9" x="62.5" y="263.6094">4</text><text fill="#000000" font-family="sans-serif" font-size="13" lengthAdjust="spacing" textLength="135" x="75.5" y="263.6094">employee is not exist</text><line style="stroke:#000000;stroke-width:1.0;stroke-dasharray:2.0,2.0;" x1="10" x2="463" y1="277.3516" y2="277.3516"/><a href="employee" target="_top" title="employee" xlink:actuate="onRequest" xlink:href="employee" xlink:show="new" xlink:title="employee" xlink:type="simple"><text fill="#0000FF" font-family="sans-serif" font-size="11" font-weight="bold" lengthAdjust="spacing" text-decoration="underline" textLength="26" x="15" y="287.9863">exist</text></a><polygon fill="#181818" points="259.5,308.6172,249.5,312.6172,259.5,316.6172,255.5,312.6172" style="stroke:#181818;stroke-width:1.0;"/><line style="stroke:#181818;stroke-width:1.0;" x1="253.5" x2="417.5" y1="312.6172" y2="312.6172"/><text fill="#000000" font-family="sans-serif" font-size="13" font-weight="bold" lengthAdjust="spacing" textLength="9" x="265.5" y="307.875">5</text><text fill="#000000" font-family="sans-serif" font-size="13" lengthAdjust="spacing" textLength="60" x="278.5" y="307.875">employee</text><line style="stroke:#181818;stroke-width:1.0;" x1="248.5" x2="290.5" y1="341.9277" y2="341.9277"/><line style="stroke:#181818;stroke-width:1.0;" x1="290.5" x2="290.5" y1="341.9277" y2="354.9277"/><line style="stroke:#181818;stroke-width:1.0;" x1="249.5" x2="290.5" y1="354.9277" y2="354.9277"/><polygon fill="#181818" points="259.5,350.9277,249.5,354.9277,259.5,358.9277,255.5,354.9277" style="stroke:#181818;stroke-width:1.0;"/><text fill="#000000" font-family="sans-serif" font-size="13" font-weight="bold" lengthAdjust="spacing" textLength="9" x="255.5" y="337.1855">6</text><text fill="#000000" font-family="sans-serif" font-size="13" lengthAdjust="spacing" textLength="91" x="268.5" y="337.1855">map employee</text><polygon fill="#181818" points="406.5,380.2383,416.5,384.2383,406.5,388.2383,410.5,384.2383" style="stroke:#181818;stroke-width:1.0;"/><line style="stroke:#181818;stroke-width:1.0;" x1="248.5" x2="412.5" y1="384.2383" y2="384.2383"/><text fill="#000000" font-family="sans-serif" font-size="13" font-weight="bold" lengthAdjust="spacing" textLength="9" x="255.5" y="379.4961">7</text><text fill="#000000" font-family="sans-serif" font-size="13" lengthAdjust="spacing" textLength="43" x="268.5" y="379.4961">update</text><polygon fill="#181818" points="259.5,409.5488,249.5,413.5488,259.5,417.5488,255.5,413.5488" style="stroke:#181818;stroke-width:1.0;"/><line style="stroke:#181818;stroke-width:1.0;" x1="253.5" x2="417.5" y1="413.5488" y2="413.5488"/><text fill="#000000" font-family="sans-serif" font-size="13" font-weight="bold" lengthAdjust="spacing" textLength="9" x="265.5" y="408.8066">8</text><text fill="#000000" font-family="sans-serif" font-size="13" lengthAdjust="spacing" textLength="51" x="278.5" y="408.8066">updated</text><polygon fill="#181818" points="56.5,438.8594,46.5,442.8594,56.5,446.8594,52.5,442.8594" style="stroke:#181818;stroke-width:1.0;"/><line style="stroke:#181818;stroke-width:1.0;" x1="50.5" x2="247.5" y1="442.8594" y2="442.8594"/><text fill="#000000" font-family="sans-serif" font-size="13" font-weight="bold" lengthAdjust="spacing" textLength="9" x="62.5" y="438.1172">9</text><text fill="#000000" font-family="sans-serif" font-size="13" lengthAdjust="spacing" textLength="105" x="75.5" y="438.1172">updated success</text><!--SRC=[TP1BRiCm34JtF0NXVIvWm0LYkBb0qLNH1IsnhL1RKYKgdzj7Lg8uA1AjACx334bAucoQHmu0fCG5tEhPMAI8JQaQy1J4AEF92lQaVjdg8jVwZSFUA6v0az18aN7e2p1S_mr0r-7hx2TtOiPtdq5Zlt4tkGDs7LmIDo_LlLrP5JYppcBWlyHHe8PcUkXRtB6e7-IAZoSq6cWI_BZrh1FaeuaIFm7poyFTHotobqjM5_7ElapLhjuchbR0KrvppIZDX_OL-Uz-0sRoJw5bmxHSYnzPNvHdSrzLZ4afZX6oUWO0]--></g></svg>