<?xml version="1.0" encoding="us-ascii" standalone="no"?><svg xmlns="http://www.w3.org/2000/svg" xmlns:xlink="http://www.w3.org/1999/xlink" contentStyleType="text/css" height="548px" preserveAspectRatio="none" style="width:472px;height:548px;background:#FFFFFF;" version="1.1" viewBox="0 0 472 548" width="472px" zoomAndPan="magnify"><defs/><g><rect fill="none" height="250.4395" style="stroke:#000000;stroke-width:1.5;" width="445" x="10" y="200.4199"/><line style="stroke:#181818;stroke-width:0.5;stroke-dasharray:5.0,5.0;" x1="45" x2="45" y1="81.4883" y2="467.8594"/><line style="stroke:#181818;stroke-width:0.5;stroke-dasharray:5.0,5.0;" x1="240" x2="240" y1="81.4883" y2="467.8594"/><line style="stroke:#181818;stroke-width:0.5;stroke-dasharray:5.0,5.0;" x1="410" x2="410" y1="81.4883" y2="467.8594"/><text fill="#000000" font-family="sans-serif" font-size="14" lengthAdjust="spacing" textLength="45" x="20" y="78.5352">Admin</text><ellipse cx="45.5" cy="13.5" fill="#E2E2F0" rx="8" ry="8" style="stroke:#181818;stroke-width:0.5;"/><path d="M45.5,21.5 L45.5,48.5 M32.5,29.5 L58.5,29.5 M45.5,48.5 L32.5,63.5 M45.5,48.5 L58.5,63.5 " fill="none" style="stroke:#181818;stroke-width:0.5;"/><text fill="#000000" font-family="sans-serif" font-size="14" lengthAdjust="spacing" textLength="45" x="20" y="480.3945">Admin</text><ellipse cx="45.5" cy="491.8477" fill="#E2E2F0" rx="8" ry="8" style="stroke:#181818;stroke-width:0.5;"/><path d="M45.5,499.8477 L45.5,526.8477 M32.5,507.8477 L58.5,507.8477 M45.5,526.8477 L32.5,541.8477 M45.5,526.8477 L58.5,541.8477 " fill="none" style="stroke:#181818;stroke-width:0.5;"/><rect fill="#E2E2F0" height="30.4883" rx="2.5" ry="2.5" style="stroke:#181818;stroke-width:0.5;" width="123" x="179" y="50"/><text fill="#000000" font-family="sans-serif" font-size="14" lengthAdjust="spacing" textLength="109" x="186" y="70.5352">Backend Service</text><rect fill="#E2E2F0" height="30.4883" rx="2.5" ry="2.5" style="stroke:#181818;stroke-width:0.5;" width="123" x="179" y="466.8594"/><text fill="#000000" font-family="sans-serif" font-size="14" lengthAdjust="spacing" textLength="109" x="186" y="487.3945">Backend Service</text><text fill="#000000" font-family="sans-serif" font-size="14" lengthAdjust="spacing" textLength="63" x="376" y="78.5352">Database</text><path d="M392.5,29 C392.5,19 410.5,19 410.5,19 C410.5,19 428.5,19 428.5,29 L428.5,55 C428.5,65 410.5,65 410.5,65 C410.5,65 392.5,65 392.5,55 L392.5,29 " fill="#E2E2F0" style="stroke:#181818;stroke-width:1.5;"/><path d="M392.5,29 C392.5,39 410.5,39 410.5,39 C410.5,39 428.5,39 428.5,29 " fill="none" style="stroke:#181818;stroke-width:1.5;"/><text fill="#000000" font-family="sans-serif" font-size="14" lengthAdjust="spacing" textLength="63" x="376" y="480.3945">Database</text><path d="M392.5,493.3477 C392.5,483.3477 410.5,483.3477 410.5,483.3477 C410.5,483.3477 428.5,483.3477 428.5,493.3477 L428.5,519.3477 C428.5,529.3477 410.5,529.3477 410.5,529.3477 C410.5,529.3477 392.5,529.3477 392.5,519.3477 L392.5,493.3477 " fill="#E2E2F0" style="stroke:#181818;stroke-width:1.5;"/><path d="M392.5,493.3477 C392.5,503.3477 410.5,503.3477 410.5,503.3477 C410.5,503.3477 428.5,503.3477 428.5,493.3477 " fill="none" style="stroke:#181818;stroke-width:1.5;"/><rect fill="#EEEEEE" height="3" style="stroke:#EEEEEE;stroke-width:1.0;" width="465" x="0" y="112.1436"/><line style="stroke:#000000;stroke-width:1.0;" x1="0" x2="465" y1="112.1436" y2="112.1436"/><line style="stroke:#000000;stroke-width:1.0;" x1="0" x2="465" y1="115.1436" y2="115.1436"/><rect fill="#EEEEEE" height="23.3105" style="stroke:#000000;stroke-width:2.0;" width="185" x="140" y="101.4883"/><text fill="#000000" font-family="sans-serif" font-size="13" font-weight="bold" lengthAdjust="spacing" textLength="167" x="146" y="118.0566">Employee Updating Flow</text><polygon fill="#181818" points="228.5,152.1094,238.5,156.1094,228.5,160.1094,232.5,156.1094" style="stroke:#181818;stroke-width:1.0;"/><line style="stroke:#181818;stroke-width:1.0;" x1="45.5" x2="234.5" y1="156.1094" y2="156.1094"/><text fill="#000000" font-family="sans-serif" font-size="13" font-weight="bold" lengthAdjust="spacing" textLength="9" x="52.5" y="151.3672">1</text><text fill="#000000" font-family="sans-serif" font-size="13" lengthAdjust="spacing" textLength="158" x="65.5" y="151.3672">Employee update request</text><polygon fill="#181818" points="398.5,181.4199,408.5,185.4199,398.5,189.4199,402.5,185.4199" style="stroke:#181818;stroke-width:1.0;"/><line style="stroke:#181818;stroke-width:1.0;" x1="240.5" x2="404.5" y1="185.4199" y2="185.4199"/><text fill="#000000" font-family="sans-serif" font-size="13" font-weight="bold" lengthAdjust="spacing" textLength="9" x="247.5" y="180.6777">2</text><text fill="#000000" font-family="sans-serif" font-size="13" lengthAdjust="spacing" textLength="133" x="260.5" y="180.6777">Fetch employee by id</text><path d="M10,200.4199 L72,200.4199 L72,207.7305 L62,217.7305 L10,217.7305 L10,200.4199 " fill="#EEEEEE" style="stroke:#000000;stroke-width:1.5;"/><rect fill="none" height="250.4395" style="stroke:#000000;stroke-width:1.5;" width="445" x="10" y="200.4199"/><text fill="#000000" font-family="sans-serif" font-size="13" font-weight="bold" lengthAdjust="spacing" textLength="17" x="25" y="213.9883">alt</text><a href="employee" target="_top" title="employee" xlink:actuate="onRequest" xlink:href="employee" xlink:show="new" xlink:title="employee" xlink:type="simple"><text fill="#0000FF" font-family="sans-serif" font-size="11" font-weight="bold" lengthAdjust="spacing" text-decoration="underline" textLength="54" x="87" y="213.0547">not exists</text></a><polygon fill="#181818" points="251.5,235.041,241.5,239.041,251.5,243.041,247.5,239.041" style="stroke:#181818;stroke-width:1.0;"/><line style="stroke:#181818;stroke-width:1.0;" x1="245.5" x2="409.5" y1="239.041" y2="239.041"/><text fill="#000000" font-family="sans-serif" font-size="13" font-weight="bold" lengthAdjust="spacing" textLength="9" x="257.5" y="234.2988">3</text><text fill="#000000" font-family="sans-serif" font-size="13" lengthAdjust="spacing" textLength="62" x="270.5" y="234.2988">not found</text><polygon fill="#181818" points="56.5,264.3516,46.5,268.3516,56.5,272.3516,52.5,268.3516" style="stroke:#181818;stroke-width:1.0;"/><line style="stroke:#181818;stroke-width:1.0;" x1="50.5" x2="239.5" y1="268.3516" y2="268.3516"/><text fill="#000000" font-family="sans-serif" font-size="13" font-weight="bold" lengthAdjust="spacing" textLength="9" x="62.5" y="263.6094">4</text><text fill="#000000" font-family="sans-serif" font-size="13" lengthAdjust="spacing" textLength="135" x="75.5" y="263.6094">employee is not exist</text><line style="stroke:#000000;stroke-width:1.0;stroke-dasharray:2.0,2.0;" x1="10" x2="455" y1="277.3516" y2="277.3516"/><a href="employee" target="_top" title="employee" xlink:actuate="onRequest" xlink:href="employee" xlink:show="new" xlink:title="employee" xlink:type="simple"><text fill="#0000FF" font-family="sans-serif" font-size="11" font-weight="bold" lengthAdjust="spacing" text-decoration="underline" textLength="26" x="15" y="287.9863">exist</text></a><polygon fill="#181818" points="251.5,308.6172,241.5,312.6172,251.5,316.6172,247.5,312.6172" style="stroke:#181818;stroke-width:1.0;"/><line style="stroke:#181818;stroke-width:1.0;" x1="245.5" x2="409.5" y1="312.6172" y2="312.6172"/><text fill="#000000" font-family="sans-serif" font-size="13" font-weight="bold" lengthAdjust="spacing" textLength="9" x="257.5" y="307.875">5</text><text fill="#000000" font-family="sans-serif" font-size="13" lengthAdjust="spacing" textLength="60" x="270.5" y="307.875">employee</text><line style="stroke:#181818;stroke-width:1.0;" x1="240.5" x2="282.5" y1="341.9277" y2="341.9277"/><line style="stroke:#181818;stroke-width:1.0;" x1="282.5" x2="282.5" y1="341.9277" y2="354.9277"/><line style="stroke:#181818;stroke-width:1.0;" x1="241.5" x2="282.5" y1="354.9277" y2="354.9277"/><polygon fill="#181818" points="251.5,350.9277,241.5,354.9277,251.5,358.9277,247.5,354.9277" style="stroke:#181818;stroke-width:1.0;"/><text fill="#000000" font-family="sans-serif" font-size="13" font-weight="bold" lengthAdjust="spacing" textLength="9" x="247.5" y="337.1855">6</text><text fill="#000000" font-family="sans-serif" font-size="13" lengthAdjust="spacing" textLength="91" x="260.5" y="337.1855">map employee</text><polygon fill="#181818" points="398.5,380.2383,408.5,384.2383,398.5,388.2383,402.5,384.2383" style="stroke:#181818;stroke-width:1.0;"/><line style="stroke:#181818;stroke-width:1.0;" x1="240.5" x2="404.5" y1="384.2383" y2="384.2383"/><text fill="#000000" font-family="sans-serif" font-size="13" font-weight="bold" lengthAdjust="spacing" textLength="9" x="247.5" y="379.4961">7</text><text fill="#000000" font-family="sans-serif" font-size="13" lengthAdjust="spacing" textLength="43" x="260.5" y="379.4961">update</text><polygon fill="#181818" points="251.5,409.5488,241.5,413.5488,251.5,417.5488,247.5,413.5488" style="stroke:#181818;stroke-width:1.0;"/><line style="stroke:#181818;stroke-width:1.0;" x1="245.5" x2="409.5" y1="413.5488" y2="413.5488"/><text fill="#000000" font-family="sans-serif" font-size="13" font-weight="bold" lengthAdjust="spacing" textLength="9" x="257.5" y="408.8066">8</text><text fill="#000000" font-family="sans-serif" font-size="13" lengthAdjust="spacing" textLength="51" x="270.5" y="408.8066">updated</text><polygon fill="#181818" points="56.5,438.8594,46.5,442.8594,56.5,446.8594,52.5,442.8594" style="stroke:#181818;stroke-width:1.0;"/><line style="stroke:#181818;stroke-width:1.0;" x1="50.5" x2="239.5" y1="442.8594" y2="442.8594"/><text fill="#000000" font-family="sans-serif" font-size="13" font-weight="bold" lengthAdjust="spacing" textLength="9" x="62.5" y="438.1172">9</text><text fill="#000000" font-family="sans-serif" font-size="13" lengthAdjust="spacing" textLength="105" x="75.5" y="438.1172">updated success</text><!--SRC=[TOz1JiCm44NtSufHzbmWKf28GYzGTOMwcDW3M2IsQu-1tXx7gPiAjLwDvp_z_uUIE9lcaGC0AN41N_HiB5B4famDU0fYbF5a1NjINsnraUkyv_1j53UWIMYao3Zq1HWk_mQWw_1rzfCxC-F1Pz3O3znDxWUx3jR4f-VgtcviMbZ6mAV4KQ16PdReMzong4_a2ezdD1fe4doxxgmJv5yJ9Hu1yylLReCM-TqbgujuOrywjPktYPiLy9IFt3BAygvzHVwxNu6P_4DekN2z_vxrgZpgVL4n9gKuHiZg7m00]--></g></svg>