<?xml version="1.0" encoding="us-ascii" standalone="no"?><svg xmlns="http://www.w3.org/2000/svg" xmlns:xlink="http://www.w3.org/1999/xlink" contentStyleType="text/css" height="813px" preserveAspectRatio="none" style="width:688px;height:813px;background:#FFFFFF;" version="1.1" viewBox="0 0 688 813" width="688px" zoomAndPan="magnify"><defs/><g><rect fill="none" height="514.9688" style="stroke:#000000;stroke-width:1.5;" width="661" x="10" y="200.4199"/><rect fill="none" height="364.416" style="stroke:#000000;stroke-width:1.5;" width="641" x="20" y="283.3516"/><line style="stroke:#181818;stroke-width:0.5;stroke-dasharray:5.0,5.0;" x1="55" x2="55" y1="81.4883" y2="732.3887"/><line style="stroke:#181818;stroke-width:0.5;stroke-dasharray:5.0,5.0;" x1="395" x2="395" y1="81.4883" y2="732.3887"/><line style="stroke:#181818;stroke-width:0.5;stroke-dasharray:5.0,5.0;" x1="616" x2="616" y1="81.4883" y2="732.3887"/><text fill="#000000" font-family="sans-serif" font-size="14" lengthAdjust="spacing" textLength="45" x="30" y="78.5352">Admin</text><ellipse cx="55.5" cy="13.5" fill="#E2E2F0" rx="8" ry="8" style="stroke:#181818;stroke-width:0.5;"/><path d="M55.5,21.5 L55.5,48.5 M42.5,29.5 L68.5,29.5 M55.5,48.5 L42.5,63.5 M55.5,48.5 L68.5,63.5 " fill="none" style="stroke:#181818;stroke-width:0.5;"/><text fill="#000000" font-family="sans-serif" font-size="14" lengthAdjust="spacing" textLength="45" x="30" y="744.9238">Admin</text><ellipse cx="55.5" cy="756.377" fill="#E2E2F0" rx="8" ry="8" style="stroke:#181818;stroke-width:0.5;"/><path d="M55.5,764.377 L55.5,791.377 M42.5,772.377 L68.5,772.377 M55.5,791.377 L42.5,806.377 M55.5,791.377 L68.5,806.377 " fill="none" style="stroke:#181818;stroke-width:0.5;"/><rect fill="#E2E2F0" height="30.4883" rx="2.5" ry="2.5" style="stroke:#181818;stroke-width:0.5;" width="123" x="334" y="50"/><text fill="#000000" font-family="sans-serif" font-size="14" lengthAdjust="spacing" textLength="109" x="341" y="70.5352">Backend Service</text><rect fill="#E2E2F0" height="30.4883" rx="2.5" ry="2.5" style="stroke:#181818;stroke-width:0.5;" width="123" x="334" y="731.3887"/><text fill="#000000" font-family="sans-serif" font-size="14" lengthAdjust="spacing" textLength="109" x="341" y="751.9238">Backend Service</text><text fill="#000000" font-family="sans-serif" font-size="14" lengthAdjust="spacing" textLength="63" x="582" y="78.5352">Database</text><path d="M598.5,29 C598.5,19 616.5,19 616.5,19 C616.5,19 634.5,19 634.5,29 L634.5,55 C634.5,65 616.5,65 616.5,65 C616.5,65 598.5,65 598.5,55 L598.5,29 " fill="#E2E2F0" style="stroke:#181818;stroke-width:1.5;"/><path d="M598.5,29 C598.5,39 616.5,39 616.5,39 C616.5,39 634.5,39 634.5,29 " fill="none" style="stroke:#181818;stroke-width:1.5;"/><text fill="#000000" font-family="sans-serif" font-size="14" lengthAdjust="spacing" textLength="63" x="582" y="744.9238">Database</text><path d="M598.5,757.877 C598.5,747.877 616.5,747.877 616.5,747.877 C616.5,747.877 634.5,747.877 634.5,757.877 L634.5,783.877 C634.5,793.877 616.5,793.877 616.5,793.877 C616.5,793.877 598.5,793.877 598.5,783.877 L598.5,757.877 " fill="#E2E2F0" style="stroke:#181818;stroke-width:1.5;"/><path d="M598.5,757.877 C598.5,767.877 616.5,767.877 616.5,767.877 C616.5,767.877 634.5,767.877 634.5,757.877 " fill="none" style="stroke:#181818;stroke-width:1.5;"/><rect fill="#EEEEEE" height="3" style="stroke:#EEEEEE;stroke-width:1.0;" width="681" x="0" y="112.1436"/><line style="stroke:#000000;stroke-width:1.0;" x1="0" x2="681" y1="112.1436" y2="112.1436"/><line style="stroke:#000000;stroke-width:1.0;" x1="0" x2="681" y1="115.1436" y2="115.1436"/><rect fill="#EEEEEE" height="23.3105" style="stroke:#000000;stroke-width:2.0;" width="162" x="259.5" y="101.4883"/><text fill="#000000" font-family="sans-serif" font-size="13" font-weight="bold" lengthAdjust="spacing" textLength="144" x="265.5" y="118.0566">Create Purchase Flow</text><polygon fill="#181818" points="383.5,152.1094,393.5,156.1094,383.5,160.1094,387.5,156.1094" style="stroke:#181818;stroke-width:1.0;"/><line style="stroke:#181818;stroke-width:1.0;" x1="55.5" x2="389.5" y1="156.1094" y2="156.1094"/><text fill="#000000" font-family="sans-serif" font-size="13" font-weight="bold" lengthAdjust="spacing" textLength="9" x="62.5" y="151.3672">1</text><text fill="#000000" font-family="sans-serif" font-size="13" lengthAdjust="spacing" textLength="170" x="75.5" y="151.3672">Request to create purchase</text><polygon fill="#181818" points="604.5,181.4199,614.5,185.4199,604.5,189.4199,608.5,185.4199" style="stroke:#181818;stroke-width:1.0;"/><line style="stroke:#181818;stroke-width:1.0;" x1="395.5" x2="610.5" y1="185.4199" y2="185.4199"/><text fill="#000000" font-family="sans-serif" font-size="13" font-weight="bold" lengthAdjust="spacing" textLength="9" x="402.5" y="180.6777">2</text><text fill="#000000" font-family="sans-serif" font-size="13" lengthAdjust="spacing" textLength="125" x="415.5" y="180.6777">Find medicine by ID</text><path d="M10,200.4199 L72,200.4199 L72,207.7305 L62,217.7305 L10,217.7305 L10,200.4199 " fill="#EEEEEE" style="stroke:#000000;stroke-width:1.5;"/><rect fill="none" height="514.9688" style="stroke:#000000;stroke-width:1.5;" width="661" x="10" y="200.4199"/><text fill="#000000" font-family="sans-serif" font-size="13" font-weight="bold" lengthAdjust="spacing" textLength="17" x="25" y="213.9883">alt</text><a href="Medicine exists" target="_top" title="Medicine exists" xlink:actuate="onRequest" xlink:href="Medicine exists" xlink:show="new" xlink:title="Medicine exists" xlink:type="simple"><text fill="#0000FF" font-family="sans-serif" font-size="11" font-weight="bold" lengthAdjust="spacing" text-decoration="underline" textLength="86" x="87" y="213.0547">Medicine exists</text></a><polygon fill="#181818" points="406.5,235.041,396.5,239.041,406.5,243.041,402.5,239.041" style="stroke:#181818;stroke-width:1.0;"/><line style="stroke:#181818;stroke-width:1.0;" x1="400.5" x2="615.5" y1="239.041" y2="239.041"/><text fill="#000000" font-family="sans-serif" font-size="13" font-weight="bold" lengthAdjust="spacing" textLength="9" x="412.5" y="234.2988">3</text><text fill="#000000" font-family="sans-serif" font-size="13" lengthAdjust="spacing" textLength="102" x="425.5" y="234.2988">Return medicine</text><polygon fill="#181818" points="604.5,264.3516,614.5,268.3516,604.5,272.3516,608.5,268.3516" style="stroke:#181818;stroke-width:1.0;"/><line style="stroke:#181818;stroke-width:1.0;" x1="395.5" x2="610.5" y1="268.3516" y2="268.3516"/><text fill="#000000" font-family="sans-serif" font-size="13" font-weight="bold" lengthAdjust="spacing" textLength="9" x="402.5" y="263.6094">4</text><text fill="#000000" font-family="sans-serif" font-size="13" lengthAdjust="spacing" textLength="119" x="415.5" y="263.6094">Find supplier by ID</text><path d="M20,283.3516 L82,283.3516 L82,290.6621 L72,300.6621 L20,300.6621 L20,283.3516 " fill="#EEEEEE" style="stroke:#000000;stroke-width:1.5;"/><rect fill="none" height="364.416" style="stroke:#000000;stroke-width:1.5;" width="641" x="20" y="283.3516"/><text fill="#000000" font-family="sans-serif" font-size="13" font-weight="bold" lengthAdjust="spacing" textLength="17" x="35" y="296.9199">alt</text><a href="Supplier exists" target="_top" title="Supplier exists" xlink:actuate="onRequest" xlink:href="Supplier exists" xlink:show="new" xlink:title="Supplier exists" xlink:type="simple"><text fill="#0000FF" font-family="sans-serif" font-size="11" font-weight="bold" lengthAdjust="spacing" text-decoration="underline" textLength="82" x="97" y="295.9863">Supplier exists</text></a><polygon fill="#181818" points="406.5,317.9727,396.5,321.9727,406.5,325.9727,402.5,321.9727" style="stroke:#181818;stroke-width:1.0;"/><line style="stroke:#181818;stroke-width:1.0;" x1="400.5" x2="615.5" y1="321.9727" y2="321.9727"/><text fill="#000000" font-family="sans-serif" font-size="13" font-weight="bold" lengthAdjust="spacing" textLength="9" x="412.5" y="317.2305">5</text><text fill="#000000" font-family="sans-serif" font-size="13" lengthAdjust="spacing" textLength="96" x="425.5" y="317.2305">Return supplier</text><line style="stroke:#181818;stroke-width:1.0;" x1="395.5" x2="437.5" y1="351.2832" y2="351.2832"/><line style="stroke:#181818;stroke-width:1.0;" x1="437.5" x2="437.5" y1="351.2832" y2="364.2832"/><line style="stroke:#181818;stroke-width:1.0;" x1="396.5" x2="437.5" y1="364.2832" y2="364.2832"/><polygon fill="#181818" points="406.5,360.2832,396.5,364.2832,406.5,368.2832,402.5,364.2832" style="stroke:#181818;stroke-width:1.0;"/><text fill="#000000" font-family="sans-serif" font-size="13" font-weight="bold" lengthAdjust="spacing" textLength="9" x="402.5" y="346.541">6</text><text fill="#000000" font-family="sans-serif" font-size="13" lengthAdjust="spacing" textLength="194" x="415.5" y="346.541">Map request to Purchase entity</text><line style="stroke:#181818;stroke-width:1.0;" x1="395.5" x2="437.5" y1="393.5938" y2="393.5938"/><line style="stroke:#181818;stroke-width:1.0;" x1="437.5" x2="437.5" y1="393.5938" y2="406.5938"/><line style="stroke:#181818;stroke-width:1.0;" x1="396.5" x2="437.5" y1="406.5938" y2="406.5938"/><polygon fill="#181818" points="406.5,402.5938,396.5,406.5938,406.5,410.5938,402.5,406.5938" style="stroke:#181818;stroke-width:1.0;"/><text fill="#000000" font-family="sans-serif" font-size="13" font-weight="bold" lengthAdjust="spacing" textLength="9" x="402.5" y="388.8516">7</text><text fill="#000000" font-family="sans-serif" font-size="13" lengthAdjust="spacing" textLength="189" x="415.5" y="388.8516">Set createdBy and createdDate</text><line style="stroke:#181818;stroke-width:1.0;" x1="395.5" x2="437.5" y1="435.9043" y2="435.9043"/><line style="stroke:#181818;stroke-width:1.0;" x1="437.5" x2="437.5" y1="435.9043" y2="448.9043"/><line style="stroke:#181818;stroke-width:1.0;" x1="396.5" x2="437.5" y1="448.9043" y2="448.9043"/><polygon fill="#181818" points="406.5,444.9043,396.5,448.9043,406.5,452.9043,402.5,448.9043" style="stroke:#181818;stroke-width:1.0;"/><text fill="#000000" font-family="sans-serif" font-size="13" font-weight="bold" lengthAdjust="spacing" textLength="9" x="402.5" y="431.1621">8</text><text fill="#000000" font-family="sans-serif" font-size="13" lengthAdjust="spacing" textLength="150" x="415.5" y="431.1621">Generate purchase code</text><line style="stroke:#181818;stroke-width:1.0;" x1="395.5" x2="437.5" y1="478.2148" y2="478.2148"/><line style="stroke:#181818;stroke-width:1.0;" x1="437.5" x2="437.5" y1="478.2148" y2="491.2148"/><line style="stroke:#181818;stroke-width:1.0;" x1="396.5" x2="437.5" y1="491.2148" y2="491.2148"/><polygon fill="#181818" points="406.5,487.2148,396.5,491.2148,406.5,495.2148,402.5,491.2148" style="stroke:#181818;stroke-width:1.0;"/><text fill="#000000" font-family="sans-serif" font-size="13" font-weight="bold" lengthAdjust="spacing" textLength="9" x="402.5" y="473.4727">9</text><text fill="#000000" font-family="sans-serif" font-size="13" lengthAdjust="spacing" textLength="91" x="415.5" y="473.4727">Save inventory</text><polygon fill="#181818" points="604.5,516.5254,614.5,520.5254,604.5,524.5254,608.5,520.5254" style="stroke:#181818;stroke-width:1.0;"/><line style="stroke:#181818;stroke-width:1.0;" x1="395.5" x2="610.5" y1="520.5254" y2="520.5254"/><text fill="#000000" font-family="sans-serif" font-size="13" font-weight="bold" lengthAdjust="spacing" textLength="18" x="402.5" y="515.7832">10</text><text fill="#000000" font-family="sans-serif" font-size="13" lengthAdjust="spacing" textLength="89" x="424.5" y="515.7832">Save purchase</text><polygon fill="#181818" points="406.5,545.8359,396.5,549.8359,406.5,553.8359,402.5,549.8359" style="stroke:#181818;stroke-width:1.0;"/><line style="stroke:#181818;stroke-width:1.0;" x1="400.5" x2="615.5" y1="549.8359" y2="549.8359"/><text fill="#000000" font-family="sans-serif" font-size="13" font-weight="bold" lengthAdjust="spacing" textLength="18" x="412.5" y="545.0938">11</text><text fill="#000000" font-family="sans-serif" font-size="13" lengthAdjust="spacing" textLength="152" x="434.5" y="545.0938">Confirm purchase saved</text><polygon fill="#181818" points="66.5,575.1465,56.5,579.1465,66.5,583.1465,62.5,579.1465" style="stroke:#181818;stroke-width:1.0;"/><line style="stroke:#181818;stroke-width:1.0;" x1="60.5" x2="394.5" y1="579.1465" y2="579.1465"/><text fill="#000000" font-family="sans-serif" font-size="13" font-weight="bold" lengthAdjust="spacing" textLength="18" x="72.5" y="574.4043">12</text><text fill="#000000" font-family="sans-serif" font-size="13" lengthAdjust="spacing" textLength="294" x="94.5" y="574.4043">Return success response with purchase details</text><line style="stroke:#000000;stroke-width:1.0;stroke-dasharray:2.0,2.0;" x1="20" x2="661" y1="588.1465" y2="588.1465"/><polygon fill="#181818" points="406.5,606.457,396.5,610.457,406.5,614.457,402.5,610.457" style="stroke:#181818;stroke-width:1.0;"/><line style="stroke:#181818;stroke-width:1.0;" x1="400.5" x2="615.5" y1="610.457" y2="610.457"/><text fill="#000000" font-family="sans-serif" font-size="13" font-weight="bold" lengthAdjust="spacing" textLength="18" x="412.5" y="605.7148">13</text><text fill="#000000" font-family="sans-serif" font-size="13" lengthAdjust="spacing" textLength="117" x="434.5" y="605.7148">Supplier not found</text><polygon fill="#181818" points="66.5,635.7676,56.5,639.7676,66.5,643.7676,62.5,639.7676" style="stroke:#181818;stroke-width:1.0;"/><line style="stroke:#181818;stroke-width:1.0;" x1="60.5" x2="394.5" y1="639.7676" y2="639.7676"/><text fill="#000000" font-family="sans-serif" font-size="13" font-weight="bold" lengthAdjust="spacing" textLength="18" x="72.5" y="635.0254">14</text><text fill="#000000" font-family="sans-serif" font-size="13" lengthAdjust="spacing" textLength="179" x="94.5" y="635.0254">Supplier does not exist error</text><line style="stroke:#000000;stroke-width:1.0;stroke-dasharray:2.0,2.0;" x1="10" x2="671" y1="655.7676" y2="655.7676"/><polygon fill="#181818" points="406.5,674.0781,396.5,678.0781,406.5,682.0781,402.5,678.0781" style="stroke:#181818;stroke-width:1.0;"/><line style="stroke:#181818;stroke-width:1.0;" x1="400.5" x2="615.5" y1="678.0781" y2="678.0781"/><text fill="#000000" font-family="sans-serif" font-size="13" font-weight="bold" lengthAdjust="spacing" textLength="18" x="412.5" y="673.3359">15</text><text fill="#000000" font-family="sans-serif" font-size="13" lengthAdjust="spacing" textLength="122" x="434.5" y="673.3359">Medicine not found</text><polygon fill="#181818" points="66.5,703.3887,56.5,707.3887,66.5,711.3887,62.5,707.3887" style="stroke:#181818;stroke-width:1.0;"/><line style="stroke:#181818;stroke-width:1.0;" x1="60.5" x2="394.5" y1="707.3887" y2="707.3887"/><text fill="#000000" font-family="sans-serif" font-size="13" font-weight="bold" lengthAdjust="spacing" textLength="18" x="72.5" y="702.6465">16</text><text fill="#000000" font-family="sans-serif" font-size="13" lengthAdjust="spacing" textLength="184" x="94.5" y="702.6465">Medicine does not exist error</text><!--SRC=[VPB1JiCm38RlUGghTrvWKf7egY4EI8WU4GSlyRI8DWc9kx6t9qlRR8EkFJdD__kpVWTxjgRljkI5GCdMmvFgj04CKAIg40uzQwaT6eOAvHSPbQwdkY5_q98AeP1nYu6WhfAW7i-546K9Qq_816-zb_kpQDFQ8vIb67WFZrFl5RpJTq-1WIt8mUH6avYOKLvNAzZeM7UaudY6O7k2brfWo_1Hl4u_wKS73iMdWFZ5mMv1t7kJ6oJ9727qphMQ_4WuomPACrtSKEwJfaPPTaNBsbTqu2yHvC38iERJehKX7YDJrGamtewdk0fQT3wJ8NyTDKYhbYqD7WYqESIvh9-TwnnWKkNztObdRSrE- -u23z6bvbgcrtALfvGKGemhE6kYxwXvV-cYY56t8VMXzZu-hz5OXftjpH8wYvMba1nf-K3Uss6nKIyoxWyglyjRr7zC5ivYelON]--></g></svg>