<?xml version="1.0" encoding="us-ascii" standalone="no"?><svg xmlns="http://www.w3.org/2000/svg" xmlns:xlink="http://www.w3.org/1999/xlink" contentStyleType="text/css" height="532px" preserveAspectRatio="none" style="width:626px;height:532px;background:#FFFFFF;" version="1.1" viewBox="0 0 626 532" width="626px" zoomAndPan="magnify"><defs/><g><rect fill="none" height="133.1973" style="stroke:#000000;stroke-width:1.5;" width="362" x="247" y="229.7305"/><line style="stroke:#181818;stroke-width:0.5;stroke-dasharray:5.0,5.0;" x1="30" x2="30" y1="81.4883" y2="451.5488"/><line style="stroke:#181818;stroke-width:0.5;stroke-dasharray:5.0,5.0;" x1="318" x2="318" y1="81.4883" y2="451.5488"/><line style="stroke:#181818;stroke-width:0.5;stroke-dasharray:5.0,5.0;" x1="564" x2="564" y1="81.4883" y2="451.5488"/><text fill="#000000" font-family="sans-serif" font-size="14" lengthAdjust="spacing" textLength="45" x="5" y="78.5352">Admin</text><ellipse cx="30.5" cy="13.5" fill="#E2E2F0" rx="8" ry="8" style="stroke:#181818;stroke-width:0.5;"/><path d="M30.5,21.5 L30.5,48.5 M17.5,29.5 L43.5,29.5 M30.5,48.5 L17.5,63.5 M30.5,48.5 L43.5,63.5 " fill="none" style="stroke:#181818;stroke-width:0.5;"/><text fill="#000000" font-family="sans-serif" font-size="14" lengthAdjust="spacing" textLength="45" x="5" y="464.084">Admin</text><ellipse cx="30.5" cy="475.5371" fill="#E2E2F0" rx="8" ry="8" style="stroke:#181818;stroke-width:0.5;"/><path d="M30.5,483.5371 L30.5,510.5371 M17.5,491.5371 L43.5,491.5371 M30.5,510.5371 L17.5,525.5371 M30.5,510.5371 L43.5,525.5371 " fill="none" style="stroke:#181818;stroke-width:0.5;"/><rect fill="#E2E2F0" height="30.4883" rx="2.5" ry="2.5" style="stroke:#181818;stroke-width:0.5;" width="123" x="257" y="50"/><text fill="#000000" font-family="sans-serif" font-size="14" lengthAdjust="spacing" textLength="109" x="264" y="70.5352">Backend Service</text><rect fill="#E2E2F0" height="30.4883" rx="2.5" ry="2.5" style="stroke:#181818;stroke-width:0.5;" width="123" x="257" y="450.5488"/><text fill="#000000" font-family="sans-serif" font-size="14" lengthAdjust="spacing" textLength="109" x="264" y="471.084">Backend Service</text><text fill="#000000" font-family="sans-serif" font-size="14" lengthAdjust="spacing" textLength="63" x="530" y="78.5352">Database</text><path d="M546.5,29 C546.5,19 564.5,19 564.5,19 C564.5,19 582.5,19 582.5,29 L582.5,55 C582.5,65 564.5,65 564.5,65 C564.5,65 546.5,65 546.5,55 L546.5,29 " fill="#E2E2F0" style="stroke:#181818;stroke-width:1.5;"/><path d="M546.5,29 C546.5,39 564.5,39 564.5,39 C564.5,39 582.5,39 582.5,29 " fill="none" style="stroke:#181818;stroke-width:1.5;"/><text fill="#000000" font-family="sans-serif" font-size="14" lengthAdjust="spacing" textLength="63" x="530" y="464.084">Database</text><path d="M546.5,477.0371 C546.5,467.0371 564.5,467.0371 564.5,467.0371 C564.5,467.0371 582.5,467.0371 582.5,477.0371 L582.5,503.0371 C582.5,513.0371 564.5,513.0371 564.5,513.0371 C564.5,513.0371 546.5,513.0371 546.5,503.0371 L546.5,477.0371 " fill="#E2E2F0" style="stroke:#181818;stroke-width:1.5;"/><path d="M546.5,477.0371 C546.5,487.0371 564.5,487.0371 564.5,487.0371 C564.5,487.0371 582.5,487.0371 582.5,477.0371 " fill="none" style="stroke:#181818;stroke-width:1.5;"/><rect fill="#EEEEEE" height="3" style="stroke:#EEEEEE;stroke-width:1.0;" width="619" x="0" y="112.1436"/><line style="stroke:#000000;stroke-width:1.0;" x1="0" x2="619" y1="112.1436" y2="112.1436"/><line style="stroke:#000000;stroke-width:1.0;" x1="0" x2="619" y1="115.1436" y2="115.1436"/><rect fill="#EEEEEE" height="23.3105" style="stroke:#000000;stroke-width:2.0;" width="161" x="229" y="101.4883"/><text fill="#000000" font-family="sans-serif" font-size="13" font-weight="bold" lengthAdjust="spacing" textLength="143" x="235" y="118.0566">Delete Purchase Flow</text><polygon fill="#181818" points="306.5,152.1094,316.5,156.1094,306.5,160.1094,310.5,156.1094" style="stroke:#181818;stroke-width:1.0;"/><line style="stroke:#181818;stroke-width:1.0;" x1="30.5" x2="312.5" y1="156.1094" y2="156.1094"/><text fill="#000000" font-family="sans-serif" font-size="13" font-weight="bold" lengthAdjust="spacing" textLength="9" x="37.5" y="151.3672">1</text><text fill="#000000" font-family="sans-serif" font-size="13" lengthAdjust="spacing" textLength="251" x="50.5" y="151.3672">Request to delete purchase (purchaseId)</text><polygon fill="#181818" points="552.5,181.4199,562.5,185.4199,552.5,189.4199,556.5,185.4199" style="stroke:#181818;stroke-width:1.0;"/><line style="stroke:#181818;stroke-width:1.0;" x1="318.5" x2="558.5" y1="185.4199" y2="185.4199"/><text fill="#000000" font-family="sans-serif" font-size="13" font-weight="bold" lengthAdjust="spacing" textLength="9" x="325.5" y="180.6777">2</text><text fill="#000000" font-family="sans-serif" font-size="13" lengthAdjust="spacing" textLength="125" x="338.5" y="180.6777">Find purchase by ID</text><polygon fill="#181818" points="329.5,210.7305,319.5,214.7305,329.5,218.7305,325.5,214.7305" style="stroke:#181818;stroke-width:1.0;"/><line style="stroke:#181818;stroke-width:1.0;" x1="323.5" x2="563.5" y1="214.7305" y2="214.7305"/><text fill="#000000" font-family="sans-serif" font-size="13" font-weight="bold" lengthAdjust="spacing" textLength="9" x="335.5" y="209.9883">3</text><text fill="#000000" font-family="sans-serif" font-size="13" lengthAdjust="spacing" textLength="178" x="348.5" y="209.9883">Return purchase data or null</text><path d="M247,229.7305 L309,229.7305 L309,237.041 L299,247.041 L247,247.041 L247,229.7305 " fill="#EEEEEE" style="stroke:#000000;stroke-width:1.5;"/><rect fill="none" height="133.1973" style="stroke:#000000;stroke-width:1.5;" width="362" x="247" y="229.7305"/><text fill="#000000" font-family="sans-serif" font-size="13" font-weight="bold" lengthAdjust="spacing" textLength="17" x="262" y="243.2988">alt</text><text fill="#000000" font-family="sans-serif" font-size="11" font-weight="bold" lengthAdjust="spacing" textLength="94" x="324" y="242.3652">[Purchase exists]</text><polygon fill="#181818" points="552.5,264.3516,562.5,268.3516,552.5,272.3516,556.5,268.3516" style="stroke:#181818;stroke-width:1.0;"/><line style="stroke:#181818;stroke-width:1.0;" x1="318.5" x2="558.5" y1="268.3516" y2="268.3516"/><text fill="#000000" font-family="sans-serif" font-size="13" font-weight="bold" lengthAdjust="spacing" textLength="9" x="325.5" y="263.6094">4</text><text fill="#000000" font-family="sans-serif" font-size="13" lengthAdjust="spacing" textLength="101" x="338.5" y="263.6094">Delete purchase</text><polygon fill="#181818" points="329.5,293.6621,319.5,297.6621,329.5,301.6621,325.5,297.6621" style="stroke:#181818;stroke-width:1.0;"/><line style="stroke:#181818;stroke-width:1.0;" x1="323.5" x2="563.5" y1="297.6621" y2="297.6621"/><text fill="#000000" font-family="sans-serif" font-size="13" font-weight="bold" lengthAdjust="spacing" textLength="9" x="335.5" y="292.9199">5</text><text fill="#000000" font-family="sans-serif" font-size="13" lengthAdjust="spacing" textLength="106" x="348.5" y="292.9199">Confirm deletion</text><line style="stroke:#000000;stroke-width:1.0;stroke-dasharray:2.0,2.0;" x1="247" x2="609" y1="306.6621" y2="306.6621"/><text fill="#000000" font-family="sans-serif" font-size="11" font-weight="bold" lengthAdjust="spacing" textLength="140" x="252" y="317.2969">[Purchase does not exist]</text><line style="stroke:#181818;stroke-width:1.0;" x1="318.5" x2="360.5" y1="341.9277" y2="341.9277"/><line style="stroke:#181818;stroke-width:1.0;" x1="360.5" x2="360.5" y1="341.9277" y2="354.9277"/><line style="stroke:#181818;stroke-width:1.0;" x1="319.5" x2="360.5" y1="354.9277" y2="354.9277"/><polygon fill="#181818" points="329.5,350.9277,319.5,354.9277,329.5,358.9277,325.5,354.9277" style="stroke:#181818;stroke-width:1.0;"/><text fill="#000000" font-family="sans-serif" font-size="13" font-weight="bold" lengthAdjust="spacing" textLength="9" x="325.5" y="337.1855">6</text><text fill="#000000" font-family="sans-serif" font-size="13" lengthAdjust="spacing" textLength="219" x="338.5" y="337.1855">Throw PURCHASE_NOT_EXIST error</text><line style="stroke:#181818;stroke-width:1.0;" x1="318.5" x2="360.5" y1="391.2383" y2="391.2383"/><line style="stroke:#181818;stroke-width:1.0;" x1="360.5" x2="360.5" y1="391.2383" y2="404.2383"/><line style="stroke:#181818;stroke-width:1.0;" x1="319.5" x2="360.5" y1="404.2383" y2="404.2383"/><polygon fill="#181818" points="329.5,400.2383,319.5,404.2383,329.5,408.2383,325.5,404.2383" style="stroke:#181818;stroke-width:1.0;"/><text fill="#000000" font-family="sans-serif" font-size="13" font-weight="bold" lengthAdjust="spacing" textLength="9" x="325.5" y="386.4961">7</text><text fill="#000000" font-family="sans-serif" font-size="13" lengthAdjust="spacing" textLength="143" x="338.5" y="386.4961">Create delete response</text><polygon fill="#181818" points="41.5,429.5488,31.5,433.5488,41.5,437.5488,37.5,433.5488" style="stroke:#181818;stroke-width:1.0;"/><line style="stroke:#181818;stroke-width:1.0;" x1="35.5" x2="317.5" y1="433.5488" y2="433.5488"/><text fill="#000000" font-family="sans-serif" font-size="13" font-weight="bold" lengthAdjust="spacing" textLength="9" x="47.5" y="428.8066">8</text><text fill="#000000" font-family="sans-serif" font-size="13" lengthAdjust="spacing" textLength="248" x="60.5" y="428.8066">Return delete response with purchaseId</text><!--SRC=[RP31ReCm44Jl-nKhJksXFn29IW4IbKiR1Ihr5Zcm4LR1fkkbQV- -3WH8K7qQosztngCwiQPhZiG0gX3Bk2uRRL0v37eLGAjOTA5RPGGZLNoIAVldKMV4txgW04ebwgWSOHBrG7Az1m1XY0dL98IxZelg0crhUyOmXC7lwNdSlS8zVNNa1CLYEGoruz33gDBo4SO0VZQ9LhZLNa_ayHVJ17oI-ytIiPcXIsBqVpPTNOEgPKv7Fzg90_HdOPFSH-gHXKripKbpCwJNrW3LxkRdfIM7nifWilIOjkGL-uPsx_luPPrj3gzl-M7paMOv4hDby0pyDnOpAP_lsXoJQwtnCM_Gll6fZ0M8PoqLpZN_0G00]--></g></svg>