<?xml version="1.0" encoding="us-ascii" standalone="no"?><svg xmlns="http://www.w3.org/2000/svg" xmlns:xlink="http://www.w3.org/1999/xlink" contentStyleType="text/css" height="427px" preserveAspectRatio="none" style="width:612px;height:427px;background:#FFFFFF;" version="1.1" viewBox="0 0 612 427" width="612px" zoomAndPan="magnify"><defs/><g><line style="stroke:#181818;stroke-width:0.5;stroke-dasharray:5.0,5.0;" x1="30" x2="30" y1="81.4883" y2="346.6621"/><line style="stroke:#181818;stroke-width:0.5;stroke-dasharray:5.0,5.0;" x1="296" x2="296" y1="81.4883" y2="346.6621"/><line style="stroke:#181818;stroke-width:0.5;stroke-dasharray:5.0,5.0;" x1="565" x2="565" y1="81.4883" y2="346.6621"/><text fill="#000000" font-family="sans-serif" font-size="14" lengthAdjust="spacing" textLength="45" x="5" y="78.5352">Admin</text><ellipse cx="30.5" cy="13.5" fill="#E2E2F0" rx="8" ry="8" style="stroke:#181818;stroke-width:0.5;"/><path d="M30.5,21.5 L30.5,48.5 M17.5,29.5 L43.5,29.5 M30.5,48.5 L17.5,63.5 M30.5,48.5 L43.5,63.5 " fill="none" style="stroke:#181818;stroke-width:0.5;"/><text fill="#000000" font-family="sans-serif" font-size="14" lengthAdjust="spacing" textLength="45" x="5" y="359.1973">Admin</text><ellipse cx="30.5" cy="370.6504" fill="#E2E2F0" rx="8" ry="8" style="stroke:#181818;stroke-width:0.5;"/><path d="M30.5,378.6504 L30.5,405.6504 M17.5,386.6504 L43.5,386.6504 M30.5,405.6504 L17.5,420.6504 M30.5,405.6504 L43.5,420.6504 " fill="none" style="stroke:#181818;stroke-width:0.5;"/><rect fill="#E2E2F0" height="30.4883" rx="2.5" ry="2.5" style="stroke:#181818;stroke-width:0.5;" width="123" x="235" y="50"/><text fill="#000000" font-family="sans-serif" font-size="14" lengthAdjust="spacing" textLength="109" x="242" y="70.5352">Backend Service</text><rect fill="#E2E2F0" height="30.4883" rx="2.5" ry="2.5" style="stroke:#181818;stroke-width:0.5;" width="123" x="235" y="345.6621"/><text fill="#000000" font-family="sans-serif" font-size="14" lengthAdjust="spacing" textLength="109" x="242" y="366.1973">Backend Service</text><text fill="#000000" font-family="sans-serif" font-size="14" lengthAdjust="spacing" textLength="63" x="531" y="78.5352">Database</text><path d="M547.5,29 C547.5,19 565.5,19 565.5,19 C565.5,19 583.5,19 583.5,29 L583.5,55 C583.5,65 565.5,65 565.5,65 C565.5,65 547.5,65 547.5,55 L547.5,29 " fill="#E2E2F0" style="stroke:#181818;stroke-width:1.5;"/><path d="M547.5,29 C547.5,39 565.5,39 565.5,39 C565.5,39 583.5,39 583.5,29 " fill="none" style="stroke:#181818;stroke-width:1.5;"/><text fill="#000000" font-family="sans-serif" font-size="14" lengthAdjust="spacing" textLength="63" x="531" y="359.1973">Database</text><path d="M547.5,372.1504 C547.5,362.1504 565.5,362.1504 565.5,362.1504 C565.5,362.1504 583.5,362.1504 583.5,372.1504 L583.5,398.1504 C583.5,408.1504 565.5,408.1504 565.5,408.1504 C565.5,408.1504 547.5,408.1504 547.5,398.1504 L547.5,372.1504 " fill="#E2E2F0" style="stroke:#181818;stroke-width:1.5;"/><path d="M547.5,372.1504 C547.5,382.1504 565.5,382.1504 565.5,382.1504 C565.5,382.1504 583.5,382.1504 583.5,372.1504 " fill="none" style="stroke:#181818;stroke-width:1.5;"/><rect fill="#EEEEEE" height="3" style="stroke:#EEEEEE;stroke-width:1.0;" width="605" x="0" y="112.1436"/><line style="stroke:#000000;stroke-width:1.0;" x1="0" x2="605" y1="112.1436" y2="112.1436"/><line style="stroke:#000000;stroke-width:1.0;" x1="0" x2="605" y1="115.1436" y2="115.1436"/><rect fill="#EEEEEE" height="23.3105" style="stroke:#000000;stroke-width:2.0;" width="148" x="228.5" y="101.4883"/><text fill="#000000" font-family="sans-serif" font-size="13" font-weight="bold" lengthAdjust="spacing" textLength="130" x="234.5" y="118.0566">Get Purchases Flow</text><polygon fill="#181818" points="284.5,152.1094,294.5,156.1094,284.5,160.1094,288.5,156.1094" style="stroke:#181818;stroke-width:1.0;"/><line style="stroke:#181818;stroke-width:1.0;" x1="30.5" x2="290.5" y1="156.1094" y2="156.1094"/><text fill="#000000" font-family="sans-serif" font-size="13" font-weight="bold" lengthAdjust="spacing" textLength="9" x="37.5" y="151.3672">1</text><text fill="#000000" font-family="sans-serif" font-size="13" lengthAdjust="spacing" textLength="159" x="50.5" y="151.3672">Request to get purchases</text><line style="stroke:#181818;stroke-width:1.0;" x1="296.5" x2="338.5" y1="185.4199" y2="185.4199"/><line style="stroke:#181818;stroke-width:1.0;" x1="338.5" x2="338.5" y1="185.4199" y2="198.4199"/><line style="stroke:#181818;stroke-width:1.0;" x1="297.5" x2="338.5" y1="198.4199" y2="198.4199"/><polygon fill="#181818" points="307.5,194.4199,297.5,198.4199,307.5,202.4199,303.5,198.4199" style="stroke:#181818;stroke-width:1.0;"/><text fill="#000000" font-family="sans-serif" font-size="13" font-weight="bold" lengthAdjust="spacing" textLength="9" x="303.5" y="180.6777">2</text><text fill="#000000" font-family="sans-serif" font-size="13" lengthAdjust="spacing" textLength="197" x="316.5" y="180.6777">Create specification with filters</text><polygon fill="#181818" points="553.5,223.7305,563.5,227.7305,553.5,231.7305,557.5,227.7305" style="stroke:#181818;stroke-width:1.0;"/><line style="stroke:#181818;stroke-width:1.0;" x1="296.5" x2="559.5" y1="227.7305" y2="227.7305"/><text fill="#000000" font-family="sans-serif" font-size="13" font-weight="bold" lengthAdjust="spacing" textLength="9" x="303.5" y="222.9883">3</text><text fill="#000000" font-family="sans-serif" font-size="13" lengthAdjust="spacing" textLength="221" x="316.5" y="222.9883">Query purchases with specification</text><polygon fill="#181818" points="307.5,253.041,297.5,257.041,307.5,261.041,303.5,257.041" style="stroke:#181818;stroke-width:1.0;"/><line style="stroke:#181818;stroke-width:1.0;" x1="301.5" x2="564.5" y1="257.041" y2="257.041"/><text fill="#000000" font-family="sans-serif" font-size="13" font-weight="bold" lengthAdjust="spacing" textLength="9" x="313.5" y="252.2988">4</text><text fill="#000000" font-family="sans-serif" font-size="13" lengthAdjust="spacing" textLength="133" x="326.5" y="252.2988">Return purchase data</text><line style="stroke:#181818;stroke-width:1.0;" x1="296.5" x2="338.5" y1="286.3516" y2="286.3516"/><line style="stroke:#181818;stroke-width:1.0;" x1="338.5" x2="338.5" y1="286.3516" y2="299.3516"/><line style="stroke:#181818;stroke-width:1.0;" x1="297.5" x2="338.5" y1="299.3516" y2="299.3516"/><polygon fill="#181818" points="307.5,295.3516,297.5,299.3516,307.5,303.3516,303.5,299.3516" style="stroke:#181818;stroke-width:1.0;"/><text fill="#000000" font-family="sans-serif" font-size="13" font-weight="bold" lengthAdjust="spacing" textLength="9" x="303.5" y="281.6094">5</text><text fill="#000000" font-family="sans-serif" font-size="13" lengthAdjust="spacing" textLength="242" x="316.5" y="281.6094">Map purchase data to response format</text><polygon fill="#181818" points="41.5,324.6621,31.5,328.6621,41.5,332.6621,37.5,328.6621" style="stroke:#181818;stroke-width:1.0;"/><line style="stroke:#181818;stroke-width:1.0;" x1="35.5" x2="295.5" y1="328.6621" y2="328.6621"/><text fill="#000000" font-family="sans-serif" font-size="13" font-weight="bold" lengthAdjust="spacing" textLength="9" x="47.5" y="323.9199">6</text><text fill="#000000" font-family="sans-serif" font-size="13" lengthAdjust="spacing" textLength="229" x="60.5" y="323.9199">Return paginated purchase response</text><!--SRC=[RO_HJiCm34NV_HLMt_S3auf4gU09YS4NUAcxMQn9S9nD_3rPH-WgyUOuzrpVIzc2pzEU5O2S1SN7OHAFbB2PfmOYgOcJIDwm8_V9VfY_w_p1UXR73GnajAV4s7UpeFzzDm1jYozi-9RL7SicuVCfNB1juNPjyr2Tj_ZENvcJeGKy52HM1EgzU_6JCXbZYkna54ScmUD5x8YZd8nrHVNT5dUPzNinlMbNE9JqwpoMrVyXU6tvRvPNYclLjO9oYi6NnHXq8hi7v-gBFnt4box3ub7P7m00]--></g></svg>