<?xml version="1.0" encoding="us-ascii" standalone="no"?><svg xmlns="http://www.w3.org/2000/svg" xmlns:xlink="http://www.w3.org/1999/xlink" contentStyleType="text/css" height="1218px" preserveAspectRatio="none" style="width:709px;height:1218px;background:#FFFFFF;" version="1.1" viewBox="0 0 709 1218" width="709px" zoomAndPan="magnify"><defs/><g><rect fill="none" height="454.9473" style="stroke:#000000;stroke-width:1.5;" width="395" x="297" y="272.041"/><rect fill="none" height="133.1973" style="stroke:#000000;stroke-width:1.5;" width="375" x="307" y="354.9727"/><rect fill="none" height="116.8867" style="stroke:#000000;stroke-width:1.5;" width="327.5" x="307" y="560.791"/><rect fill="none" height="206.8184" style="stroke:#000000;stroke-width:1.5;" width="385" x="297" y="740.9883"/><rect fill="none" height="116.8867" style="stroke:#000000;stroke-width:1.5;" width="321.5" x="307" y="823.9199"/><line style="stroke:#181818;stroke-width:0.5;stroke-dasharray:5.0,5.0;" x1="30" x2="30" y1="81.4883" y2="1137.3594"/><line style="stroke:#181818;stroke-width:0.5;stroke-dasharray:5.0,5.0;" x1="378" x2="378" y1="81.4883" y2="1137.3594"/><line style="stroke:#181818;stroke-width:0.5;stroke-dasharray:5.0,5.0;" x1="637" x2="637" y1="81.4883" y2="1137.3594"/><text fill="#000000" font-family="sans-serif" font-size="14" lengthAdjust="spacing" textLength="45" x="5" y="78.5352">Admin</text><ellipse cx="30.5" cy="13.5" fill="#E2E2F0" rx="8" ry="8" style="stroke:#181818;stroke-width:0.5;"/><path d="M30.5,21.5 L30.5,48.5 M17.5,29.5 L43.5,29.5 M30.5,48.5 L17.5,63.5 M30.5,48.5 L43.5,63.5 " fill="none" style="stroke:#181818;stroke-width:0.5;"/><text fill="#000000" font-family="sans-serif" font-size="14" lengthAdjust="spacing" textLength="45" x="5" y="1149.8945">Admin</text><ellipse cx="30.5" cy="1161.3477" fill="#E2E2F0" rx="8" ry="8" style="stroke:#181818;stroke-width:0.5;"/><path d="M30.5,1169.3477 L30.5,1196.3477 M17.5,1177.3477 L43.5,1177.3477 M30.5,1196.3477 L17.5,1211.3477 M30.5,1196.3477 L43.5,1211.3477 " fill="none" style="stroke:#181818;stroke-width:0.5;"/><rect fill="#E2E2F0" height="30.4883" rx="2.5" ry="2.5" style="stroke:#181818;stroke-width:0.5;" width="123" x="317" y="50"/><text fill="#000000" font-family="sans-serif" font-size="14" lengthAdjust="spacing" textLength="109" x="324" y="70.5352">Backend Service</text><rect fill="#E2E2F0" height="30.4883" rx="2.5" ry="2.5" style="stroke:#181818;stroke-width:0.5;" width="123" x="317" y="1136.3594"/><text fill="#000000" font-family="sans-serif" font-size="14" lengthAdjust="spacing" textLength="109" x="324" y="1156.8945">Backend Service</text><text fill="#000000" font-family="sans-serif" font-size="14" lengthAdjust="spacing" textLength="63" x="603" y="78.5352">Database</text><path d="M619.5,29 C619.5,19 637.5,19 637.5,19 C637.5,19 655.5,19 655.5,29 L655.5,55 C655.5,65 637.5,65 637.5,65 C637.5,65 619.5,65 619.5,55 L619.5,29 " fill="#E2E2F0" style="stroke:#181818;stroke-width:1.5;"/><path d="M619.5,29 C619.5,39 637.5,39 637.5,39 C637.5,39 655.5,39 655.5,29 " fill="none" style="stroke:#181818;stroke-width:1.5;"/><text fill="#000000" font-family="sans-serif" font-size="14" lengthAdjust="spacing" textLength="63" x="603" y="1149.8945">Database</text><path d="M619.5,1162.8477 C619.5,1152.8477 637.5,1152.8477 637.5,1152.8477 C637.5,1152.8477 655.5,1152.8477 655.5,1162.8477 L655.5,1188.8477 C655.5,1198.8477 637.5,1198.8477 637.5,1198.8477 C637.5,1198.8477 619.5,1198.8477 619.5,1188.8477 L619.5,1162.8477 " fill="#E2E2F0" style="stroke:#181818;stroke-width:1.5;"/><path d="M619.5,1162.8477 C619.5,1172.8477 637.5,1172.8477 637.5,1172.8477 C637.5,1172.8477 655.5,1172.8477 655.5,1162.8477 " fill="none" style="stroke:#181818;stroke-width:1.5;"/><rect fill="#EEEEEE" height="3" style="stroke:#EEEEEE;stroke-width:1.0;" width="702" x="0" y="112.1436"/><line style="stroke:#000000;stroke-width:1.0;" x1="0" x2="702" y1="112.1436" y2="112.1436"/><line style="stroke:#000000;stroke-width:1.0;" x1="0" x2="702" y1="115.1436" y2="115.1436"/><rect fill="#EEEEEE" height="23.3105" style="stroke:#000000;stroke-width:2.0;" width="167" x="267.5" y="101.4883"/><text fill="#000000" font-family="sans-serif" font-size="13" font-weight="bold" lengthAdjust="spacing" textLength="149" x="273.5" y="118.0566">Update Purchase Flow</text><polygon fill="#181818" points="366.5,152.1094,376.5,156.1094,366.5,160.1094,370.5,156.1094" style="stroke:#181818;stroke-width:1.0;"/><line style="stroke:#181818;stroke-width:1.0;" x1="30.5" x2="372.5" y1="156.1094" y2="156.1094"/><text fill="#000000" font-family="sans-serif" font-size="13" font-weight="bold" lengthAdjust="spacing" textLength="9" x="37.5" y="151.3672">1</text><text fill="#000000" font-family="sans-serif" font-size="13" lengthAdjust="spacing" textLength="311" x="50.5" y="151.3672">Request to update purchase (purchaseId, request)</text><polygon fill="#181818" points="625.5,181.4199,635.5,185.4199,625.5,189.4199,629.5,185.4199" style="stroke:#181818;stroke-width:1.0;"/><line style="stroke:#181818;stroke-width:1.0;" x1="378.5" x2="631.5" y1="185.4199" y2="185.4199"/><text fill="#000000" font-family="sans-serif" font-size="13" font-weight="bold" lengthAdjust="spacing" textLength="9" x="385.5" y="180.6777">2</text><text fill="#000000" font-family="sans-serif" font-size="13" lengthAdjust="spacing" textLength="125" x="398.5" y="180.6777">Find purchase by ID</text><polygon fill="#181818" points="389.5,210.7305,379.5,214.7305,389.5,218.7305,385.5,214.7305" style="stroke:#181818;stroke-width:1.0;"/><line style="stroke:#181818;stroke-width:1.0;" x1="383.5" x2="636.5" y1="214.7305" y2="214.7305"/><text fill="#000000" font-family="sans-serif" font-size="13" font-weight="bold" lengthAdjust="spacing" textLength="9" x="395.5" y="209.9883">3</text><text fill="#000000" font-family="sans-serif" font-size="13" lengthAdjust="spacing" textLength="133" x="408.5" y="209.9883">Return purchase data</text><line style="stroke:#181818;stroke-width:1.0;" x1="378.5" x2="420.5" y1="244.041" y2="244.041"/><line style="stroke:#181818;stroke-width:1.0;" x1="420.5" x2="420.5" y1="244.041" y2="257.041"/><line style="stroke:#181818;stroke-width:1.0;" x1="379.5" x2="420.5" y1="257.041" y2="257.041"/><polygon fill="#181818" points="389.5,253.041,379.5,257.041,389.5,261.041,385.5,257.041" style="stroke:#181818;stroke-width:1.0;"/><text fill="#000000" font-family="sans-serif" font-size="13" font-weight="bold" lengthAdjust="spacing" textLength="9" x="385.5" y="239.2988">4</text><text fill="#000000" font-family="sans-serif" font-size="13" lengthAdjust="spacing" textLength="232" x="398.5" y="239.2988">Check if medicine ID needs updating</text><path d="M297,272.041 L359,272.041 L359,279.3516 L349,289.3516 L297,289.3516 L297,272.041 " fill="#EEEEEE" style="stroke:#000000;stroke-width:1.5;"/><rect fill="none" height="454.9473" style="stroke:#000000;stroke-width:1.5;" width="395" x="297" y="272.041"/><text fill="#000000" font-family="sans-serif" font-size="13" font-weight="bold" lengthAdjust="spacing" textLength="17" x="312" y="285.6094">alt</text><text fill="#000000" font-family="sans-serif" font-size="11" font-weight="bold" lengthAdjust="spacing" textLength="118" x="374" y="284.6758">[Update medicine ID]</text><polygon fill="#181818" points="625.5,306.6621,635.5,310.6621,625.5,314.6621,629.5,310.6621" style="stroke:#181818;stroke-width:1.0;"/><line style="stroke:#181818;stroke-width:1.0;" x1="378.5" x2="631.5" y1="310.6621" y2="310.6621"/><text fill="#000000" font-family="sans-serif" font-size="13" font-weight="bold" lengthAdjust="spacing" textLength="9" x="385.5" y="305.9199">5</text><text fill="#000000" font-family="sans-serif" font-size="13" lengthAdjust="spacing" textLength="139" x="398.5" y="305.9199">Find current inventory</text><polygon fill="#181818" points="389.5,335.9727,379.5,339.9727,389.5,343.9727,385.5,339.9727" style="stroke:#181818;stroke-width:1.0;"/><line style="stroke:#181818;stroke-width:1.0;" x1="383.5" x2="636.5" y1="339.9727" y2="339.9727"/><text fill="#000000" font-family="sans-serif" font-size="13" font-weight="bold" lengthAdjust="spacing" textLength="9" x="395.5" y="335.2305">6</text><text fill="#000000" font-family="sans-serif" font-size="13" lengthAdjust="spacing" textLength="104" x="408.5" y="335.2305">Return inventory</text><path d="M307,354.9727 L369,354.9727 L369,362.2832 L359,372.2832 L307,372.2832 L307,354.9727 " fill="#EEEEEE" style="stroke:#000000;stroke-width:1.5;"/><rect fill="none" height="133.1973" style="stroke:#000000;stroke-width:1.5;" width="375" x="307" y="354.9727"/><text fill="#000000" font-family="sans-serif" font-size="13" font-weight="bold" lengthAdjust="spacing" textLength="17" x="322" y="368.541">alt</text><text fill="#000000" font-family="sans-serif" font-size="11" font-weight="bold" lengthAdjust="spacing" textLength="97" x="384" y="367.6074">[Inventory exists]</text><polygon fill="#181818" points="625.5,389.5938,635.5,393.5938,625.5,397.5938,629.5,393.5938" style="stroke:#181818;stroke-width:1.0;"/><line style="stroke:#181818;stroke-width:1.0;" x1="378.5" x2="631.5" y1="393.5938" y2="393.5938"/><text fill="#000000" font-family="sans-serif" font-size="13" font-weight="bold" lengthAdjust="spacing" textLength="9" x="385.5" y="388.8516">7</text><text fill="#000000" font-family="sans-serif" font-size="13" lengthAdjust="spacing" textLength="176" x="398.5" y="388.8516">Decrease inventory quantity</text><polygon fill="#181818" points="389.5,418.9043,379.5,422.9043,389.5,426.9043,385.5,422.9043" style="stroke:#181818;stroke-width:1.0;"/><line style="stroke:#181818;stroke-width:1.0;" x1="383.5" x2="636.5" y1="422.9043" y2="422.9043"/><text fill="#000000" font-family="sans-serif" font-size="13" font-weight="bold" lengthAdjust="spacing" textLength="9" x="395.5" y="418.1621">8</text><text fill="#000000" font-family="sans-serif" font-size="13" lengthAdjust="spacing" textLength="161" x="408.5" y="418.1621">Confirm inventory update</text><line style="stroke:#000000;stroke-width:1.0;stroke-dasharray:2.0,2.0;" x1="307" x2="682" y1="431.9043" y2="431.9043"/><text fill="#000000" font-family="sans-serif" font-size="11" font-weight="bold" lengthAdjust="spacing" textLength="143" x="312" y="442.5391">[Inventory does not exist]</text><line style="stroke:#181818;stroke-width:1.0;" x1="378.5" x2="420.5" y1="467.1699" y2="467.1699"/><line style="stroke:#181818;stroke-width:1.0;" x1="420.5" x2="420.5" y1="467.1699" y2="480.1699"/><line style="stroke:#181818;stroke-width:1.0;" x1="379.5" x2="420.5" y1="480.1699" y2="480.1699"/><polygon fill="#181818" points="389.5,476.1699,379.5,480.1699,389.5,484.1699,385.5,480.1699" style="stroke:#181818;stroke-width:1.0;"/><text fill="#000000" font-family="sans-serif" font-size="13" font-weight="bold" lengthAdjust="spacing" textLength="9" x="385.5" y="462.4277">9</text><text fill="#000000" font-family="sans-serif" font-size="13" lengthAdjust="spacing" textLength="232" x="398.5" y="462.4277">Continue without updating inventory</text><polygon fill="#181818" points="625.5,512.4805,635.5,516.4805,625.5,520.4805,629.5,516.4805" style="stroke:#181818;stroke-width:1.0;"/><line style="stroke:#181818;stroke-width:1.0;" x1="378.5" x2="631.5" y1="516.4805" y2="516.4805"/><text fill="#000000" font-family="sans-serif" font-size="13" font-weight="bold" lengthAdjust="spacing" textLength="18" x="385.5" y="511.7383">10</text><text fill="#000000" font-family="sans-serif" font-size="13" lengthAdjust="spacing" textLength="154" x="407.5" y="511.7383">Find new medicine by ID</text><polygon fill="#181818" points="389.5,541.791,379.5,545.791,389.5,549.791,385.5,545.791" style="stroke:#181818;stroke-width:1.0;"/><line style="stroke:#181818;stroke-width:1.0;" x1="383.5" x2="636.5" y1="545.791" y2="545.791"/><text fill="#000000" font-family="sans-serif" font-size="13" font-weight="bold" lengthAdjust="spacing" textLength="18" x="395.5" y="541.0488">11</text><text fill="#000000" font-family="sans-serif" font-size="13" lengthAdjust="spacing" textLength="133" x="417.5" y="541.0488">Return medicine data</text><path d="M307,560.791 L369,560.791 L369,568.1016 L359,578.1016 L307,578.1016 L307,560.791 " fill="#EEEEEE" style="stroke:#000000;stroke-width:1.5;"/><rect fill="none" height="116.8867" style="stroke:#000000;stroke-width:1.5;" width="327.5" x="307" y="560.791"/><text fill="#000000" font-family="sans-serif" font-size="13" font-weight="bold" lengthAdjust="spacing" textLength="17" x="322" y="574.3594">alt</text><text fill="#000000" font-family="sans-serif" font-size="11" font-weight="bold" lengthAdjust="spacing" textLength="94" x="384" y="573.4258">[Medicine exists]</text><line style="stroke:#181818;stroke-width:1.0;" x1="378.5" x2="420.5" y1="599.4121" y2="599.4121"/><line style="stroke:#181818;stroke-width:1.0;" x1="420.5" x2="420.5" y1="599.4121" y2="612.4121"/><line style="stroke:#181818;stroke-width:1.0;" x1="379.5" x2="420.5" y1="612.4121" y2="612.4121"/><polygon fill="#181818" points="389.5,608.4121,379.5,612.4121,389.5,616.4121,385.5,612.4121" style="stroke:#181818;stroke-width:1.0;"/><text fill="#000000" font-family="sans-serif" font-size="13" font-weight="bold" lengthAdjust="spacing" textLength="18" x="385.5" y="594.6699">12</text><text fill="#000000" font-family="sans-serif" font-size="13" lengthAdjust="spacing" textLength="166" x="407.5" y="594.6699">Update purchase medicine</text><line style="stroke:#000000;stroke-width:1.0;stroke-dasharray:2.0,2.0;" x1="307" x2="634.5" y1="621.4121" y2="621.4121"/><text fill="#000000" font-family="sans-serif" font-size="11" font-weight="bold" lengthAdjust="spacing" textLength="140" x="312" y="632.0469">[Medicine does not exist]</text><line style="stroke:#181818;stroke-width:1.0;" x1="378.5" x2="420.5" y1="656.6777" y2="656.6777"/><line style="stroke:#181818;stroke-width:1.0;" x1="420.5" x2="420.5" y1="656.6777" y2="669.6777"/><line style="stroke:#181818;stroke-width:1.0;" x1="379.5" x2="420.5" y1="669.6777" y2="669.6777"/><polygon fill="#181818" points="389.5,665.6777,379.5,669.6777,389.5,673.6777,385.5,669.6777" style="stroke:#181818;stroke-width:1.0;"/><text fill="#000000" font-family="sans-serif" font-size="13" font-weight="bold" lengthAdjust="spacing" textLength="18" x="385.5" y="651.9355">13</text><text fill="#000000" font-family="sans-serif" font-size="13" lengthAdjust="spacing" textLength="215" x="407.5" y="651.9355">Throw MEDICINE_NOT_EXIST error</text><line style="stroke:#181818;stroke-width:1.0;" x1="378.5" x2="420.5" y1="705.9883" y2="705.9883"/><line style="stroke:#181818;stroke-width:1.0;" x1="420.5" x2="420.5" y1="705.9883" y2="718.9883"/><line style="stroke:#181818;stroke-width:1.0;" x1="379.5" x2="420.5" y1="718.9883" y2="718.9883"/><polygon fill="#181818" points="389.5,714.9883,379.5,718.9883,389.5,722.9883,385.5,718.9883" style="stroke:#181818;stroke-width:1.0;"/><text fill="#000000" font-family="sans-serif" font-size="13" font-weight="bold" lengthAdjust="spacing" textLength="18" x="385.5" y="701.2461">14</text><text fill="#000000" font-family="sans-serif" font-size="13" lengthAdjust="spacing" textLength="203" x="407.5" y="701.2461">Save inventory for new medicine</text><path d="M297,740.9883 L359,740.9883 L359,748.2988 L349,758.2988 L297,758.2988 L297,740.9883 " fill="#EEEEEE" style="stroke:#000000;stroke-width:1.5;"/><rect fill="none" height="206.8184" style="stroke:#000000;stroke-width:1.5;" width="385" x="297" y="740.9883"/><text fill="#000000" font-family="sans-serif" font-size="13" font-weight="bold" lengthAdjust="spacing" textLength="17" x="312" y="754.5566">alt</text><text fill="#000000" font-family="sans-serif" font-size="11" font-weight="bold" lengthAdjust="spacing" textLength="113" x="374" y="753.623">[Update supplier ID]</text><polygon fill="#181818" points="625.5,775.6094,635.5,779.6094,625.5,783.6094,629.5,779.6094" style="stroke:#181818;stroke-width:1.0;"/><line style="stroke:#181818;stroke-width:1.0;" x1="378.5" x2="631.5" y1="779.6094" y2="779.6094"/><text fill="#000000" font-family="sans-serif" font-size="13" font-weight="bold" lengthAdjust="spacing" textLength="18" x="385.5" y="774.8672">15</text><text fill="#000000" font-family="sans-serif" font-size="13" lengthAdjust="spacing" textLength="119" x="407.5" y="774.8672">Find supplier by ID</text><polygon fill="#181818" points="389.5,804.9199,379.5,808.9199,389.5,812.9199,385.5,808.9199" style="stroke:#181818;stroke-width:1.0;"/><line style="stroke:#181818;stroke-width:1.0;" x1="383.5" x2="636.5" y1="808.9199" y2="808.9199"/><text fill="#000000" font-family="sans-serif" font-size="13" font-weight="bold" lengthAdjust="spacing" textLength="18" x="395.5" y="804.1777">16</text><text fill="#000000" font-family="sans-serif" font-size="13" lengthAdjust="spacing" textLength="127" x="417.5" y="804.1777">Return supplier data</text><path d="M307,823.9199 L369,823.9199 L369,831.2305 L359,841.2305 L307,841.2305 L307,823.9199 " fill="#EEEEEE" style="stroke:#000000;stroke-width:1.5;"/><rect fill="none" height="116.8867" style="stroke:#000000;stroke-width:1.5;" width="321.5" x="307" y="823.9199"/><text fill="#000000" font-family="sans-serif" font-size="13" font-weight="bold" lengthAdjust="spacing" textLength="17" x="322" y="837.4883">alt</text><text fill="#000000" font-family="sans-serif" font-size="11" font-weight="bold" lengthAdjust="spacing" textLength="90" x="384" y="836.5547">[Supplier exists]</text><line style="stroke:#181818;stroke-width:1.0;" x1="378.5" x2="420.5" y1="862.541" y2="862.541"/><line style="stroke:#181818;stroke-width:1.0;" x1="420.5" x2="420.5" y1="862.541" y2="875.541"/><line style="stroke:#181818;stroke-width:1.0;" x1="379.5" x2="420.5" y1="875.541" y2="875.541"/><polygon fill="#181818" points="389.5,871.541,379.5,875.541,389.5,879.541,385.5,875.541" style="stroke:#181818;stroke-width:1.0;"/><text fill="#000000" font-family="sans-serif" font-size="13" font-weight="bold" lengthAdjust="spacing" textLength="18" x="385.5" y="857.7988">17</text><text fill="#000000" font-family="sans-serif" font-size="13" lengthAdjust="spacing" textLength="160" x="407.5" y="857.7988">Update purchase supplier</text><line style="stroke:#000000;stroke-width:1.0;stroke-dasharray:2.0,2.0;" x1="307" x2="628.5" y1="884.541" y2="884.541"/><text fill="#000000" font-family="sans-serif" font-size="11" font-weight="bold" lengthAdjust="spacing" textLength="136" x="312" y="895.1758">[Supplier does not exist]</text><line style="stroke:#181818;stroke-width:1.0;" x1="378.5" x2="420.5" y1="919.8066" y2="919.8066"/><line style="stroke:#181818;stroke-width:1.0;" x1="420.5" x2="420.5" y1="919.8066" y2="932.8066"/><line style="stroke:#181818;stroke-width:1.0;" x1="379.5" x2="420.5" y1="932.8066" y2="932.8066"/><polygon fill="#181818" points="389.5,928.8066,379.5,932.8066,389.5,936.8066,385.5,932.8066" style="stroke:#181818;stroke-width:1.0;"/><text fill="#000000" font-family="sans-serif" font-size="13" font-weight="bold" lengthAdjust="spacing" textLength="18" x="385.5" y="915.0645">18</text><text fill="#000000" font-family="sans-serif" font-size="13" lengthAdjust="spacing" textLength="209" x="407.5" y="915.0645">Throw SUPPLIER_NOT_EXIST error</text><line style="stroke:#181818;stroke-width:1.0;" x1="378.5" x2="420.5" y1="976.1172" y2="976.1172"/><line style="stroke:#181818;stroke-width:1.0;" x1="420.5" x2="420.5" y1="976.1172" y2="989.1172"/><line style="stroke:#181818;stroke-width:1.0;" x1="379.5" x2="420.5" y1="989.1172" y2="989.1172"/><polygon fill="#181818" points="389.5,985.1172,379.5,989.1172,389.5,993.1172,385.5,989.1172" style="stroke:#181818;stroke-width:1.0;"/><text fill="#000000" font-family="sans-serif" font-size="13" font-weight="bold" lengthAdjust="spacing" textLength="18" x="385.5" y="971.375">19</text><text fill="#000000" font-family="sans-serif" font-size="13" lengthAdjust="spacing" textLength="195" x="407.5" y="971.375">Map request to purchase entity</text><polygon fill="#181818" points="625.5,1014.4277,635.5,1018.4277,625.5,1022.4277,629.5,1018.4277" style="stroke:#181818;stroke-width:1.0;"/><line style="stroke:#181818;stroke-width:1.0;" x1="378.5" x2="631.5" y1="1018.4277" y2="1018.4277"/><text fill="#000000" font-family="sans-serif" font-size="13" font-weight="bold" lengthAdjust="spacing" textLength="18" x="385.5" y="1013.6855">20</text><text fill="#000000" font-family="sans-serif" font-size="13" lengthAdjust="spacing" textLength="144" x="407.5" y="1013.6855">Save updated purchase</text><polygon fill="#181818" points="389.5,1043.7383,379.5,1047.7383,389.5,1051.7383,385.5,1047.7383" style="stroke:#181818;stroke-width:1.0;"/><line style="stroke:#181818;stroke-width:1.0;" x1="383.5" x2="636.5" y1="1047.7383" y2="1047.7383"/><text fill="#000000" font-family="sans-serif" font-size="13" font-weight="bold" lengthAdjust="spacing" textLength="18" x="395.5" y="1042.9961">21</text><text fill="#000000" font-family="sans-serif" font-size="13" lengthAdjust="spacing" textLength="159" x="417.5" y="1042.9961">Confirm purchase update</text><line style="stroke:#181818;stroke-width:1.0;" x1="378.5" x2="420.5" y1="1077.0488" y2="1077.0488"/><line style="stroke:#181818;stroke-width:1.0;" x1="420.5" x2="420.5" y1="1077.0488" y2="1090.0488"/><line style="stroke:#181818;stroke-width:1.0;" x1="379.5" x2="420.5" y1="1090.0488" y2="1090.0488"/><polygon fill="#181818" points="389.5,1086.0488,379.5,1090.0488,389.5,1094.0488,385.5,1090.0488" style="stroke:#181818;stroke-width:1.0;"/><text fill="#000000" font-family="sans-serif" font-size="13" font-weight="bold" lengthAdjust="spacing" textLength="18" x="385.5" y="1072.3066">22</text><text fill="#000000" font-family="sans-serif" font-size="13" lengthAdjust="spacing" textLength="220" x="407.5" y="1072.3066">Map updated purchase to response</text><polygon fill="#181818" points="41.5,1115.3594,31.5,1119.3594,41.5,1123.3594,37.5,1119.3594" style="stroke:#181818;stroke-width:1.0;"/><line style="stroke:#181818;stroke-width:1.0;" x1="35.5" x2="377.5" y1="1119.3594" y2="1119.3594"/><text fill="#000000" font-family="sans-serif" font-size="13" font-weight="bold" lengthAdjust="spacing" textLength="18" x="47.5" y="1114.6172">23</text><text fill="#000000" font-family="sans-serif" font-size="13" lengthAdjust="spacing" textLength="218" x="69.5" y="1114.6172">Return updated purchase response</text><!--SRC=[dLJHRk8m47ptLwnuQgMx7wZ4IOLGALBfeGQaUwjCiXnMmKxNDfI_FyUkdP1BUkeX8OmzCpkUjSsjKT8UjqYCyT8eWllgA2Hm3HC_ch2Qan6bgBaqCEFbAyhAByTnWNGI9KvOnGtVSesGpJmW-_W_OMmwXKtjrX5Mbifz0teug3DCfopK-_uZQj_1CxvPr0QC0Xj8TIJTn55UVGCAk5iMdJYHR7O73yAD4sLxWJnZpj9r2MD9jg36UbSc0UTxB5z1xE28bGj1eXC3YLZfu4t8tumVJDnT1yN0VOQSbPO8NPP2djoFeej73XkynZI5yZW3-2wqqNvXe5I69M6pjIG1RzQrK9XBelHgpfNS2Jfs625-ZyU3qsgBLmerI6M2Yo4JNLaNaqKu2xDNrgJWUhjpuD7C99xRR4D7nqDBGD_L6DmopexdbeGslMCN5TiaajeNWbZloHtvvIBBv_dJukNfv_fbyIilre14YiOoIFI2dxhTtBcxses5DTpEKTIshWy2wREZc33_YZG1ho8jukn_H1eLsqYJsfSZBJQhrME-U1wDjFaEqPUyZgz8yzeaSnZkIIyotu1m9ThtXOrSegJrSOV6olVr6X-4kbPINv7yCvdwyHShKlu0]--></g></svg>