<?xml version="1.0" encoding="us-ascii" standalone="no"?><svg xmlns="http://www.w3.org/2000/svg" xmlns:xlink="http://www.w3.org/1999/xlink" contentStyleType="text/css" height="427px" preserveAspectRatio="none" style="width:727px;height:427px;background:#FFFFFF;" version="1.1" viewBox="0 0 727 427" width="727px" zoomAndPan="magnify"><defs/><g><line style="stroke:#181818;stroke-width:0.5;stroke-dasharray:5.0,5.0;" x1="30" x2="30" y1="81.4883" y2="346.6621"/><line style="stroke:#181818;stroke-width:0.5;stroke-dasharray:5.0,5.0;" x1="356" x2="356" y1="81.4883" y2="346.6621"/><line style="stroke:#181818;stroke-width:0.5;stroke-dasharray:5.0,5.0;" x1="692.5" x2="692.5" y1="81.4883" y2="346.6621"/><text fill="#000000" font-family="sans-serif" font-size="14" lengthAdjust="spacing" textLength="45" x="5" y="78.5352">Admin</text><ellipse cx="30.5" cy="13.5" fill="#E2E2F0" rx="8" ry="8" style="stroke:#181818;stroke-width:0.5;"/><path d="M30.5,21.5 L30.5,48.5 M17.5,29.5 L43.5,29.5 M30.5,48.5 L17.5,63.5 M30.5,48.5 L43.5,63.5 " fill="none" style="stroke:#181818;stroke-width:0.5;"/><text fill="#000000" font-family="sans-serif" font-size="14" lengthAdjust="spacing" textLength="45" x="5" y="359.1973">Admin</text><ellipse cx="30.5" cy="370.6504" fill="#E2E2F0" rx="8" ry="8" style="stroke:#181818;stroke-width:0.5;"/><path d="M30.5,378.6504 L30.5,405.6504 M17.5,386.6504 L43.5,386.6504 M30.5,405.6504 L17.5,420.6504 M30.5,405.6504 L43.5,420.6504 " fill="none" style="stroke:#181818;stroke-width:0.5;"/><rect fill="#E2E2F0" height="30.4883" rx="2.5" ry="2.5" style="stroke:#181818;stroke-width:0.5;" width="123" x="295" y="50"/><text fill="#000000" font-family="sans-serif" font-size="14" lengthAdjust="spacing" textLength="109" x="302" y="70.5352">Backend Service</text><rect fill="#E2E2F0" height="30.4883" rx="2.5" ry="2.5" style="stroke:#181818;stroke-width:0.5;" width="123" x="295" y="345.6621"/><text fill="#000000" font-family="sans-serif" font-size="14" lengthAdjust="spacing" textLength="109" x="302" y="366.1973">Backend Service</text><text fill="#000000" font-family="sans-serif" font-size="14" lengthAdjust="spacing" textLength="18" x="680.5" y="78.5352">DB</text><path d="M674.5,29 C674.5,19 692.5,19 692.5,19 C692.5,19 710.5,19 710.5,29 L710.5,55 C710.5,65 692.5,65 692.5,65 C692.5,65 674.5,65 674.5,55 L674.5,29 " fill="#E2E2F0" style="stroke:#181818;stroke-width:1.5;"/><path d="M674.5,29 C674.5,39 692.5,39 692.5,39 C692.5,39 710.5,39 710.5,29 " fill="none" style="stroke:#181818;stroke-width:1.5;"/><text fill="#000000" font-family="sans-serif" font-size="14" lengthAdjust="spacing" textLength="18" x="680.5" y="359.1973">DB</text><path d="M674.5,372.1504 C674.5,362.1504 692.5,362.1504 692.5,362.1504 C692.5,362.1504 710.5,362.1504 710.5,372.1504 L710.5,398.1504 C710.5,408.1504 692.5,408.1504 692.5,408.1504 C692.5,408.1504 674.5,408.1504 674.5,398.1504 L674.5,372.1504 " fill="#E2E2F0" style="stroke:#181818;stroke-width:1.5;"/><path d="M674.5,372.1504 C674.5,382.1504 692.5,382.1504 692.5,382.1504 C692.5,382.1504 710.5,382.1504 710.5,372.1504 " fill="none" style="stroke:#181818;stroke-width:1.5;"/><rect fill="#EEEEEE" height="3" style="stroke:#EEEEEE;stroke-width:1.0;" width="715.5" x="0" y="112.1436"/><line style="stroke:#000000;stroke-width:1.0;" x1="0" x2="715.5" y1="112.1436" y2="112.1436"/><line style="stroke:#000000;stroke-width:1.0;" x1="0" x2="715.5" y1="115.1436" y2="115.1436"/><rect fill="#EEEEEE" height="23.3105" style="stroke:#000000;stroke-width:2.0;" width="230" x="242.75" y="101.4883"/><text fill="#000000" font-family="sans-serif" font-size="13" font-weight="bold" lengthAdjust="spacing" textLength="212" x="248.75" y="118.0566">Get Customer Point Config Flow</text><polygon fill="#181818" points="344.5,152.1094,354.5,156.1094,344.5,160.1094,348.5,156.1094" style="stroke:#181818;stroke-width:1.0;"/><line style="stroke:#181818;stroke-width:1.0;" x1="30.5" x2="350.5" y1="156.1094" y2="156.1094"/><text fill="#000000" font-family="sans-serif" font-size="13" font-weight="bold" lengthAdjust="spacing" textLength="9" x="37.5" y="151.3672">1</text><text fill="#000000" font-family="sans-serif" font-size="13" lengthAdjust="spacing" textLength="288" x="50.5" y="151.3672">Request to view customer point configuration</text><polygon fill="#181818" points="680.5,181.4199,690.5,185.4199,680.5,189.4199,684.5,185.4199" style="stroke:#181818;stroke-width:1.0;"/><line style="stroke:#181818;stroke-width:1.0;" x1="356.5" x2="686.5" y1="185.4199" y2="185.4199"/><text fill="#000000" font-family="sans-serif" font-size="13" font-weight="bold" lengthAdjust="spacing" textLength="9" x="363.5" y="180.6777">2</text><text fill="#000000" font-family="sans-serif" font-size="13" lengthAdjust="spacing" textLength="242" x="376.5" y="180.6777">Look for customer point configuration</text><polygon fill="#181818" points="367.5,210.7305,357.5,214.7305,367.5,218.7305,363.5,214.7305" style="stroke:#181818;stroke-width:1.0;"/><line style="stroke:#181818;stroke-width:1.0;" x1="361.5" x2="691.5" y1="214.7305" y2="214.7305"/><text fill="#000000" font-family="sans-serif" font-size="13" font-weight="bold" lengthAdjust="spacing" textLength="9" x="373.5" y="209.9883">3</text><text fill="#000000" font-family="sans-serif" font-size="13" lengthAdjust="spacing" textLength="299" x="386.5" y="209.9883">Send back customer point configuration details</text><line style="stroke:#181818;stroke-width:1.0;" x1="356.5" x2="398.5" y1="244.041" y2="244.041"/><line style="stroke:#181818;stroke-width:1.0;" x1="398.5" x2="398.5" y1="244.041" y2="257.041"/><line style="stroke:#181818;stroke-width:1.0;" x1="357.5" x2="398.5" y1="257.041" y2="257.041"/><polygon fill="#181818" points="367.5,253.041,357.5,257.041,367.5,261.041,363.5,257.041" style="stroke:#181818;stroke-width:1.0;"/><text fill="#000000" font-family="sans-serif" font-size="13" font-weight="bold" lengthAdjust="spacing" textLength="9" x="363.5" y="239.2988">4</text><text fill="#000000" font-family="sans-serif" font-size="13" lengthAdjust="spacing" textLength="273" x="376.5" y="239.2988">Take the first customer point configuration</text><line style="stroke:#181818;stroke-width:1.0;" x1="356.5" x2="398.5" y1="286.3516" y2="286.3516"/><line style="stroke:#181818;stroke-width:1.0;" x1="398.5" x2="398.5" y1="286.3516" y2="299.3516"/><line style="stroke:#181818;stroke-width:1.0;" x1="357.5" x2="398.5" y1="299.3516" y2="299.3516"/><polygon fill="#181818" points="367.5,295.3516,357.5,299.3516,367.5,303.3516,363.5,299.3516" style="stroke:#181818;stroke-width:1.0;"/><text fill="#000000" font-family="sans-serif" font-size="13" font-weight="bold" lengthAdjust="spacing" textLength="9" x="363.5" y="281.6094">5</text><text fill="#000000" font-family="sans-serif" font-size="13" lengthAdjust="spacing" textLength="222" x="376.5" y="281.6094">Prepare the response for the Admin</text><polygon fill="#181818" points="41.5,324.6621,31.5,328.6621,41.5,332.6621,37.5,328.6621" style="stroke:#181818;stroke-width:1.0;"/><line style="stroke:#181818;stroke-width:1.0;" x1="35.5" x2="355.5" y1="328.6621" y2="328.6621"/><text fill="#000000" font-family="sans-serif" font-size="13" font-weight="bold" lengthAdjust="spacing" textLength="9" x="47.5" y="323.9199">6</text><text fill="#000000" font-family="sans-serif" font-size="13" lengthAdjust="spacing" textLength="289" x="60.5" y="323.9199">Send the customer point configuration details</text><!--SRC=[ZP0nRiCm34LtdOBmtWi4S84wHhjq299UW9Rfbd0ikXILNB-oKWUUWcmKnVV_9p6PX3HrfCwXDr5uwoSEW16gKbLkHZNsF6CmQD2F5FholTOdqWjxgboFXXr6WhOf0srJELVNy446-nHD9b8u26UTlOI1l-7zB5UeQtVpV7bTzNTmfDz4qS04BanNy2i_5zuNFYaQIt1haYpGDZlu51bXoAiyX7B8hU5f4UZowo45FHdoERgjvrtZ2qS2-o4OM7FsPpFV-ODIFlPDGYdE4l8nbqMMHhdH5YkD_-3Bm5Ev_m00]--></g></svg>