<?xml version="1.0" encoding="us-ascii" standalone="no"?><svg xmlns="http://www.w3.org/2000/svg" xmlns:xlink="http://www.w3.org/1999/xlink" contentStyleType="text/css" height="545px" preserveAspectRatio="none" style="width:833px;height:545px;background:#FFFFFF;" version="1.1" viewBox="0 0 833 545" width="833px" zoomAndPan="magnify"><defs/><g><rect fill="none" height="217.8184" style="stroke:#000000;stroke-width:1.5;" width="806.5" x="10" y="229.7305"/><line style="stroke:#181818;stroke-width:0.5;stroke-dasharray:5.0,5.0;" x1="56" x2="56" y1="81.4883" y2="464.5488"/><line style="stroke:#181818;stroke-width:0.5;stroke-dasharray:5.0,5.0;" x1="461.5" x2="461.5" y1="81.4883" y2="464.5488"/><line style="stroke:#181818;stroke-width:0.5;stroke-dasharray:5.0,5.0;" x1="771.5" x2="771.5" y1="81.4883" y2="464.5488"/><text fill="#000000" font-family="sans-serif" font-size="14" lengthAdjust="spacing" textLength="66" x="20" y="78.5352">Employee</text><ellipse cx="56" cy="13.5" fill="#E2E2F0" rx="8" ry="8" style="stroke:#181818;stroke-width:0.5;"/><path d="M56,21.5 L56,48.5 M43,29.5 L69,29.5 M56,48.5 L43,63.5 M56,48.5 L69,63.5 " fill="none" style="stroke:#181818;stroke-width:0.5;"/><text fill="#000000" font-family="sans-serif" font-size="14" lengthAdjust="spacing" textLength="66" x="20" y="477.084">Employee</text><ellipse cx="56" cy="488.5371" fill="#E2E2F0" rx="8" ry="8" style="stroke:#181818;stroke-width:0.5;"/><path d="M56,496.5371 L56,523.5371 M43,504.5371 L69,504.5371 M56,523.5371 L43,538.5371 M56,523.5371 L69,538.5371 " fill="none" style="stroke:#181818;stroke-width:0.5;"/><rect fill="#E2E2F0" height="30.4883" rx="2.5" ry="2.5" style="stroke:#181818;stroke-width:0.5;" width="123" x="400.5" y="50"/><text fill="#000000" font-family="sans-serif" font-size="14" lengthAdjust="spacing" textLength="109" x="407.5" y="70.5352">Backend Service</text><rect fill="#E2E2F0" height="30.4883" rx="2.5" ry="2.5" style="stroke:#181818;stroke-width:0.5;" width="123" x="400.5" y="463.5488"/><text fill="#000000" font-family="sans-serif" font-size="14" lengthAdjust="spacing" textLength="109" x="407.5" y="484.084">Backend Service</text><text fill="#000000" font-family="sans-serif" font-size="14" lengthAdjust="spacing" textLength="63" x="737.5" y="78.5352">Database</text><path d="M754,29 C754,19 772,19 772,19 C772,19 790,19 790,29 L790,55 C790,65 772,65 772,65 C772,65 754,65 754,55 L754,29 " fill="#E2E2F0" style="stroke:#181818;stroke-width:1.5;"/><path d="M754,29 C754,39 772,39 772,39 C772,39 790,39 790,29 " fill="none" style="stroke:#181818;stroke-width:1.5;"/><text fill="#000000" font-family="sans-serif" font-size="14" lengthAdjust="spacing" textLength="63" x="737.5" y="477.084">Database</text><path d="M754,490.0371 C754,480.0371 772,480.0371 772,480.0371 C772,480.0371 790,480.0371 790,490.0371 L790,516.0371 C790,526.0371 772,526.0371 772,526.0371 C772,526.0371 754,526.0371 754,516.0371 L754,490.0371 " fill="#E2E2F0" style="stroke:#181818;stroke-width:1.5;"/><path d="M754,490.0371 C754,500.0371 772,500.0371 772,500.0371 C772,500.0371 790,500.0371 790,490.0371 " fill="none" style="stroke:#181818;stroke-width:1.5;"/><rect fill="#EEEEEE" height="3" style="stroke:#EEEEEE;stroke-width:1.0;" width="826.5" x="0" y="112.1436"/><line style="stroke:#000000;stroke-width:1.0;" x1="0" x2="826.5" y1="112.1436" y2="112.1436"/><line style="stroke:#000000;stroke-width:1.0;" x1="0" x2="826.5" y1="115.1436" y2="115.1436"/><rect fill="#EEEEEE" height="23.3105" style="stroke:#000000;stroke-width:2.0;" width="256" x="285.25" y="101.4883"/><text fill="#000000" font-family="sans-serif" font-size="13" font-weight="bold" lengthAdjust="spacing" textLength="238" x="291.25" y="118.0566">Update Customer Point Config Flow</text><polygon fill="#181818" points="450,152.1094,460,156.1094,450,160.1094,454,156.1094" style="stroke:#181818;stroke-width:1.0;"/><line style="stroke:#181818;stroke-width:1.0;" x1="56" x2="456" y1="156.1094" y2="156.1094"/><text fill="#000000" font-family="sans-serif" font-size="13" font-weight="bold" lengthAdjust="spacing" textLength="9" x="63" y="151.3672">1</text><text fill="#000000" font-family="sans-serif" font-size="13" lengthAdjust="spacing" textLength="369" x="76" y="151.3672">Request to update customer point config (id and new data)</text><polygon fill="#181818" points="760,181.4199,770,185.4199,760,189.4199,764,185.4199" style="stroke:#181818;stroke-width:1.0;"/><line style="stroke:#181818;stroke-width:1.0;" x1="462" x2="766" y1="185.4199" y2="185.4199"/><text fill="#000000" font-family="sans-serif" font-size="13" font-weight="bold" lengthAdjust="spacing" textLength="9" x="469" y="180.6777">2</text><text fill="#000000" font-family="sans-serif" font-size="13" lengthAdjust="spacing" textLength="232" x="482" y="180.6777">Look for customer point config by id</text><polygon fill="#181818" points="473,210.7305,463,214.7305,473,218.7305,469,214.7305" style="stroke:#181818;stroke-width:1.0;"/><line style="stroke:#181818;stroke-width:1.0;" x1="467" x2="771" y1="214.7305" y2="214.7305"/><text fill="#000000" font-family="sans-serif" font-size="13" font-weight="bold" lengthAdjust="spacing" textLength="9" x="479" y="209.9883">3</text><text fill="#000000" font-family="sans-serif" font-size="13" lengthAdjust="spacing" textLength="239" x="492" y="209.9883">Return customer point config if found</text><path d="M10,229.7305 L72,229.7305 L72,237.041 L62,247.041 L10,247.041 L10,229.7305 " fill="#EEEEEE" style="stroke:#000000;stroke-width:1.5;"/><rect fill="none" height="217.8184" style="stroke:#000000;stroke-width:1.5;" width="806.5" x="10" y="229.7305"/><text fill="#000000" font-family="sans-serif" font-size="13" font-weight="bold" lengthAdjust="spacing" textLength="17" x="25" y="243.2988">alt</text><a href="Config Found" target="_top" title="Config Found" xlink:actuate="onRequest" xlink:href="Config Found" xlink:show="new" xlink:title="Config Found" xlink:type="simple"><text fill="#0000FF" font-family="sans-serif" font-size="11" font-weight="bold" lengthAdjust="spacing" text-decoration="underline" textLength="76" x="87" y="242.3652">Config Found</text></a><line style="stroke:#181818;stroke-width:1.0;" x1="462" x2="504" y1="268.3516" y2="268.3516"/><line style="stroke:#181818;stroke-width:1.0;" x1="504" x2="504" y1="268.3516" y2="281.3516"/><line style="stroke:#181818;stroke-width:1.0;" x1="463" x2="504" y1="281.3516" y2="281.3516"/><polygon fill="#181818" points="473,277.3516,463,281.3516,473,285.3516,469,281.3516" style="stroke:#181818;stroke-width:1.0;"/><text fill="#000000" font-family="sans-serif" font-size="13" font-weight="bold" lengthAdjust="spacing" textLength="9" x="469" y="263.6094">4</text><text fill="#000000" font-family="sans-serif" font-size="13" lengthAdjust="spacing" textLength="279" x="482" y="263.6094">Update customer point config with new data</text><polygon fill="#181818" points="760,306.6621,770,310.6621,760,314.6621,764,310.6621" style="stroke:#181818;stroke-width:1.0;"/><line style="stroke:#181818;stroke-width:1.0;" x1="462" x2="766" y1="310.6621" y2="310.6621"/><text fill="#000000" font-family="sans-serif" font-size="13" font-weight="bold" lengthAdjust="spacing" textLength="9" x="469" y="305.9199">5</text><text fill="#000000" font-family="sans-serif" font-size="13" lengthAdjust="spacing" textLength="151" x="482" y="305.9199">Save the updated config</text><line style="stroke:#181818;stroke-width:1.0;" x1="462" x2="504" y1="339.9727" y2="339.9727"/><line style="stroke:#181818;stroke-width:1.0;" x1="504" x2="504" y1="339.9727" y2="352.9727"/><line style="stroke:#181818;stroke-width:1.0;" x1="463" x2="504" y1="352.9727" y2="352.9727"/><polygon fill="#181818" points="473,348.9727,463,352.9727,473,356.9727,469,352.9727" style="stroke:#181818;stroke-width:1.0;"/><text fill="#000000" font-family="sans-serif" font-size="13" font-weight="bold" lengthAdjust="spacing" textLength="9" x="469" y="335.2305">6</text><text fill="#000000" font-family="sans-serif" font-size="13" lengthAdjust="spacing" textLength="283" x="482" y="335.2305">Prepare response with updated config details</text><polygon fill="#181818" points="67,378.2832,57,382.2832,67,386.2832,63,382.2832" style="stroke:#181818;stroke-width:1.0;"/><line style="stroke:#181818;stroke-width:1.0;" x1="61" x2="461" y1="382.2832" y2="382.2832"/><text fill="#000000" font-family="sans-serif" font-size="13" font-weight="bold" lengthAdjust="spacing" textLength="9" x="73" y="377.541">7</text><text fill="#000000" font-family="sans-serif" font-size="13" lengthAdjust="spacing" textLength="267" x="86" y="377.541">Send response with updated config details</text><line style="stroke:#000000;stroke-width:1.0;stroke-dasharray:2.0,2.0;" x1="10" x2="816.5" y1="391.2832" y2="391.2832"/><a href="Config Not Found" target="_top" title="Config Not Found" xlink:actuate="onRequest" xlink:href="Config Not Found" xlink:show="new" xlink:title="Config Not Found" xlink:type="simple"><text fill="#0000FF" font-family="sans-serif" font-size="11" font-weight="bold" lengthAdjust="spacing" text-decoration="underline" textLength="99" x="15" y="401.918">Config Not Found</text></a><line style="stroke:#181818;stroke-width:1.0;" x1="462" x2="504" y1="426.5488" y2="426.5488"/><line style="stroke:#181818;stroke-width:1.0;" x1="504" x2="504" y1="426.5488" y2="439.5488"/><line style="stroke:#181818;stroke-width:1.0;" x1="463" x2="504" y1="439.5488" y2="439.5488"/><polygon fill="#181818" points="473,435.5488,463,439.5488,473,443.5488,469,439.5488" style="stroke:#181818;stroke-width:1.0;"/><text fill="#000000" font-family="sans-serif" font-size="13" font-weight="bold" lengthAdjust="spacing" textLength="9" x="469" y="421.8066">8</text><text fill="#000000" font-family="sans-serif" font-size="13" lengthAdjust="spacing" textLength="238" x="482" y="421.8066">Show error message for the not found</text><!--SRC=[ZP5DJiCm48NtFiKeArXmWKfXaGPM25L4NI4MJZ9fh2QsiSUDUdicFuveHO6iOdlcc_VcoK16Xxv49uIio3XuwcrdpeWWFIJna0Wh7QbAMQa9CbaTKTTJHVmlq9rKnOMr95bAZv1dKq6-d1CXqXJsbjyHji6JwT71pYW6Rerkr06UEpD0cefLmiDZdBM1D_mCw0d8G9WXLOJO2LBDa3l5mbYGnW56BVSYIcHQdctWnPWZDEpqv_xo3AeMBFvoE0MdRtIeXd51rxp1Zk0zYMx6k-H307_V9ApC_Myk1aNjQk4QCReev0c1MboMKI-DDwVj77A420wzDPhZcIPSDaED95Ndho4n3vuwtlmBWHqNhBjuDVJdFegMqqVdE9aUlPS7d58QFMfkdrVCbU8B]--></g></svg>