<?xml version="1.0" encoding="us-ascii" standalone="no"?><svg xmlns="http://www.w3.org/2000/svg" xmlns:xlink="http://www.w3.org/1999/xlink" contentStyleType="text/css" height="387px" preserveAspectRatio="none" style="width:1509px;height:387px;background:#FFFFFF;" version="1.1" viewBox="0 0 1509 387" width="1509px" zoomAndPan="magnify"><defs/><g><!--class Admin--><g id="elem_Admin"><rect codeLine="10" fill="#FFFFFF" height="80.9766" id="Admin" rx="2.5" ry="2.5" style="stroke:#000000;stroke-width:0.5;" width="112" x="7" y="115.73"/><ellipse cx="37.3" cy="131.73" fill="#ADD1B2" rx="11" ry="11" style="stroke:#181818;stroke-width:1.0;"/><path d="M41.4143,137.73 L33.6945,137.73 L33.6945,125.3369 L41.4143,125.3369 L41.4143,127.4951 L36.1433,127.4951 L36.1433,130.168 L40.9162,130.168 L40.9162,132.3262 L36.1433,132.3262 L36.1433,135.5718 L41.4143,135.5718 Z " fill="#000000"/><text fill="#2F4F4F" font-family="sans-serif" font-size="14" lengthAdjust="spacing" textLength="46" x="54.7" y="137.021">ADMIN</text><line style="stroke:#000000;stroke-width:0.5;" x1="8" x2="118" y1="147.73" y2="147.73"/><ellipse cx="18" cy="161.4741" fill="none" rx="3" ry="3" style="stroke:#038048;stroke-width:1.0;"/><text fill="#000000" font-family="sans-serif" font-size="14" lengthAdjust="spacing" textLength="86" x="27" y="165.2652">A_Username</text><ellipse cx="18" cy="177.9624" fill="none" rx="3" ry="3" style="stroke:#038048;stroke-width:1.0;"/><text fill="#000000" font-family="sans-serif" font-size="14" lengthAdjust="spacing" textLength="82" x="27" y="181.7534">A_Password</text><line style="stroke:#000000;stroke-width:0.5;" x1="8" x2="118" y1="188.7066" y2="188.7066"/></g><!--class EmpLogin--><g id="elem_EmpLogin"><rect codeLine="15" fill="#FFFFFF" height="80.9766" id="EmpLogin" rx="2.5" ry="2.5" style="stroke:#000000;stroke-width:0.5;" width="110" x="225" y="115.73"/><ellipse cx="243.6" cy="131.73" fill="#ADD1B2" rx="11" ry="11" style="stroke:#181818;stroke-width:1.0;"/><path d="M247.7143,137.73 L239.9945,137.73 L239.9945,125.3369 L247.7143,125.3369 L247.7143,127.4951 L242.4433,127.4951 L242.4433,130.168 L247.2162,130.168 L247.2162,132.3262 L242.4433,132.3262 L242.4433,135.5718 L247.7143,135.5718 Z " fill="#000000"/><text fill="#2F4F4F" font-family="sans-serif" font-size="14" lengthAdjust="spacing" textLength="70" x="258.4" y="137.021">EMPLOGIN</text><line style="stroke:#000000;stroke-width:0.5;" x1="226" x2="334" y1="147.73" y2="147.73"/><ellipse cx="236" cy="161.4741" fill="none" rx="3" ry="3" style="stroke:#038048;stroke-width:1.0;"/><text fill="#000000" font-family="sans-serif" font-size="14" lengthAdjust="spacing" textLength="84" x="245" y="165.2652">E_Username</text><ellipse cx="236" cy="177.9624" fill="none" rx="3" ry="3" style="stroke:#038048;stroke-width:1.0;"/><text fill="#000000" font-family="sans-serif" font-size="14" lengthAdjust="spacing" textLength="80" x="245" y="181.7534">E_Password</text><line style="stroke:#000000;stroke-width:0.5;" x1="226" x2="334" y1="188.7066" y2="188.7066"/></g><!--class Employee--><g id="elem_Employee"><rect codeLine="20" fill="#FFFFFF" height="245.8594" id="Employee" rx="2.5" ry="2.5" style="stroke:#000000;stroke-width:0.5;" width="103" x="441" y="33.29"/><ellipse cx="456" cy="49.29" fill="#ADD1B2" rx="11" ry="11" style="stroke:#181818;stroke-width:1.0;"/><path d="M460.1143,55.29 L452.3945,55.29 L452.3945,42.8969 L460.1143,42.8969 L460.1143,45.0551 L454.8433,45.0551 L454.8433,47.728 L459.6162,47.728 L459.6162,49.8862 L454.8433,49.8862 L454.8433,53.1318 L460.1143,53.1318 Z " fill="#000000"/><text fill="#2F4F4F" font-family="sans-serif" font-size="14" lengthAdjust="spacing" textLength="71" x="470" y="54.581">EMPLOYEE</text><line style="stroke:#000000;stroke-width:0.5;" x1="442" x2="543" y1="65.29" y2="65.29"/><ellipse cx="452" cy="79.0341" fill="none" rx="3" ry="3" style="stroke:#038048;stroke-width:1.0;"/><text fill="#000000" font-family="sans-serif" font-size="14" lengthAdjust="spacing" textLength="29" x="461" y="82.8252">E_ID</text><ellipse cx="452" cy="95.5224" fill="none" rx="3" ry="3" style="stroke:#038048;stroke-width:1.0;"/><text fill="#000000" font-family="sans-serif" font-size="14" lengthAdjust="spacing" textLength="61" x="461" y="99.3134">E_Fname</text><ellipse cx="452" cy="112.0107" fill="none" rx="3" ry="3" style="stroke:#038048;stroke-width:1.0;"/><text fill="#000000" font-family="sans-serif" font-size="14" lengthAdjust="spacing" textLength="60" x="461" y="115.8017">E_Lname</text><ellipse cx="452" cy="128.499" fill="none" rx="3" ry="3" style="stroke:#038048;stroke-width:1.0;"/><text fill="#000000" font-family="sans-serif" font-size="14" lengthAdjust="spacing" textLength="40" x="461" y="132.29">E_Sex</text><ellipse cx="452" cy="144.9873" fill="none" rx="3" ry="3" style="stroke:#038048;stroke-width:1.0;"/><text fill="#000000" font-family="sans-serif" font-size="14" lengthAdjust="spacing" textLength="49" x="461" y="148.7783">E_Jdate</text><ellipse cx="452" cy="161.4755" fill="none" rx="3" ry="3" style="stroke:#038048;stroke-width:1.0;"/><text fill="#000000" font-family="sans-serif" font-size="14" lengthAdjust="spacing" textLength="42" x="461" y="165.2666">E_Age</text><ellipse cx="452" cy="177.9638" fill="none" rx="3" ry="3" style="stroke:#038048;stroke-width:1.0;"/><text fill="#000000" font-family="sans-serif" font-size="14" lengthAdjust="spacing" textLength="43" x="461" y="181.7548">E_Add</text><ellipse cx="452" cy="194.4521" fill="none" rx="3" ry="3" style="stroke:#038048;stroke-width:1.0;"/><text fill="#000000" font-family="sans-serif" font-size="14" lengthAdjust="spacing" textLength="50" x="461" y="198.2431">E_Phno</text><ellipse cx="452" cy="210.9404" fill="none" rx="3" ry="3" style="stroke:#038048;stroke-width:1.0;"/><text fill="#000000" font-family="sans-serif" font-size="14" lengthAdjust="spacing" textLength="43" x="461" y="214.7314">E_Mail</text><ellipse cx="452" cy="227.4287" fill="none" rx="3" ry="3" style="stroke:#038048;stroke-width:1.0;"/><text fill="#000000" font-family="sans-serif" font-size="14" lengthAdjust="spacing" textLength="35" x="461" y="231.2197">E_Sal</text><ellipse cx="452" cy="243.917" fill="none" rx="3" ry="3" style="stroke:#038048;stroke-width:1.0;"/><text fill="#000000" font-family="sans-serif" font-size="14" lengthAdjust="spacing" textLength="48" x="461" y="247.708">E_Type</text><ellipse cx="452" cy="260.4052" fill="none" rx="3" ry="3" style="stroke:#038048;stroke-width:1.0;"/><text fill="#000000" font-family="sans-serif" font-size="14" lengthAdjust="spacing" textLength="38" x="461" y="264.1962">Bdate</text><line style="stroke:#000000;stroke-width:0.5;" x1="442" x2="543" y1="271.1494" y2="271.1494"/></g><!--class Suppliers--><g id="elem_Suppliers"><rect codeLine="35" fill="#FFFFFF" height="130.4414" id="Suppliers" rx="2.5" ry="2.5" style="stroke:#000000;stroke-width:0.5;" width="102" x="788" y="7"/><ellipse cx="803" cy="23" fill="#ADD1B2" rx="11" ry="11" style="stroke:#181818;stroke-width:1.0;"/><path d="M807.1143,29 L799.3945,29 L799.3945,16.6069 L807.1143,16.6069 L807.1143,18.7651 L801.8433,18.7651 L801.8433,21.438 L806.6162,21.438 L806.6162,23.5962 L801.8433,23.5962 L801.8433,26.8418 L807.1143,26.8418 Z " fill="#000000"/><text fill="#2F4F4F" font-family="sans-serif" font-size="14" lengthAdjust="spacing" textLength="70" x="817" y="28.291">SUPPLIERS</text><line style="stroke:#000000;stroke-width:0.5;" x1="789" x2="889" y1="39" y2="39"/><ellipse cx="799" cy="52.7441" fill="none" rx="3" ry="3" style="stroke:#038048;stroke-width:1.0;"/><text fill="#000000" font-family="sans-serif" font-size="14" lengthAdjust="spacing" textLength="47" x="808" y="56.5352">Sup_ID</text><ellipse cx="799" cy="69.2324" fill="none" rx="3" ry="3" style="stroke:#038048;stroke-width:1.0;"/><text fill="#000000" font-family="sans-serif" font-size="14" lengthAdjust="spacing" textLength="72" x="808" y="73.0234">Sup_Name</text><ellipse cx="799" cy="85.7207" fill="none" rx="3" ry="3" style="stroke:#038048;stroke-width:1.0;"/><text fill="#000000" font-family="sans-serif" font-size="14" lengthAdjust="spacing" textLength="61" x="808" y="89.5117">Sup_Add</text><ellipse cx="799" cy="102.209" fill="none" rx="3" ry="3" style="stroke:#038048;stroke-width:1.0;"/><text fill="#000000" font-family="sans-serif" font-size="14" lengthAdjust="spacing" textLength="68" x="808" y="106">Sup_Phno</text><ellipse cx="799" cy="118.6973" fill="none" rx="3" ry="3" style="stroke:#038048;stroke-width:1.0;"/><text fill="#000000" font-family="sans-serif" font-size="14" lengthAdjust="spacing" textLength="61" x="808" y="122.4883">Sup_Mail</text><line style="stroke:#000000;stroke-width:0.5;" x1="789" x2="889" y1="129.4414" y2="129.4414"/></g><!--class Customer--><g id="elem_Customer"><rect codeLine="43" fill="#FFFFFF" height="163.418" id="Customer" rx="2.5" ry="2.5" style="stroke:#000000;stroke-width:0.5;" width="109" x="926" y="101.51"/><ellipse cx="941" cy="117.51" fill="#ADD1B2" rx="11" ry="11" style="stroke:#181818;stroke-width:1.0;"/><path d="M945.1143,123.51 L937.3945,123.51 L937.3945,111.1169 L945.1143,111.1169 L945.1143,113.2751 L939.8433,113.2751 L939.8433,115.948 L944.6162,115.948 L944.6162,118.1062 L939.8433,118.1062 L939.8433,121.3518 L945.1143,121.3518 Z " fill="#000000"/><text fill="#2F4F4F" font-family="sans-serif" font-size="14" lengthAdjust="spacing" textLength="77" x="955" y="122.801">CUSTOMER</text><line style="stroke:#000000;stroke-width:0.5;" x1="927" x2="1034" y1="133.51" y2="133.51"/><ellipse cx="937" cy="147.2541" fill="none" rx="3" ry="3" style="stroke:#038048;stroke-width:1.0;"/><text fill="#000000" font-family="sans-serif" font-size="14" lengthAdjust="spacing" textLength="31" x="946" y="151.0452">C_ID</text><ellipse cx="937" cy="163.7424" fill="none" rx="3" ry="3" style="stroke:#038048;stroke-width:1.0;"/><text fill="#000000" font-family="sans-serif" font-size="14" lengthAdjust="spacing" textLength="63" x="946" y="167.5334">C_Fname</text><ellipse cx="937" cy="180.2307" fill="none" rx="3" ry="3" style="stroke:#038048;stroke-width:1.0;"/><text fill="#000000" font-family="sans-serif" font-size="14" lengthAdjust="spacing" textLength="62" x="946" y="184.0217">C_Lname</text><ellipse cx="937" cy="196.719" fill="none" rx="3" ry="3" style="stroke:#038048;stroke-width:1.0;"/><text fill="#000000" font-family="sans-serif" font-size="14" lengthAdjust="spacing" textLength="44" x="946" y="200.51">C_Age</text><ellipse cx="937" cy="213.2073" fill="none" rx="3" ry="3" style="stroke:#038048;stroke-width:1.0;"/><text fill="#000000" font-family="sans-serif" font-size="14" lengthAdjust="spacing" textLength="42" x="946" y="216.9983">C_Sex</text><ellipse cx="937" cy="229.6955" fill="none" rx="3" ry="3" style="stroke:#038048;stroke-width:1.0;"/><text fill="#000000" font-family="sans-serif" font-size="14" lengthAdjust="spacing" textLength="52" x="946" y="233.4866">C_Phno</text><ellipse cx="937" cy="246.1838" fill="none" rx="3" ry="3" style="stroke:#038048;stroke-width:1.0;"/><text fill="#000000" font-family="sans-serif" font-size="14" lengthAdjust="spacing" textLength="45" x="946" y="249.9748">C_Mail</text><line style="stroke:#000000;stroke-width:0.5;" x1="927" x2="1034" y1="256.928" y2="256.928"/></g><!--class Meds--><g id="elem_Meds"><rect codeLine="53" fill="#FFFFFF" height="146.9297" id="Meds" rx="2.5" ry="2.5" style="stroke:#000000;stroke-width:0.5;" width="123" x="1157" y="141.76"/><ellipse cx="1195.85" cy="157.76" fill="#ADD1B2" rx="11" ry="11" style="stroke:#181818;stroke-width:1.0;"/><path d="M1199.9643,163.76 L1192.2445,163.76 L1192.2445,151.3669 L1199.9643,151.3669 L1199.9643,153.5251 L1194.6933,153.5251 L1194.6933,156.198 L1199.4662,156.198 L1199.4662,158.3562 L1194.6933,158.3562 L1194.6933,161.6018 L1199.9643,161.6018 Z " fill="#000000"/><text fill="#2F4F4F" font-family="sans-serif" font-size="14" lengthAdjust="spacing" textLength="38" x="1215.15" y="163.051">MEDS</text><line style="stroke:#000000;stroke-width:0.5;" x1="1158" x2="1279" y1="173.76" y2="173.76"/><ellipse cx="1168" cy="187.5041" fill="none" rx="3" ry="3" style="stroke:#038048;stroke-width:1.0;"/><text fill="#000000" font-family="sans-serif" font-size="14" lengthAdjust="spacing" textLength="50" x="1177" y="191.2952">Med_ID</text><ellipse cx="1168" cy="203.9924" fill="none" rx="3" ry="3" style="stroke:#038048;stroke-width:1.0;"/><text fill="#000000" font-family="sans-serif" font-size="14" lengthAdjust="spacing" textLength="75" x="1177" y="207.7834">Med_Name</text><ellipse cx="1168" cy="220.4807" fill="none" rx="3" ry="3" style="stroke:#038048;stroke-width:1.0;"/><text fill="#000000" font-family="sans-serif" font-size="14" lengthAdjust="spacing" textLength="59" x="1177" y="224.2717">Med_Qty</text><ellipse cx="1168" cy="236.969" fill="none" rx="3" ry="3" style="stroke:#038048;stroke-width:1.0;"/><text fill="#000000" font-family="sans-serif" font-size="14" lengthAdjust="spacing" textLength="69" x="1177" y="240.76">Med_Price</text><ellipse cx="1168" cy="253.4573" fill="none" rx="3" ry="3" style="stroke:#038048;stroke-width:1.0;"/><text fill="#000000" font-family="sans-serif" font-size="14" lengthAdjust="spacing" textLength="62" x="1177" y="257.2483">Category</text><ellipse cx="1168" cy="269.9455" fill="none" rx="3" ry="3" style="stroke:#038048;stroke-width:1.0;"/><text fill="#000000" font-family="sans-serif" font-size="14" lengthAdjust="spacing" textLength="97" x="1177" y="273.7366">Location_Rack</text><line style="stroke:#000000;stroke-width:0.5;" x1="1158" x2="1279" y1="280.6897" y2="280.6897"/></g><!--class Purchase--><g id="elem_Purchase"><rect codeLine="62" fill="#FFFFFF" height="146.9297" id="Purchase" rx="2.5" ry="2.5" style="stroke:#000000;stroke-width:0.5;" width="105" x="1397" y="37.76"/><ellipse cx="1412" cy="53.76" fill="#ADD1B2" rx="11" ry="11" style="stroke:#181818;stroke-width:1.0;"/><path d="M1416.1143,59.76 L1408.3945,59.76 L1408.3945,47.3669 L1416.1143,47.3669 L1416.1143,49.5251 L1410.8433,49.5251 L1410.8433,52.198 L1415.6162,52.198 L1415.6162,54.3562 L1410.8433,54.3562 L1410.8433,57.6018 L1416.1143,57.6018 Z " fill="#000000"/><text fill="#2F4F4F" font-family="sans-serif" font-size="14" lengthAdjust="spacing" textLength="73" x="1426" y="59.051">PURCHASE</text><line style="stroke:#000000;stroke-width:0.5;" x1="1398" x2="1501" y1="69.76" y2="69.76"/><ellipse cx="1408" cy="83.5041" fill="none" rx="3" ry="3" style="stroke:#038048;stroke-width:1.0;"/><text fill="#000000" font-family="sans-serif" font-size="14" lengthAdjust="spacing" textLength="29" x="1417" y="87.2952">P_ID</text><ellipse cx="1408" cy="99.9924" fill="none" rx="3" ry="3" style="stroke:#038048;stroke-width:1.0;"/><text fill="#000000" font-family="sans-serif" font-size="14" lengthAdjust="spacing" textLength="38" x="1417" y="103.7834">P_Qty</text><ellipse cx="1408" cy="116.4807" fill="none" rx="3" ry="3" style="stroke:#038048;stroke-width:1.0;"/><text fill="#000000" font-family="sans-serif" font-size="14" lengthAdjust="spacing" textLength="46" x="1417" y="120.2717">P_Cost</text><ellipse cx="1408" cy="132.969" fill="none" rx="3" ry="3" style="stroke:#038048;stroke-width:1.0;"/><text fill="#000000" font-family="sans-serif" font-size="14" lengthAdjust="spacing" textLength="64" x="1417" y="136.76">Exp_Date</text><ellipse cx="1408" cy="149.4573" fill="none" rx="3" ry="3" style="stroke:#038048;stroke-width:1.0;"/><text fill="#000000" font-family="sans-serif" font-size="14" lengthAdjust="spacing" textLength="61" x="1417" y="153.2483">Pur_Date</text><ellipse cx="1408" cy="165.9455" fill="none" rx="3" ry="3" style="stroke:#038048;stroke-width:1.0;"/><text fill="#000000" font-family="sans-serif" font-size="14" lengthAdjust="spacing" textLength="64" x="1417" y="169.7366">Mfg_Date</text><line style="stroke:#000000;stroke-width:0.5;" x1="1398" x2="1501" y1="176.6897" y2="176.6897"/></g><!--class Sales--><g id="elem_Sales"><rect codeLine="71" fill="#FFFFFF" height="113.9531" id="Sales" rx="2.5" ry="2.5" style="stroke:#000000;stroke-width:0.5;" width="96" x="662" y="182.25"/><ellipse cx="687.35" cy="198.25" fill="#ADD1B2" rx="11" ry="11" style="stroke:#181818;stroke-width:1.0;"/><path d="M691.4643,204.25 L683.7445,204.25 L683.7445,191.8569 L691.4643,191.8569 L691.4643,194.0151 L686.1933,194.0151 L686.1933,196.688 L690.9662,196.688 L690.9662,198.8462 L686.1933,198.8462 L686.1933,202.0918 L691.4643,202.0918 Z " fill="#000000"/><text fill="#2F4F4F" font-family="sans-serif" font-size="14" lengthAdjust="spacing" textLength="41" x="703.65" y="203.541">SALES</text><line style="stroke:#000000;stroke-width:0.5;" x1="663" x2="757" y1="214.25" y2="214.25"/><ellipse cx="673" cy="227.9941" fill="none" rx="3" ry="3" style="stroke:#038048;stroke-width:1.0;"/><text fill="#000000" font-family="sans-serif" font-size="14" lengthAdjust="spacing" textLength="49" x="682" y="231.7852">Sale_ID</text><ellipse cx="673" cy="244.4824" fill="none" rx="3" ry="3" style="stroke:#038048;stroke-width:1.0;"/><text fill="#000000" font-family="sans-serif" font-size="14" lengthAdjust="spacing" textLength="49" x="682" y="248.2734">S_Time</text><ellipse cx="673" cy="260.9707" fill="none" rx="3" ry="3" style="stroke:#038048;stroke-width:1.0;"/><text fill="#000000" font-family="sans-serif" font-size="14" lengthAdjust="spacing" textLength="46" x="682" y="264.7617">S_Date</text><ellipse cx="673" cy="277.459" fill="none" rx="3" ry="3" style="stroke:#038048;stroke-width:1.0;"/><text fill="#000000" font-family="sans-serif" font-size="14" lengthAdjust="spacing" textLength="70" x="682" y="281.25">Total_Amt</text><line style="stroke:#000000;stroke-width:0.5;" x1="663" x2="757" y1="288.2031" y2="288.2031"/></g><!--class SalesItems--><g id="elem_SalesItems"><rect codeLine="78" fill="#FFFFFF" height="80.9766" id="SalesItems" rx="2.5" ry="2.5" style="stroke:#000000;stroke-width:0.5;" width="121" x="920" y="299.73"/><ellipse cx="935" cy="315.73" fill="#ADD1B2" rx="11" ry="11" style="stroke:#181818;stroke-width:1.0;"/><path d="M939.1143,321.73 L931.3945,321.73 L931.3945,309.3369 L939.1143,309.3369 L939.1143,311.4951 L933.8433,311.4951 L933.8433,314.168 L938.6162,314.168 L938.6162,316.3262 L933.8433,316.3262 L933.8433,319.5718 L939.1143,319.5718 Z " fill="#000000"/><text fill="#2F4F4F" font-family="sans-serif" font-size="14" lengthAdjust="spacing" textLength="89" x="949" y="321.021">SALES_ITEMS</text><line style="stroke:#000000;stroke-width:0.5;" x1="921" x2="1040" y1="331.73" y2="331.73"/><ellipse cx="931" cy="345.4741" fill="none" rx="3" ry="3" style="stroke:#038048;stroke-width:1.0;"/><text fill="#000000" font-family="sans-serif" font-size="14" lengthAdjust="spacing" textLength="58" x="940" y="349.2652">Sale_Qty</text><ellipse cx="931" cy="361.9624" fill="none" rx="3" ry="3" style="stroke:#038048;stroke-width:1.0;"/><text fill="#000000" font-family="sans-serif" font-size="14" lengthAdjust="spacing" textLength="63" x="940" y="365.7534">Tot_Price</text><line style="stroke:#000000;stroke-width:0.5;" x1="921" x2="1040" y1="372.7066" y2="372.7066"/></g><!--link Admin to EmpLogin--><g id="link_Admin_EmpLogin"><path codeLine="83" d="M119.37,156.22 C151.72,156.22 174.38,156.22 206.56,156.22 " fill="none" id="Admin-to-EmpLogin" style="stroke:#000080;stroke-width:1.0;"/><polygon fill="none" points="224.56,156.22,206.56,150.22,206.56,162.22,224.56,156.22" style="stroke:#000080;stroke-width:1.0;"/><text fill="#000000" font-family="sans-serif" font-size="13" lengthAdjust="spacing" textLength="44" x="150" y="152.7884">UNDER</text></g><!--link EmpLogin to Employee--><g id="link_EmpLogin_Employee"><path codeLine="84" d="M335.48,156.22 C367.89,156.22 390.73,156.22 422.5,156.22 " fill="none" id="EmpLogin-to-Employee" style="stroke:#000080;stroke-width:1.0;"/><polygon fill="none" points="440.5,156.22,422.5,150.22,422.5,162.22,440.5,156.22" style="stroke:#000080;stroke-width:1.0;"/><text fill="#000000" font-family="sans-serif" font-size="13" lengthAdjust="spacing" textLength="44" x="366" y="152.7884">UNDER</text></g><!--link Employee to Sales--><g id="link_Employee_Sales"><path codeLine="85" d="M544.3,175.79 C579.89,189.49 610.3138,201.208 645.0638,214.598 " fill="none" id="Employee-to-Sales" style="stroke:#000080;stroke-width:1.0;"/><polygon fill="none" points="661.86,221.07,647.2211,208.9993,642.9064,220.1968,661.86,221.07" style="stroke:#000080;stroke-width:1.0;"/><text fill="#000000" font-family="sans-serif" font-size="13" lengthAdjust="spacing" textLength="56" x="575" y="184.4184">DONE BY</text></g><!--link Employee to Suppliers--><g id="link_Employee_Suppliers"><path codeLine="86" d="M544.33,143.83 C609.65,127.9 722.37,100.42 787.52,84.53 " fill="none" id="Employee-Suppliers" style="stroke:#000080;stroke-width:1.0;"/><text fill="#000000" font-family="sans-serif" font-size="13" lengthAdjust="spacing" textLength="44" x="581" y="119.7284">UNDER</text></g><!--link Sales to SalesItems--><g id="link_Sales_SalesItems"><path codeLine="87" d="M758.16,253.98 C794.51,265.67 845.84,282.87 890,300.22 C899.66,304.02 893.2938,301.1005 903.1338,305.3805 " fill="none" id="Sales-to-SalesItems" style="stroke:#000080;stroke-width:1.0;"/><polygon fill="none" points="919.64,312.56,905.527,299.8784,900.7406,310.8825,919.64,312.56" style="stroke:#000080;stroke-width:1.0;"/></g><!--link SalesItems to Sales--><g id="link_SalesItems_Sales"><path codeLine="89" d="M919.51,346.68 C880.16,348.31 828.65,345.33 788,325.22 C774.17,318.38 774.0309,320.9735 763.3509,309.6335 " fill="none" id="SalesItems-to-Sales" style="stroke:#000080;stroke-width:1.0;"/><polygon fill="none" points="751.01,296.53,758.983,313.7472,767.7187,305.5199,751.01,296.53" style="stroke:#000080;stroke-width:1.0;"/><text fill="#000000" font-family="sans-serif" font-size="13" lengthAdjust="spacing" textLength="58" x="810" y="321.7884">Tot_Price</text></g><!--link SalesItems to Meds--><g id="link_SalesItems_Meds"><path codeLine="88" d="M1041.36,308.52 C1076.73,289.78 1105.4829,274.554 1140.9829,255.754 " fill="none" id="SalesItems-to-Meds" style="stroke:#000080;stroke-width:1.0;"/><polygon fill="none" points="1156.89,247.33,1138.1749,250.4517,1143.7909,261.0564,1156.89,247.33" style="stroke:#000080;stroke-width:1.0;"/><text fill="#000000" font-family="sans-serif" font-size="13" lengthAdjust="spacing" textLength="54" x="1072" y="263.0984">Sale_Qty</text></g><!--link Meds to Purchase--><g id="link_Meds_Purchase"><path codeLine="90" d="M1280.27,187.62 C1316.57,171.14 1345.8102,157.8513 1380.3902,142.1513 " fill="none" id="Meds-to-Purchase" style="stroke:#000080;stroke-width:1.0;"/><polygon fill="none" points="1396.78,134.71,1377.9097,136.688,1382.8706,147.6146,1396.78,134.71" style="stroke:#000080;stroke-width:1.0;"/><text fill="#000000" font-family="sans-serif" font-size="13" lengthAdjust="spacing" textLength="55" x="1311" y="147.4184">Med_Qty</text></g><!--link Suppliers to Purchase--><g id="link_Suppliers_Purchase"><path codeLine="91" d="M890.39,75.14 C931.05,77.51 989.71,80.99 1041,84.22 C1168.9,92.28 1301.3814,101.1992 1378.7614,106.4592 " fill="none" id="Suppliers-to-Purchase" style="stroke:#000080;stroke-width:1.0;"/><polygon fill="none" points="1396.72,107.68,1379.1684,100.4731,1378.3545,112.4454,1396.72,107.68" style="stroke:#000080;stroke-width:1.0;"/><text fill="#000000" font-family="sans-serif" font-size="13" lengthAdjust="spacing" textLength="44" x="1077" y="82.6884">Sup_ID</text></g><!--link Sales to Customer--><g id="link_Sales_Customer"><path codeLine="92" d="M758.38,229.34 C805.21,219.57 859.1094,208.3361 908.0494,198.1261 " fill="none" id="Sales-to-Customer" style="stroke:#000080;stroke-width:1.0;"/><polygon fill="none" points="925.67,194.45,906.824,192.2525,909.2747,203.9996,925.67,194.45" style="stroke:#000080;stroke-width:1.0;"/><text fill="#000000" font-family="sans-serif" font-size="13" lengthAdjust="spacing" textLength="56" x="811" y="199.4984">SOLD TO</text></g><!--SRC=[TLFBRgGm4Bpp5LQkKGuhxMaEaHZZ9AnuBJ1QvOGiS1Xh02FZsOHz_FiQlt0IBQVgRdTLjTiCv4K0mG2d_Lc0ZdBI2igcOBdGQSOSZw0TyBA0tm6Gtn6tbvwpwzH1DZ0EVfof8AeISivUTJB3FrTzcl6ES9qy3h9LPH_O92hwYu0lNrsipqIONwe12_B8yHhy3G8o2IfMS1D6QPpT0Bo0i1lffCpSWh0vBOHFU2GcBAJHLwdfjwAqIF97qut6EM6z8q3l2T3_2PuHiWG3Mmbn175am8D7atYu8cy6VUkmiDcmTwZhhFXvOWQcc0ws7rjKhxDkEYeYps9rAeeaHcMbF5RNUHueuOinAMDhSuEPzRO5Ldt3JdyBb0DF0fwgEazHgHJWTH5i9Dm8G4iFlLk0tYr0Dozqzm5tFVX9BKMHdYKbdHr3GgkpGJV65dmNgyC5fwqHazVKCwvB2Mlnzh2RSdk7dbPnAk5JMEdz5bVUdl5YzrjOnS9950raYz0hUPkRoEvKTkv1-jBhm5zIc22p83mGjno9tNQQcjhTx5mr4tXemb5y8clY6gKUPIp8-8xNUfOKvbeaXVw3xkx-tE-_mm6SiWYLWKlOidxiNbadL5cFSG1HdY5mVFQhtXkqlVhqtgZC1fvlLLBxFkpkFzQjvZwHwb0rjxk3UnExZOydp4_XkNAFMXRp909r7lm3]--></g></svg>