<?xml version="1.0" encoding="us-ascii" standalone="no"?><svg xmlns="http://www.w3.org/2000/svg" xmlns:xlink="http://www.w3.org/1999/xlink" contentStyleType="text/css" height="922px" preserveAspectRatio="none" style="width:1523px;height:922px;background:#FFFFFF;" version="1.1" viewBox="0 0 1523 922" width="1523px" zoomAndPan="magnify"><defs/><g><!--class Employee--><g id="elem_Employee"><rect codeLine="2" fill="#F1F1F1" height="328.3008" id="Employee" rx="2.5" ry="2.5" style="stroke:#181818;stroke-width:0.5;" width="362" x="329.5" y="586.77"/><ellipse cx="470.75" cy="602.77" fill="#ADD1B2" rx="11" ry="11" style="stroke:#181818;stroke-width:1.0;"/><path d="M474.8643,608.77 L467.1445,608.77 L467.1445,596.3769 L474.8643,596.3769 L474.8643,598.5351 L469.5933,598.5351 L469.5933,601.208 L474.3662,601.208 L474.3662,603.3662 L469.5933,603.3662 L469.5933,606.6118 L474.8643,606.6118 Z " fill="#000000"/><text fill="#000000" font-family="sans-serif" font-size="14" lengthAdjust="spacing" textLength="71" x="491.25" y="608.061">EMPLOYEE</text><line style="stroke:#181818;stroke-width:0.5;" x1="330.5" x2="690.5" y1="618.77" y2="618.77"/><ellipse cx="340.5" cy="632.5141" fill="none" rx="3" ry="3" style="stroke:#038048;stroke-width:1.0;"/><text fill="#000000" font-family="sans-serif" font-size="14" lengthAdjust="spacing" textLength="102" x="349.5" y="636.3052">E_Bdate : DATE</text><ellipse cx="340.5" cy="649.0024" fill="none" rx="3" ry="3" style="stroke:#038048;stroke-width:1.0;"/><text fill="#000000" font-family="sans-serif" font-size="14" lengthAdjust="spacing" textLength="77" x="349.5" y="652.7934">E_Age : INT</text><ellipse cx="340.5" cy="665.4907" fill="none" rx="3" ry="3" style="stroke:#038048;stroke-width:1.0;"/><text fill="#000000" font-family="sans-serif" font-size="14" lengthAdjust="spacing" textLength="180" x="349.5" y="669.2817">E_Jdate : DATE [NOT NULL]</text><ellipse cx="340.5" cy="681.979" fill="none" rx="3" ry="3" style="stroke:#038048;stroke-width:1.0;"/><text fill="#000000" font-family="sans-serif" font-size="14" lengthAdjust="spacing" textLength="137" x="349.5" y="685.77">created_date : DATE</text><ellipse cx="340.5" cy="698.4673" fill="none" rx="3" ry="3" style="stroke:#038048;stroke-width:1.0;"/><text fill="#000000" font-family="sans-serif" font-size="14" lengthAdjust="spacing" textLength="143" x="349.5" y="702.2583">updated_date : DATE</text><line style="stroke:#181818;stroke-width:0.5;" x1="330.5" x2="690.5" y1="709.2114" y2="709.2114"/><ellipse cx="340.5" cy="722.9555" fill="#84BE84" rx="3" ry="3" style="stroke:#038048;stroke-width:1.0;"/><text fill="#000000" font-family="sans-serif" font-size="14" lengthAdjust="spacing" textLength="167" x="349.5" y="726.7466">E_ID : VARCHAR(36) [PK]</text><ellipse cx="340.5" cy="739.4438" fill="#84BE84" rx="3" ry="3" style="stroke:#038048;stroke-width:1.0;"/><text fill="#000000" font-family="sans-serif" font-size="14" lengthAdjust="spacing" textLength="336" x="349.5" y="743.2348">E_Username: VARCHAR(50) [NOT NULL] [UNIQUE]</text><ellipse cx="340.5" cy="755.9321" fill="#84BE84" rx="3" ry="3" style="stroke:#038048;stroke-width:1.0;"/><text fill="#000000" font-family="sans-serif" font-size="14" lengthAdjust="spacing" textLength="259" x="349.5" y="759.7231">E_Fname : VARCHAR(255) [NOT NULL]</text><ellipse cx="340.5" cy="772.4204" fill="#84BE84" rx="3" ry="3" style="stroke:#038048;stroke-width:1.0;"/><text fill="#000000" font-family="sans-serif" font-size="14" lengthAdjust="spacing" textLength="258" x="349.5" y="776.2114">E_Lname : VARCHAR(255) [NOT NULL]</text><ellipse cx="340.5" cy="788.9087" fill="#84BE84" rx="3" ry="3" style="stroke:#038048;stroke-width:1.0;"/><text fill="#000000" font-family="sans-serif" font-size="14" lengthAdjust="spacing" textLength="192" x="349.5" y="792.6997">E_Sex : CHAR(1) [NOT NULL]</text><ellipse cx="340.5" cy="805.397" fill="#84BE84" rx="3" ry="3" style="stroke:#038048;stroke-width:1.0;"/><text fill="#000000" font-family="sans-serif" font-size="14" lengthAdjust="spacing" textLength="237" x="349.5" y="809.188">E_Type : VARCHAR(50) [NOT NULL]</text><ellipse cx="340.5" cy="821.8852" fill="#84BE84" rx="3" ry="3" style="stroke:#038048;stroke-width:1.0;"/><text fill="#000000" font-family="sans-serif" font-size="14" lengthAdjust="spacing" textLength="159" x="349.5" y="825.6763">E_Add : VARCHAR(255)</text><ellipse cx="340.5" cy="838.3735" fill="#84BE84" rx="3" ry="3" style="stroke:#038048;stroke-width:1.0;"/><text fill="#000000" font-family="sans-serif" font-size="14" lengthAdjust="spacing" textLength="159" x="349.5" y="842.1645">E_Mail : VARCHAR(255)</text><ellipse cx="340.5" cy="854.8618" fill="#84BE84" rx="3" ry="3" style="stroke:#038048;stroke-width:1.0;"/><text fill="#000000" font-family="sans-serif" font-size="14" lengthAdjust="spacing" textLength="157" x="349.5" y="858.6528">E_Phno : VARCHAR(20)</text><ellipse cx="340.5" cy="871.3501" fill="#84BE84" rx="3" ry="3" style="stroke:#038048;stroke-width:1.0;"/><text fill="#000000" font-family="sans-serif" font-size="14" lengthAdjust="spacing" textLength="153" x="349.5" y="875.1411">E_Sal : DECIMAL(10, 2)</text><ellipse cx="340.5" cy="887.8384" fill="#84BE84" rx="3" ry="3" style="stroke:#038048;stroke-width:1.0;"/><text fill="#000000" font-family="sans-serif" font-size="14" lengthAdjust="spacing" textLength="181" x="349.5" y="891.6294">created_by : VARCHAR(36)</text><ellipse cx="340.5" cy="904.3266" fill="#84BE84" rx="3" ry="3" style="stroke:#038048;stroke-width:1.0;"/><text fill="#000000" font-family="sans-serif" font-size="14" lengthAdjust="spacing" textLength="187" x="349.5" y="908.1177">updated_by : VARCHAR(36)</text></g><!--class Suppliers--><g id="elem_Suppliers"><rect codeLine="22" fill="#F1F1F1" height="196.3945" id="Suppliers" rx="2.5" ry="2.5" style="stroke:#181818;stroke-width:0.5;" width="296" x="542.5" y="305.13"/><ellipse cx="655.25" cy="321.13" fill="#ADD1B2" rx="11" ry="11" style="stroke:#181818;stroke-width:1.0;"/><path d="M659.3643,327.13 L651.6445,327.13 L651.6445,314.7369 L659.3643,314.7369 L659.3643,316.8951 L654.0933,316.8951 L654.0933,319.568 L658.8662,319.568 L658.8662,321.7262 L654.0933,321.7262 L654.0933,324.9718 L659.3643,324.9718 Z " fill="#000000"/><text fill="#000000" font-family="sans-serif" font-size="14" lengthAdjust="spacing" textLength="62" x="675.75" y="326.421">SUPPLIER</text><line style="stroke:#181818;stroke-width:0.5;" x1="543.5" x2="837.5" y1="337.13" y2="337.13"/><ellipse cx="553.5" cy="350.8741" fill="none" rx="3" ry="3" style="stroke:#038048;stroke-width:1.0;"/><text fill="#000000" font-family="sans-serif" font-size="14" lengthAdjust="spacing" textLength="137" x="562.5" y="354.6652">created_date : DATE</text><ellipse cx="553.5" cy="367.3624" fill="none" rx="3" ry="3" style="stroke:#038048;stroke-width:1.0;"/><text fill="#000000" font-family="sans-serif" font-size="14" lengthAdjust="spacing" textLength="143" x="562.5" y="371.1534">updated_date : DATE</text><line style="stroke:#181818;stroke-width:0.5;" x1="543.5" x2="837.5" y1="378.1066" y2="378.1066"/><ellipse cx="553.5" cy="391.8507" fill="#84BE84" rx="3" ry="3" style="stroke:#038048;stroke-width:1.0;"/><text fill="#000000" font-family="sans-serif" font-size="14" lengthAdjust="spacing" textLength="185" x="562.5" y="395.6417">Sup_ID : VARCHAR(36) [PK]</text><ellipse cx="553.5" cy="408.339" fill="#84BE84" rx="3" ry="3" style="stroke:#038048;stroke-width:1.0;"/><text fill="#000000" font-family="sans-serif" font-size="14" lengthAdjust="spacing" textLength="270" x="562.5" y="412.13">Sup_Name : VARCHAR(255) [NOT NULL]</text><ellipse cx="553.5" cy="424.8273" fill="#84BE84" rx="3" ry="3" style="stroke:#038048;stroke-width:1.0;"/><text fill="#000000" font-family="sans-serif" font-size="14" lengthAdjust="spacing" textLength="259" x="562.5" y="428.6183">Sup_Add : VARCHAR(255) [NOT NULL]</text><ellipse cx="553.5" cy="441.3155" fill="#84BE84" rx="3" ry="3" style="stroke:#038048;stroke-width:1.0;"/><text fill="#000000" font-family="sans-serif" font-size="14" lengthAdjust="spacing" textLength="257" x="562.5" y="445.1066">Sup_Phno : VARCHAR(20) [NOT NULL]</text><ellipse cx="553.5" cy="457.8038" fill="#84BE84" rx="3" ry="3" style="stroke:#038048;stroke-width:1.0;"/><text fill="#000000" font-family="sans-serif" font-size="14" lengthAdjust="spacing" textLength="177" x="562.5" y="461.5948">Sup_Mail : VARCHAR(255)</text><ellipse cx="553.5" cy="474.2921" fill="#84BE84" rx="3" ry="3" style="stroke:#038048;stroke-width:1.0;"/><text fill="#000000" font-family="sans-serif" font-size="14" lengthAdjust="spacing" textLength="181" x="562.5" y="478.0831">created_by : VARCHAR(36)</text><ellipse cx="553.5" cy="490.7804" fill="#84BE84" rx="3" ry="3" style="stroke:#038048;stroke-width:1.0;"/><text fill="#000000" font-family="sans-serif" font-size="14" lengthAdjust="spacing" textLength="187" x="562.5" y="494.5714">updated_by : VARCHAR(36)</text></g><!--class Customer--><g id="elem_Customer"><rect codeLine="34" fill="#F1F1F1" height="229.3711" id="Customer" rx="2.5" ry="2.5" style="stroke:#181818;stroke-width:0.5;" width="287" x="7" y="636.23"/><ellipse cx="107.75" cy="652.23" fill="#ADD1B2" rx="11" ry="11" style="stroke:#181818;stroke-width:1.0;"/><path d="M111.8643,658.23 L104.1445,658.23 L104.1445,645.8369 L111.8643,645.8369 L111.8643,647.9951 L106.5933,647.9951 L106.5933,650.668 L111.3662,650.668 L111.3662,652.8262 L106.5933,652.8262 L106.5933,656.0718 L111.8643,656.0718 Z " fill="#000000"/><text fill="#000000" font-family="sans-serif" font-size="14" lengthAdjust="spacing" textLength="77" x="128.25" y="657.521">CUSTOMER</text><line style="stroke:#181818;stroke-width:0.5;" x1="8" x2="293" y1="668.23" y2="668.23"/><ellipse cx="18" cy="681.9741" fill="none" rx="3" ry="3" style="stroke:#038048;stroke-width:1.0;"/><text fill="#000000" font-family="sans-serif" font-size="14" lengthAdjust="spacing" textLength="79" x="27" y="685.7652">C_Age : INT</text><ellipse cx="18" cy="698.4624" fill="none" rx="3" ry="3" style="stroke:#038048;stroke-width:1.0;"/><text fill="#000000" font-family="sans-serif" font-size="14" lengthAdjust="spacing" textLength="137" x="27" y="702.2534">created_date : DATE</text><ellipse cx="18" cy="714.9507" fill="none" rx="3" ry="3" style="stroke:#038048;stroke-width:1.0;"/><text fill="#000000" font-family="sans-serif" font-size="14" lengthAdjust="spacing" textLength="143" x="27" y="718.7417">updated_date : DATE</text><line style="stroke:#181818;stroke-width:0.5;" x1="8" x2="293" y1="725.6948" y2="725.6948"/><ellipse cx="18" cy="739.439" fill="#84BE84" rx="3" ry="3" style="stroke:#038048;stroke-width:1.0;"/><text fill="#000000" font-family="sans-serif" font-size="14" lengthAdjust="spacing" textLength="169" x="27" y="743.23">C_ID : VARCHAR(36) [PK]</text><ellipse cx="18" cy="755.9273" fill="#84BE84" rx="3" ry="3" style="stroke:#038048;stroke-width:1.0;"/><text fill="#000000" font-family="sans-serif" font-size="14" lengthAdjust="spacing" textLength="261" x="27" y="759.7183">C_Fname : VARCHAR(255) [NOT NULL]</text><ellipse cx="18" cy="772.4155" fill="#84BE84" rx="3" ry="3" style="stroke:#038048;stroke-width:1.0;"/><text fill="#000000" font-family="sans-serif" font-size="14" lengthAdjust="spacing" textLength="260" x="27" y="776.2066">C_Lname : VARCHAR(255) [NOT NULL]</text><ellipse cx="18" cy="788.9038" fill="#84BE84" rx="3" ry="3" style="stroke:#038048;stroke-width:1.0;"/><text fill="#000000" font-family="sans-serif" font-size="14" lengthAdjust="spacing" textLength="194" x="27" y="792.6948">C_Sex : CHAR(1) [NOT NULL]</text><ellipse cx="18" cy="805.3921" fill="#84BE84" rx="3" ry="3" style="stroke:#038048;stroke-width:1.0;"/><text fill="#000000" font-family="sans-serif" font-size="14" lengthAdjust="spacing" textLength="241" x="27" y="809.1831">C_Phno : VARCHAR(20) [NOT NULL]</text><ellipse cx="18" cy="821.8804" fill="#84BE84" rx="3" ry="3" style="stroke:#038048;stroke-width:1.0;"/><text fill="#000000" font-family="sans-serif" font-size="14" lengthAdjust="spacing" textLength="161" x="27" y="825.6714">C_Mail : VARCHAR(255)</text><ellipse cx="18" cy="838.3687" fill="#84BE84" rx="3" ry="3" style="stroke:#038048;stroke-width:1.0;"/><text fill="#000000" font-family="sans-serif" font-size="14" lengthAdjust="spacing" textLength="181" x="27" y="842.1597">created_by : VARCHAR(36)</text><ellipse cx="18" cy="854.857" fill="#84BE84" rx="3" ry="3" style="stroke:#038048;stroke-width:1.0;"/><text fill="#000000" font-family="sans-serif" font-size="14" lengthAdjust="spacing" textLength="187" x="27" y="858.648">updated_by : VARCHAR(36)</text></g><!--class MedCategory--><g id="elem_MedCategory"><rect codeLine="48" fill="#F1F1F1" height="163.418" id="MedCategory" rx="2.5" ry="2.5" style="stroke:#181818;stroke-width:0.5;" width="293" x="877" y="669.21"/><ellipse cx="962.75" cy="685.21" fill="#ADD1B2" rx="11" ry="11" style="stroke:#181818;stroke-width:1.0;"/><path d="M966.8643,691.21 L959.1445,691.21 L959.1445,678.8169 L966.8643,678.8169 L966.8643,680.9751 L961.5933,680.9751 L961.5933,683.648 L966.3662,683.648 L966.3662,685.8062 L961.5933,685.8062 L961.5933,689.0518 L966.8643,689.0518 Z " fill="#000000"/><text fill="#000000" font-family="sans-serif" font-size="14" lengthAdjust="spacing" textLength="113" x="983.25" y="690.501">MED_CATEGORY</text><line style="stroke:#181818;stroke-width:0.5;" x1="878" x2="1169" y1="701.21" y2="701.21"/><ellipse cx="888" cy="714.9541" fill="none" rx="3" ry="3" style="stroke:#038048;stroke-width:1.0;"/><text fill="#000000" font-family="sans-serif" font-size="14" lengthAdjust="spacing" textLength="137" x="897" y="718.7452">created_date : DATE</text><ellipse cx="888" cy="731.4424" fill="none" rx="3" ry="3" style="stroke:#038048;stroke-width:1.0;"/><text fill="#000000" font-family="sans-serif" font-size="14" lengthAdjust="spacing" textLength="143" x="897" y="735.2334">updated_date : DATE</text><line style="stroke:#181818;stroke-width:0.5;" x1="878" x2="1169" y1="742.1866" y2="742.1866"/><ellipse cx="888" cy="755.9307" fill="#84BE84" rx="3" ry="3" style="stroke:#038048;stroke-width:1.0;"/><text fill="#000000" font-family="sans-serif" font-size="14" lengthAdjust="spacing" textLength="182" x="897" y="759.7217">Cat_ID : VARCHAR(36) [PK]</text><ellipse cx="888" cy="772.419" fill="#84BE84" rx="3" ry="3" style="stroke:#038048;stroke-width:1.0;"/><text fill="#000000" font-family="sans-serif" font-size="14" lengthAdjust="spacing" textLength="267" x="897" y="776.21">Cat_Name : VARCHAR(255) [NOT NULL]</text><ellipse cx="888" cy="788.9073" fill="#84BE84" rx="3" ry="3" style="stroke:#038048;stroke-width:1.0;"/><text fill="#000000" font-family="sans-serif" font-size="14" lengthAdjust="spacing" textLength="233" x="897" y="792.6983">Cat_Description : VARCHAR(1000)</text><ellipse cx="888" cy="805.3955" fill="#84BE84" rx="3" ry="3" style="stroke:#038048;stroke-width:1.0;"/><text fill="#000000" font-family="sans-serif" font-size="14" lengthAdjust="spacing" textLength="181" x="897" y="809.1866">created_by : VARCHAR(36)</text><ellipse cx="888" cy="821.8838" fill="#84BE84" rx="3" ry="3" style="stroke:#038048;stroke-width:1.0;"/><text fill="#000000" font-family="sans-serif" font-size="14" lengthAdjust="spacing" textLength="187" x="897" y="825.6748">updated_by : VARCHAR(36)</text></g><!--class Meds--><g id="elem_Meds"><rect codeLine="58" fill="#F1F1F1" height="179.9063" id="Meds" rx="2.5" ry="2.5" style="stroke:#181818;stroke-width:0.5;" width="299" x="874" y="313.37"/><ellipse cx="1004.25" cy="329.37" fill="#ADD1B2" rx="11" ry="11" style="stroke:#181818;stroke-width:1.0;"/><path d="M1008.3643,335.37 L1000.6445,335.37 L1000.6445,322.9769 L1008.3643,322.9769 L1008.3643,325.1351 L1003.0933,325.1351 L1003.0933,327.808 L1007.8662,327.808 L1007.8662,329.9662 L1003.0933,329.9662 L1003.0933,333.2118 L1008.3643,333.2118 Z " fill="#000000"/><text fill="#000000" font-family="sans-serif" font-size="14" lengthAdjust="spacing" textLength="30" x="1024.75" y="334.661">MED</text><line style="stroke:#181818;stroke-width:0.5;" x1="875" x2="1172" y1="345.37" y2="345.37"/><ellipse cx="885" cy="359.1141" fill="none" rx="3" ry="3" style="stroke:#038048;stroke-width:1.0;"/><text fill="#000000" font-family="sans-serif" font-size="14" lengthAdjust="spacing" textLength="137" x="894" y="362.9052">created_date : DATE</text><ellipse cx="885" cy="375.6024" fill="none" rx="3" ry="3" style="stroke:#038048;stroke-width:1.0;"/><text fill="#000000" font-family="sans-serif" font-size="14" lengthAdjust="spacing" textLength="143" x="894" y="379.3934">updated_date : DATE</text><line style="stroke:#181818;stroke-width:0.5;" x1="875" x2="1172" y1="386.3466" y2="386.3466"/><ellipse cx="885" cy="400.0907" fill="#84BE84" rx="3" ry="3" style="stroke:#038048;stroke-width:1.0;"/><text fill="#000000" font-family="sans-serif" font-size="14" lengthAdjust="spacing" textLength="188" x="894" y="403.8817">Med_ID : VARCHAR(36) [PK]</text><ellipse cx="885" cy="416.579" fill="#84BE84" rx="3" ry="3" style="stroke:#038048;stroke-width:1.0;"/><text fill="#000000" font-family="sans-serif" font-size="14" lengthAdjust="spacing" textLength="273" x="894" y="420.37">Med_Name : VARCHAR(255) [NOT NULL]</text><ellipse cx="885" cy="433.0673" fill="#84BE84" rx="3" ry="3" style="stroke:#038048;stroke-width:1.0;"/><text fill="#000000" font-family="sans-serif" font-size="14" lengthAdjust="spacing" textLength="269" x="894" y="436.8583">Med_Price : DECIMAL(10, 2) [NOT NULL]</text><ellipse cx="885" cy="449.5555" fill="#84BE84" rx="3" ry="3" style="stroke:#038048;stroke-width:1.0;"/><text fill="#000000" font-family="sans-serif" font-size="14" lengthAdjust="spacing" textLength="233" x="894" y="453.3466">Cat_ID : VARCHAR(36) [NOT NULL]</text><ellipse cx="885" cy="466.0438" fill="#84BE84" rx="3" ry="3" style="stroke:#038048;stroke-width:1.0;"/><text fill="#000000" font-family="sans-serif" font-size="14" lengthAdjust="spacing" textLength="181" x="894" y="469.8348">created_by : VARCHAR(36)</text><ellipse cx="885" cy="482.5321" fill="#84BE84" rx="3" ry="3" style="stroke:#038048;stroke-width:1.0;"/><text fill="#000000" font-family="sans-serif" font-size="14" lengthAdjust="spacing" textLength="187" x="894" y="486.3231">updated_by : VARCHAR(36)</text></g><!--class Purchase--><g id="elem_Purchase"><rect codeLine="69" fill="#F1F1F1" height="196.3945" id="Purchase" rx="2.5" ry="2.5" style="stroke:#181818;stroke-width:0.5;" width="272" x="786.5" y="15.25"/><ellipse cx="881.75" cy="31.25" fill="#ADD1B2" rx="11" ry="11" style="stroke:#181818;stroke-width:1.0;"/><path d="M885.8643,37.25 L878.1445,37.25 L878.1445,24.8569 L885.8643,24.8569 L885.8643,27.0151 L880.5933,27.0151 L880.5933,29.688 L885.3662,29.688 L885.3662,31.8462 L880.5933,31.8462 L880.5933,35.0918 L885.8643,35.0918 Z " fill="#000000"/><text fill="#000000" font-family="sans-serif" font-size="14" lengthAdjust="spacing" textLength="73" x="902.25" y="36.541">PURCHASE</text><line style="stroke:#181818;stroke-width:0.5;" x1="787.5" x2="1057.5" y1="47.25" y2="47.25"/><ellipse cx="797.5" cy="60.9941" fill="none" rx="3" ry="3" style="stroke:#038048;stroke-width:1.0;"/><text fill="#000000" font-family="sans-serif" font-size="14" lengthAdjust="spacing" textLength="155" x="806.5" y="64.7852">P_Qty : INT [NOT NULL]</text><ellipse cx="797.5" cy="77.4824" fill="none" rx="3" ry="3" style="stroke:#038048;stroke-width:1.0;"/><text fill="#000000" font-family="sans-serif" font-size="14" lengthAdjust="spacing" textLength="137" x="806.5" y="81.2734">created_date : DATE</text><ellipse cx="797.5" cy="93.9707" fill="none" rx="3" ry="3" style="stroke:#038048;stroke-width:1.0;"/><text fill="#000000" font-family="sans-serif" font-size="14" lengthAdjust="spacing" textLength="143" x="806.5" y="97.7617">updated_date : DATE</text><line style="stroke:#181818;stroke-width:0.5;" x1="787.5" x2="1057.5" y1="104.7148" y2="104.7148"/><ellipse cx="797.5" cy="118.459" fill="#84BE84" rx="3" ry="3" style="stroke:#038048;stroke-width:1.0;"/><text fill="#000000" font-family="sans-serif" font-size="14" lengthAdjust="spacing" textLength="167" x="806.5" y="122.25">P_ID : VARCHAR(36) [PK]</text><ellipse cx="797.5" cy="134.9473" fill="#84BE84" rx="3" ry="3" style="stroke:#038048;stroke-width:1.0;"/><text fill="#000000" font-family="sans-serif" font-size="14" lengthAdjust="spacing" textLength="188" x="806.5" y="138.7383">Med_ID : VARCHAR(36) [FK]</text><ellipse cx="797.5" cy="151.4355" fill="#84BE84" rx="3" ry="3" style="stroke:#038048;stroke-width:1.0;"/><text fill="#000000" font-family="sans-serif" font-size="14" lengthAdjust="spacing" textLength="185" x="806.5" y="155.2266">Sup_ID : VARCHAR(36) [FK]</text><ellipse cx="797.5" cy="167.9238" fill="#84BE84" rx="3" ry="3" style="stroke:#038048;stroke-width:1.0;"/><text fill="#000000" font-family="sans-serif" font-size="14" lengthAdjust="spacing" textLength="246" x="806.5" y="171.7148">P_Cost : DECIMAL(10, 2) [NOT NULL]</text><ellipse cx="797.5" cy="184.4121" fill="#84BE84" rx="3" ry="3" style="stroke:#038048;stroke-width:1.0;"/><text fill="#000000" font-family="sans-serif" font-size="14" lengthAdjust="spacing" textLength="181" x="806.5" y="188.2031">created_by : VARCHAR(36)</text><ellipse cx="797.5" cy="200.9004" fill="#84BE84" rx="3" ry="3" style="stroke:#038048;stroke-width:1.0;"/><text fill="#000000" font-family="sans-serif" font-size="14" lengthAdjust="spacing" textLength="187" x="806.5" y="204.6914">updated_by : VARCHAR(36)</text></g><!--class Sales--><g id="elem_Sales"><rect codeLine="81" fill="#F1F1F1" height="212.8828" id="Sales" rx="2.5" ry="2.5" style="stroke:#181818;stroke-width:0.5;" width="296" x="211.5" y="296.89"/><ellipse cx="338.75" cy="312.89" fill="#ADD1B2" rx="11" ry="11" style="stroke:#181818;stroke-width:1.0;"/><path d="M342.8643,318.89 L335.1445,318.89 L335.1445,306.4969 L342.8643,306.4969 L342.8643,308.6551 L337.5933,308.6551 L337.5933,311.328 L342.3662,311.328 L342.3662,313.4862 L337.5933,313.4862 L337.5933,316.7318 L342.8643,316.7318 Z " fill="#000000"/><text fill="#000000" font-family="sans-serif" font-size="14" lengthAdjust="spacing" textLength="33" x="359.25" y="318.181">SALE</text><line style="stroke:#181818;stroke-width:0.5;" x1="212.5" x2="506.5" y1="328.89" y2="328.89"/><ellipse cx="222.5" cy="342.6341" fill="none" rx="3" ry="3" style="stroke:#038048;stroke-width:1.0;"/><text fill="#000000" font-family="sans-serif" font-size="14" lengthAdjust="spacing" textLength="177" x="231.5" y="346.4252">S_Date : DATE [NOT NULL]</text><ellipse cx="222.5" cy="359.1224" fill="none" rx="3" ry="3" style="stroke:#038048;stroke-width:1.0;"/><text fill="#000000" font-family="sans-serif" font-size="14" lengthAdjust="spacing" textLength="176" x="231.5" y="362.9134">S_Time : TIME [NOT NULL]</text><ellipse cx="222.5" cy="375.6107" fill="none" rx="3" ry="3" style="stroke:#038048;stroke-width:1.0;"/><text fill="#000000" font-family="sans-serif" font-size="14" lengthAdjust="spacing" textLength="137" x="231.5" y="379.4017">created_date : DATE</text><ellipse cx="222.5" cy="392.099" fill="none" rx="3" ry="3" style="stroke:#038048;stroke-width:1.0;"/><text fill="#000000" font-family="sans-serif" font-size="14" lengthAdjust="spacing" textLength="143" x="231.5" y="395.89">updated_date : DATE</text><line style="stroke:#181818;stroke-width:0.5;" x1="212.5" x2="506.5" y1="402.8431" y2="402.8431"/><ellipse cx="222.5" cy="416.5873" fill="#84BE84" rx="3" ry="3" style="stroke:#038048;stroke-width:1.0;"/><text fill="#000000" font-family="sans-serif" font-size="14" lengthAdjust="spacing" textLength="187" x="231.5" y="420.3783">Sale_ID : VARCHAR(36) [PK]</text><ellipse cx="222.5" cy="433.0755" fill="#84BE84" rx="3" ry="3" style="stroke:#038048;stroke-width:1.0;"/><text fill="#000000" font-family="sans-serif" font-size="14" lengthAdjust="spacing" textLength="270" x="231.5" y="436.8666">Total_Amt : DECIMAL(10, 2) [NOT NULL]</text><ellipse cx="222.5" cy="449.5638" fill="#84BE84" rx="3" ry="3" style="stroke:#038048;stroke-width:1.0;"/><text fill="#000000" font-family="sans-serif" font-size="14" lengthAdjust="spacing" textLength="250" x="231.5" y="453.3548">C_ID : VARCHAR(36) [FK] [NULLABLE]</text><ellipse cx="222.5" cy="466.0521" fill="#84BE84" rx="3" ry="3" style="stroke:#038048;stroke-width:1.0;"/><text fill="#000000" font-family="sans-serif" font-size="14" lengthAdjust="spacing" textLength="167" x="231.5" y="469.8431">E_ID : VARCHAR(36) [FK]</text><ellipse cx="222.5" cy="482.5404" fill="#84BE84" rx="3" ry="3" style="stroke:#038048;stroke-width:1.0;"/><text fill="#000000" font-family="sans-serif" font-size="14" lengthAdjust="spacing" textLength="181" x="231.5" y="486.3314">created_by : VARCHAR(36)</text><ellipse cx="222.5" cy="499.0287" fill="#84BE84" rx="3" ry="3" style="stroke:#038048;stroke-width:1.0;"/><text fill="#000000" font-family="sans-serif" font-size="14" lengthAdjust="spacing" textLength="187" x="231.5" y="502.8197">updated_by : VARCHAR(36)</text></g><!--class SalesItems--><g id="elem_SalesItems"><rect codeLine="94" fill="#F1F1F1" height="196.3945" id="SalesItems" rx="2.5" ry="2.5" style="stroke:#181818;stroke-width:0.5;" width="289" x="335" y="15.25"/><ellipse cx="438.75" cy="31.25" fill="#ADD1B2" rx="11" ry="11" style="stroke:#181818;stroke-width:1.0;"/><path d="M442.8643,37.25 L435.1445,37.25 L435.1445,24.8569 L442.8643,24.8569 L442.8643,27.0151 L437.5933,27.0151 L437.5933,29.688 L442.3662,29.688 L442.3662,31.8462 L437.5933,31.8462 L437.5933,35.0918 L442.8643,35.0918 Z " fill="#000000"/><text fill="#000000" font-family="sans-serif" font-size="14" lengthAdjust="spacing" textLength="73" x="459.25" y="36.541">SALE_ITEM</text><line style="stroke:#181818;stroke-width:0.5;" x1="336" x2="623" y1="47.25" y2="47.25"/><ellipse cx="346" cy="60.9941" fill="none" rx="3" ry="3" style="stroke:#038048;stroke-width:1.0;"/><text fill="#000000" font-family="sans-serif" font-size="14" lengthAdjust="spacing" textLength="175" x="355" y="64.7852">Sale_Qty : INT [NOT NULL]</text><ellipse cx="346" cy="77.4824" fill="none" rx="3" ry="3" style="stroke:#038048;stroke-width:1.0;"/><text fill="#000000" font-family="sans-serif" font-size="14" lengthAdjust="spacing" textLength="137" x="355" y="81.2734">created_date : DATE</text><ellipse cx="346" cy="93.9707" fill="none" rx="3" ry="3" style="stroke:#038048;stroke-width:1.0;"/><text fill="#000000" font-family="sans-serif" font-size="14" lengthAdjust="spacing" textLength="143" x="355" y="97.7617">updated_date : DATE</text><line style="stroke:#181818;stroke-width:0.5;" x1="336" x2="623" y1="104.7148" y2="104.7148"/><ellipse cx="346" cy="118.459" fill="#84BE84" rx="3" ry="3" style="stroke:#038048;stroke-width:1.0;"/><text fill="#000000" font-family="sans-serif" font-size="14" lengthAdjust="spacing" textLength="188" x="355" y="122.25">Med_ID : VARCHAR(36) [FK]</text><ellipse cx="346" cy="134.9473" fill="#84BE84" rx="3" ry="3" style="stroke:#038048;stroke-width:1.0;"/><text fill="#000000" font-family="sans-serif" font-size="14" lengthAdjust="spacing" textLength="187" x="355" y="138.7383">Sale_ID : VARCHAR(36) [FK]</text><ellipse cx="346" cy="151.4355" fill="#84BE84" rx="3" ry="3" style="stroke:#038048;stroke-width:1.0;"/><text fill="#000000" font-family="sans-serif" font-size="14" lengthAdjust="spacing" textLength="263" x="355" y="155.2266">Tot_Price : DECIMAL(10, 2) [NOT NULL]</text><ellipse cx="346" cy="167.9238" fill="#84BE84" rx="3" ry="3" style="stroke:#038048;stroke-width:1.0;"/><text fill="#000000" font-family="sans-serif" font-size="14" lengthAdjust="spacing" textLength="148" x="355" y="171.7148">[PK] (Med_ID, Sale_ID)</text><ellipse cx="346" cy="184.4121" fill="#84BE84" rx="3" ry="3" style="stroke:#038048;stroke-width:1.0;"/><text fill="#000000" font-family="sans-serif" font-size="14" lengthAdjust="spacing" textLength="181" x="355" y="188.2031">created_by : VARCHAR(36)</text><ellipse cx="346" cy="200.9004" fill="#84BE84" rx="3" ry="3" style="stroke:#038048;stroke-width:1.0;"/><text fill="#000000" font-family="sans-serif" font-size="14" lengthAdjust="spacing" textLength="187" x="355" y="204.6914">updated_by : VARCHAR(36)</text></g><!--class LocationRack--><g id="elem_LocationRack"><rect codeLine="106" fill="#F1F1F1" height="146.9297" id="LocationRack" rx="2.5" ry="2.5" style="stroke:#181818;stroke-width:0.5;" width="308" x="1208.5" y="329.86"/><ellipse cx="1299.75" cy="345.86" fill="#ADD1B2" rx="11" ry="11" style="stroke:#181818;stroke-width:1.0;"/><path d="M1303.8643,351.86 L1296.1445,351.86 L1296.1445,339.4669 L1303.8643,339.4669 L1303.8643,341.6251 L1298.5933,341.6251 L1298.5933,344.298 L1303.3662,344.298 L1303.3662,346.4562 L1298.5933,346.4562 L1298.5933,349.7018 L1303.8643,349.7018 Z " fill="#000000"/><text fill="#000000" font-family="sans-serif" font-size="14" lengthAdjust="spacing" textLength="117" x="1320.25" y="351.151">LOCATION_RACK</text><line style="stroke:#181818;stroke-width:0.5;" x1="1209.5" x2="1515.5" y1="361.86" y2="361.86"/><ellipse cx="1219.5" cy="375.6041" fill="none" rx="3" ry="3" style="stroke:#038048;stroke-width:1.0;"/><text fill="#000000" font-family="sans-serif" font-size="14" lengthAdjust="spacing" textLength="137" x="1228.5" y="379.3952">created_date : DATE</text><ellipse cx="1219.5" cy="392.0924" fill="none" rx="3" ry="3" style="stroke:#038048;stroke-width:1.0;"/><text fill="#000000" font-family="sans-serif" font-size="14" lengthAdjust="spacing" textLength="143" x="1228.5" y="395.8834">updated_date : DATE</text><line style="stroke:#181818;stroke-width:0.5;" x1="1209.5" x2="1515.5" y1="402.8366" y2="402.8366"/><ellipse cx="1219.5" cy="416.5807" fill="#84BE84" rx="3" ry="3" style="stroke:#038048;stroke-width:1.0;"/><text fill="#000000" font-family="sans-serif" font-size="14" lengthAdjust="spacing" textLength="175" x="1228.5" y="420.3717">LR_ID : VARCHAR(36) [PK]</text><ellipse cx="1219.5" cy="433.069" fill="#84BE84" rx="3" ry="3" style="stroke:#038048;stroke-width:1.0;"/><text fill="#000000" font-family="sans-serif" font-size="14" lengthAdjust="spacing" textLength="282" x="1228.5" y="436.86">LR_POSITION : VARCHAR(50) [NOT NULL]]</text><ellipse cx="1219.5" cy="449.5573" fill="#84BE84" rx="3" ry="3" style="stroke:#038048;stroke-width:1.0;"/><text fill="#000000" font-family="sans-serif" font-size="14" lengthAdjust="spacing" textLength="181" x="1228.5" y="453.3483">created_by : VARCHAR(36)</text><ellipse cx="1219.5" cy="466.0455" fill="#84BE84" rx="3" ry="3" style="stroke:#038048;stroke-width:1.0;"/><text fill="#000000" font-family="sans-serif" font-size="14" lengthAdjust="spacing" textLength="187" x="1228.5" y="469.8366">updated_by : VARCHAR(36)</text></g><!--class Inventory--><g id="elem_Inventory"><rect codeLine="115" fill="#F1F1F1" height="212.8828" id="Inventory" rx="2.5" ry="2.5" style="stroke:#181818;stroke-width:0.5;" width="296" x="1134.5" y="7"/><ellipse cx="1238.75" cy="23" fill="#ADD1B2" rx="11" ry="11" style="stroke:#181818;stroke-width:1.0;"/><path d="M1242.8643,29 L1235.1445,29 L1235.1445,16.6069 L1242.8643,16.6069 L1242.8643,18.7651 L1237.5933,18.7651 L1237.5933,21.438 L1242.3662,21.438 L1242.3662,23.5962 L1237.5933,23.5962 L1237.5933,26.8418 L1242.8643,26.8418 Z " fill="#000000"/><text fill="#000000" font-family="sans-serif" font-size="14" lengthAdjust="spacing" textLength="79" x="1259.25" y="28.291">INVENTORY</text><line style="stroke:#181818;stroke-width:0.5;" x1="1135.5" x2="1429.5" y1="39" y2="39"/><ellipse cx="1145.5" cy="52.7441" fill="none" rx="3" ry="3" style="stroke:#038048;stroke-width:1.0;"/><text fill="#000000" font-family="sans-serif" font-size="14" lengthAdjust="spacing" textLength="151" x="1154.5" y="56.5352">I_Qty : INT [NOT NULL]</text><ellipse cx="1145.5" cy="69.2324" fill="none" rx="3" ry="3" style="stroke:#038048;stroke-width:1.0;"/><text fill="#000000" font-family="sans-serif" font-size="14" lengthAdjust="spacing" textLength="195" x="1154.5" y="73.0234">Mfg_Date : DATE [NOT NULL]</text><ellipse cx="1145.5" cy="85.7207" fill="none" rx="3" ry="3" style="stroke:#038048;stroke-width:1.0;"/><text fill="#000000" font-family="sans-serif" font-size="14" lengthAdjust="spacing" textLength="195" x="1154.5" y="89.5117">Exp_Date : DATE [NOT NULL]</text><ellipse cx="1145.5" cy="102.209" fill="none" rx="3" ry="3" style="stroke:#038048;stroke-width:1.0;"/><text fill="#000000" font-family="sans-serif" font-size="14" lengthAdjust="spacing" textLength="137" x="1154.5" y="106">created_date : DATE</text><ellipse cx="1145.5" cy="118.6973" fill="none" rx="3" ry="3" style="stroke:#038048;stroke-width:1.0;"/><text fill="#000000" font-family="sans-serif" font-size="14" lengthAdjust="spacing" textLength="143" x="1154.5" y="122.4883">updated_date : DATE</text><line style="stroke:#181818;stroke-width:0.5;" x1="1135.5" x2="1429.5" y1="129.4414" y2="129.4414"/><ellipse cx="1145.5" cy="143.1855" fill="#84BE84" rx="3" ry="3" style="stroke:#038048;stroke-width:1.0;"/><text fill="#000000" font-family="sans-serif" font-size="14" lengthAdjust="spacing" textLength="163" x="1154.5" y="146.9766">I_ID : VARCHAR(36) [PK]</text><ellipse cx="1145.5" cy="159.6738" fill="#84BE84" rx="3" ry="3" style="stroke:#038048;stroke-width:1.0;"/><text fill="#000000" font-family="sans-serif" font-size="14" lengthAdjust="spacing" textLength="270" x="1154.5" y="163.4648">Med_ID : VARCHAR(36) [FK] [NOT NULL]</text><ellipse cx="1145.5" cy="176.1621" fill="#84BE84" rx="3" ry="3" style="stroke:#038048;stroke-width:1.0;"/><text fill="#000000" font-family="sans-serif" font-size="14" lengthAdjust="spacing" textLength="257" x="1154.5" y="179.9531">LR_ID : VARCHAR(36) [FK] [NOT NULL]</text><ellipse cx="1145.5" cy="192.6504" fill="#84BE84" rx="3" ry="3" style="stroke:#038048;stroke-width:1.0;"/><text fill="#000000" font-family="sans-serif" font-size="14" lengthAdjust="spacing" textLength="181" x="1154.5" y="196.4414">created_by : VARCHAR(36)</text><ellipse cx="1145.5" cy="209.1387" fill="#84BE84" rx="3" ry="3" style="stroke:#038048;stroke-width:1.0;"/><text fill="#000000" font-family="sans-serif" font-size="14" lengthAdjust="spacing" textLength="187" x="1154.5" y="212.9297">updated_by : VARCHAR(36)</text></g><!--link Sales to Employee--><g id="link_Sales_Employee"><path codeLine="128" d="M405.63,509.89 C416.21,534.11 420.4926,543.926 431.8626,569.946 " fill="none" id="Sales-to-Employee" style="stroke:#181818;stroke-width:1.0;"/><polygon fill="none" points="439.07,586.44,437.3606,567.5435,426.3646,572.3484,439.07,586.44" style="stroke:#181818;stroke-width:1.0;"/><text fill="#000000" font-family="sans-serif" font-size="13" lengthAdjust="spacing" textLength="55" x="426.96" y="553.3384">E_ID [FK]</text></g><!--link Sales to Customer--><g id="link_Sales_Customer"><path codeLine="129" d="M295.66,509.89 C271.53,549.79 253.2844,579.9573 228.7144,620.5873 " fill="none" id="Sales-to-Customer" style="stroke:#181818;stroke-width:1.0;"/><polygon fill="none" points="219.4,635.99,233.8486,623.6921,223.5802,617.4825,219.4,635.99" style="stroke:#181818;stroke-width:1.0;"/><text fill="#000000" font-family="sans-serif" font-size="13" lengthAdjust="spacing" textLength="57" x="274.72" y="553.3384">C_ID [FK]</text></g><!--link SalesItems to Sales--><g id="link_SalesItems_Sales"><path codeLine="130" d="M438.87,211.91 C427.52,239.15 422.0595,252.2673 410.5095,279.9573 " fill="none" id="SalesItems-to-Sales" style="stroke:#181818;stroke-width:1.0;"/><polygon fill="none" points="403.58,296.57,416.047,282.2671,404.9719,277.6475,403.58,296.57" style="stroke:#181818;stroke-width:1.0;"/><text fill="#000000" font-family="sans-serif" font-size="13" lengthAdjust="spacing" textLength="73" x="420.5" y="263.4584">Sale_ID [FK]</text></g><!--link SalesItems to Meds--><g id="link_SalesItems_Meds"><path codeLine="131" d="M617.13,211.97 C650.47,232.4 686.82,252.17 722.5,266.89 C778.52,289.98 799.48,273.78 855.5,296.89 C866.96,301.61 862.5512,298.7934 873.9512,304.7234 " fill="none" id="SalesItems-to-Meds" style="stroke:#181818;stroke-width:1.0;"/><polygon fill="none" points="889.92,313.03,876.7201,299.4005,871.1824,310.0464,889.92,313.03" style="stroke:#181818;stroke-width:1.0;"/><text fill="#000000" font-family="sans-serif" font-size="13" lengthAdjust="spacing" textLength="74" x="723.5" y="263.4584">Med_ID [FK]</text></g><!--link Purchase to Meds--><g id="link_Purchase_Meds"><path codeLine="132" d="M930.84,211.75 C934.02,230.36 938.42,249.47 944.5,266.89 C949.93,282.44 948.7834,282.289 956.7234,297.299 " fill="none" id="Purchase-to-Meds" style="stroke:#181818;stroke-width:1.0;"/><polygon fill="none" points="965.14,313.21,962.0271,294.4934,951.4197,300.1045,965.14,313.21" style="stroke:#181818;stroke-width:1.0;"/><text fill="#000000" font-family="sans-serif" font-size="13" lengthAdjust="spacing" textLength="74" x="945.5" y="263.4584">Med_ID [FK]</text></g><!--link Purchase to Suppliers--><g id="link_Purchase_Suppliers"><path codeLine="133" d="M843.96,211.91 C819.77,241.92 804.4485,260.9478 780.2585,290.9478 " fill="none" id="Purchase-to-Suppliers" style="stroke:#181818;stroke-width:1.0;"/><polygon fill="none" points="768.96,304.96,784.9293,294.7139,775.5878,287.1816,768.96,304.96" style="stroke:#181818;stroke-width:1.0;"/><text fill="#000000" font-family="sans-serif" font-size="13" lengthAdjust="spacing" textLength="71" x="807.5" y="263.4584">Sup_ID [FK]</text></g><!--link Inventory to Meds--><g id="link_Inventory_Meds"><path codeLine="134" d="M1187.53,220.01 C1159.95,250.66 1142.1696,270.4291 1115.5996,299.9591 " fill="none" id="Inventory-to-Meds" style="stroke:#181818;stroke-width:1.0;"/><polygon fill="none" points="1103.56,313.34,1120.0599,303.9723,1111.1393,295.9459,1103.56,313.34" style="stroke:#181818;stroke-width:1.0;"/><text fill="#000000" font-family="sans-serif" font-size="13" lengthAdjust="spacing" textLength="74" x="1154" y="263.4584">Med_ID [FK]</text></g><!--link Inventory to LocationRack--><g id="link_Inventory_LocationRack"><path codeLine="135" d="M1311.83,220.01 C1321.96,256.43 1328.2386,279.0577 1337.4686,312.2577 " fill="none" id="Inventory-to-LocationRack" style="stroke:#181818;stroke-width:1.0;"/><polygon fill="none" points="1342.29,329.6,1343.2494,310.6506,1331.6879,313.8648,1342.29,329.6" style="stroke:#181818;stroke-width:1.0;"/><text fill="#000000" font-family="sans-serif" font-size="13" lengthAdjust="spacing" textLength="63" x="1323.5" y="263.4584">LR_ID [FK]</text></g><!--link Meds to MedCategory--><g id="link_Meds_MedCategory"><path codeLine="136" d="M1023.5,493.78 C1023.5,547.87 1023.5,598.31 1023.5,650.83 " fill="none" id="Meds-to-MedCategory" style="stroke:#181818;stroke-width:1.0;"/><polygon fill="none" points="1023.5,668.83,1029.5,650.83,1017.5,650.83,1023.5,668.83" style="stroke:#181818;stroke-width:1.0;"/><text fill="#000000" font-family="sans-serif" font-size="13" lengthAdjust="spacing" textLength="69" x="1024.5" y="553.3384">Cat_ID [FK]</text></g><!--SRC=[pLVBRfj05DtdAqPPkMeYsQdS1OjAP9Yqq_0AZqXH524AKmVLDWXm5TJstpipC0RpCkh2xixCEVCwzvvxnsIRHta1Bf5cgiOJGfV0pm3Q9Eku80JykW3WFK0ULe047cKBVf6jsOUFxy2pUVzIOMv6qgs_8JLXEQS4tN20xghg2tXsTVpW8i6_O-J6SZVBPPDUiTH9hDlGpnbBaHrK3SahDe1rf_gsoHlzvciiUbPmYgIvpU7HAyxNnYvTL0x3rZahGFEZTJzYlcxZ9Z8NWEsp6Gg2M9FLsM9-1MvAA4W9FKFejUyhnhyLXm7Yu2u9UoU9ySwaFnSNfCe7spLD5IEBvuEzIv9rHDAiIWZwFP8I3DMFHu_HkjhriRfozR66v3wvTD2r7KEhf8ExB8yt9AsKWoEwmKdMW9Ei0Li-WEC-W1CqXl-FmXfIF4WdV3Qi9wwoHa98PwtYj112-_cOr1ITaAACff0iIACaZ-9jWxsOp-Vdkxoui_0Z_JboMOPEk2oZcMaKa4u5wfEbkzqXv-Ioc2uRjii6PkxIuDNFH0CpZwZJHUyQjMmODRs7l2XTrhw_wS4uouzAUVgwBgkbHBJLa7qzfx_72hgd33T0stCYdbiErZgW4-V-sfCtnuM0_J9J6gN8j-h- -J0SZRDewM47QRMWE2URSLVkCwjVymDuCBkehXEzoe88PkLHhiIcPwfSga6BDZPqpvBXFTTCZGEVLLRB3tvKggdMI2PIq3Hip1OPVBITAHcm_eXqHpGalFr9WReTuN-fGErOzahJmyF3YQDzNusP6RqbO_39H2sBq_Nrxq_rVn6fD3ztI0FVFx2aieRKUEb5JYhvqjvqlIJUK2KH3axPzv5fXFgTB8dEmLbrDWojqs8S-4Ag0i-9VAvOHRnv9D6I6UKl]--></g></svg>