<?xml version="1.0" encoding="us-ascii" standalone="no"?><svg xmlns="http://www.w3.org/2000/svg" xmlns:xlink="http://www.w3.org/1999/xlink" contentStyleType="text/css" height="1492px" preserveAspectRatio="none" style="width:821px;height:1492px;background:#FFFFFF;" version="1.1" viewBox="0 0 821 1492" width="821px" zoomAndPan="magnify"><defs/><g><!--class EmpLogin--><g id="elem_EmpLogin"><rect codeLine="1" fill="#F1F1F1" height="97.4648" id="EmpLogin" rx="2.5" ry="2.5" style="stroke:#181818;stroke-width:0.5;" width="289" x="82.5" y="7"/><ellipse cx="187.75" cy="23" fill="#ADD1B2" rx="11" ry="11" style="stroke:#181818;stroke-width:1.0;"/><path d="M191.8643,29 L184.1445,29 L184.1445,16.6069 L191.8643,16.6069 L191.8643,18.7651 L186.5933,18.7651 L186.5933,21.438 L191.3662,21.438 L191.3662,23.5962 L186.5933,23.5962 L186.5933,26.8418 L191.8643,26.8418 Z " fill="#000000"/><text fill="#000000" font-family="sans-serif" font-size="14" lengthAdjust="spacing" textLength="70" x="208.25" y="28.291">EMPLOGIN</text><line style="stroke:#181818;stroke-width:0.5;" x1="83.5" x2="370.5" y1="39" y2="39"/><line style="stroke:#181818;stroke-width:0.5;" x1="83.5" x2="370.5" y1="47" y2="47"/><ellipse cx="93.5" cy="60.7441" fill="#84BE84" rx="3" ry="3" style="stroke:#038048;stroke-width:1.0;"/><text fill="#000000" font-family="sans-serif" font-size="14" lengthAdjust="spacing" textLength="216" x="102.5" y="64.5352">Username : VARCHAR(255) [PK]</text><ellipse cx="93.5" cy="77.2324" fill="#84BE84" rx="3" ry="3" style="stroke:#038048;stroke-width:1.0;"/><text fill="#000000" font-family="sans-serif" font-size="14" lengthAdjust="spacing" textLength="263" x="102.5" y="81.0234">Password : VARCHAR(255) [NOT NULL]</text><ellipse cx="93.5" cy="93.7207" fill="#84BE84" rx="3" ry="3" style="stroke:#038048;stroke-width:1.0;"/><text fill="#000000" font-family="sans-serif" font-size="14" lengthAdjust="spacing" textLength="167" x="102.5" y="97.5117">E_ID : VARCHAR(50) [FK]</text></g><!--class Employee--><g id="elem_Employee"><rect codeLine="7" fill="#F1F1F1" height="245.8594" id="Employee" rx="2.5" ry="2.5" style="stroke:#181818;stroke-width:0.5;" width="285" x="84.5" y="181.47"/><ellipse cx="187.25" cy="197.47" fill="#ADD1B2" rx="11" ry="11" style="stroke:#181818;stroke-width:1.0;"/><path d="M191.3643,203.47 L183.6445,203.47 L183.6445,191.0769 L191.3643,191.0769 L191.3643,193.2351 L186.0933,193.2351 L186.0933,195.908 L190.8662,195.908 L190.8662,198.0662 L186.0933,198.0662 L186.0933,201.3118 L191.3643,201.3118 Z " fill="#000000"/><text fill="#000000" font-family="sans-serif" font-size="14" lengthAdjust="spacing" textLength="71" x="207.75" y="202.761">EMPLOYEE</text><line style="stroke:#181818;stroke-width:0.5;" x1="85.5" x2="368.5" y1="213.47" y2="213.47"/><ellipse cx="95.5" cy="227.2141" fill="none" rx="3" ry="3" style="stroke:#038048;stroke-width:1.0;"/><text fill="#000000" font-family="sans-serif" font-size="14" lengthAdjust="spacing" textLength="102" x="104.5" y="231.0052">E_Bdate : DATE</text><ellipse cx="95.5" cy="243.7024" fill="none" rx="3" ry="3" style="stroke:#038048;stroke-width:1.0;"/><text fill="#000000" font-family="sans-serif" font-size="14" lengthAdjust="spacing" textLength="77" x="104.5" y="247.4934">E_Age : INT</text><ellipse cx="95.5" cy="260.1907" fill="none" rx="3" ry="3" style="stroke:#038048;stroke-width:1.0;"/><text fill="#000000" font-family="sans-serif" font-size="14" lengthAdjust="spacing" textLength="180" x="104.5" y="263.9817">E_Jdate : DATE [NOT NULL]</text><line style="stroke:#181818;stroke-width:0.5;" x1="85.5" x2="368.5" y1="270.9348" y2="270.9348"/><ellipse cx="95.5" cy="284.679" fill="#84BE84" rx="3" ry="3" style="stroke:#038048;stroke-width:1.0;"/><text fill="#000000" font-family="sans-serif" font-size="14" lengthAdjust="spacing" textLength="167" x="104.5" y="288.47">E_ID : VARCHAR(50) [PK]</text><ellipse cx="95.5" cy="301.1673" fill="#84BE84" rx="3" ry="3" style="stroke:#038048;stroke-width:1.0;"/><text fill="#000000" font-family="sans-serif" font-size="14" lengthAdjust="spacing" textLength="259" x="104.5" y="304.9583">E_Fname : VARCHAR(255) [NOT NULL]</text><ellipse cx="95.5" cy="317.6555" fill="#84BE84" rx="3" ry="3" style="stroke:#038048;stroke-width:1.0;"/><text fill="#000000" font-family="sans-serif" font-size="14" lengthAdjust="spacing" textLength="258" x="104.5" y="321.4466">E_Lname : VARCHAR(255) [NOT NULL]</text><ellipse cx="95.5" cy="334.1438" fill="#84BE84" rx="3" ry="3" style="stroke:#038048;stroke-width:1.0;"/><text fill="#000000" font-family="sans-serif" font-size="14" lengthAdjust="spacing" textLength="192" x="104.5" y="337.9348">E_Sex : CHAR(1) [NOT NULL]</text><ellipse cx="95.5" cy="350.6321" fill="#84BE84" rx="3" ry="3" style="stroke:#038048;stroke-width:1.0;"/><text fill="#000000" font-family="sans-serif" font-size="14" lengthAdjust="spacing" textLength="237" x="104.5" y="354.4231">E_Type : VARCHAR(50) [NOT NULL]</text><ellipse cx="95.5" cy="367.1204" fill="#84BE84" rx="3" ry="3" style="stroke:#038048;stroke-width:1.0;"/><text fill="#000000" font-family="sans-serif" font-size="14" lengthAdjust="spacing" textLength="159" x="104.5" y="370.9114">E_Add : VARCHAR(255)</text><ellipse cx="95.5" cy="383.6087" fill="#84BE84" rx="3" ry="3" style="stroke:#038048;stroke-width:1.0;"/><text fill="#000000" font-family="sans-serif" font-size="14" lengthAdjust="spacing" textLength="159" x="104.5" y="387.3997">E_Mail : VARCHAR(255)</text><ellipse cx="95.5" cy="400.097" fill="#84BE84" rx="3" ry="3" style="stroke:#038048;stroke-width:1.0;"/><text fill="#000000" font-family="sans-serif" font-size="14" lengthAdjust="spacing" textLength="157" x="104.5" y="403.888">E_Phno : VARCHAR(20)</text><ellipse cx="95.5" cy="416.5852" fill="#84BE84" rx="3" ry="3" style="stroke:#038048;stroke-width:1.0;"/><text fill="#000000" font-family="sans-serif" font-size="14" lengthAdjust="spacing" textLength="153" x="104.5" y="420.3763">E_Sal : DECIMAL(10, 2)</text></g><!--class Suppliers--><g id="elem_Suppliers"><rect codeLine="22" fill="#F1F1F1" height="130.4414" id="Suppliers" rx="2.5" ry="2.5" style="stroke:#181818;stroke-width:0.5;" width="296" x="7" y="681.25"/><ellipse cx="115.75" cy="697.25" fill="#ADD1B2" rx="11" ry="11" style="stroke:#181818;stroke-width:1.0;"/><path d="M119.8643,703.25 L112.1445,703.25 L112.1445,690.8569 L119.8643,690.8569 L119.8643,693.0151 L114.5933,693.0151 L114.5933,695.688 L119.3662,695.688 L119.3662,697.8462 L114.5933,697.8462 L114.5933,701.0918 L119.8643,701.0918 Z " fill="#000000"/><text fill="#000000" font-family="sans-serif" font-size="14" lengthAdjust="spacing" textLength="70" x="136.25" y="702.541">SUPPLIERS</text><line style="stroke:#181818;stroke-width:0.5;" x1="8" x2="302" y1="713.25" y2="713.25"/><line style="stroke:#181818;stroke-width:0.5;" x1="8" x2="302" y1="721.25" y2="721.25"/><ellipse cx="18" cy="734.9941" fill="#84BE84" rx="3" ry="3" style="stroke:#038048;stroke-width:1.0;"/><text fill="#000000" font-family="sans-serif" font-size="14" lengthAdjust="spacing" textLength="185" x="27" y="738.7852">Sup_ID : VARCHAR(50) [PK]</text><ellipse cx="18" cy="751.4824" fill="#84BE84" rx="3" ry="3" style="stroke:#038048;stroke-width:1.0;"/><text fill="#000000" font-family="sans-serif" font-size="14" lengthAdjust="spacing" textLength="270" x="27" y="755.2734">Sup_Name : VARCHAR(255) [NOT NULL]</text><ellipse cx="18" cy="767.9707" fill="#84BE84" rx="3" ry="3" style="stroke:#038048;stroke-width:1.0;"/><text fill="#000000" font-family="sans-serif" font-size="14" lengthAdjust="spacing" textLength="259" x="27" y="771.7617">Sup_Add : VARCHAR(255) [NOT NULL]</text><ellipse cx="18" cy="784.459" fill="#84BE84" rx="3" ry="3" style="stroke:#038048;stroke-width:1.0;"/><text fill="#000000" font-family="sans-serif" font-size="14" lengthAdjust="spacing" textLength="257" x="27" y="788.25">Sup_Phno : VARCHAR(20) [NOT NULL]</text><ellipse cx="18" cy="800.9473" fill="#84BE84" rx="3" ry="3" style="stroke:#038048;stroke-width:1.0;"/><text fill="#000000" font-family="sans-serif" font-size="14" lengthAdjust="spacing" textLength="177" x="27" y="804.7383">Sup_Mail : VARCHAR(255)</text></g><!--class Customer--><g id="elem_Customer"><rect codeLine="30" fill="#F1F1F1" height="163.418" id="Customer" rx="2.5" ry="2.5" style="stroke:#181818;stroke-width:0.5;" width="287" x="203.5" y="841.7"/><ellipse cx="304.25" cy="857.7" fill="#ADD1B2" rx="11" ry="11" style="stroke:#181818;stroke-width:1.0;"/><path d="M308.3643,863.7 L300.6445,863.7 L300.6445,851.3069 L308.3643,851.3069 L308.3643,853.4651 L303.0933,853.4651 L303.0933,856.138 L307.8662,856.138 L307.8662,858.2962 L303.0933,858.2962 L303.0933,861.5418 L308.3643,861.5418 Z " fill="#000000"/><text fill="#000000" font-family="sans-serif" font-size="14" lengthAdjust="spacing" textLength="77" x="324.75" y="862.991">CUSTOMER</text><line style="stroke:#181818;stroke-width:0.5;" x1="204.5" x2="489.5" y1="873.7" y2="873.7"/><ellipse cx="214.5" cy="887.4441" fill="none" rx="3" ry="3" style="stroke:#038048;stroke-width:1.0;"/><text fill="#000000" font-family="sans-serif" font-size="14" lengthAdjust="spacing" textLength="161" x="223.5" y="891.2352">C_Age : INT [NOT NULL]</text><line style="stroke:#181818;stroke-width:0.5;" x1="204.5" x2="489.5" y1="898.1883" y2="898.1883"/><ellipse cx="214.5" cy="911.9324" fill="#84BE84" rx="3" ry="3" style="stroke:#038048;stroke-width:1.0;"/><text fill="#000000" font-family="sans-serif" font-size="14" lengthAdjust="spacing" textLength="169" x="223.5" y="915.7234">C_ID : VARCHAR(50) [PK]</text><ellipse cx="214.5" cy="928.4207" fill="#84BE84" rx="3" ry="3" style="stroke:#038048;stroke-width:1.0;"/><text fill="#000000" font-family="sans-serif" font-size="14" lengthAdjust="spacing" textLength="261" x="223.5" y="932.2117">C_Fname : VARCHAR(255) [NOT NULL]</text><ellipse cx="214.5" cy="944.909" fill="#84BE84" rx="3" ry="3" style="stroke:#038048;stroke-width:1.0;"/><text fill="#000000" font-family="sans-serif" font-size="14" lengthAdjust="spacing" textLength="260" x="223.5" y="948.7">C_Lname : VARCHAR(255) [NOT NULL]</text><ellipse cx="214.5" cy="961.3973" fill="#84BE84" rx="3" ry="3" style="stroke:#038048;stroke-width:1.0;"/><text fill="#000000" font-family="sans-serif" font-size="14" lengthAdjust="spacing" textLength="194" x="223.5" y="965.1883">C_Sex : CHAR(1) [NOT NULL]</text><ellipse cx="214.5" cy="977.8855" fill="#84BE84" rx="3" ry="3" style="stroke:#038048;stroke-width:1.0;"/><text fill="#000000" font-family="sans-serif" font-size="14" lengthAdjust="spacing" textLength="241" x="223.5" y="981.6766">C_Phno : VARCHAR(20) [NOT NULL]</text><ellipse cx="214.5" cy="994.3738" fill="#84BE84" rx="3" ry="3" style="stroke:#038048;stroke-width:1.0;"/><text fill="#000000" font-family="sans-serif" font-size="14" lengthAdjust="spacing" textLength="161" x="223.5" y="998.1648">C_Mail : VARCHAR(255)</text></g><!--class Meds--><g id="elem_Meds"><rect codeLine="40" fill="#F1F1F1" height="146.9297" id="Meds" rx="2.5" ry="2.5" style="stroke:#181818;stroke-width:0.5;" width="312" x="359" y="1082.11"/><ellipse cx="491.75" cy="1098.11" fill="#ADD1B2" rx="11" ry="11" style="stroke:#181818;stroke-width:1.0;"/><path d="M495.8643,1104.11 L488.1445,1104.11 L488.1445,1091.7169 L495.8643,1091.7169 L495.8643,1093.8751 L490.5933,1093.8751 L490.5933,1096.548 L495.3662,1096.548 L495.3662,1098.7062 L490.5933,1098.7062 L490.5933,1101.9518 L495.8643,1101.9518 Z " fill="#000000"/><text fill="#000000" font-family="sans-serif" font-size="14" lengthAdjust="spacing" textLength="38" x="512.25" y="1103.401">MEDS</text><line style="stroke:#181818;stroke-width:0.5;" x1="360" x2="670" y1="1114.11" y2="1114.11"/><ellipse cx="370" cy="1127.8541" fill="none" rx="3" ry="3" style="stroke:#038048;stroke-width:1.0;"/><text fill="#000000" font-family="sans-serif" font-size="14" lengthAdjust="spacing" textLength="176" x="379" y="1131.6452">Med_Qty : INT [NOT NULL]</text><line style="stroke:#181818;stroke-width:0.5;" x1="360" x2="670" y1="1138.5983" y2="1138.5983"/><ellipse cx="370" cy="1152.3424" fill="#84BE84" rx="3" ry="3" style="stroke:#038048;stroke-width:1.0;"/><text fill="#000000" font-family="sans-serif" font-size="14" lengthAdjust="spacing" textLength="188" x="379" y="1156.1334">Med_ID : VARCHAR(50) [PK]</text><ellipse cx="370" cy="1168.8307" fill="#84BE84" rx="3" ry="3" style="stroke:#038048;stroke-width:1.0;"/><text fill="#000000" font-family="sans-serif" font-size="14" lengthAdjust="spacing" textLength="273" x="379" y="1172.6217">Med_Name : VARCHAR(255) [NOT NULL]</text><ellipse cx="370" cy="1185.319" fill="#84BE84" rx="3" ry="3" style="stroke:#038048;stroke-width:1.0;"/><text fill="#000000" font-family="sans-serif" font-size="14" lengthAdjust="spacing" textLength="269" x="379" y="1189.11">Med_Price : DECIMAL(10, 2) [NOT NULL]</text><ellipse cx="370" cy="1201.8073" fill="#84BE84" rx="3" ry="3" style="stroke:#038048;stroke-width:1.0;"/><text fill="#000000" font-family="sans-serif" font-size="14" lengthAdjust="spacing" textLength="260" x="379" y="1205.5983">Category : VARCHAR(255) [NOT NULL]</text><ellipse cx="370" cy="1218.2955" fill="#84BE84" rx="3" ry="3" style="stroke:#038048;stroke-width:1.0;"/><text fill="#000000" font-family="sans-serif" font-size="14" lengthAdjust="spacing" textLength="286" x="379" y="1222.0866">Location_Rack : VARCHAR(50) [NOT NULL]</text></g><!--class Purchase--><g id="elem_Purchase"><rect codeLine="49" fill="#F1F1F1" height="179.9063" id="Purchase" rx="2.5" ry="2.5" style="stroke:#181818;stroke-width:0.5;" width="272" x="44" y="1306.04"/><ellipse cx="139.25" cy="1322.04" fill="#ADD1B2" rx="11" ry="11" style="stroke:#181818;stroke-width:1.0;"/><path d="M143.3643,1328.04 L135.6445,1328.04 L135.6445,1315.6469 L143.3643,1315.6469 L143.3643,1317.8051 L138.0933,1317.8051 L138.0933,1320.478 L142.8662,1320.478 L142.8662,1322.6362 L138.0933,1322.6362 L138.0933,1325.8818 L143.3643,1325.8818 Z " fill="#000000"/><text fill="#000000" font-family="sans-serif" font-size="14" lengthAdjust="spacing" textLength="73" x="159.75" y="1327.331">PURCHASE</text><line style="stroke:#181818;stroke-width:0.5;" x1="45" x2="315" y1="1338.04" y2="1338.04"/><ellipse cx="55" cy="1351.7841" fill="none" rx="3" ry="3" style="stroke:#038048;stroke-width:1.0;"/><text fill="#000000" font-family="sans-serif" font-size="14" lengthAdjust="spacing" textLength="155" x="64" y="1355.5752">P_Qty : INT [NOT NULL]</text><ellipse cx="55" cy="1368.2724" fill="none" rx="3" ry="3" style="stroke:#038048;stroke-width:1.0;"/><text fill="#000000" font-family="sans-serif" font-size="14" lengthAdjust="spacing" textLength="192" x="64" y="1372.0634">Pur_Date : DATE [NOT NULL]</text><ellipse cx="55" cy="1384.7607" fill="none" rx="3" ry="3" style="stroke:#038048;stroke-width:1.0;"/><text fill="#000000" font-family="sans-serif" font-size="14" lengthAdjust="spacing" textLength="195" x="64" y="1388.5517">Mfg_Date : DATE [NOT NULL]</text><ellipse cx="55" cy="1401.249" fill="none" rx="3" ry="3" style="stroke:#038048;stroke-width:1.0;"/><text fill="#000000" font-family="sans-serif" font-size="14" lengthAdjust="spacing" textLength="195" x="64" y="1405.04">Exp_Date : DATE [NOT NULL]</text><line style="stroke:#181818;stroke-width:0.5;" x1="45" x2="315" y1="1411.9931" y2="1411.9931"/><ellipse cx="55" cy="1425.7373" fill="#84BE84" rx="3" ry="3" style="stroke:#038048;stroke-width:1.0;"/><text fill="#000000" font-family="sans-serif" font-size="14" lengthAdjust="spacing" textLength="167" x="64" y="1429.5283">P_ID : VARCHAR(50) [PK]</text><ellipse cx="55" cy="1442.2255" fill="#84BE84" rx="3" ry="3" style="stroke:#038048;stroke-width:1.0;"/><text fill="#000000" font-family="sans-serif" font-size="14" lengthAdjust="spacing" textLength="188" x="64" y="1446.0166">Med_ID : VARCHAR(50) [FK]</text><ellipse cx="55" cy="1458.7138" fill="#84BE84" rx="3" ry="3" style="stroke:#038048;stroke-width:1.0;"/><text fill="#000000" font-family="sans-serif" font-size="14" lengthAdjust="spacing" textLength="185" x="64" y="1462.5048">Sup_ID : VARCHAR(50) [FK]</text><ellipse cx="55" cy="1475.2021" fill="#84BE84" rx="3" ry="3" style="stroke:#038048;stroke-width:1.0;"/><text fill="#000000" font-family="sans-serif" font-size="14" lengthAdjust="spacing" textLength="246" x="64" y="1478.9931">P_Cost : DECIMAL(10, 2) [NOT NULL]</text></g><!--class Sales--><g id="elem_Sales"><rect codeLine="60" fill="#F1F1F1" height="146.9297" id="Sales" rx="2.5" ry="2.5" style="stroke:#181818;stroke-width:0.5;" width="296" x="272" y="504.33"/><ellipse cx="395.25" cy="520.33" fill="#ADD1B2" rx="11" ry="11" style="stroke:#181818;stroke-width:1.0;"/><path d="M399.3643,526.33 L391.6445,526.33 L391.6445,513.9369 L399.3643,513.9369 L399.3643,516.0951 L394.0933,516.0951 L394.0933,518.768 L398.8662,518.768 L398.8662,520.9262 L394.0933,520.9262 L394.0933,524.1718 L399.3643,524.1718 Z " fill="#000000"/><text fill="#000000" font-family="sans-serif" font-size="14" lengthAdjust="spacing" textLength="41" x="415.75" y="525.621">SALES</text><line style="stroke:#181818;stroke-width:0.5;" x1="273" x2="567" y1="536.33" y2="536.33"/><ellipse cx="283" cy="550.0741" fill="none" rx="3" ry="3" style="stroke:#038048;stroke-width:1.0;"/><text fill="#000000" font-family="sans-serif" font-size="14" lengthAdjust="spacing" textLength="177" x="292" y="553.8652">S_Date : DATE [NOT NULL]</text><ellipse cx="283" cy="566.5624" fill="none" rx="3" ry="3" style="stroke:#038048;stroke-width:1.0;"/><text fill="#000000" font-family="sans-serif" font-size="14" lengthAdjust="spacing" textLength="176" x="292" y="570.3534">S_Time : TIME [NOT NULL]</text><line style="stroke:#181818;stroke-width:0.5;" x1="273" x2="567" y1="577.3066" y2="577.3066"/><ellipse cx="283" cy="591.0507" fill="#84BE84" rx="3" ry="3" style="stroke:#038048;stroke-width:1.0;"/><text fill="#000000" font-family="sans-serif" font-size="14" lengthAdjust="spacing" textLength="187" x="292" y="594.8417">Sale_ID : VARCHAR(50) [PK]</text><ellipse cx="283" cy="607.539" fill="#84BE84" rx="3" ry="3" style="stroke:#038048;stroke-width:1.0;"/><text fill="#000000" font-family="sans-serif" font-size="14" lengthAdjust="spacing" textLength="270" x="292" y="611.33">Total_Amt : DECIMAL(10, 2) [NOT NULL]</text><ellipse cx="283" cy="624.0273" fill="#84BE84" rx="3" ry="3" style="stroke:#038048;stroke-width:1.0;"/><text fill="#000000" font-family="sans-serif" font-size="14" lengthAdjust="spacing" textLength="169" x="292" y="627.8183">C_ID : VARCHAR(50) [FK]</text><ellipse cx="283" cy="640.5155" fill="#84BE84" rx="3" ry="3" style="stroke:#038048;stroke-width:1.0;"/><text fill="#000000" font-family="sans-serif" font-size="14" lengthAdjust="spacing" textLength="167" x="292" y="644.3066">E_ID : VARCHAR(50) [FK]</text></g><!--class SalesItems--><g id="elem_SalesItems"><rect codeLine="69" fill="#F1F1F1" height="130.4414" id="SalesItems" rx="2.5" ry="2.5" style="stroke:#181818;stroke-width:0.5;" width="289" x="525.5" y="858.18"/><ellipse cx="621.25" cy="874.18" fill="#ADD1B2" rx="11" ry="11" style="stroke:#181818;stroke-width:1.0;"/><path d="M625.3643,880.18 L617.6445,880.18 L617.6445,867.7869 L625.3643,867.7869 L625.3643,869.9451 L620.0933,869.9451 L620.0933,872.618 L624.8662,872.618 L624.8662,874.7762 L620.0933,874.7762 L620.0933,878.0218 L625.3643,878.0218 Z " fill="#000000"/><text fill="#000000" font-family="sans-serif" font-size="14" lengthAdjust="spacing" textLength="89" x="641.75" y="879.471">SALES_ITEMS</text><line style="stroke:#181818;stroke-width:0.5;" x1="526.5" x2="813.5" y1="890.18" y2="890.18"/><ellipse cx="536.5" cy="903.9241" fill="none" rx="3" ry="3" style="stroke:#038048;stroke-width:1.0;"/><text fill="#000000" font-family="sans-serif" font-size="14" lengthAdjust="spacing" textLength="175" x="545.5" y="907.7152">Sale_Qty : INT [NOT NULL]</text><line style="stroke:#181818;stroke-width:0.5;" x1="526.5" x2="813.5" y1="914.6683" y2="914.6683"/><ellipse cx="536.5" cy="928.4124" fill="#84BE84" rx="3" ry="3" style="stroke:#038048;stroke-width:1.0;"/><text fill="#000000" font-family="sans-serif" font-size="14" lengthAdjust="spacing" textLength="188" x="545.5" y="932.2034">Med_ID : VARCHAR(50) [FK]</text><ellipse cx="536.5" cy="944.9007" fill="#84BE84" rx="3" ry="3" style="stroke:#038048;stroke-width:1.0;"/><text fill="#000000" font-family="sans-serif" font-size="14" lengthAdjust="spacing" textLength="187" x="545.5" y="948.6917">Sale_ID : VARCHAR(50) [FK]</text><ellipse cx="536.5" cy="961.389" fill="#84BE84" rx="3" ry="3" style="stroke:#038048;stroke-width:1.0;"/><text fill="#000000" font-family="sans-serif" font-size="14" lengthAdjust="spacing" textLength="263" x="545.5" y="965.18">Tot_Price : DECIMAL(10, 2) [NOT NULL]</text><ellipse cx="536.5" cy="977.8773" fill="#84BE84" rx="3" ry="3" style="stroke:#038048;stroke-width:1.0;"/><text fill="#000000" font-family="sans-serif" font-size="14" lengthAdjust="spacing" textLength="148" x="545.5" y="981.6683">[PK] (Med_ID, Sale_ID)</text></g><!--link EmpLogin to Employee--><g id="link_EmpLogin_Employee"><path codeLine="77" d="M227,104.88 C227,126.89 227,136.07 227,163.18 " fill="none" id="EmpLogin-to-Employee" style="stroke:#181818;stroke-width:1.0;"/><polygon fill="none" points="227,181.18,233,163.18,221,163.18,227,181.18" style="stroke:#181818;stroke-width:1.0;"/><text fill="#000000" font-family="sans-serif" font-size="13" lengthAdjust="spacing" textLength="55" x="228" y="148.0384">E_ID [FK]</text></g><!--link Employee to Sales--><g id="link_Employee_Sales"><path codeLine="78" d="M313.9,427.6 C332.51,453.76 341.1677,465.9414 357.9377,489.5214 " fill="none" id="Employee-to-Sales" style="stroke:#181818;stroke-width:1.0;"/><polygon fill="none" points="368.37,504.19,362.8273,486.044,353.0482,492.9988,368.37,504.19" style="stroke:#181818;stroke-width:1.0;"/><text fill="#000000" font-family="sans-serif" font-size="13" lengthAdjust="spacing" textLength="55" x="347.46" y="470.8984">E_ID [FK]</text></g><!--link Employee to Suppliers--><g id="link_Employee_Suppliers"><path codeLine="79" d="M206.99,427.69 C193.57,509.72 176.43,614.49 165.58,680.81 " fill="none" id="Employee-Suppliers" style="stroke:#181818;stroke-width:1.0;"/></g><!--link Sales to SalesItems--><g id="link_Sales_SalesItems"><path codeLine="80" d="M450.42,651.75 C477.11,714.91 513.28,798.19 524,811.7 C537.25,828.39 539.6538,832.5133 556.5238,846.3533 " fill="none" id="Sales-to-SalesItems" style="stroke:#181818;stroke-width:1.0;"/><polygon fill="none" points="570.44,857.77,560.3294,841.7146,552.7183,850.992,570.44,857.77" style="stroke:#181818;stroke-width:1.0;"/><text fill="#000000" font-family="sans-serif" font-size="13" lengthAdjust="spacing" textLength="73" x="525" y="751.5484">Sale_ID [FK]</text></g><!--link SalesItems to Sales--><g id="link_SalesItems_Sales"><path codeLine="82" d="M665.63,857.92 C659.12,805.51 642.99,732.18 603,681.25 C593.11,668.65 595.4112,668.4201 582.4812,658.3501 " fill="none" id="SalesItems-to-Sales" style="stroke:#181818;stroke-width:1.0;"/><polygon fill="none" points="568.28,647.29,578.7946,663.0838,586.1679,653.6163,568.28,647.29" style="stroke:#181818;stroke-width:1.0;"/><text fill="#000000" font-family="sans-serif" font-size="13" lengthAdjust="spacing" textLength="73" x="658.65" y="751.5484">Sale_ID [FK]</text></g><!--link SalesItems to Meds--><g id="link_SalesItems_Meds"><path codeLine="81" d="M626.62,988.83 C607.18,1017.69 594.2239,1036.9295 574.1639,1066.7195 " fill="none" id="SalesItems-to-Meds" style="stroke:#181818;stroke-width:1.0;"/><polygon fill="none" points="564.11,1081.65,579.1407,1070.0708,569.1871,1063.3682,564.11,1081.65" style="stroke:#181818;stroke-width:1.0;"/><text fill="#000000" font-family="sans-serif" font-size="13" lengthAdjust="spacing" textLength="74" x="593.5" y="1048.6784">Med_ID [FK]</text></g><!--link Meds to Purchase--><g id="link_Meds_Purchase"><path codeLine="83" d="M412.67,1229.41 C378.9,1253.44 355.6037,1270.0109 320.3037,1295.1409 " fill="none" id="Meds-to-Purchase" style="stroke:#181818;stroke-width:1.0;"/><polygon fill="none" points="305.64,1305.58,323.7834,1300.0288,316.824,1290.253,305.64,1305.58" style="stroke:#181818;stroke-width:1.0;"/><text fill="#000000" font-family="sans-serif" font-size="13" lengthAdjust="spacing" textLength="74" x="368.56" y="1272.6084">Med_ID [FK]</text></g><!--link Suppliers to Purchase--><g id="link_Suppliers_Purchase"><path codeLine="84" d="M157.49,811.93 C161.98,928.21 170.7457,1155.2834 175.8557,1287.6634 " fill="none" id="Suppliers-to-Purchase" style="stroke:#181818;stroke-width:1.0;"/><polygon fill="none" points="176.55,1305.65,181.8512,1287.432,169.8602,1287.8948,176.55,1305.65" style="stroke:#181818;stroke-width:1.0;"/><text fill="#000000" font-family="sans-serif" font-size="13" lengthAdjust="spacing" textLength="71" x="167.48" y="1048.6784">Sup_ID [FK]</text></g><!--link Sales to Customer--><g id="link_Sales_Customer"><path codeLine="85" d="M404.35,651.55 C402.21,661.53 400.05,671.65 398,681.25 C386.63,734.62 377.6465,777.0279 367.7665,823.8479 " fill="none" id="Sales-to-Customer" style="stroke:#181818;stroke-width:1.0;"/><polygon fill="none" points="364.05,841.46,373.6372,825.0867,361.8958,822.609,364.05,841.46" style="stroke:#181818;stroke-width:1.0;"/><text fill="#000000" font-family="sans-serif" font-size="13" lengthAdjust="spacing" textLength="57" x="399" y="751.5484">C_ID [FK]</text></g><!--SRC=[ZLNBRfmm5DtFLrXPJTH4caIQ3OjAr3WjBJ0kZqfLLI5hnfsWyX8mQaPj_htOvk60UUmmvzZtdkDxhsbQHTKLt20RMuUFfdC3I0bGablPEKh1tmq0xq1GqY8b2GKQ-AQxy9FkRX_t-rlm0t_voGcObEMVh3YD2Cx11qvWMOA6GjEGAFjTpNYgZtZTRAYSndU4sZJYx4ffauPgUvi12f-K6GuJi5QnFfn8nLY6xgFcbtvcFqp7RzOUVQdN_8m7nGd-DQV3N8USprAKCQgVXdOsW4sYM8tWvpIJaLqBU8JjC10qRTtQFkpkmEEjxBeNO6oPoFMuxTubp-E85cNZUxsUSPwXphAfZ3QMf6ADLQXOAXSaHJ3m_8EDN2u8NiegIsZHw84pQk2gEeAhwWZsHJE6Pki7hZ01BbbW8qFSfqrFxLNMdpFY6RhYAXdjQnr1gOo1k8YET5Hm8m5rzP-puheGpSgEf8goD7J9yVTqIqd2SS0OdfWX-58SdqdPpX2y85yzeAQxe4Nnj2CuX5bPBTfH9neQqmF1_dMUWz5BFWNBVQvRgEbn4jEkl-llkGQVY-k5ViGBnZVj4UXd5Ob3FLaM3sUiNV5gS5sXwIDRKcTMD9cl- -vgrGQyWIUljnQvik2Pes0hKhbhW_AMxTxR-_j_x_jdJnFQUIBTJquHrpU1zmDy8tZz5k69rYdcMoM4C_cyq5hFb9Gs_fjp-3uETqqtEALxM8QifhdwM8BH3MvDL0Z3_mC0]--></g></svg>