<?xml version="1.0" encoding="us-ascii" standalone="no"?><svg xmlns="http://www.w3.org/2000/svg" xmlns:xlink="http://www.w3.org/1999/xlink" contentStyleType="text/css" height="1509px" preserveAspectRatio="none" style="width:821px;height:1509px;background:#FFFFFF;" version="1.1" viewBox="0 0 821 1509" width="821px" zoomAndPan="magnify"><defs/><g><!--class EmpLogin--><g id="elem_EmpLogin"><rect codeLine="1" fill="#F1F1F1" height="97.4648" id="EmpLogin" rx="2.5" ry="2.5" style="stroke:#181818;stroke-width:0.5;" width="289" x="82.5" y="7"/><ellipse cx="187.75" cy="23" fill="#ADD1B2" rx="11" ry="11" style="stroke:#181818;stroke-width:1.0;"/><path d="M191.8643,29 L184.1445,29 L184.1445,16.6069 L191.8643,16.6069 L191.8643,18.7651 L186.5933,18.7651 L186.5933,21.438 L191.3662,21.438 L191.3662,23.5962 L186.5933,23.5962 L186.5933,26.8418 L191.8643,26.8418 Z " fill="#000000"/><text fill="#000000" font-family="sans-serif" font-size="14" lengthAdjust="spacing" textLength="70" x="208.25" y="28.291">EMPLOGIN</text><line style="stroke:#181818;stroke-width:0.5;" x1="83.5" x2="370.5" y1="39" y2="39"/><line style="stroke:#181818;stroke-width:0.5;" x1="83.5" x2="370.5" y1="47" y2="47"/><ellipse cx="93.5" cy="60.7441" fill="#84BE84" rx="3" ry="3" style="stroke:#038048;stroke-width:1.0;"/><text fill="#000000" font-family="sans-serif" font-size="14" lengthAdjust="spacing" textLength="216" x="102.5" y="64.5352">Username : VARCHAR(255) [PK]</text><ellipse cx="93.5" cy="77.2324" fill="#84BE84" rx="3" ry="3" style="stroke:#038048;stroke-width:1.0;"/><text fill="#000000" font-family="sans-serif" font-size="14" lengthAdjust="spacing" textLength="263" x="102.5" y="81.0234">Password : VARCHAR(255) [NOT NULL]</text><ellipse cx="93.5" cy="93.7207" fill="#84BE84" rx="3" ry="3" style="stroke:#038048;stroke-width:1.0;"/><text fill="#000000" font-family="sans-serif" font-size="14" lengthAdjust="spacing" textLength="167" x="102.5" y="97.5117">E_ID : VARCHAR(50) [FK]</text></g><!--class Employee--><g id="elem_Employee"><rect codeLine="7" fill="#F1F1F1" height="262.3477" id="Employee" rx="2.5" ry="2.5" style="stroke:#181818;stroke-width:0.5;" width="362" x="46" y="181.47"/><ellipse cx="187.25" cy="197.47" fill="#ADD1B2" rx="11" ry="11" style="stroke:#181818;stroke-width:1.0;"/><path d="M191.3643,203.47 L183.6445,203.47 L183.6445,191.0769 L191.3643,191.0769 L191.3643,193.2351 L186.0933,193.2351 L186.0933,195.908 L190.8662,195.908 L190.8662,198.0662 L186.0933,198.0662 L186.0933,201.3118 L191.3643,201.3118 Z " fill="#000000"/><text fill="#000000" font-family="sans-serif" font-size="14" lengthAdjust="spacing" textLength="71" x="207.75" y="202.761">EMPLOYEE</text><line style="stroke:#181818;stroke-width:0.5;" x1="47" x2="407" y1="213.47" y2="213.47"/><ellipse cx="57" cy="227.2141" fill="none" rx="3" ry="3" style="stroke:#038048;stroke-width:1.0;"/><text fill="#000000" font-family="sans-serif" font-size="14" lengthAdjust="spacing" textLength="102" x="66" y="231.0052">E_Bdate : DATE</text><ellipse cx="57" cy="243.7024" fill="none" rx="3" ry="3" style="stroke:#038048;stroke-width:1.0;"/><text fill="#000000" font-family="sans-serif" font-size="14" lengthAdjust="spacing" textLength="77" x="66" y="247.4934">E_Age : INT</text><ellipse cx="57" cy="260.1907" fill="none" rx="3" ry="3" style="stroke:#038048;stroke-width:1.0;"/><text fill="#000000" font-family="sans-serif" font-size="14" lengthAdjust="spacing" textLength="180" x="66" y="263.9817">E_Jdate : DATE [NOT NULL]</text><line style="stroke:#181818;stroke-width:0.5;" x1="47" x2="407" y1="270.9348" y2="270.9348"/><ellipse cx="57" cy="284.679" fill="#84BE84" rx="3" ry="3" style="stroke:#038048;stroke-width:1.0;"/><text fill="#000000" font-family="sans-serif" font-size="14" lengthAdjust="spacing" textLength="167" x="66" y="288.47">E_ID : VARCHAR(50) [PK]</text><ellipse cx="57" cy="301.1673" fill="#84BE84" rx="3" ry="3" style="stroke:#038048;stroke-width:1.0;"/><text fill="#000000" font-family="sans-serif" font-size="14" lengthAdjust="spacing" textLength="336" x="66" y="304.9583">E_Username: VARCHAR(50) [NOT NULL] [UNIQUE]</text><ellipse cx="57" cy="317.6555" fill="#84BE84" rx="3" ry="3" style="stroke:#038048;stroke-width:1.0;"/><text fill="#000000" font-family="sans-serif" font-size="14" lengthAdjust="spacing" textLength="259" x="66" y="321.4466">E_Fname : VARCHAR(255) [NOT NULL]</text><ellipse cx="57" cy="334.1438" fill="#84BE84" rx="3" ry="3" style="stroke:#038048;stroke-width:1.0;"/><text fill="#000000" font-family="sans-serif" font-size="14" lengthAdjust="spacing" textLength="258" x="66" y="337.9348">E_Lname : VARCHAR(255) [NOT NULL]</text><ellipse cx="57" cy="350.6321" fill="#84BE84" rx="3" ry="3" style="stroke:#038048;stroke-width:1.0;"/><text fill="#000000" font-family="sans-serif" font-size="14" lengthAdjust="spacing" textLength="192" x="66" y="354.4231">E_Sex : CHAR(1) [NOT NULL]</text><ellipse cx="57" cy="367.1204" fill="#84BE84" rx="3" ry="3" style="stroke:#038048;stroke-width:1.0;"/><text fill="#000000" font-family="sans-serif" font-size="14" lengthAdjust="spacing" textLength="237" x="66" y="370.9114">E_Type : VARCHAR(50) [NOT NULL]</text><ellipse cx="57" cy="383.6087" fill="#84BE84" rx="3" ry="3" style="stroke:#038048;stroke-width:1.0;"/><text fill="#000000" font-family="sans-serif" font-size="14" lengthAdjust="spacing" textLength="159" x="66" y="387.3997">E_Add : VARCHAR(255)</text><ellipse cx="57" cy="400.097" fill="#84BE84" rx="3" ry="3" style="stroke:#038048;stroke-width:1.0;"/><text fill="#000000" font-family="sans-serif" font-size="14" lengthAdjust="spacing" textLength="159" x="66" y="403.888">E_Mail : VARCHAR(255)</text><ellipse cx="57" cy="416.5852" fill="#84BE84" rx="3" ry="3" style="stroke:#038048;stroke-width:1.0;"/><text fill="#000000" font-family="sans-serif" font-size="14" lengthAdjust="spacing" textLength="157" x="66" y="420.3763">E_Phno : VARCHAR(20)</text><ellipse cx="57" cy="433.0735" fill="#84BE84" rx="3" ry="3" style="stroke:#038048;stroke-width:1.0;"/><text fill="#000000" font-family="sans-serif" font-size="14" lengthAdjust="spacing" textLength="153" x="66" y="436.8645">E_Sal : DECIMAL(10, 2)</text></g><!--class Suppliers--><g id="elem_Suppliers"><rect codeLine="23" fill="#F1F1F1" height="130.4414" id="Suppliers" rx="2.5" ry="2.5" style="stroke:#181818;stroke-width:0.5;" width="296" x="7" y="697.74"/><ellipse cx="115.75" cy="713.74" fill="#ADD1B2" rx="11" ry="11" style="stroke:#181818;stroke-width:1.0;"/><path d="M119.8643,719.74 L112.1445,719.74 L112.1445,707.3469 L119.8643,707.3469 L119.8643,709.5051 L114.5933,709.5051 L114.5933,712.178 L119.3662,712.178 L119.3662,714.3362 L114.5933,714.3362 L114.5933,717.5818 L119.8643,717.5818 Z " fill="#000000"/><text fill="#000000" font-family="sans-serif" font-size="14" lengthAdjust="spacing" textLength="70" x="136.25" y="719.031">SUPPLIERS</text><line style="stroke:#181818;stroke-width:0.5;" x1="8" x2="302" y1="729.74" y2="729.74"/><line style="stroke:#181818;stroke-width:0.5;" x1="8" x2="302" y1="737.74" y2="737.74"/><ellipse cx="18" cy="751.4841" fill="#84BE84" rx="3" ry="3" style="stroke:#038048;stroke-width:1.0;"/><text fill="#000000" font-family="sans-serif" font-size="14" lengthAdjust="spacing" textLength="185" x="27" y="755.2752">Sup_ID : VARCHAR(50) [PK]</text><ellipse cx="18" cy="767.9724" fill="#84BE84" rx="3" ry="3" style="stroke:#038048;stroke-width:1.0;"/><text fill="#000000" font-family="sans-serif" font-size="14" lengthAdjust="spacing" textLength="270" x="27" y="771.7634">Sup_Name : VARCHAR(255) [NOT NULL]</text><ellipse cx="18" cy="784.4607" fill="#84BE84" rx="3" ry="3" style="stroke:#038048;stroke-width:1.0;"/><text fill="#000000" font-family="sans-serif" font-size="14" lengthAdjust="spacing" textLength="259" x="27" y="788.2517">Sup_Add : VARCHAR(255) [NOT NULL]</text><ellipse cx="18" cy="800.949" fill="#84BE84" rx="3" ry="3" style="stroke:#038048;stroke-width:1.0;"/><text fill="#000000" font-family="sans-serif" font-size="14" lengthAdjust="spacing" textLength="257" x="27" y="804.74">Sup_Phno : VARCHAR(20) [NOT NULL]</text><ellipse cx="18" cy="817.4373" fill="#84BE84" rx="3" ry="3" style="stroke:#038048;stroke-width:1.0;"/><text fill="#000000" font-family="sans-serif" font-size="14" lengthAdjust="spacing" textLength="177" x="27" y="821.2283">Sup_Mail : VARCHAR(255)</text></g><!--class Customer--><g id="elem_Customer"><rect codeLine="31" fill="#F1F1F1" height="163.418" id="Customer" rx="2.5" ry="2.5" style="stroke:#181818;stroke-width:0.5;" width="287" x="203.5" y="858.19"/><ellipse cx="304.25" cy="874.19" fill="#ADD1B2" rx="11" ry="11" style="stroke:#181818;stroke-width:1.0;"/><path d="M308.3643,880.19 L300.6445,880.19 L300.6445,867.7969 L308.3643,867.7969 L308.3643,869.9551 L303.0933,869.9551 L303.0933,872.628 L307.8662,872.628 L307.8662,874.7862 L303.0933,874.7862 L303.0933,878.0318 L308.3643,878.0318 Z " fill="#000000"/><text fill="#000000" font-family="sans-serif" font-size="14" lengthAdjust="spacing" textLength="77" x="324.75" y="879.481">CUSTOMER</text><line style="stroke:#181818;stroke-width:0.5;" x1="204.5" x2="489.5" y1="890.19" y2="890.19"/><ellipse cx="214.5" cy="903.9341" fill="none" rx="3" ry="3" style="stroke:#038048;stroke-width:1.0;"/><text fill="#000000" font-family="sans-serif" font-size="14" lengthAdjust="spacing" textLength="161" x="223.5" y="907.7252">C_Age : INT [NOT NULL]</text><line style="stroke:#181818;stroke-width:0.5;" x1="204.5" x2="489.5" y1="914.6783" y2="914.6783"/><ellipse cx="214.5" cy="928.4224" fill="#84BE84" rx="3" ry="3" style="stroke:#038048;stroke-width:1.0;"/><text fill="#000000" font-family="sans-serif" font-size="14" lengthAdjust="spacing" textLength="169" x="223.5" y="932.2134">C_ID : VARCHAR(50) [PK]</text><ellipse cx="214.5" cy="944.9107" fill="#84BE84" rx="3" ry="3" style="stroke:#038048;stroke-width:1.0;"/><text fill="#000000" font-family="sans-serif" font-size="14" lengthAdjust="spacing" textLength="261" x="223.5" y="948.7017">C_Fname : VARCHAR(255) [NOT NULL]</text><ellipse cx="214.5" cy="961.399" fill="#84BE84" rx="3" ry="3" style="stroke:#038048;stroke-width:1.0;"/><text fill="#000000" font-family="sans-serif" font-size="14" lengthAdjust="spacing" textLength="260" x="223.5" y="965.19">C_Lname : VARCHAR(255) [NOT NULL]</text><ellipse cx="214.5" cy="977.8873" fill="#84BE84" rx="3" ry="3" style="stroke:#038048;stroke-width:1.0;"/><text fill="#000000" font-family="sans-serif" font-size="14" lengthAdjust="spacing" textLength="194" x="223.5" y="981.6783">C_Sex : CHAR(1) [NOT NULL]</text><ellipse cx="214.5" cy="994.3755" fill="#84BE84" rx="3" ry="3" style="stroke:#038048;stroke-width:1.0;"/><text fill="#000000" font-family="sans-serif" font-size="14" lengthAdjust="spacing" textLength="241" x="223.5" y="998.1666">C_Phno : VARCHAR(20) [NOT NULL]</text><ellipse cx="214.5" cy="1010.8638" fill="#84BE84" rx="3" ry="3" style="stroke:#038048;stroke-width:1.0;"/><text fill="#000000" font-family="sans-serif" font-size="14" lengthAdjust="spacing" textLength="161" x="223.5" y="1014.6548">C_Mail : VARCHAR(255)</text></g><!--class Meds--><g id="elem_Meds"><rect codeLine="41" fill="#F1F1F1" height="146.9297" id="Meds" rx="2.5" ry="2.5" style="stroke:#181818;stroke-width:0.5;" width="312" x="359" y="1098.6"/><ellipse cx="491.75" cy="1114.6" fill="#ADD1B2" rx="11" ry="11" style="stroke:#181818;stroke-width:1.0;"/><path d="M495.8643,1120.6 L488.1445,1120.6 L488.1445,1108.2069 L495.8643,1108.2069 L495.8643,1110.3651 L490.5933,1110.3651 L490.5933,1113.038 L495.3662,1113.038 L495.3662,1115.1962 L490.5933,1115.1962 L490.5933,1118.4418 L495.8643,1118.4418 Z " fill="#000000"/><text fill="#000000" font-family="sans-serif" font-size="14" lengthAdjust="spacing" textLength="38" x="512.25" y="1119.891">MEDS</text><line style="stroke:#181818;stroke-width:0.5;" x1="360" x2="670" y1="1130.6" y2="1130.6"/><ellipse cx="370" cy="1144.3441" fill="none" rx="3" ry="3" style="stroke:#038048;stroke-width:1.0;"/><text fill="#000000" font-family="sans-serif" font-size="14" lengthAdjust="spacing" textLength="176" x="379" y="1148.1352">Med_Qty : INT [NOT NULL]</text><line style="stroke:#181818;stroke-width:0.5;" x1="360" x2="670" y1="1155.0883" y2="1155.0883"/><ellipse cx="370" cy="1168.8324" fill="#84BE84" rx="3" ry="3" style="stroke:#038048;stroke-width:1.0;"/><text fill="#000000" font-family="sans-serif" font-size="14" lengthAdjust="spacing" textLength="188" x="379" y="1172.6234">Med_ID : VARCHAR(50) [PK]</text><ellipse cx="370" cy="1185.3207" fill="#84BE84" rx="3" ry="3" style="stroke:#038048;stroke-width:1.0;"/><text fill="#000000" font-family="sans-serif" font-size="14" lengthAdjust="spacing" textLength="273" x="379" y="1189.1117">Med_Name : VARCHAR(255) [NOT NULL]</text><ellipse cx="370" cy="1201.809" fill="#84BE84" rx="3" ry="3" style="stroke:#038048;stroke-width:1.0;"/><text fill="#000000" font-family="sans-serif" font-size="14" lengthAdjust="spacing" textLength="269" x="379" y="1205.6">Med_Price : DECIMAL(10, 2) [NOT NULL]</text><ellipse cx="370" cy="1218.2973" fill="#84BE84" rx="3" ry="3" style="stroke:#038048;stroke-width:1.0;"/><text fill="#000000" font-family="sans-serif" font-size="14" lengthAdjust="spacing" textLength="260" x="379" y="1222.0883">Category : VARCHAR(255) [NOT NULL]</text><ellipse cx="370" cy="1234.7855" fill="#84BE84" rx="3" ry="3" style="stroke:#038048;stroke-width:1.0;"/><text fill="#000000" font-family="sans-serif" font-size="14" lengthAdjust="spacing" textLength="286" x="379" y="1238.5766">Location_Rack : VARCHAR(50) [NOT NULL]</text></g><!--class Purchase--><g id="elem_Purchase"><rect codeLine="50" fill="#F1F1F1" height="179.9063" id="Purchase" rx="2.5" ry="2.5" style="stroke:#181818;stroke-width:0.5;" width="272" x="44" y="1322.53"/><ellipse cx="139.25" cy="1338.53" fill="#ADD1B2" rx="11" ry="11" style="stroke:#181818;stroke-width:1.0;"/><path d="M143.3643,1344.53 L135.6445,1344.53 L135.6445,1332.1369 L143.3643,1332.1369 L143.3643,1334.2951 L138.0933,1334.2951 L138.0933,1336.968 L142.8662,1336.968 L142.8662,1339.1262 L138.0933,1339.1262 L138.0933,1342.3718 L143.3643,1342.3718 Z " fill="#000000"/><text fill="#000000" font-family="sans-serif" font-size="14" lengthAdjust="spacing" textLength="73" x="159.75" y="1343.821">PURCHASE</text><line style="stroke:#181818;stroke-width:0.5;" x1="45" x2="315" y1="1354.53" y2="1354.53"/><ellipse cx="55" cy="1368.2741" fill="none" rx="3" ry="3" style="stroke:#038048;stroke-width:1.0;"/><text fill="#000000" font-family="sans-serif" font-size="14" lengthAdjust="spacing" textLength="155" x="64" y="1372.0652">P_Qty : INT [NOT NULL]</text><ellipse cx="55" cy="1384.7624" fill="none" rx="3" ry="3" style="stroke:#038048;stroke-width:1.0;"/><text fill="#000000" font-family="sans-serif" font-size="14" lengthAdjust="spacing" textLength="192" x="64" y="1388.5534">Pur_Date : DATE [NOT NULL]</text><ellipse cx="55" cy="1401.2507" fill="none" rx="3" ry="3" style="stroke:#038048;stroke-width:1.0;"/><text fill="#000000" font-family="sans-serif" font-size="14" lengthAdjust="spacing" textLength="195" x="64" y="1405.0417">Mfg_Date : DATE [NOT NULL]</text><ellipse cx="55" cy="1417.739" fill="none" rx="3" ry="3" style="stroke:#038048;stroke-width:1.0;"/><text fill="#000000" font-family="sans-serif" font-size="14" lengthAdjust="spacing" textLength="195" x="64" y="1421.53">Exp_Date : DATE [NOT NULL]</text><line style="stroke:#181818;stroke-width:0.5;" x1="45" x2="315" y1="1428.4831" y2="1428.4831"/><ellipse cx="55" cy="1442.2273" fill="#84BE84" rx="3" ry="3" style="stroke:#038048;stroke-width:1.0;"/><text fill="#000000" font-family="sans-serif" font-size="14" lengthAdjust="spacing" textLength="167" x="64" y="1446.0183">P_ID : VARCHAR(50) [PK]</text><ellipse cx="55" cy="1458.7155" fill="#84BE84" rx="3" ry="3" style="stroke:#038048;stroke-width:1.0;"/><text fill="#000000" font-family="sans-serif" font-size="14" lengthAdjust="spacing" textLength="188" x="64" y="1462.5066">Med_ID : VARCHAR(50) [FK]</text><ellipse cx="55" cy="1475.2038" fill="#84BE84" rx="3" ry="3" style="stroke:#038048;stroke-width:1.0;"/><text fill="#000000" font-family="sans-serif" font-size="14" lengthAdjust="spacing" textLength="185" x="64" y="1478.9948">Sup_ID : VARCHAR(50) [FK]</text><ellipse cx="55" cy="1491.6921" fill="#84BE84" rx="3" ry="3" style="stroke:#038048;stroke-width:1.0;"/><text fill="#000000" font-family="sans-serif" font-size="14" lengthAdjust="spacing" textLength="246" x="64" y="1495.4831">P_Cost : DECIMAL(10, 2) [NOT NULL]</text></g><!--class Sales--><g id="elem_Sales"><rect codeLine="61" fill="#F1F1F1" height="146.9297" id="Sales" rx="2.5" ry="2.5" style="stroke:#181818;stroke-width:0.5;" width="296" x="272" y="520.82"/><ellipse cx="395.25" cy="536.82" fill="#ADD1B2" rx="11" ry="11" style="stroke:#181818;stroke-width:1.0;"/><path d="M399.3643,542.82 L391.6445,542.82 L391.6445,530.4269 L399.3643,530.4269 L399.3643,532.5851 L394.0933,532.5851 L394.0933,535.258 L398.8662,535.258 L398.8662,537.4162 L394.0933,537.4162 L394.0933,540.6618 L399.3643,540.6618 Z " fill="#000000"/><text fill="#000000" font-family="sans-serif" font-size="14" lengthAdjust="spacing" textLength="41" x="415.75" y="542.111">SALES</text><line style="stroke:#181818;stroke-width:0.5;" x1="273" x2="567" y1="552.82" y2="552.82"/><ellipse cx="283" cy="566.5641" fill="none" rx="3" ry="3" style="stroke:#038048;stroke-width:1.0;"/><text fill="#000000" font-family="sans-serif" font-size="14" lengthAdjust="spacing" textLength="177" x="292" y="570.3552">S_Date : DATE [NOT NULL]</text><ellipse cx="283" cy="583.0524" fill="none" rx="3" ry="3" style="stroke:#038048;stroke-width:1.0;"/><text fill="#000000" font-family="sans-serif" font-size="14" lengthAdjust="spacing" textLength="176" x="292" y="586.8434">S_Time : TIME [NOT NULL]</text><line style="stroke:#181818;stroke-width:0.5;" x1="273" x2="567" y1="593.7966" y2="593.7966"/><ellipse cx="283" cy="607.5407" fill="#84BE84" rx="3" ry="3" style="stroke:#038048;stroke-width:1.0;"/><text fill="#000000" font-family="sans-serif" font-size="14" lengthAdjust="spacing" textLength="187" x="292" y="611.3317">Sale_ID : VARCHAR(50) [PK]</text><ellipse cx="283" cy="624.029" fill="#84BE84" rx="3" ry="3" style="stroke:#038048;stroke-width:1.0;"/><text fill="#000000" font-family="sans-serif" font-size="14" lengthAdjust="spacing" textLength="270" x="292" y="627.82">Total_Amt : DECIMAL(10, 2) [NOT NULL]</text><ellipse cx="283" cy="640.5173" fill="#84BE84" rx="3" ry="3" style="stroke:#038048;stroke-width:1.0;"/><text fill="#000000" font-family="sans-serif" font-size="14" lengthAdjust="spacing" textLength="169" x="292" y="644.3083">C_ID : VARCHAR(50) [FK]</text><ellipse cx="283" cy="657.0055" fill="#84BE84" rx="3" ry="3" style="stroke:#038048;stroke-width:1.0;"/><text fill="#000000" font-family="sans-serif" font-size="14" lengthAdjust="spacing" textLength="167" x="292" y="660.7966">E_ID : VARCHAR(50) [FK]</text></g><!--class SalesItems--><g id="elem_SalesItems"><rect codeLine="70" fill="#F1F1F1" height="130.4414" id="SalesItems" rx="2.5" ry="2.5" style="stroke:#181818;stroke-width:0.5;" width="289" x="525.5" y="874.67"/><ellipse cx="621.25" cy="890.67" fill="#ADD1B2" rx="11" ry="11" style="stroke:#181818;stroke-width:1.0;"/><path d="M625.3643,896.67 L617.6445,896.67 L617.6445,884.2769 L625.3643,884.2769 L625.3643,886.4351 L620.0933,886.4351 L620.0933,889.108 L624.8662,889.108 L624.8662,891.2662 L620.0933,891.2662 L620.0933,894.5118 L625.3643,894.5118 Z " fill="#000000"/><text fill="#000000" font-family="sans-serif" font-size="14" lengthAdjust="spacing" textLength="89" x="641.75" y="895.961">SALES_ITEMS</text><line style="stroke:#181818;stroke-width:0.5;" x1="526.5" x2="813.5" y1="906.67" y2="906.67"/><ellipse cx="536.5" cy="920.4141" fill="none" rx="3" ry="3" style="stroke:#038048;stroke-width:1.0;"/><text fill="#000000" font-family="sans-serif" font-size="14" lengthAdjust="spacing" textLength="175" x="545.5" y="924.2052">Sale_Qty : INT [NOT NULL]</text><line style="stroke:#181818;stroke-width:0.5;" x1="526.5" x2="813.5" y1="931.1583" y2="931.1583"/><ellipse cx="536.5" cy="944.9024" fill="#84BE84" rx="3" ry="3" style="stroke:#038048;stroke-width:1.0;"/><text fill="#000000" font-family="sans-serif" font-size="14" lengthAdjust="spacing" textLength="188" x="545.5" y="948.6934">Med_ID : VARCHAR(50) [FK]</text><ellipse cx="536.5" cy="961.3907" fill="#84BE84" rx="3" ry="3" style="stroke:#038048;stroke-width:1.0;"/><text fill="#000000" font-family="sans-serif" font-size="14" lengthAdjust="spacing" textLength="187" x="545.5" y="965.1817">Sale_ID : VARCHAR(50) [FK]</text><ellipse cx="536.5" cy="977.879" fill="#84BE84" rx="3" ry="3" style="stroke:#038048;stroke-width:1.0;"/><text fill="#000000" font-family="sans-serif" font-size="14" lengthAdjust="spacing" textLength="263" x="545.5" y="981.67">Tot_Price : DECIMAL(10, 2) [NOT NULL]</text><ellipse cx="536.5" cy="994.3673" fill="#84BE84" rx="3" ry="3" style="stroke:#038048;stroke-width:1.0;"/><text fill="#000000" font-family="sans-serif" font-size="14" lengthAdjust="spacing" textLength="148" x="545.5" y="998.1583">[PK] (Med_ID, Sale_ID)</text></g><!--link EmpLogin to Employee--><g id="link_EmpLogin_Employee"><path codeLine="78" d="M227,104.68 C227,126.6 227,135.75 227,163.08 " fill="none" id="EmpLogin-to-Employee" style="stroke:#181818;stroke-width:1.0;"/><polygon fill="none" points="227,181.08,233,163.08,221,163.08,227,181.08" style="stroke:#181818;stroke-width:1.0;"/><text fill="#000000" font-family="sans-serif" font-size="13" lengthAdjust="spacing" textLength="55" x="228" y="148.0384">E_ID [FK]</text></g><!--link Employee to Sales--><g id="link_Employee_Sales"><path codeLine="79" d="M317,444.05 C335.18,470.39 343.4449,482.3662 359.6449,505.8362 " fill="none" id="Employee-to-Sales" style="stroke:#181818;stroke-width:1.0;"/><polygon fill="none" points="369.87,520.65,364.5828,502.4279,354.707,509.2446,369.87,520.65" style="stroke:#181818;stroke-width:1.0;"/><text fill="#000000" font-family="sans-serif" font-size="13" lengthAdjust="spacing" textLength="55" x="347.46" y="487.3884">E_ID [FK]</text></g><!--link Employee to Suppliers--><g id="link_Employee_Suppliers"><path codeLine="80" d="M206.03,444.22 C192.68,527.32 175.98,631.35 165.39,697.25 " fill="none" id="Employee-Suppliers" style="stroke:#181818;stroke-width:1.0;"/></g><!--link Sales to SalesItems--><g id="link_Sales_SalesItems"><path codeLine="81" d="M450.42,668.24 C477.11,731.4 513.28,814.68 524,828.19 C537.25,844.88 539.6538,849.0033 556.5238,862.8433 " fill="none" id="Sales-to-SalesItems" style="stroke:#181818;stroke-width:1.0;"/><polygon fill="none" points="570.44,874.26,560.3294,858.2046,552.7183,867.482,570.44,874.26" style="stroke:#181818;stroke-width:1.0;"/><text fill="#000000" font-family="sans-serif" font-size="13" lengthAdjust="spacing" textLength="73" x="525" y="768.0384">Sale_ID [FK]</text></g><!--link SalesItems to Sales--><g id="link_SalesItems_Sales"><path codeLine="83" d="M665.63,874.41 C659.12,822 642.99,748.67 603,697.74 C593.11,685.14 595.4112,684.9101 582.4812,674.8401 " fill="none" id="SalesItems-to-Sales" style="stroke:#181818;stroke-width:1.0;"/><polygon fill="none" points="568.28,663.78,578.7946,679.5738,586.1679,670.1063,568.28,663.78" style="stroke:#181818;stroke-width:1.0;"/><text fill="#000000" font-family="sans-serif" font-size="13" lengthAdjust="spacing" textLength="73" x="658.65" y="768.0384">Sale_ID [FK]</text></g><!--link SalesItems to Meds--><g id="link_SalesItems_Meds"><path codeLine="82" d="M626.62,1005.32 C607.18,1034.18 594.2239,1053.4195 574.1639,1083.2095 " fill="none" id="SalesItems-to-Meds" style="stroke:#181818;stroke-width:1.0;"/><polygon fill="none" points="564.11,1098.14,579.1407,1086.5608,569.1871,1079.8582,564.11,1098.14" style="stroke:#181818;stroke-width:1.0;"/><text fill="#000000" font-family="sans-serif" font-size="13" lengthAdjust="spacing" textLength="74" x="593.5" y="1065.1684">Med_ID [FK]</text></g><!--link Meds to Purchase--><g id="link_Meds_Purchase"><path codeLine="84" d="M412.67,1245.9 C378.9,1269.93 355.6037,1286.5009 320.3037,1311.6309 " fill="none" id="Meds-to-Purchase" style="stroke:#181818;stroke-width:1.0;"/><polygon fill="none" points="305.64,1322.07,323.7834,1316.5188,316.824,1306.743,305.64,1322.07" style="stroke:#181818;stroke-width:1.0;"/><text fill="#000000" font-family="sans-serif" font-size="13" lengthAdjust="spacing" textLength="74" x="368.56" y="1289.0984">Med_ID [FK]</text></g><!--link Suppliers to Purchase--><g id="link_Suppliers_Purchase"><path codeLine="85" d="M157.49,828.42 C161.98,944.7 170.7457,1171.7734 175.8557,1304.1534 " fill="none" id="Suppliers-to-Purchase" style="stroke:#181818;stroke-width:1.0;"/><polygon fill="none" points="176.55,1322.14,181.8512,1303.922,169.8602,1304.3848,176.55,1322.14" style="stroke:#181818;stroke-width:1.0;"/><text fill="#000000" font-family="sans-serif" font-size="13" lengthAdjust="spacing" textLength="71" x="167.48" y="1065.1684">Sup_ID [FK]</text></g><!--link Sales to Customer--><g id="link_Sales_Customer"><path codeLine="86" d="M404.35,668.04 C402.21,678.02 400.05,688.14 398,697.74 C386.63,751.11 377.6465,793.5179 367.7665,840.3379 " fill="none" id="Sales-to-Customer" style="stroke:#181818;stroke-width:1.0;"/><polygon fill="none" points="364.05,857.95,373.6372,841.5767,361.8958,839.099,364.05,857.95" style="stroke:#181818;stroke-width:1.0;"/><text fill="#000000" font-family="sans-serif" font-size="13" lengthAdjust="spacing" textLength="57" x="399" y="768.0384">C_ID [FK]</text></g><!--SRC=[ZLLRRvim67tFhx3wb6gjb5RA2m-Jc74xDY0kbqbJLI4hyL8qRWAYDThwtsSRJ2YOovljS-plEz_DDAsYwWoka8sjtQFfN05I0fJaLdQCKl1t1S0d49IqI4b2WGP-w2xyghlh- -ts6ZpZxo-2W4bP_icAmu3Wx7pW19PLqr1e6XtATiCO3-o9zzMATjtuYP1q8yxEb3PkgAvB3r0edUmHMW_0S-2OJm6I_0Ubehx3rYBMbmEfEClGVTGSwKT-O3f-i_Ve6zkBD-uKB_Zdd88nrnlEjuwL8QeV-k5l09j4iHh1hsdMHJOIy0Y_OI1eshgrljlSWFlhRfQy06FBHAudqkITyZoEQ54sUMBxYKnnr9aFAgSD9QbOGnKgbYeA7KKmyFoTZLmX29xAAajeqUY14shWeZg2Y-e8Nefc24tM3rmG13WN0XiPTJvjUf2fPCi9yHnTa4fEUs8MbCeuY8jeJmS5Dn30gl-O5USPQrQs9rMKfQ5Bzh_7MweZ70USuTKp1v-A_IifvSp1C_BL0ssy2oIAnoE2GvYLrMmucAEXCJuGx5_7AHYzvMDmjyzr2pKzJcBQzZTRJpNub5qlz2DHCBvf3q0_gqWSwicyU3WHsWM_ZD0LcZwoE-hCYYRJTT-cLXs03_1eUfd8XGNF8mhMjIitqgXesVP_lhtzz_doJMgrTk58UoWeTVf6yCi0NzMyovKw9bghM5pj888fveKcOwQaIFiVtX7t1DmsNU-LzcFfivhckjYg6UtWrkeAuVX_]--></g></svg>