<?xml version="1.0" encoding="us-ascii" standalone="no"?><svg xmlns="http://www.w3.org/2000/svg" xmlns:xlink="http://www.w3.org/1999/xlink" contentStyleType="text/css" height="1730px" preserveAspectRatio="none" style="width:821px;height:1730px;background:#FFFFFF;" version="1.1" viewBox="0 0 821 1730" width="821px" zoomAndPan="magnify"><defs/><g><!--class Employee--><g id="elem_Employee"><rect codeLine="2" fill="#F1F1F1" height="328.3008" id="Employee" rx="2.5" ry="2.5" style="stroke:#181818;stroke-width:0.5;" width="362" x="46" y="7"/><ellipse cx="187.25" cy="23" fill="#ADD1B2" rx="11" ry="11" style="stroke:#181818;stroke-width:1.0;"/><path d="M191.3643,29 L183.6445,29 L183.6445,16.6069 L191.3643,16.6069 L191.3643,18.7651 L186.0933,18.7651 L186.0933,21.438 L190.8662,21.438 L190.8662,23.5962 L186.0933,23.5962 L186.0933,26.8418 L191.3643,26.8418 Z " fill="#000000"/><text fill="#000000" font-family="sans-serif" font-size="14" lengthAdjust="spacing" textLength="71" x="207.75" y="28.291">EMPLOYEE</text><line style="stroke:#181818;stroke-width:0.5;" x1="47" x2="407" y1="39" y2="39"/><ellipse cx="57" cy="52.7441" fill="none" rx="3" ry="3" style="stroke:#038048;stroke-width:1.0;"/><text fill="#000000" font-family="sans-serif" font-size="14" lengthAdjust="spacing" textLength="102" x="66" y="56.5352">E_Bdate : DATE</text><ellipse cx="57" cy="69.2324" fill="none" rx="3" ry="3" style="stroke:#038048;stroke-width:1.0;"/><text fill="#000000" font-family="sans-serif" font-size="14" lengthAdjust="spacing" textLength="77" x="66" y="73.0234">E_Age : INT</text><ellipse cx="57" cy="85.7207" fill="none" rx="3" ry="3" style="stroke:#038048;stroke-width:1.0;"/><text fill="#000000" font-family="sans-serif" font-size="14" lengthAdjust="spacing" textLength="180" x="66" y="89.5117">E_Jdate : DATE [NOT NULL]</text><ellipse cx="57" cy="102.209" fill="none" rx="3" ry="3" style="stroke:#038048;stroke-width:1.0;"/><text fill="#000000" font-family="sans-serif" font-size="14" lengthAdjust="spacing" textLength="137" x="66" y="106">created_date : DATE</text><ellipse cx="57" cy="118.6973" fill="none" rx="3" ry="3" style="stroke:#038048;stroke-width:1.0;"/><text fill="#000000" font-family="sans-serif" font-size="14" lengthAdjust="spacing" textLength="143" x="66" y="122.4883">updated_date : DATE</text><line style="stroke:#181818;stroke-width:0.5;" x1="47" x2="407" y1="129.4414" y2="129.4414"/><ellipse cx="57" cy="143.1855" fill="#84BE84" rx="3" ry="3" style="stroke:#038048;stroke-width:1.0;"/><text fill="#000000" font-family="sans-serif" font-size="14" lengthAdjust="spacing" textLength="167" x="66" y="146.9766">E_ID : VARCHAR(50) [PK]</text><ellipse cx="57" cy="159.6738" fill="#84BE84" rx="3" ry="3" style="stroke:#038048;stroke-width:1.0;"/><text fill="#000000" font-family="sans-serif" font-size="14" lengthAdjust="spacing" textLength="336" x="66" y="163.4648">E_Username: VARCHAR(50) [NOT NULL] [UNIQUE]</text><ellipse cx="57" cy="176.1621" fill="#84BE84" rx="3" ry="3" style="stroke:#038048;stroke-width:1.0;"/><text fill="#000000" font-family="sans-serif" font-size="14" lengthAdjust="spacing" textLength="259" x="66" y="179.9531">E_Fname : VARCHAR(255) [NOT NULL]</text><ellipse cx="57" cy="192.6504" fill="#84BE84" rx="3" ry="3" style="stroke:#038048;stroke-width:1.0;"/><text fill="#000000" font-family="sans-serif" font-size="14" lengthAdjust="spacing" textLength="258" x="66" y="196.4414">E_Lname : VARCHAR(255) [NOT NULL]</text><ellipse cx="57" cy="209.1387" fill="#84BE84" rx="3" ry="3" style="stroke:#038048;stroke-width:1.0;"/><text fill="#000000" font-family="sans-serif" font-size="14" lengthAdjust="spacing" textLength="192" x="66" y="212.9297">E_Sex : CHAR(1) [NOT NULL]</text><ellipse cx="57" cy="225.627" fill="#84BE84" rx="3" ry="3" style="stroke:#038048;stroke-width:1.0;"/><text fill="#000000" font-family="sans-serif" font-size="14" lengthAdjust="spacing" textLength="237" x="66" y="229.418">E_Type : VARCHAR(50) [NOT NULL]</text><ellipse cx="57" cy="242.1152" fill="#84BE84" rx="3" ry="3" style="stroke:#038048;stroke-width:1.0;"/><text fill="#000000" font-family="sans-serif" font-size="14" lengthAdjust="spacing" textLength="159" x="66" y="245.9063">E_Add : VARCHAR(255)</text><ellipse cx="57" cy="258.6035" fill="#84BE84" rx="3" ry="3" style="stroke:#038048;stroke-width:1.0;"/><text fill="#000000" font-family="sans-serif" font-size="14" lengthAdjust="spacing" textLength="159" x="66" y="262.3945">E_Mail : VARCHAR(255)</text><ellipse cx="57" cy="275.0918" fill="#84BE84" rx="3" ry="3" style="stroke:#038048;stroke-width:1.0;"/><text fill="#000000" font-family="sans-serif" font-size="14" lengthAdjust="spacing" textLength="157" x="66" y="278.8828">E_Phno : VARCHAR(20)</text><ellipse cx="57" cy="291.5801" fill="#84BE84" rx="3" ry="3" style="stroke:#038048;stroke-width:1.0;"/><text fill="#000000" font-family="sans-serif" font-size="14" lengthAdjust="spacing" textLength="153" x="66" y="295.3711">E_Sal : DECIMAL(10, 2)</text><ellipse cx="57" cy="308.0684" fill="#84BE84" rx="3" ry="3" style="stroke:#038048;stroke-width:1.0;"/><text fill="#000000" font-family="sans-serif" font-size="14" lengthAdjust="spacing" textLength="181" x="66" y="311.8594">created_by : VARCHAR(36)</text><ellipse cx="57" cy="324.5566" fill="#84BE84" rx="3" ry="3" style="stroke:#038048;stroke-width:1.0;"/><text fill="#000000" font-family="sans-serif" font-size="14" lengthAdjust="spacing" textLength="187" x="66" y="328.3477">updated_by : VARCHAR(36)</text></g><!--class Suppliers--><g id="elem_Suppliers"><rect codeLine="22" fill="#F1F1F1" height="196.3945" id="Suppliers" rx="2.5" ry="2.5" style="stroke:#181818;stroke-width:0.5;" width="296" x="7" y="655.18"/><ellipse cx="115.75" cy="671.18" fill="#ADD1B2" rx="11" ry="11" style="stroke:#181818;stroke-width:1.0;"/><path d="M119.8643,677.18 L112.1445,677.18 L112.1445,664.7869 L119.8643,664.7869 L119.8643,666.9451 L114.5933,666.9451 L114.5933,669.618 L119.3662,669.618 L119.3662,671.7762 L114.5933,671.7762 L114.5933,675.0218 L119.8643,675.0218 Z " fill="#000000"/><text fill="#000000" font-family="sans-serif" font-size="14" lengthAdjust="spacing" textLength="70" x="136.25" y="676.471">SUPPLIERS</text><line style="stroke:#181818;stroke-width:0.5;" x1="8" x2="302" y1="687.18" y2="687.18"/><ellipse cx="18" cy="700.9241" fill="none" rx="3" ry="3" style="stroke:#038048;stroke-width:1.0;"/><text fill="#000000" font-family="sans-serif" font-size="14" lengthAdjust="spacing" textLength="137" x="27" y="704.7152">created_date : DATE</text><ellipse cx="18" cy="717.4124" fill="none" rx="3" ry="3" style="stroke:#038048;stroke-width:1.0;"/><text fill="#000000" font-family="sans-serif" font-size="14" lengthAdjust="spacing" textLength="143" x="27" y="721.2034">updated_date : DATE</text><line style="stroke:#181818;stroke-width:0.5;" x1="8" x2="302" y1="728.1566" y2="728.1566"/><ellipse cx="18" cy="741.9007" fill="#84BE84" rx="3" ry="3" style="stroke:#038048;stroke-width:1.0;"/><text fill="#000000" font-family="sans-serif" font-size="14" lengthAdjust="spacing" textLength="185" x="27" y="745.6917">Sup_ID : VARCHAR(50) [PK]</text><ellipse cx="18" cy="758.389" fill="#84BE84" rx="3" ry="3" style="stroke:#038048;stroke-width:1.0;"/><text fill="#000000" font-family="sans-serif" font-size="14" lengthAdjust="spacing" textLength="270" x="27" y="762.18">Sup_Name : VARCHAR(255) [NOT NULL]</text><ellipse cx="18" cy="774.8773" fill="#84BE84" rx="3" ry="3" style="stroke:#038048;stroke-width:1.0;"/><text fill="#000000" font-family="sans-serif" font-size="14" lengthAdjust="spacing" textLength="259" x="27" y="778.6683">Sup_Add : VARCHAR(255) [NOT NULL]</text><ellipse cx="18" cy="791.3655" fill="#84BE84" rx="3" ry="3" style="stroke:#038048;stroke-width:1.0;"/><text fill="#000000" font-family="sans-serif" font-size="14" lengthAdjust="spacing" textLength="257" x="27" y="795.1566">Sup_Phno : VARCHAR(20) [NOT NULL]</text><ellipse cx="18" cy="807.8538" fill="#84BE84" rx="3" ry="3" style="stroke:#038048;stroke-width:1.0;"/><text fill="#000000" font-family="sans-serif" font-size="14" lengthAdjust="spacing" textLength="177" x="27" y="811.6448">Sup_Mail : VARCHAR(255)</text><ellipse cx="18" cy="824.3421" fill="#84BE84" rx="3" ry="3" style="stroke:#038048;stroke-width:1.0;"/><text fill="#000000" font-family="sans-serif" font-size="14" lengthAdjust="spacing" textLength="181" x="27" y="828.1331">created_by : VARCHAR(36)</text><ellipse cx="18" cy="840.8304" fill="#84BE84" rx="3" ry="3" style="stroke:#038048;stroke-width:1.0;"/><text fill="#000000" font-family="sans-serif" font-size="14" lengthAdjust="spacing" textLength="187" x="27" y="844.6214">updated_by : VARCHAR(36)</text></g><!--class Customer--><g id="elem_Customer"><rect codeLine="34" fill="#F1F1F1" height="229.3711" id="Customer" rx="2.5" ry="2.5" style="stroke:#181818;stroke-width:0.5;" width="287" x="203.5" y="881.58"/><ellipse cx="304.25" cy="897.58" fill="#ADD1B2" rx="11" ry="11" style="stroke:#181818;stroke-width:1.0;"/><path d="M308.3643,903.58 L300.6445,903.58 L300.6445,891.1869 L308.3643,891.1869 L308.3643,893.3451 L303.0933,893.3451 L303.0933,896.018 L307.8662,896.018 L307.8662,898.1762 L303.0933,898.1762 L303.0933,901.4218 L308.3643,901.4218 Z " fill="#000000"/><text fill="#000000" font-family="sans-serif" font-size="14" lengthAdjust="spacing" textLength="77" x="324.75" y="902.871">CUSTOMER</text><line style="stroke:#181818;stroke-width:0.5;" x1="204.5" x2="489.5" y1="913.58" y2="913.58"/><ellipse cx="214.5" cy="927.3241" fill="none" rx="3" ry="3" style="stroke:#038048;stroke-width:1.0;"/><text fill="#000000" font-family="sans-serif" font-size="14" lengthAdjust="spacing" textLength="161" x="223.5" y="931.1152">C_Age : INT [NOT NULL]</text><ellipse cx="214.5" cy="943.8124" fill="none" rx="3" ry="3" style="stroke:#038048;stroke-width:1.0;"/><text fill="#000000" font-family="sans-serif" font-size="14" lengthAdjust="spacing" textLength="137" x="223.5" y="947.6034">created_date : DATE</text><ellipse cx="214.5" cy="960.3007" fill="none" rx="3" ry="3" style="stroke:#038048;stroke-width:1.0;"/><text fill="#000000" font-family="sans-serif" font-size="14" lengthAdjust="spacing" textLength="143" x="223.5" y="964.0917">updated_date : DATE</text><line style="stroke:#181818;stroke-width:0.5;" x1="204.5" x2="489.5" y1="971.0448" y2="971.0448"/><ellipse cx="214.5" cy="984.789" fill="#84BE84" rx="3" ry="3" style="stroke:#038048;stroke-width:1.0;"/><text fill="#000000" font-family="sans-serif" font-size="14" lengthAdjust="spacing" textLength="169" x="223.5" y="988.58">C_ID : VARCHAR(50) [PK]</text><ellipse cx="214.5" cy="1001.2773" fill="#84BE84" rx="3" ry="3" style="stroke:#038048;stroke-width:1.0;"/><text fill="#000000" font-family="sans-serif" font-size="14" lengthAdjust="spacing" textLength="261" x="223.5" y="1005.0683">C_Fname : VARCHAR(255) [NOT NULL]</text><ellipse cx="214.5" cy="1017.7655" fill="#84BE84" rx="3" ry="3" style="stroke:#038048;stroke-width:1.0;"/><text fill="#000000" font-family="sans-serif" font-size="14" lengthAdjust="spacing" textLength="260" x="223.5" y="1021.5566">C_Lname : VARCHAR(255) [NOT NULL]</text><ellipse cx="214.5" cy="1034.2538" fill="#84BE84" rx="3" ry="3" style="stroke:#038048;stroke-width:1.0;"/><text fill="#000000" font-family="sans-serif" font-size="14" lengthAdjust="spacing" textLength="194" x="223.5" y="1038.0448">C_Sex : CHAR(1) [NOT NULL]</text><ellipse cx="214.5" cy="1050.7421" fill="#84BE84" rx="3" ry="3" style="stroke:#038048;stroke-width:1.0;"/><text fill="#000000" font-family="sans-serif" font-size="14" lengthAdjust="spacing" textLength="241" x="223.5" y="1054.5331">C_Phno : VARCHAR(20) [NOT NULL]</text><ellipse cx="214.5" cy="1067.2304" fill="#84BE84" rx="3" ry="3" style="stroke:#038048;stroke-width:1.0;"/><text fill="#000000" font-family="sans-serif" font-size="14" lengthAdjust="spacing" textLength="161" x="223.5" y="1071.0214">C_Mail : VARCHAR(255)</text><ellipse cx="214.5" cy="1083.7187" fill="#84BE84" rx="3" ry="3" style="stroke:#038048;stroke-width:1.0;"/><text fill="#000000" font-family="sans-serif" font-size="14" lengthAdjust="spacing" textLength="181" x="223.5" y="1087.5097">created_by : VARCHAR(36)</text><ellipse cx="214.5" cy="1100.207" fill="#84BE84" rx="3" ry="3" style="stroke:#038048;stroke-width:1.0;"/><text fill="#000000" font-family="sans-serif" font-size="14" lengthAdjust="spacing" textLength="187" x="223.5" y="1103.998">updated_by : VARCHAR(36)</text></g><!--class Meds--><g id="elem_Meds"><rect codeLine="48" fill="#F1F1F1" height="212.8828" id="Meds" rx="2.5" ry="2.5" style="stroke:#181818;stroke-width:0.5;" width="312" x="359" y="1187.95"/><ellipse cx="491.75" cy="1203.95" fill="#ADD1B2" rx="11" ry="11" style="stroke:#181818;stroke-width:1.0;"/><path d="M495.8643,1209.95 L488.1445,1209.95 L488.1445,1197.5569 L495.8643,1197.5569 L495.8643,1199.7151 L490.5933,1199.7151 L490.5933,1202.388 L495.3662,1202.388 L495.3662,1204.5462 L490.5933,1204.5462 L490.5933,1207.7918 L495.8643,1207.7918 Z " fill="#000000"/><text fill="#000000" font-family="sans-serif" font-size="14" lengthAdjust="spacing" textLength="38" x="512.25" y="1209.241">MEDS</text><line style="stroke:#181818;stroke-width:0.5;" x1="360" x2="670" y1="1219.95" y2="1219.95"/><ellipse cx="370" cy="1233.6941" fill="none" rx="3" ry="3" style="stroke:#038048;stroke-width:1.0;"/><text fill="#000000" font-family="sans-serif" font-size="14" lengthAdjust="spacing" textLength="176" x="379" y="1237.4852">Med_Qty : INT [NOT NULL]</text><ellipse cx="370" cy="1250.1824" fill="none" rx="3" ry="3" style="stroke:#038048;stroke-width:1.0;"/><text fill="#000000" font-family="sans-serif" font-size="14" lengthAdjust="spacing" textLength="137" x="379" y="1253.9734">created_date : DATE</text><ellipse cx="370" cy="1266.6707" fill="none" rx="3" ry="3" style="stroke:#038048;stroke-width:1.0;"/><text fill="#000000" font-family="sans-serif" font-size="14" lengthAdjust="spacing" textLength="143" x="379" y="1270.4617">updated_date : DATE</text><line style="stroke:#181818;stroke-width:0.5;" x1="360" x2="670" y1="1277.4148" y2="1277.4148"/><ellipse cx="370" cy="1291.159" fill="#84BE84" rx="3" ry="3" style="stroke:#038048;stroke-width:1.0;"/><text fill="#000000" font-family="sans-serif" font-size="14" lengthAdjust="spacing" textLength="188" x="379" y="1294.95">Med_ID : VARCHAR(50) [PK]</text><ellipse cx="370" cy="1307.6473" fill="#84BE84" rx="3" ry="3" style="stroke:#038048;stroke-width:1.0;"/><text fill="#000000" font-family="sans-serif" font-size="14" lengthAdjust="spacing" textLength="273" x="379" y="1311.4383">Med_Name : VARCHAR(255) [NOT NULL]</text><ellipse cx="370" cy="1324.1355" fill="#84BE84" rx="3" ry="3" style="stroke:#038048;stroke-width:1.0;"/><text fill="#000000" font-family="sans-serif" font-size="14" lengthAdjust="spacing" textLength="269" x="379" y="1327.9266">Med_Price : DECIMAL(10, 2) [NOT NULL]</text><ellipse cx="370" cy="1340.6238" fill="#84BE84" rx="3" ry="3" style="stroke:#038048;stroke-width:1.0;"/><text fill="#000000" font-family="sans-serif" font-size="14" lengthAdjust="spacing" textLength="260" x="379" y="1344.4148">Category : VARCHAR(255) [NOT NULL]</text><ellipse cx="370" cy="1357.1121" fill="#84BE84" rx="3" ry="3" style="stroke:#038048;stroke-width:1.0;"/><text fill="#000000" font-family="sans-serif" font-size="14" lengthAdjust="spacing" textLength="286" x="379" y="1360.9031">Location_Rack : VARCHAR(50) [NOT NULL]</text><ellipse cx="370" cy="1373.6004" fill="#84BE84" rx="3" ry="3" style="stroke:#038048;stroke-width:1.0;"/><text fill="#000000" font-family="sans-serif" font-size="14" lengthAdjust="spacing" textLength="181" x="379" y="1377.3914">created_by : VARCHAR(36)</text><ellipse cx="370" cy="1390.0887" fill="#84BE84" rx="3" ry="3" style="stroke:#038048;stroke-width:1.0;"/><text fill="#000000" font-family="sans-serif" font-size="14" lengthAdjust="spacing" textLength="187" x="379" y="1393.8797">updated_by : VARCHAR(36)</text></g><!--class Purchase--><g id="elem_Purchase"><rect codeLine="61" fill="#F1F1F1" height="245.8594" id="Purchase" rx="2.5" ry="2.5" style="stroke:#181818;stroke-width:0.5;" width="272" x="44" y="1477.83"/><ellipse cx="139.25" cy="1493.83" fill="#ADD1B2" rx="11" ry="11" style="stroke:#181818;stroke-width:1.0;"/><path d="M143.3643,1499.83 L135.6445,1499.83 L135.6445,1487.4369 L143.3643,1487.4369 L143.3643,1489.5951 L138.0933,1489.5951 L138.0933,1492.268 L142.8662,1492.268 L142.8662,1494.4262 L138.0933,1494.4262 L138.0933,1497.6718 L143.3643,1497.6718 Z " fill="#000000"/><text fill="#000000" font-family="sans-serif" font-size="14" lengthAdjust="spacing" textLength="73" x="159.75" y="1499.121">PURCHASE</text><line style="stroke:#181818;stroke-width:0.5;" x1="45" x2="315" y1="1509.83" y2="1509.83"/><ellipse cx="55" cy="1523.5741" fill="none" rx="3" ry="3" style="stroke:#038048;stroke-width:1.0;"/><text fill="#000000" font-family="sans-serif" font-size="14" lengthAdjust="spacing" textLength="155" x="64" y="1527.3652">P_Qty : INT [NOT NULL]</text><ellipse cx="55" cy="1540.0624" fill="none" rx="3" ry="3" style="stroke:#038048;stroke-width:1.0;"/><text fill="#000000" font-family="sans-serif" font-size="14" lengthAdjust="spacing" textLength="192" x="64" y="1543.8534">Pur_Date : DATE [NOT NULL]</text><ellipse cx="55" cy="1556.5507" fill="none" rx="3" ry="3" style="stroke:#038048;stroke-width:1.0;"/><text fill="#000000" font-family="sans-serif" font-size="14" lengthAdjust="spacing" textLength="195" x="64" y="1560.3417">Mfg_Date : DATE [NOT NULL]</text><ellipse cx="55" cy="1573.039" fill="none" rx="3" ry="3" style="stroke:#038048;stroke-width:1.0;"/><text fill="#000000" font-family="sans-serif" font-size="14" lengthAdjust="spacing" textLength="195" x="64" y="1576.83">Exp_Date : DATE [NOT NULL]</text><ellipse cx="55" cy="1589.5273" fill="none" rx="3" ry="3" style="stroke:#038048;stroke-width:1.0;"/><text fill="#000000" font-family="sans-serif" font-size="14" lengthAdjust="spacing" textLength="137" x="64" y="1593.3183">created_date : DATE</text><ellipse cx="55" cy="1606.0155" fill="none" rx="3" ry="3" style="stroke:#038048;stroke-width:1.0;"/><text fill="#000000" font-family="sans-serif" font-size="14" lengthAdjust="spacing" textLength="143" x="64" y="1609.8066">updated_date : DATE</text><line style="stroke:#181818;stroke-width:0.5;" x1="45" x2="315" y1="1616.7597" y2="1616.7597"/><ellipse cx="55" cy="1630.5038" fill="#84BE84" rx="3" ry="3" style="stroke:#038048;stroke-width:1.0;"/><text fill="#000000" font-family="sans-serif" font-size="14" lengthAdjust="spacing" textLength="167" x="64" y="1634.2948">P_ID : VARCHAR(50) [PK]</text><ellipse cx="55" cy="1646.9921" fill="#84BE84" rx="3" ry="3" style="stroke:#038048;stroke-width:1.0;"/><text fill="#000000" font-family="sans-serif" font-size="14" lengthAdjust="spacing" textLength="188" x="64" y="1650.7831">Med_ID : VARCHAR(50) [FK]</text><ellipse cx="55" cy="1663.4804" fill="#84BE84" rx="3" ry="3" style="stroke:#038048;stroke-width:1.0;"/><text fill="#000000" font-family="sans-serif" font-size="14" lengthAdjust="spacing" textLength="185" x="64" y="1667.2714">Sup_ID : VARCHAR(50) [FK]</text><ellipse cx="55" cy="1679.9687" fill="#84BE84" rx="3" ry="3" style="stroke:#038048;stroke-width:1.0;"/><text fill="#000000" font-family="sans-serif" font-size="14" lengthAdjust="spacing" textLength="246" x="64" y="1683.7597">P_Cost : DECIMAL(10, 2) [NOT NULL]</text><ellipse cx="55" cy="1696.457" fill="#84BE84" rx="3" ry="3" style="stroke:#038048;stroke-width:1.0;"/><text fill="#000000" font-family="sans-serif" font-size="14" lengthAdjust="spacing" textLength="181" x="64" y="1700.248">created_by : VARCHAR(36)</text><ellipse cx="55" cy="1712.9452" fill="#84BE84" rx="3" ry="3" style="stroke:#038048;stroke-width:1.0;"/><text fill="#000000" font-family="sans-serif" font-size="14" lengthAdjust="spacing" textLength="187" x="64" y="1716.7363">updated_by : VARCHAR(36)</text></g><!--class Sales--><g id="elem_Sales"><rect codeLine="76" fill="#F1F1F1" height="212.8828" id="Sales" rx="2.5" ry="2.5" style="stroke:#181818;stroke-width:0.5;" width="296" x="272" y="412.3"/><ellipse cx="395.25" cy="428.3" fill="#ADD1B2" rx="11" ry="11" style="stroke:#181818;stroke-width:1.0;"/><path d="M399.3643,434.3 L391.6445,434.3 L391.6445,421.9069 L399.3643,421.9069 L399.3643,424.0651 L394.0933,424.0651 L394.0933,426.738 L398.8662,426.738 L398.8662,428.8962 L394.0933,428.8962 L394.0933,432.1418 L399.3643,432.1418 Z " fill="#000000"/><text fill="#000000" font-family="sans-serif" font-size="14" lengthAdjust="spacing" textLength="41" x="415.75" y="433.591">SALES</text><line style="stroke:#181818;stroke-width:0.5;" x1="273" x2="567" y1="444.3" y2="444.3"/><ellipse cx="283" cy="458.0441" fill="none" rx="3" ry="3" style="stroke:#038048;stroke-width:1.0;"/><text fill="#000000" font-family="sans-serif" font-size="14" lengthAdjust="spacing" textLength="177" x="292" y="461.8352">S_Date : DATE [NOT NULL]</text><ellipse cx="283" cy="474.5324" fill="none" rx="3" ry="3" style="stroke:#038048;stroke-width:1.0;"/><text fill="#000000" font-family="sans-serif" font-size="14" lengthAdjust="spacing" textLength="176" x="292" y="478.3234">S_Time : TIME [NOT NULL]</text><ellipse cx="283" cy="491.0207" fill="none" rx="3" ry="3" style="stroke:#038048;stroke-width:1.0;"/><text fill="#000000" font-family="sans-serif" font-size="14" lengthAdjust="spacing" textLength="137" x="292" y="494.8117">created_date : DATE</text><ellipse cx="283" cy="507.509" fill="none" rx="3" ry="3" style="stroke:#038048;stroke-width:1.0;"/><text fill="#000000" font-family="sans-serif" font-size="14" lengthAdjust="spacing" textLength="143" x="292" y="511.3">updated_date : DATE</text><line style="stroke:#181818;stroke-width:0.5;" x1="273" x2="567" y1="518.2531" y2="518.2531"/><ellipse cx="283" cy="531.9973" fill="#84BE84" rx="3" ry="3" style="stroke:#038048;stroke-width:1.0;"/><text fill="#000000" font-family="sans-serif" font-size="14" lengthAdjust="spacing" textLength="187" x="292" y="535.7883">Sale_ID : VARCHAR(50) [PK]</text><ellipse cx="283" cy="548.4855" fill="#84BE84" rx="3" ry="3" style="stroke:#038048;stroke-width:1.0;"/><text fill="#000000" font-family="sans-serif" font-size="14" lengthAdjust="spacing" textLength="270" x="292" y="552.2766">Total_Amt : DECIMAL(10, 2) [NOT NULL]</text><ellipse cx="283" cy="564.9738" fill="#84BE84" rx="3" ry="3" style="stroke:#038048;stroke-width:1.0;"/><text fill="#000000" font-family="sans-serif" font-size="14" lengthAdjust="spacing" textLength="169" x="292" y="568.7648">C_ID : VARCHAR(50) [FK]</text><ellipse cx="283" cy="581.4621" fill="#84BE84" rx="3" ry="3" style="stroke:#038048;stroke-width:1.0;"/><text fill="#000000" font-family="sans-serif" font-size="14" lengthAdjust="spacing" textLength="167" x="292" y="585.2531">E_ID : VARCHAR(50) [FK]</text><ellipse cx="283" cy="597.9504" fill="#84BE84" rx="3" ry="3" style="stroke:#038048;stroke-width:1.0;"/><text fill="#000000" font-family="sans-serif" font-size="14" lengthAdjust="spacing" textLength="181" x="292" y="601.7414">created_by : VARCHAR(36)</text><ellipse cx="283" cy="614.4387" fill="#84BE84" rx="3" ry="3" style="stroke:#038048;stroke-width:1.0;"/><text fill="#000000" font-family="sans-serif" font-size="14" lengthAdjust="spacing" textLength="187" x="292" y="618.2297">updated_by : VARCHAR(36)</text></g><!--class SalesItems--><g id="elem_SalesItems"><rect codeLine="89" fill="#F1F1F1" height="196.3945" id="SalesItems" rx="2.5" ry="2.5" style="stroke:#181818;stroke-width:0.5;" width="289" x="525.5" y="898.06"/><ellipse cx="621.25" cy="914.06" fill="#ADD1B2" rx="11" ry="11" style="stroke:#181818;stroke-width:1.0;"/><path d="M625.3643,920.06 L617.6445,920.06 L617.6445,907.6669 L625.3643,907.6669 L625.3643,909.8251 L620.0933,909.8251 L620.0933,912.498 L624.8662,912.498 L624.8662,914.6562 L620.0933,914.6562 L620.0933,917.9018 L625.3643,917.9018 Z " fill="#000000"/><text fill="#000000" font-family="sans-serif" font-size="14" lengthAdjust="spacing" textLength="89" x="641.75" y="919.351">SALES_ITEMS</text><line style="stroke:#181818;stroke-width:0.5;" x1="526.5" x2="813.5" y1="930.06" y2="930.06"/><ellipse cx="536.5" cy="943.8041" fill="none" rx="3" ry="3" style="stroke:#038048;stroke-width:1.0;"/><text fill="#000000" font-family="sans-serif" font-size="14" lengthAdjust="spacing" textLength="175" x="545.5" y="947.5952">Sale_Qty : INT [NOT NULL]</text><ellipse cx="536.5" cy="960.2924" fill="none" rx="3" ry="3" style="stroke:#038048;stroke-width:1.0;"/><text fill="#000000" font-family="sans-serif" font-size="14" lengthAdjust="spacing" textLength="137" x="545.5" y="964.0834">created_date : DATE</text><ellipse cx="536.5" cy="976.7807" fill="none" rx="3" ry="3" style="stroke:#038048;stroke-width:1.0;"/><text fill="#000000" font-family="sans-serif" font-size="14" lengthAdjust="spacing" textLength="143" x="545.5" y="980.5717">updated_date : DATE</text><line style="stroke:#181818;stroke-width:0.5;" x1="526.5" x2="813.5" y1="987.5248" y2="987.5248"/><ellipse cx="536.5" cy="1001.269" fill="#84BE84" rx="3" ry="3" style="stroke:#038048;stroke-width:1.0;"/><text fill="#000000" font-family="sans-serif" font-size="14" lengthAdjust="spacing" textLength="188" x="545.5" y="1005.06">Med_ID : VARCHAR(50) [FK]</text><ellipse cx="536.5" cy="1017.7573" fill="#84BE84" rx="3" ry="3" style="stroke:#038048;stroke-width:1.0;"/><text fill="#000000" font-family="sans-serif" font-size="14" lengthAdjust="spacing" textLength="187" x="545.5" y="1021.5483">Sale_ID : VARCHAR(50) [FK]</text><ellipse cx="536.5" cy="1034.2455" fill="#84BE84" rx="3" ry="3" style="stroke:#038048;stroke-width:1.0;"/><text fill="#000000" font-family="sans-serif" font-size="14" lengthAdjust="spacing" textLength="263" x="545.5" y="1038.0366">Tot_Price : DECIMAL(10, 2) [NOT NULL]</text><ellipse cx="536.5" cy="1050.7338" fill="#84BE84" rx="3" ry="3" style="stroke:#038048;stroke-width:1.0;"/><text fill="#000000" font-family="sans-serif" font-size="14" lengthAdjust="spacing" textLength="148" x="545.5" y="1054.5248">[PK] (Med_ID, Sale_ID)</text><ellipse cx="536.5" cy="1067.2221" fill="#84BE84" rx="3" ry="3" style="stroke:#038048;stroke-width:1.0;"/><text fill="#000000" font-family="sans-serif" font-size="14" lengthAdjust="spacing" textLength="181" x="545.5" y="1071.0131">created_by : VARCHAR(36)</text><ellipse cx="536.5" cy="1083.7104" fill="#84BE84" rx="3" ry="3" style="stroke:#038048;stroke-width:1.0;"/><text fill="#000000" font-family="sans-serif" font-size="14" lengthAdjust="spacing" textLength="187" x="545.5" y="1087.5014">updated_by : VARCHAR(36)</text></g><!--link Employee to Sales--><g id="link_Employee_Sales"><path codeLine="101" d="M318.27,335.58 C332.8,361.6 338.7165,372.183 352.2365,396.403 " fill="none" id="Employee-to-Sales" style="stroke:#181818;stroke-width:1.0;"/><polygon fill="none" points="361.01,412.12,357.4755,393.4785,346.9975,399.3275,361.01,412.12" style="stroke:#181818;stroke-width:1.0;"/><text fill="#000000" font-family="sans-serif" font-size="13" lengthAdjust="spacing" textLength="55" x="341.79" y="378.8684">E_ID [FK]</text></g><!--link Employee to Suppliers--><g id="link_Employee_Suppliers"><path codeLine="102" d="M206.7,335.71 C193.94,438.6 177.89,567.91 167.09,654.96 " fill="none" id="Employee-Suppliers" style="stroke:#181818;stroke-width:1.0;"/></g><!--link Sales to SalesItems--><g id="link_Sales_SalesItems"><path codeLine="103" d="M452.41,625.26 C481.76,720.49 520.88,846.47 524,851.58 C533.83,867.66 533.9472,869.7373 546.8172,884.3373 " fill="none" id="Sales-to-SalesItems" style="stroke:#181818;stroke-width:1.0;"/><polygon fill="none" points="558.72,897.84,551.3182,880.3697,542.3163,888.3048,558.72,897.84" style="stroke:#181818;stroke-width:1.0;"/><text fill="#000000" font-family="sans-serif" font-size="13" lengthAdjust="spacing" textLength="73" x="525" y="758.4484">Sale_ID [FK]</text></g><!--link SalesItems to Sales--><g id="link_SalesItems_Sales"><path codeLine="105" d="M669.28,897.86 C664.58,825.84 649.09,728.03 603,655.18 C593.38,639.98 594.298,638.4758 581.098,625.6058 " fill="none" id="SalesItems-to-Sales" style="stroke:#181818;stroke-width:1.0;"/><polygon fill="none" points="568.21,613.04,576.9094,629.9018,585.2866,621.3098,568.21,613.04" style="stroke:#181818;stroke-width:1.0;"/><text fill="#000000" font-family="sans-serif" font-size="13" lengthAdjust="spacing" textLength="73" x="665.59" y="758.4484">Sale_ID [FK]</text></g><!--link SalesItems to Meds--><g id="link_SalesItems_Meds"><path codeLine="104" d="M619.03,1094.64 C603.46,1124.39 594.6054,1141.3015 578.7554,1171.5915 " fill="none" id="SalesItems-to-Meds" style="stroke:#181818;stroke-width:1.0;"/><polygon fill="none" points="570.41,1187.54,584.0716,1174.3733,573.4393,1168.8097,570.41,1187.54" style="stroke:#181818;stroke-width:1.0;"/><text fill="#000000" font-family="sans-serif" font-size="13" lengthAdjust="spacing" textLength="74" x="593.5" y="1154.5184">Med_ID [FK]</text></g><!--link Meds to Purchase--><g id="link_Meds_Purchase"><path codeLine="106" d="M398.77,1400.99 C371.66,1425.63 355.8711,1439.9643 328.0311,1465.2643 " fill="none" id="Meds-to-Purchase" style="stroke:#181818;stroke-width:1.0;"/><polygon fill="none" points="314.71,1477.37,332.0663,1469.7046,323.9958,1460.8239,314.71,1477.37" style="stroke:#181818;stroke-width:1.0;"/><text fill="#000000" font-family="sans-serif" font-size="13" lengthAdjust="spacing" textLength="74" x="358.54" y="1444.3984">Med_ID [FK]</text></g><!--link Suppliers to Purchase--><g id="link_Suppliers_Purchase"><path codeLine="107" d="M157.88,851.77 C162.46,1006.55 170.848,1290.4379 175.848,1459.5279 " fill="none" id="Suppliers-to-Purchase" style="stroke:#181818;stroke-width:1.0;"/><polygon fill="none" points="176.38,1477.52,181.8454,1459.3505,169.8506,1459.7052,176.38,1477.52" style="stroke:#181818;stroke-width:1.0;"/><text fill="#000000" font-family="sans-serif" font-size="13" lengthAdjust="spacing" textLength="71" x="167.82" y="1154.5184">Sup_ID [FK]</text></g><!--link Sales to Customer--><g id="link_Sales_Customer"><path codeLine="108" d="M402.7,625.45 C401.1,635.5 399.51,645.53 398,655.18 C386.23,730.54 376.1502,797.5647 366.3502,863.6547 " fill="none" id="Sales-to-Customer" style="stroke:#181818;stroke-width:1.0;"/><polygon fill="none" points="363.71,881.46,372.2853,864.5348,360.4151,862.7746,363.71,881.46" style="stroke:#181818;stroke-width:1.0;"/><text fill="#000000" font-family="sans-serif" font-size="13" lengthAdjust="spacing" textLength="57" x="399" y="758.4484">C_ID [FK]</text></g><!--SRC=[pLPTRvim57tFhx3wb6cjb7RA7l8mYHbNOmFYyZ5fgYhaWPUYGK10fA9j_tqO6qBvC3nbUmEVSw_jutkFJOz5M9JW2XbOttz3w0gG7A0uZPAIKl1h1S1RW3nD1JlmLR7W9yLQRpTlm2F-yYGmDwVPaSIqHp3t3Z1TNNy2ZwwfFRYeuTypSYVTtNRRfGkMleZrCI05OwcAWyIGSc03ckc8Vvk-LFzrZjkH34wPKZ2rTC7vt9bbY2f1q5kd00mIHkC8VZucNMJJ03PX4Ig2cg7ewzlDDRZZa9_HQWs1rzzlC_wzxEHxzvu7dT9WDAWP7mJzMQseg0VRnLZNa6NN1M6VqZGAQPQBYgZ-9JN1K7F- -1XjADuOQwZN66jAxujh1rtRsHl8ggM3fxn8Ofe9vQ14DxYeD-2Yte3dHXX2qfw02-I6_u_O1b9vZHeqQCgp-fJ8pD05vSbe3qKvhY43SHRwTD2k0wcg7HoIh9oPJKzyKeJ9qRE8_rDkI1UN6BjisEPt0pvb_ZF9cxi1pmWzHEyxBZ6DucdjiGUJl9WLlbgefquRj_7Z88FHIog3B-_7Yew45vE8jZvSVSkCMBO5stF2kWaSpHY0JbAGo5FYUPcXv12H1Fit2dgQWuoEZbf1OxbhjEKwBlKhUB9aApaNsWKxEx3cIxbk9hsmjRRFlvkRtnz4lUtuOTRxxU3dby6AyyuXNDfTArmTsa5gPctQkqRwKKep_wiyTLmDjtxKozA-MFeiuJldkJYZlQTtlAGP_XS0]--></g></svg>