<?xml version="1.0" encoding="us-ascii" standalone="no"?><svg xmlns="http://www.w3.org/2000/svg" xmlns:xlink="http://www.w3.org/1999/xlink" contentStyleType="text/css" height="1492px" preserveAspectRatio="none" style="width:616px;height:1492px;background:#FFFFFF;" version="1.1" viewBox="0 0 616 1492" width="616px" zoomAndPan="magnify"><defs/><g><!--class EmpLogin--><g id="elem_EmpLogin"><rect codeLine="1" fill="#F1F1F1" height="97.4648" id="EmpLogin" rx="2.5" ry="2.5" style="stroke:#181818;stroke-width:0.5;" width="242" x="65" y="7"/><ellipse cx="146.75" cy="23" fill="#ADD1B2" rx="11" ry="11" style="stroke:#181818;stroke-width:1.0;"/><path d="M150.8643,29 L143.1445,29 L143.1445,16.6069 L150.8643,16.6069 L150.8643,18.7651 L145.5933,18.7651 L145.5933,21.438 L150.3662,21.438 L150.3662,23.5962 L145.5933,23.5962 L145.5933,26.8418 L150.8643,26.8418 Z " fill="#000000"/><text fill="#000000" font-family="sans-serif" font-size="14" lengthAdjust="spacing" textLength="70" x="167.25" y="28.291">EMPLOGIN</text><line style="stroke:#181818;stroke-width:0.5;" x1="66" x2="306" y1="39" y2="39"/><ellipse cx="76" cy="52.7441" fill="none" rx="3" ry="3" style="stroke:#038048;stroke-width:1.0;"/><text fill="#000000" font-family="sans-serif" font-size="14" lengthAdjust="spacing" textLength="95" x="85" y="56.5352">E_ID : INT [FK]</text><line style="stroke:#181818;stroke-width:0.5;" x1="66" x2="306" y1="63.4883" y2="63.4883"/><ellipse cx="76" cy="77.2324" fill="#84BE84" rx="3" ry="3" style="stroke:#038048;stroke-width:1.0;"/><text fill="#000000" font-family="sans-serif" font-size="14" lengthAdjust="spacing" textLength="216" x="85" y="81.0234">Username : VARCHAR(255) [PK]</text><ellipse cx="76" cy="93.7207" fill="#84BE84" rx="3" ry="3" style="stroke:#038048;stroke-width:1.0;"/><text fill="#000000" font-family="sans-serif" font-size="14" lengthAdjust="spacing" textLength="181" x="85" y="97.5117">Password : VARCHAR(255)</text></g><!--class Employee--><g id="elem_Employee"><rect codeLine="7" fill="#F1F1F1" height="245.8594" id="Employee" rx="2.5" ry="2.5" style="stroke:#181818;stroke-width:0.5;" width="203" x="84.5" y="181.47"/><ellipse cx="146.25" cy="197.47" fill="#ADD1B2" rx="11" ry="11" style="stroke:#181818;stroke-width:1.0;"/><path d="M150.3643,203.47 L142.6445,203.47 L142.6445,191.0769 L150.3643,191.0769 L150.3643,193.2351 L145.0933,193.2351 L145.0933,195.908 L149.8662,195.908 L149.8662,198.0662 L145.0933,198.0662 L145.0933,201.3118 L150.3643,201.3118 Z " fill="#000000"/><text fill="#000000" font-family="sans-serif" font-size="14" lengthAdjust="spacing" textLength="71" x="166.75" y="202.761">EMPLOYEE</text><line style="stroke:#181818;stroke-width:0.5;" x1="85.5" x2="286.5" y1="213.47" y2="213.47"/><ellipse cx="95.5" cy="227.2141" fill="none" rx="3" ry="3" style="stroke:#038048;stroke-width:1.0;"/><text fill="#000000" font-family="sans-serif" font-size="14" lengthAdjust="spacing" textLength="95" x="104.5" y="231.0052">E_ID : INT [PK]</text><ellipse cx="95.5" cy="243.7024" fill="none" rx="3" ry="3" style="stroke:#038048;stroke-width:1.0;"/><text fill="#000000" font-family="sans-serif" font-size="14" lengthAdjust="spacing" textLength="102" x="104.5" y="247.4934">E_Bdate : DATE</text><ellipse cx="95.5" cy="260.1907" fill="none" rx="3" ry="3" style="stroke:#038048;stroke-width:1.0;"/><text fill="#000000" font-family="sans-serif" font-size="14" lengthAdjust="spacing" textLength="77" x="104.5" y="263.9817">E_Age : INT</text><ellipse cx="95.5" cy="276.679" fill="none" rx="3" ry="3" style="stroke:#038048;stroke-width:1.0;"/><text fill="#000000" font-family="sans-serif" font-size="14" lengthAdjust="spacing" textLength="98" x="104.5" y="280.47">E_Jdate : DATE</text><line style="stroke:#181818;stroke-width:0.5;" x1="85.5" x2="286.5" y1="287.4231" y2="287.4231"/><ellipse cx="95.5" cy="301.1673" fill="#84BE84" rx="3" ry="3" style="stroke:#038048;stroke-width:1.0;"/><text fill="#000000" font-family="sans-serif" font-size="14" lengthAdjust="spacing" textLength="177" x="104.5" y="304.9583">E_Fname : VARCHAR(255)</text><ellipse cx="95.5" cy="317.6555" fill="#84BE84" rx="3" ry="3" style="stroke:#038048;stroke-width:1.0;"/><text fill="#000000" font-family="sans-serif" font-size="14" lengthAdjust="spacing" textLength="176" x="104.5" y="321.4466">E_Lname : VARCHAR(255)</text><ellipse cx="95.5" cy="334.1438" fill="#84BE84" rx="3" ry="3" style="stroke:#038048;stroke-width:1.0;"/><text fill="#000000" font-family="sans-serif" font-size="14" lengthAdjust="spacing" textLength="110" x="104.5" y="337.9348">E_Sex : CHAR(1)</text><ellipse cx="95.5" cy="350.6321" fill="#84BE84" rx="3" ry="3" style="stroke:#038048;stroke-width:1.0;"/><text fill="#000000" font-family="sans-serif" font-size="14" lengthAdjust="spacing" textLength="155" x="104.5" y="354.4231">E_Type : VARCHAR(50)</text><ellipse cx="95.5" cy="367.1204" fill="#84BE84" rx="3" ry="3" style="stroke:#038048;stroke-width:1.0;"/><text fill="#000000" font-family="sans-serif" font-size="14" lengthAdjust="spacing" textLength="159" x="104.5" y="370.9114">E_Add : VARCHAR(255)</text><ellipse cx="95.5" cy="383.6087" fill="#84BE84" rx="3" ry="3" style="stroke:#038048;stroke-width:1.0;"/><text fill="#000000" font-family="sans-serif" font-size="14" lengthAdjust="spacing" textLength="159" x="104.5" y="387.3997">E_Mail : VARCHAR(255)</text><ellipse cx="95.5" cy="400.097" fill="#84BE84" rx="3" ry="3" style="stroke:#038048;stroke-width:1.0;"/><text fill="#000000" font-family="sans-serif" font-size="14" lengthAdjust="spacing" textLength="157" x="104.5" y="403.888">E_Phno : VARCHAR(20)</text><ellipse cx="95.5" cy="416.5852" fill="#84BE84" rx="3" ry="3" style="stroke:#038048;stroke-width:1.0;"/><text fill="#000000" font-family="sans-serif" font-size="14" lengthAdjust="spacing" textLength="153" x="104.5" y="420.3763">E_Sal : DECIMAL(10, 2)</text></g><!--class Suppliers--><g id="elem_Suppliers"><rect codeLine="22" fill="#F1F1F1" height="130.4414" id="Suppliers" rx="2.5" ry="2.5" style="stroke:#181818;stroke-width:0.5;" width="214" x="7" y="681.25"/><ellipse cx="74.75" cy="697.25" fill="#ADD1B2" rx="11" ry="11" style="stroke:#181818;stroke-width:1.0;"/><path d="M78.8643,703.25 L71.1445,703.25 L71.1445,690.8569 L78.8643,690.8569 L78.8643,693.0151 L73.5933,693.0151 L73.5933,695.688 L78.3662,695.688 L78.3662,697.8462 L73.5933,697.8462 L73.5933,701.0918 L78.8643,701.0918 Z " fill="#000000"/><text fill="#000000" font-family="sans-serif" font-size="14" lengthAdjust="spacing" textLength="70" x="95.25" y="702.541">SUPPLIERS</text><line style="stroke:#181818;stroke-width:0.5;" x1="8" x2="220" y1="713.25" y2="713.25"/><ellipse cx="18" cy="726.9941" fill="none" rx="3" ry="3" style="stroke:#038048;stroke-width:1.0;"/><text fill="#000000" font-family="sans-serif" font-size="14" lengthAdjust="spacing" textLength="113" x="27" y="730.7852">Sup_ID : INT [PK]</text><line style="stroke:#181818;stroke-width:0.5;" x1="8" x2="220" y1="737.7383" y2="737.7383"/><ellipse cx="18" cy="751.4824" fill="#84BE84" rx="3" ry="3" style="stroke:#038048;stroke-width:1.0;"/><text fill="#000000" font-family="sans-serif" font-size="14" lengthAdjust="spacing" textLength="188" x="27" y="755.2734">Sup_Name : VARCHAR(255)</text><ellipse cx="18" cy="767.9707" fill="#84BE84" rx="3" ry="3" style="stroke:#038048;stroke-width:1.0;"/><text fill="#000000" font-family="sans-serif" font-size="14" lengthAdjust="spacing" textLength="177" x="27" y="771.7617">Sup_Add : VARCHAR(255)</text><ellipse cx="18" cy="784.459" fill="#84BE84" rx="3" ry="3" style="stroke:#038048;stroke-width:1.0;"/><text fill="#000000" font-family="sans-serif" font-size="14" lengthAdjust="spacing" textLength="175" x="27" y="788.25">Sup_Phno : VARCHAR(20)</text><ellipse cx="18" cy="800.9473" fill="#84BE84" rx="3" ry="3" style="stroke:#038048;stroke-width:1.0;"/><text fill="#000000" font-family="sans-serif" font-size="14" lengthAdjust="spacing" textLength="177" x="27" y="804.7383">Sup_Mail : VARCHAR(255)</text></g><!--class Customer--><g id="elem_Customer"><rect codeLine="30" fill="#F1F1F1" height="163.418" id="Customer" rx="2.5" ry="2.5" style="stroke:#181818;stroke-width:0.5;" width="205" x="162.5" y="841.7"/><ellipse cx="222.25" cy="857.7" fill="#ADD1B2" rx="11" ry="11" style="stroke:#181818;stroke-width:1.0;"/><path d="M226.3643,863.7 L218.6445,863.7 L218.6445,851.3069 L226.3643,851.3069 L226.3643,853.4651 L221.0933,853.4651 L221.0933,856.138 L225.8662,856.138 L225.8662,858.2962 L221.0933,858.2962 L221.0933,861.5418 L226.3643,861.5418 Z " fill="#000000"/><text fill="#000000" font-family="sans-serif" font-size="14" lengthAdjust="spacing" textLength="77" x="242.75" y="862.991">CUSTOMER</text><line style="stroke:#181818;stroke-width:0.5;" x1="163.5" x2="366.5" y1="873.7" y2="873.7"/><ellipse cx="173.5" cy="887.4441" fill="none" rx="3" ry="3" style="stroke:#038048;stroke-width:1.0;"/><text fill="#000000" font-family="sans-serif" font-size="14" lengthAdjust="spacing" textLength="97" x="182.5" y="891.2352">C_ID : INT [PK]</text><ellipse cx="173.5" cy="903.9324" fill="none" rx="3" ry="3" style="stroke:#038048;stroke-width:1.0;"/><text fill="#000000" font-family="sans-serif" font-size="14" lengthAdjust="spacing" textLength="79" x="182.5" y="907.7234">C_Age : INT</text><line style="stroke:#181818;stroke-width:0.5;" x1="163.5" x2="366.5" y1="914.6766" y2="914.6766"/><ellipse cx="173.5" cy="928.4207" fill="#84BE84" rx="3" ry="3" style="stroke:#038048;stroke-width:1.0;"/><text fill="#000000" font-family="sans-serif" font-size="14" lengthAdjust="spacing" textLength="179" x="182.5" y="932.2117">C_Fname : VARCHAR(255)</text><ellipse cx="173.5" cy="944.909" fill="#84BE84" rx="3" ry="3" style="stroke:#038048;stroke-width:1.0;"/><text fill="#000000" font-family="sans-serif" font-size="14" lengthAdjust="spacing" textLength="178" x="182.5" y="948.7">C_Lname : VARCHAR(255)</text><ellipse cx="173.5" cy="961.3973" fill="#84BE84" rx="3" ry="3" style="stroke:#038048;stroke-width:1.0;"/><text fill="#000000" font-family="sans-serif" font-size="14" lengthAdjust="spacing" textLength="112" x="182.5" y="965.1883">C_Sex : CHAR(1)</text><ellipse cx="173.5" cy="977.8855" fill="#84BE84" rx="3" ry="3" style="stroke:#038048;stroke-width:1.0;"/><text fill="#000000" font-family="sans-serif" font-size="14" lengthAdjust="spacing" textLength="159" x="182.5" y="981.6766">C_Phno : VARCHAR(20)</text><ellipse cx="173.5" cy="994.3738" fill="#84BE84" rx="3" ry="3" style="stroke:#038048;stroke-width:1.0;"/><text fill="#000000" font-family="sans-serif" font-size="14" lengthAdjust="spacing" textLength="161" x="182.5" y="998.1648">C_Mail : VARCHAR(255)</text></g><!--class Meds--><g id="elem_Meds"><rect codeLine="40" fill="#F1F1F1" height="146.9297" id="Meds" rx="2.5" ry="2.5" style="stroke:#181818;stroke-width:0.5;" width="230" x="277" y="1082.11"/><ellipse cx="368.75" cy="1098.11" fill="#ADD1B2" rx="11" ry="11" style="stroke:#181818;stroke-width:1.0;"/><path d="M372.8643,1104.11 L365.1445,1104.11 L365.1445,1091.7169 L372.8643,1091.7169 L372.8643,1093.8751 L367.5933,1093.8751 L367.5933,1096.548 L372.3662,1096.548 L372.3662,1098.7062 L367.5933,1098.7062 L367.5933,1101.9518 L372.8643,1101.9518 Z " fill="#000000"/><text fill="#000000" font-family="sans-serif" font-size="14" lengthAdjust="spacing" textLength="38" x="389.25" y="1103.401">MEDS</text><line style="stroke:#181818;stroke-width:0.5;" x1="278" x2="506" y1="1114.11" y2="1114.11"/><ellipse cx="288" cy="1127.8541" fill="none" rx="3" ry="3" style="stroke:#038048;stroke-width:1.0;"/><text fill="#000000" font-family="sans-serif" font-size="14" lengthAdjust="spacing" textLength="116" x="297" y="1131.6452">Med_ID : INT [PK]</text><ellipse cx="288" cy="1144.3424" fill="none" rx="3" ry="3" style="stroke:#038048;stroke-width:1.0;"/><text fill="#000000" font-family="sans-serif" font-size="14" lengthAdjust="spacing" textLength="94" x="297" y="1148.1334">Med_Qty : INT</text><line style="stroke:#181818;stroke-width:0.5;" x1="278" x2="506" y1="1155.0866" y2="1155.0866"/><ellipse cx="288" cy="1168.8307" fill="#84BE84" rx="3" ry="3" style="stroke:#038048;stroke-width:1.0;"/><text fill="#000000" font-family="sans-serif" font-size="14" lengthAdjust="spacing" textLength="191" x="297" y="1172.6217">Med_Name : VARCHAR(255)</text><ellipse cx="288" cy="1185.319" fill="#84BE84" rx="3" ry="3" style="stroke:#038048;stroke-width:1.0;"/><text fill="#000000" font-family="sans-serif" font-size="14" lengthAdjust="spacing" textLength="187" x="297" y="1189.11">Med_Price : DECIMAL(10, 2)</text><ellipse cx="288" cy="1201.8073" fill="#84BE84" rx="3" ry="3" style="stroke:#038048;stroke-width:1.0;"/><text fill="#000000" font-family="sans-serif" font-size="14" lengthAdjust="spacing" textLength="178" x="297" y="1205.5983">Category : VARCHAR(255)</text><ellipse cx="288" cy="1218.2955" fill="#84BE84" rx="3" ry="3" style="stroke:#038048;stroke-width:1.0;"/><text fill="#000000" font-family="sans-serif" font-size="14" lengthAdjust="spacing" textLength="204" x="297" y="1222.0866">Location_Rack : VARCHAR(50)</text></g><!--class Purchase--><g id="elem_Purchase"><rect codeLine="49" fill="#F1F1F1" height="179.9063" id="Purchase" rx="2.5" ry="2.5" style="stroke:#181818;stroke-width:0.5;" width="190" x="44" y="1306.04"/><ellipse cx="98.25" cy="1322.04" fill="#ADD1B2" rx="11" ry="11" style="stroke:#181818;stroke-width:1.0;"/><path d="M102.3643,1328.04 L94.6445,1328.04 L94.6445,1315.6469 L102.3643,1315.6469 L102.3643,1317.8051 L97.0933,1317.8051 L97.0933,1320.478 L101.8662,1320.478 L101.8662,1322.6362 L97.0933,1322.6362 L97.0933,1325.8818 L102.3643,1325.8818 Z " fill="#000000"/><text fill="#000000" font-family="sans-serif" font-size="14" lengthAdjust="spacing" textLength="73" x="118.75" y="1327.331">PURCHASE</text><line style="stroke:#181818;stroke-width:0.5;" x1="45" x2="233" y1="1338.04" y2="1338.04"/><ellipse cx="55" cy="1351.7841" fill="none" rx="3" ry="3" style="stroke:#038048;stroke-width:1.0;"/><text fill="#000000" font-family="sans-serif" font-size="14" lengthAdjust="spacing" textLength="95" x="64" y="1355.5752">P_ID : INT [PK]</text><ellipse cx="55" cy="1368.2724" fill="none" rx="3" ry="3" style="stroke:#038048;stroke-width:1.0;"/><text fill="#000000" font-family="sans-serif" font-size="14" lengthAdjust="spacing" textLength="116" x="64" y="1372.0634">Med_ID : INT [FK]</text><ellipse cx="55" cy="1384.7607" fill="none" rx="3" ry="3" style="stroke:#038048;stroke-width:1.0;"/><text fill="#000000" font-family="sans-serif" font-size="14" lengthAdjust="spacing" textLength="113" x="64" y="1388.5517">Sup_ID : INT [FK]</text><ellipse cx="55" cy="1401.249" fill="none" rx="3" ry="3" style="stroke:#038048;stroke-width:1.0;"/><text fill="#000000" font-family="sans-serif" font-size="14" lengthAdjust="spacing" textLength="73" x="64" y="1405.04">P_Qty : INT</text><ellipse cx="55" cy="1417.7373" fill="none" rx="3" ry="3" style="stroke:#038048;stroke-width:1.0;"/><text fill="#000000" font-family="sans-serif" font-size="14" lengthAdjust="spacing" textLength="110" x="64" y="1421.5283">Pur_Date : DATE</text><ellipse cx="55" cy="1434.2255" fill="none" rx="3" ry="3" style="stroke:#038048;stroke-width:1.0;"/><text fill="#000000" font-family="sans-serif" font-size="14" lengthAdjust="spacing" textLength="113" x="64" y="1438.0166">Mfg_Date : DATE</text><ellipse cx="55" cy="1450.7138" fill="none" rx="3" ry="3" style="stroke:#038048;stroke-width:1.0;"/><text fill="#000000" font-family="sans-serif" font-size="14" lengthAdjust="spacing" textLength="113" x="64" y="1454.5048">Exp_Date : DATE</text><line style="stroke:#181818;stroke-width:0.5;" x1="45" x2="233" y1="1461.458" y2="1461.458"/><ellipse cx="55" cy="1475.2021" fill="#84BE84" rx="3" ry="3" style="stroke:#038048;stroke-width:1.0;"/><text fill="#000000" font-family="sans-serif" font-size="14" lengthAdjust="spacing" textLength="164" x="64" y="1478.9931">P_Cost : DECIMAL(10, 2)</text></g><!--class Sales--><g id="elem_Sales"><rect codeLine="60" fill="#F1F1F1" height="146.9297" id="Sales" rx="2.5" ry="2.5" style="stroke:#181818;stroke-width:0.5;" width="214" x="231" y="504.33"/><ellipse cx="313.25" cy="520.33" fill="#ADD1B2" rx="11" ry="11" style="stroke:#181818;stroke-width:1.0;"/><path d="M317.3643,526.33 L309.6445,526.33 L309.6445,513.9369 L317.3643,513.9369 L317.3643,516.0951 L312.0933,516.0951 L312.0933,518.768 L316.8662,518.768 L316.8662,520.9262 L312.0933,520.9262 L312.0933,524.1718 L317.3643,524.1718 Z " fill="#000000"/><text fill="#000000" font-family="sans-serif" font-size="14" lengthAdjust="spacing" textLength="41" x="333.75" y="525.621">SALES</text><line style="stroke:#181818;stroke-width:0.5;" x1="232" x2="444" y1="536.33" y2="536.33"/><ellipse cx="242" cy="550.0741" fill="none" rx="3" ry="3" style="stroke:#038048;stroke-width:1.0;"/><text fill="#000000" font-family="sans-serif" font-size="14" lengthAdjust="spacing" textLength="115" x="251" y="553.8652">Sale_ID : INT [PK]</text><ellipse cx="242" cy="566.5624" fill="none" rx="3" ry="3" style="stroke:#038048;stroke-width:1.0;"/><text fill="#000000" font-family="sans-serif" font-size="14" lengthAdjust="spacing" textLength="95" x="251" y="570.3534">S_Date : DATE</text><ellipse cx="242" cy="583.0507" fill="none" rx="3" ry="3" style="stroke:#038048;stroke-width:1.0;"/><text fill="#000000" font-family="sans-serif" font-size="14" lengthAdjust="spacing" textLength="94" x="251" y="586.8417">S_Time : TIME</text><ellipse cx="242" cy="599.539" fill="none" rx="3" ry="3" style="stroke:#038048;stroke-width:1.0;"/><text fill="#000000" font-family="sans-serif" font-size="14" lengthAdjust="spacing" textLength="97" x="251" y="603.33">C_ID : INT [FK]</text><ellipse cx="242" cy="616.0273" fill="none" rx="3" ry="3" style="stroke:#038048;stroke-width:1.0;"/><text fill="#000000" font-family="sans-serif" font-size="14" lengthAdjust="spacing" textLength="95" x="251" y="619.8183">E_ID : INT [FK]</text><line style="stroke:#181818;stroke-width:0.5;" x1="232" x2="444" y1="626.7714" y2="626.7714"/><ellipse cx="242" cy="640.5155" fill="#84BE84" rx="3" ry="3" style="stroke:#038048;stroke-width:1.0;"/><text fill="#000000" font-family="sans-serif" font-size="14" lengthAdjust="spacing" textLength="188" x="251" y="644.3066">Total_Amt : DECIMAL(10, 2)</text></g><!--class SalesItems--><g id="elem_SalesItems"><rect codeLine="69" fill="#F1F1F1" height="130.4414" id="SalesItems" rx="2.5" ry="2.5" style="stroke:#181818;stroke-width:0.5;" width="207" x="402.5" y="858.18"/><ellipse cx="457.25" cy="874.18" fill="#ADD1B2" rx="11" ry="11" style="stroke:#181818;stroke-width:1.0;"/><path d="M461.3643,880.18 L453.6445,880.18 L453.6445,867.7869 L461.3643,867.7869 L461.3643,869.9451 L456.0933,869.9451 L456.0933,872.618 L460.8662,872.618 L460.8662,874.7762 L456.0933,874.7762 L456.0933,878.0218 L461.3643,878.0218 Z " fill="#000000"/><text fill="#000000" font-family="sans-serif" font-size="14" lengthAdjust="spacing" textLength="89" x="477.75" y="879.471">SALES_ITEMS</text><line style="stroke:#181818;stroke-width:0.5;" x1="403.5" x2="608.5" y1="890.18" y2="890.18"/><ellipse cx="413.5" cy="903.9241" fill="none" rx="3" ry="3" style="stroke:#038048;stroke-width:1.0;"/><text fill="#000000" font-family="sans-serif" font-size="14" lengthAdjust="spacing" textLength="116" x="422.5" y="907.7152">Med_ID : INT [FK]</text><ellipse cx="413.5" cy="920.4124" fill="none" rx="3" ry="3" style="stroke:#038048;stroke-width:1.0;"/><text fill="#000000" font-family="sans-serif" font-size="14" lengthAdjust="spacing" textLength="115" x="422.5" y="924.2034">Sale_ID : INT [FK]</text><ellipse cx="413.5" cy="936.9007" fill="none" rx="3" ry="3" style="stroke:#038048;stroke-width:1.0;"/><text fill="#000000" font-family="sans-serif" font-size="14" lengthAdjust="spacing" textLength="93" x="422.5" y="940.6917">Sale_Qty : INT</text><line style="stroke:#181818;stroke-width:0.5;" x1="403.5" x2="608.5" y1="947.6448" y2="947.6448"/><ellipse cx="413.5" cy="961.389" fill="#84BE84" rx="3" ry="3" style="stroke:#038048;stroke-width:1.0;"/><text fill="#000000" font-family="sans-serif" font-size="14" lengthAdjust="spacing" textLength="181" x="422.5" y="965.18">Tot_Price : DECIMAL(10, 2)</text><ellipse cx="413.5" cy="977.8773" fill="#84BE84" rx="3" ry="3" style="stroke:#038048;stroke-width:1.0;"/><text fill="#000000" font-family="sans-serif" font-size="14" lengthAdjust="spacing" textLength="148" x="422.5" y="981.6683">[PK] (Med_ID, Sale_ID)</text></g><!--link EmpLogin to Employee--><g id="link_EmpLogin_Employee"><path codeLine="77" d="M186,104.88 C186,126.89 186,136.07 186,163.18 " fill="none" id="EmpLogin-to-Employee" style="stroke:#181818;stroke-width:1.0;"/><polygon fill="none" points="186,181.18,192,163.18,180,163.18,186,181.18" style="stroke:#181818;stroke-width:1.0;"/><text fill="#000000" font-family="sans-serif" font-size="13" lengthAdjust="spacing" textLength="55" x="187" y="148.0384">E_ID [FK]</text></g><!--link Employee to Sales--><g id="link_Employee_Sales"><path codeLine="78" d="M254.44,427.6 C269.1,453.76 275.3325,464.9064 288.5425,488.4864 " fill="none" id="Employee-to-Sales" style="stroke:#181818;stroke-width:1.0;"/><polygon fill="none" points="297.34,504.19,293.777,485.5539,283.308,491.4189,297.34,504.19" style="stroke:#181818;stroke-width:1.0;"/><text fill="#000000" font-family="sans-serif" font-size="13" lengthAdjust="spacing" textLength="55" x="281.08" y="470.8984">E_ID [FK]</text></g><!--link Employee to Suppliers--><g id="link_Employee_Suppliers"><path codeLine="79" d="M165.99,427.69 C152.57,509.72 135.43,614.49 124.58,680.81 " fill="none" id="Employee-Suppliers" style="stroke:#181818;stroke-width:1.0;"/></g><!--link Sales to SalesItems--><g id="link_Sales_SalesItems"><path codeLine="80" d="M339.31,651.72 C343,699.86 353.39,762.83 381,811.7 C390.48,828.48 390.6328,831.4023 404.6728,845.2023 " fill="none" id="Sales-to-SalesItems" style="stroke:#181818;stroke-width:1.0;"/><polygon fill="none" points="417.51,857.82,408.8787,840.9232,400.4669,849.4813,417.51,857.82" style="stroke:#181818;stroke-width:1.0;"/><text fill="#000000" font-family="sans-serif" font-size="13" lengthAdjust="spacing" textLength="73" x="382" y="751.5484">Sale_ID [FK]</text></g><!--link SalesItems to Sales--><g id="link_SalesItems_Sales"><path codeLine="82" d="M505.32,857.87 C502.16,806.79 491.69,735.3 460,681.25 C453.84,670.76 458.3539,674.1171 449.9139,664.8971 " fill="none" id="SalesItems-to-Sales" style="stroke:#181818;stroke-width:1.0;"/><polygon fill="none" points="437.76,651.62,445.4882,668.9484,454.3396,660.8458,437.76,651.62" style="stroke:#181818;stroke-width:1.0;"/><text fill="#000000" font-family="sans-serif" font-size="13" lengthAdjust="spacing" textLength="73" x="501.03" y="751.5484">Sale_ID [FK]</text></g><!--link SalesItems to Meds--><g id="link_SalesItems_Meds"><path codeLine="81" d="M474.09,988.83 C459.8,1017.69 450.8713,1035.7312 436.1113,1065.5212 " fill="none" id="SalesItems-to-Meds" style="stroke:#181818;stroke-width:1.0;"/><polygon fill="none" points="428.12,1081.65,441.4876,1068.185,430.735,1062.8574,428.12,1081.65" style="stroke:#181818;stroke-width:1.0;"/><text fill="#000000" font-family="sans-serif" font-size="13" lengthAdjust="spacing" textLength="74" x="450" y="1048.6784">Med_ID [FK]</text></g><!--link Meds to Purchase--><g id="link_Meds_Purchase"><path codeLine="83" d="M314.72,1229.41 C289.14,1253.51 273.4921,1268.2676 246.7621,1293.4476 " fill="none" id="Meds-to-Purchase" style="stroke:#181818;stroke-width:1.0;"/><polygon fill="none" points="233.66,1305.79,250.8763,1297.815,242.648,1289.0802,233.66,1305.79" style="stroke:#181818;stroke-width:1.0;"/><text fill="#000000" font-family="sans-serif" font-size="13" lengthAdjust="spacing" textLength="74" x="281.65" y="1272.6084">Med_ID [FK]</text></g><!--link Suppliers to Purchase--><g id="link_Suppliers_Purchase"><path codeLine="84" d="M116.49,811.93 C120.98,928.21 129.7457,1155.2834 134.8557,1287.6634 " fill="none" id="Suppliers-to-Purchase" style="stroke:#181818;stroke-width:1.0;"/><polygon fill="none" points="135.55,1305.65,140.8512,1287.432,128.8602,1287.8948,135.55,1305.65" style="stroke:#181818;stroke-width:1.0;"/><text fill="#000000" font-family="sans-serif" font-size="13" lengthAdjust="spacing" textLength="71" x="126.48" y="1048.6784">Sup_ID [FK]</text></g><!--link Sales to Customer--><g id="link_Sales_Customer"><path codeLine="85" d="M287.19,651.66 C282.31,661.27 278.05,671.27 275,681.25 C259.21,732.95 256.2372,775.7888 257.7272,823.4188 " fill="none" id="Sales-to-Customer" style="stroke:#181818;stroke-width:1.0;"/><polygon fill="none" points="258.29,841.41,263.7243,823.2312,251.7301,823.6064,258.29,841.41" style="stroke:#181818;stroke-width:1.0;"/><text fill="#000000" font-family="sans-serif" font-size="13" lengthAdjust="spacing" textLength="57" x="276" y="751.5484">C_ID [FK]</text></g><!--SRC=[XLHTRvim57tFhx3wb6gjr5RAInucCUDkR91wG2PDLOMin4lH02CWMgEj_tt-m628tRx1FVVZt7kFBwswl3k12nJXyE5piBa0f0Meh4Dso2lmTm701x1jQLEHae8r-E75y8iNB-zMgqlmYByzIGTCslOFQ_Op1ucXBF2vFTYauF6U-xyk5jIi-HCXNRDW9qhxccQOBeEoUmkD7WhTqASzwGJaUodgJTw1gkpzVq9V-ByClDLXwQas4wvkDF3Lac_lQ3uYUM57y7F5J6H8dn0HuICOH5wulBsv0dUNvjYIBSPXWE94pYqvrdMHqwRj1yV_BQCJrerZG09py1UGWwU0RCqPHE4sIHyY54kUyDXshAHDJnDQI4BtVg5xlt2sJ6XP9dHr0T_h8KA-cdD4zth4_DF2NbXT8nROTvvkP2aikCbtz7pLaXTNs84r9rkoaEr8bxCgYydkzqoW1dEy5UP4lIvyR7RFfDMl2pluJv_gkPoq5S-wmHbaRMTlXPVE_Dc3YNuTpcpefPxOJCLx8UhLJWewA9r_swH-bZd9qbpk9GqYPKbPHuhCAnsKeQNbD-wOf9S5AOeCaa57IxjWXj5E-K_Cq_5okc-9HRGEbgh8bKuhjJ0SyklhVn_74xjMtSYIWr6wgFawyF7MB9JV6AAwNGyzoL03aPxo2QtrDAmkkluaZuoJy23ZMPRX1iwzUlcEjPJ7S8pMQjS2_my0]--></g></svg>