<?xml version="1.0" encoding="us-ascii" standalone="no"?><svg xmlns="http://www.w3.org/2000/svg" xmlns:xlink="http://www.w3.org/1999/xlink" contentStyleType="text/css" height="905px" preserveAspectRatio="none" style="width:1724px;height:905px;background:#FFFFFF;" version="1.1" viewBox="0 0 1724 905" width="1724px" zoomAndPan="magnify"><defs/><g><!--class Employee--><g id="elem_Employee"><rect codeLine="2" fill="#F1F1F1" height="328.3008" id="Employee" rx="2.5" ry="2.5" style="stroke:#181818;stroke-width:0.5;" width="362" x="329.5" y="570.28"/><ellipse cx="470.75" cy="586.28" fill="#ADD1B2" rx="11" ry="11" style="stroke:#181818;stroke-width:1.0;"/><path d="M474.8643,592.28 L467.1445,592.28 L467.1445,579.8869 L474.8643,579.8869 L474.8643,582.0451 L469.5933,582.0451 L469.5933,584.718 L474.3662,584.718 L474.3662,586.8762 L469.5933,586.8762 L469.5933,590.1218 L474.8643,590.1218 Z " fill="#000000"/><text fill="#000000" font-family="sans-serif" font-size="14" lengthAdjust="spacing" textLength="71" x="491.25" y="591.571">EMPLOYEE</text><line style="stroke:#181818;stroke-width:0.5;" x1="330.5" x2="690.5" y1="602.28" y2="602.28"/><ellipse cx="340.5" cy="616.0241" fill="none" rx="3" ry="3" style="stroke:#038048;stroke-width:1.0;"/><text fill="#000000" font-family="sans-serif" font-size="14" lengthAdjust="spacing" textLength="102" x="349.5" y="619.8152">E_Bdate : DATE</text><ellipse cx="340.5" cy="632.5124" fill="none" rx="3" ry="3" style="stroke:#038048;stroke-width:1.0;"/><text fill="#000000" font-family="sans-serif" font-size="14" lengthAdjust="spacing" textLength="77" x="349.5" y="636.3034">E_Age : INT</text><ellipse cx="340.5" cy="649.0007" fill="none" rx="3" ry="3" style="stroke:#038048;stroke-width:1.0;"/><text fill="#000000" font-family="sans-serif" font-size="14" lengthAdjust="spacing" textLength="180" x="349.5" y="652.7917">E_Jdate : DATE [NOT NULL]</text><ellipse cx="340.5" cy="665.489" fill="none" rx="3" ry="3" style="stroke:#038048;stroke-width:1.0;"/><text fill="#000000" font-family="sans-serif" font-size="14" lengthAdjust="spacing" textLength="180" x="349.5" y="669.28">created_date : TIMESTAMP</text><ellipse cx="340.5" cy="681.9773" fill="none" rx="3" ry="3" style="stroke:#038048;stroke-width:1.0;"/><text fill="#000000" font-family="sans-serif" font-size="14" lengthAdjust="spacing" textLength="186" x="349.5" y="685.7683">updated_date : TIMESTAMP</text><line style="stroke:#181818;stroke-width:0.5;" x1="330.5" x2="690.5" y1="692.7214" y2="692.7214"/><ellipse cx="340.5" cy="706.4655" fill="#84BE84" rx="3" ry="3" style="stroke:#038048;stroke-width:1.0;"/><text fill="#000000" font-family="sans-serif" font-size="14" lengthAdjust="spacing" textLength="167" x="349.5" y="710.2566">E_ID : VARCHAR(36) [PK]</text><ellipse cx="340.5" cy="722.9538" fill="#84BE84" rx="3" ry="3" style="stroke:#038048;stroke-width:1.0;"/><text fill="#000000" font-family="sans-serif" font-size="14" lengthAdjust="spacing" textLength="336" x="349.5" y="726.7448">E_Username: VARCHAR(50) [NOT NULL] [UNIQUE]</text><ellipse cx="340.5" cy="739.4421" fill="#84BE84" rx="3" ry="3" style="stroke:#038048;stroke-width:1.0;"/><text fill="#000000" font-family="sans-serif" font-size="14" lengthAdjust="spacing" textLength="259" x="349.5" y="743.2331">E_Fname : VARCHAR(255) [NOT NULL]</text><ellipse cx="340.5" cy="755.9304" fill="#84BE84" rx="3" ry="3" style="stroke:#038048;stroke-width:1.0;"/><text fill="#000000" font-family="sans-serif" font-size="14" lengthAdjust="spacing" textLength="258" x="349.5" y="759.7214">E_Lname : VARCHAR(255) [NOT NULL]</text><ellipse cx="340.5" cy="772.4187" fill="#84BE84" rx="3" ry="3" style="stroke:#038048;stroke-width:1.0;"/><text fill="#000000" font-family="sans-serif" font-size="14" lengthAdjust="spacing" textLength="192" x="349.5" y="776.2097">E_Sex : CHAR(1) [NOT NULL]</text><ellipse cx="340.5" cy="788.907" fill="#84BE84" rx="3" ry="3" style="stroke:#038048;stroke-width:1.0;"/><text fill="#000000" font-family="sans-serif" font-size="14" lengthAdjust="spacing" textLength="237" x="349.5" y="792.698">E_Type : VARCHAR(50) [NOT NULL]</text><ellipse cx="340.5" cy="805.3952" fill="#84BE84" rx="3" ry="3" style="stroke:#038048;stroke-width:1.0;"/><text fill="#000000" font-family="sans-serif" font-size="14" lengthAdjust="spacing" textLength="159" x="349.5" y="809.1863">E_Add : VARCHAR(255)</text><ellipse cx="340.5" cy="821.8835" fill="#84BE84" rx="3" ry="3" style="stroke:#038048;stroke-width:1.0;"/><text fill="#000000" font-family="sans-serif" font-size="14" lengthAdjust="spacing" textLength="159" x="349.5" y="825.6745">E_Mail : VARCHAR(255)</text><ellipse cx="340.5" cy="838.3718" fill="#84BE84" rx="3" ry="3" style="stroke:#038048;stroke-width:1.0;"/><text fill="#000000" font-family="sans-serif" font-size="14" lengthAdjust="spacing" textLength="157" x="349.5" y="842.1628">E_Phno : VARCHAR(20)</text><ellipse cx="340.5" cy="854.8601" fill="#84BE84" rx="3" ry="3" style="stroke:#038048;stroke-width:1.0;"/><text fill="#000000" font-family="sans-serif" font-size="14" lengthAdjust="spacing" textLength="153" x="349.5" y="858.6511">E_Sal : DECIMAL(10, 2)</text><ellipse cx="340.5" cy="871.3484" fill="#84BE84" rx="3" ry="3" style="stroke:#038048;stroke-width:1.0;"/><text fill="#000000" font-family="sans-serif" font-size="14" lengthAdjust="spacing" textLength="181" x="349.5" y="875.1394">created_by : VARCHAR(36)</text><ellipse cx="340.5" cy="887.8366" fill="#84BE84" rx="3" ry="3" style="stroke:#038048;stroke-width:1.0;"/><text fill="#000000" font-family="sans-serif" font-size="14" lengthAdjust="spacing" textLength="187" x="349.5" y="891.6277">updated_by : VARCHAR(36)</text></g><!--class Suppliers--><g id="elem_Suppliers"><rect codeLine="22" fill="#F1F1F1" height="196.3945" id="Suppliers" rx="2.5" ry="2.5" style="stroke:#181818;stroke-width:0.5;" width="296" x="542.5" y="296.88"/><ellipse cx="655.25" cy="312.88" fill="#ADD1B2" rx="11" ry="11" style="stroke:#181818;stroke-width:1.0;"/><path d="M659.3643,318.88 L651.6445,318.88 L651.6445,306.4869 L659.3643,306.4869 L659.3643,308.6451 L654.0933,308.6451 L654.0933,311.318 L658.8662,311.318 L658.8662,313.4762 L654.0933,313.4762 L654.0933,316.7218 L659.3643,316.7218 Z " fill="#000000"/><text fill="#000000" font-family="sans-serif" font-size="14" lengthAdjust="spacing" textLength="62" x="675.75" y="318.171">SUPPLIER</text><line style="stroke:#181818;stroke-width:0.5;" x1="543.5" x2="837.5" y1="328.88" y2="328.88"/><ellipse cx="553.5" cy="342.6241" fill="none" rx="3" ry="3" style="stroke:#038048;stroke-width:1.0;"/><text fill="#000000" font-family="sans-serif" font-size="14" lengthAdjust="spacing" textLength="180" x="562.5" y="346.4152">created_date : TIMESTAMP</text><ellipse cx="553.5" cy="359.1124" fill="none" rx="3" ry="3" style="stroke:#038048;stroke-width:1.0;"/><text fill="#000000" font-family="sans-serif" font-size="14" lengthAdjust="spacing" textLength="186" x="562.5" y="362.9034">updated_date : TIMESTAMP</text><line style="stroke:#181818;stroke-width:0.5;" x1="543.5" x2="837.5" y1="369.8566" y2="369.8566"/><ellipse cx="553.5" cy="383.6007" fill="#84BE84" rx="3" ry="3" style="stroke:#038048;stroke-width:1.0;"/><text fill="#000000" font-family="sans-serif" font-size="14" lengthAdjust="spacing" textLength="185" x="562.5" y="387.3917">Sup_ID : VARCHAR(36) [PK]</text><ellipse cx="553.5" cy="400.089" fill="#84BE84" rx="3" ry="3" style="stroke:#038048;stroke-width:1.0;"/><text fill="#000000" font-family="sans-serif" font-size="14" lengthAdjust="spacing" textLength="270" x="562.5" y="403.88">Sup_Name : VARCHAR(255) [NOT NULL]</text><ellipse cx="553.5" cy="416.5773" fill="#84BE84" rx="3" ry="3" style="stroke:#038048;stroke-width:1.0;"/><text fill="#000000" font-family="sans-serif" font-size="14" lengthAdjust="spacing" textLength="259" x="562.5" y="420.3683">Sup_Add : VARCHAR(255) [NOT NULL]</text><ellipse cx="553.5" cy="433.0655" fill="#84BE84" rx="3" ry="3" style="stroke:#038048;stroke-width:1.0;"/><text fill="#000000" font-family="sans-serif" font-size="14" lengthAdjust="spacing" textLength="257" x="562.5" y="436.8566">Sup_Phno : VARCHAR(20) [NOT NULL]</text><ellipse cx="553.5" cy="449.5538" fill="#84BE84" rx="3" ry="3" style="stroke:#038048;stroke-width:1.0;"/><text fill="#000000" font-family="sans-serif" font-size="14" lengthAdjust="spacing" textLength="177" x="562.5" y="453.3448">Sup_Mail : VARCHAR(255)</text><ellipse cx="553.5" cy="466.0421" fill="#84BE84" rx="3" ry="3" style="stroke:#038048;stroke-width:1.0;"/><text fill="#000000" font-family="sans-serif" font-size="14" lengthAdjust="spacing" textLength="181" x="562.5" y="469.8331">created_by : VARCHAR(36)</text><ellipse cx="553.5" cy="482.5304" fill="#84BE84" rx="3" ry="3" style="stroke:#038048;stroke-width:1.0;"/><text fill="#000000" font-family="sans-serif" font-size="14" lengthAdjust="spacing" textLength="187" x="562.5" y="486.3214">updated_by : VARCHAR(36)</text></g><!--class Customer--><g id="elem_Customer"><rect codeLine="34" fill="#F1F1F1" height="229.3711" id="Customer" rx="2.5" ry="2.5" style="stroke:#181818;stroke-width:0.5;" width="287" x="7" y="619.74"/><ellipse cx="107.75" cy="635.74" fill="#ADD1B2" rx="11" ry="11" style="stroke:#181818;stroke-width:1.0;"/><path d="M111.8643,641.74 L104.1445,641.74 L104.1445,629.3469 L111.8643,629.3469 L111.8643,631.5051 L106.5933,631.5051 L106.5933,634.178 L111.3662,634.178 L111.3662,636.3362 L106.5933,636.3362 L106.5933,639.5818 L111.8643,639.5818 Z " fill="#000000"/><text fill="#000000" font-family="sans-serif" font-size="14" lengthAdjust="spacing" textLength="77" x="128.25" y="641.031">CUSTOMER</text><line style="stroke:#181818;stroke-width:0.5;" x1="8" x2="293" y1="651.74" y2="651.74"/><ellipse cx="18" cy="665.4841" fill="none" rx="3" ry="3" style="stroke:#038048;stroke-width:1.0;"/><text fill="#000000" font-family="sans-serif" font-size="14" lengthAdjust="spacing" textLength="79" x="27" y="669.2752">C_Age : INT</text><ellipse cx="18" cy="681.9724" fill="none" rx="3" ry="3" style="stroke:#038048;stroke-width:1.0;"/><text fill="#000000" font-family="sans-serif" font-size="14" lengthAdjust="spacing" textLength="180" x="27" y="685.7634">created_date : TIMESTAMP</text><ellipse cx="18" cy="698.4607" fill="none" rx="3" ry="3" style="stroke:#038048;stroke-width:1.0;"/><text fill="#000000" font-family="sans-serif" font-size="14" lengthAdjust="spacing" textLength="186" x="27" y="702.2517">updated_date : TIMESTAMP</text><line style="stroke:#181818;stroke-width:0.5;" x1="8" x2="293" y1="709.2048" y2="709.2048"/><ellipse cx="18" cy="722.949" fill="#84BE84" rx="3" ry="3" style="stroke:#038048;stroke-width:1.0;"/><text fill="#000000" font-family="sans-serif" font-size="14" lengthAdjust="spacing" textLength="169" x="27" y="726.74">C_ID : VARCHAR(36) [PK]</text><ellipse cx="18" cy="739.4373" fill="#84BE84" rx="3" ry="3" style="stroke:#038048;stroke-width:1.0;"/><text fill="#000000" font-family="sans-serif" font-size="14" lengthAdjust="spacing" textLength="261" x="27" y="743.2283">C_Fname : VARCHAR(255) [NOT NULL]</text><ellipse cx="18" cy="755.9255" fill="#84BE84" rx="3" ry="3" style="stroke:#038048;stroke-width:1.0;"/><text fill="#000000" font-family="sans-serif" font-size="14" lengthAdjust="spacing" textLength="260" x="27" y="759.7166">C_Lname : VARCHAR(255) [NOT NULL]</text><ellipse cx="18" cy="772.4138" fill="#84BE84" rx="3" ry="3" style="stroke:#038048;stroke-width:1.0;"/><text fill="#000000" font-family="sans-serif" font-size="14" lengthAdjust="spacing" textLength="194" x="27" y="776.2048">C_Sex : CHAR(1) [NOT NULL]</text><ellipse cx="18" cy="788.9021" fill="#84BE84" rx="3" ry="3" style="stroke:#038048;stroke-width:1.0;"/><text fill="#000000" font-family="sans-serif" font-size="14" lengthAdjust="spacing" textLength="241" x="27" y="792.6931">C_Phno : VARCHAR(20) [NOT NULL]</text><ellipse cx="18" cy="805.3904" fill="#84BE84" rx="3" ry="3" style="stroke:#038048;stroke-width:1.0;"/><text fill="#000000" font-family="sans-serif" font-size="14" lengthAdjust="spacing" textLength="161" x="27" y="809.1814">C_Mail : VARCHAR(255)</text><ellipse cx="18" cy="821.8787" fill="#84BE84" rx="3" ry="3" style="stroke:#038048;stroke-width:1.0;"/><text fill="#000000" font-family="sans-serif" font-size="14" lengthAdjust="spacing" textLength="181" x="27" y="825.6697">created_by : VARCHAR(36)</text><ellipse cx="18" cy="838.367" fill="#84BE84" rx="3" ry="3" style="stroke:#038048;stroke-width:1.0;"/><text fill="#000000" font-family="sans-serif" font-size="14" lengthAdjust="spacing" textLength="187" x="27" y="842.158">updated_by : VARCHAR(36)</text></g><!--class MedCategory--><g id="elem_MedCategory"><rect codeLine="48" fill="#F1F1F1" height="163.418" id="MedCategory" rx="2.5" ry="2.5" style="stroke:#181818;stroke-width:0.5;" width="293" x="877" y="652.72"/><ellipse cx="962.75" cy="668.72" fill="#ADD1B2" rx="11" ry="11" style="stroke:#181818;stroke-width:1.0;"/><path d="M966.8643,674.72 L959.1445,674.72 L959.1445,662.3269 L966.8643,662.3269 L966.8643,664.4851 L961.5933,664.4851 L961.5933,667.158 L966.3662,667.158 L966.3662,669.3162 L961.5933,669.3162 L961.5933,672.5618 L966.8643,672.5618 Z " fill="#000000"/><text fill="#000000" font-family="sans-serif" font-size="14" lengthAdjust="spacing" textLength="113" x="983.25" y="674.011">MED_CATEGORY</text><line style="stroke:#181818;stroke-width:0.5;" x1="878" x2="1169" y1="684.72" y2="684.72"/><ellipse cx="888" cy="698.4641" fill="none" rx="3" ry="3" style="stroke:#038048;stroke-width:1.0;"/><text fill="#000000" font-family="sans-serif" font-size="14" lengthAdjust="spacing" textLength="180" x="897" y="702.2552">created_date : TIMESTAMP</text><ellipse cx="888" cy="714.9524" fill="none" rx="3" ry="3" style="stroke:#038048;stroke-width:1.0;"/><text fill="#000000" font-family="sans-serif" font-size="14" lengthAdjust="spacing" textLength="186" x="897" y="718.7434">updated_date : TIMESTAMP</text><line style="stroke:#181818;stroke-width:0.5;" x1="878" x2="1169" y1="725.6966" y2="725.6966"/><ellipse cx="888" cy="739.4407" fill="#84BE84" rx="3" ry="3" style="stroke:#038048;stroke-width:1.0;"/><text fill="#000000" font-family="sans-serif" font-size="14" lengthAdjust="spacing" textLength="182" x="897" y="743.2317">Cat_ID : VARCHAR(36) [PK]</text><ellipse cx="888" cy="755.929" fill="#84BE84" rx="3" ry="3" style="stroke:#038048;stroke-width:1.0;"/><text fill="#000000" font-family="sans-serif" font-size="14" lengthAdjust="spacing" textLength="267" x="897" y="759.72">Cat_Name : VARCHAR(255) [NOT NULL]</text><ellipse cx="888" cy="772.4173" fill="#84BE84" rx="3" ry="3" style="stroke:#038048;stroke-width:1.0;"/><text fill="#000000" font-family="sans-serif" font-size="14" lengthAdjust="spacing" textLength="233" x="897" y="776.2083">Cat_Description : VARCHAR(1000)</text><ellipse cx="888" cy="788.9055" fill="#84BE84" rx="3" ry="3" style="stroke:#038048;stroke-width:1.0;"/><text fill="#000000" font-family="sans-serif" font-size="14" lengthAdjust="spacing" textLength="181" x="897" y="792.6966">created_by : VARCHAR(36)</text><ellipse cx="888" cy="805.3938" fill="#84BE84" rx="3" ry="3" style="stroke:#038048;stroke-width:1.0;"/><text fill="#000000" font-family="sans-serif" font-size="14" lengthAdjust="spacing" textLength="187" x="897" y="809.1848">updated_by : VARCHAR(36)</text></g><!--class Meds--><g id="elem_Meds"><rect codeLine="58" fill="#F1F1F1" height="179.9063" id="Meds" rx="2.5" ry="2.5" style="stroke:#181818;stroke-width:0.5;" width="299" x="874" y="305.13"/><ellipse cx="1004.25" cy="321.13" fill="#ADD1B2" rx="11" ry="11" style="stroke:#181818;stroke-width:1.0;"/><path d="M1008.3643,327.13 L1000.6445,327.13 L1000.6445,314.7369 L1008.3643,314.7369 L1008.3643,316.8951 L1003.0933,316.8951 L1003.0933,319.568 L1007.8662,319.568 L1007.8662,321.7262 L1003.0933,321.7262 L1003.0933,324.9718 L1008.3643,324.9718 Z " fill="#000000"/><text fill="#000000" font-family="sans-serif" font-size="14" lengthAdjust="spacing" textLength="30" x="1024.75" y="326.421">MED</text><line style="stroke:#181818;stroke-width:0.5;" x1="875" x2="1172" y1="337.13" y2="337.13"/><ellipse cx="885" cy="350.8741" fill="none" rx="3" ry="3" style="stroke:#038048;stroke-width:1.0;"/><text fill="#000000" font-family="sans-serif" font-size="14" lengthAdjust="spacing" textLength="180" x="894" y="354.6652">created_date : TIMESTAMP</text><ellipse cx="885" cy="367.3624" fill="none" rx="3" ry="3" style="stroke:#038048;stroke-width:1.0;"/><text fill="#000000" font-family="sans-serif" font-size="14" lengthAdjust="spacing" textLength="186" x="894" y="371.1534">updated_date : TIMESTAMP</text><line style="stroke:#181818;stroke-width:0.5;" x1="875" x2="1172" y1="378.1066" y2="378.1066"/><ellipse cx="885" cy="391.8507" fill="#84BE84" rx="3" ry="3" style="stroke:#038048;stroke-width:1.0;"/><text fill="#000000" font-family="sans-serif" font-size="14" lengthAdjust="spacing" textLength="188" x="894" y="395.6417">Med_ID : VARCHAR(36) [PK]</text><ellipse cx="885" cy="408.339" fill="#84BE84" rx="3" ry="3" style="stroke:#038048;stroke-width:1.0;"/><text fill="#000000" font-family="sans-serif" font-size="14" lengthAdjust="spacing" textLength="273" x="894" y="412.13">Med_Name : VARCHAR(255) [NOT NULL]</text><ellipse cx="885" cy="424.8273" fill="#84BE84" rx="3" ry="3" style="stroke:#038048;stroke-width:1.0;"/><text fill="#000000" font-family="sans-serif" font-size="14" lengthAdjust="spacing" textLength="269" x="894" y="428.6183">Med_Price : DECIMAL(10, 2) [NOT NULL]</text><ellipse cx="885" cy="441.3155" fill="#84BE84" rx="3" ry="3" style="stroke:#038048;stroke-width:1.0;"/><text fill="#000000" font-family="sans-serif" font-size="14" lengthAdjust="spacing" textLength="233" x="894" y="445.1066">Cat_ID : VARCHAR(36) [NOT NULL]</text><ellipse cx="885" cy="457.8038" fill="#84BE84" rx="3" ry="3" style="stroke:#038048;stroke-width:1.0;"/><text fill="#000000" font-family="sans-serif" font-size="14" lengthAdjust="spacing" textLength="181" x="894" y="461.5948">created_by : VARCHAR(36)</text><ellipse cx="885" cy="474.2921" fill="#84BE84" rx="3" ry="3" style="stroke:#038048;stroke-width:1.0;"/><text fill="#000000" font-family="sans-serif" font-size="14" lengthAdjust="spacing" textLength="187" x="894" y="478.0831">updated_by : VARCHAR(36)</text></g><!--class Purchase--><g id="elem_Purchase"><rect codeLine="69" fill="#F1F1F1" height="196.3945" id="Purchase" rx="2.5" ry="2.5" style="stroke:#181818;stroke-width:0.5;" width="272" x="785.5" y="15.25"/><ellipse cx="880.75" cy="31.25" fill="#ADD1B2" rx="11" ry="11" style="stroke:#181818;stroke-width:1.0;"/><path d="M884.8643,37.25 L877.1445,37.25 L877.1445,24.8569 L884.8643,24.8569 L884.8643,27.0151 L879.5933,27.0151 L879.5933,29.688 L884.3662,29.688 L884.3662,31.8462 L879.5933,31.8462 L879.5933,35.0918 L884.8643,35.0918 Z " fill="#000000"/><text fill="#000000" font-family="sans-serif" font-size="14" lengthAdjust="spacing" textLength="73" x="901.25" y="36.541">PURCHASE</text><line style="stroke:#181818;stroke-width:0.5;" x1="786.5" x2="1056.5" y1="47.25" y2="47.25"/><ellipse cx="796.5" cy="60.9941" fill="none" rx="3" ry="3" style="stroke:#038048;stroke-width:1.0;"/><text fill="#000000" font-family="sans-serif" font-size="14" lengthAdjust="spacing" textLength="155" x="805.5" y="64.7852">P_Qty : INT [NOT NULL]</text><ellipse cx="796.5" cy="77.4824" fill="none" rx="3" ry="3" style="stroke:#038048;stroke-width:1.0;"/><text fill="#000000" font-family="sans-serif" font-size="14" lengthAdjust="spacing" textLength="180" x="805.5" y="81.2734">created_date : TIMESTAMP</text><ellipse cx="796.5" cy="93.9707" fill="none" rx="3" ry="3" style="stroke:#038048;stroke-width:1.0;"/><text fill="#000000" font-family="sans-serif" font-size="14" lengthAdjust="spacing" textLength="186" x="805.5" y="97.7617">updated_date : TIMESTAMP</text><line style="stroke:#181818;stroke-width:0.5;" x1="786.5" x2="1056.5" y1="104.7148" y2="104.7148"/><ellipse cx="796.5" cy="118.459" fill="#84BE84" rx="3" ry="3" style="stroke:#038048;stroke-width:1.0;"/><text fill="#000000" font-family="sans-serif" font-size="14" lengthAdjust="spacing" textLength="167" x="805.5" y="122.25">P_ID : VARCHAR(36) [PK]</text><ellipse cx="796.5" cy="134.9473" fill="#84BE84" rx="3" ry="3" style="stroke:#038048;stroke-width:1.0;"/><text fill="#000000" font-family="sans-serif" font-size="14" lengthAdjust="spacing" textLength="188" x="805.5" y="138.7383">Med_ID : VARCHAR(36) [FK]</text><ellipse cx="796.5" cy="151.4355" fill="#84BE84" rx="3" ry="3" style="stroke:#038048;stroke-width:1.0;"/><text fill="#000000" font-family="sans-serif" font-size="14" lengthAdjust="spacing" textLength="185" x="805.5" y="155.2266">Sup_ID : VARCHAR(36) [FK]</text><ellipse cx="796.5" cy="167.9238" fill="#84BE84" rx="3" ry="3" style="stroke:#038048;stroke-width:1.0;"/><text fill="#000000" font-family="sans-serif" font-size="14" lengthAdjust="spacing" textLength="246" x="805.5" y="171.7148">P_Cost : DECIMAL(10, 2) [NOT NULL]</text><ellipse cx="796.5" cy="184.4121" fill="#84BE84" rx="3" ry="3" style="stroke:#038048;stroke-width:1.0;"/><text fill="#000000" font-family="sans-serif" font-size="14" lengthAdjust="spacing" textLength="181" x="805.5" y="188.2031">created_by : VARCHAR(36)</text><ellipse cx="796.5" cy="200.9004" fill="#84BE84" rx="3" ry="3" style="stroke:#038048;stroke-width:1.0;"/><text fill="#000000" font-family="sans-serif" font-size="14" lengthAdjust="spacing" textLength="187" x="805.5" y="204.6914">updated_by : VARCHAR(36)</text></g><!--class Sales--><g id="elem_Sales"><rect codeLine="81" fill="#F1F1F1" height="179.9063" id="Sales" rx="2.5" ry="2.5" style="stroke:#181818;stroke-width:0.5;" width="296" x="211.5" y="305.13"/><ellipse cx="338.75" cy="321.13" fill="#ADD1B2" rx="11" ry="11" style="stroke:#181818;stroke-width:1.0;"/><path d="M342.8643,327.13 L335.1445,327.13 L335.1445,314.7369 L342.8643,314.7369 L342.8643,316.8951 L337.5933,316.8951 L337.5933,319.568 L342.3662,319.568 L342.3662,321.7262 L337.5933,321.7262 L337.5933,324.9718 L342.8643,324.9718 Z " fill="#000000"/><text fill="#000000" font-family="sans-serif" font-size="14" lengthAdjust="spacing" textLength="33" x="359.25" y="326.421">SALE</text><line style="stroke:#181818;stroke-width:0.5;" x1="212.5" x2="506.5" y1="337.13" y2="337.13"/><ellipse cx="222.5" cy="350.8741" fill="none" rx="3" ry="3" style="stroke:#038048;stroke-width:1.0;"/><text fill="#000000" font-family="sans-serif" font-size="14" lengthAdjust="spacing" textLength="176" x="231.5" y="354.6652">S_Time : TIME [NOT NULL]</text><ellipse cx="222.5" cy="367.3624" fill="none" rx="3" ry="3" style="stroke:#038048;stroke-width:1.0;"/><text fill="#000000" font-family="sans-serif" font-size="14" lengthAdjust="spacing" textLength="180" x="231.5" y="371.1534">created_date : TIMESTAMP</text><ellipse cx="222.5" cy="383.8507" fill="none" rx="3" ry="3" style="stroke:#038048;stroke-width:1.0;"/><text fill="#000000" font-family="sans-serif" font-size="14" lengthAdjust="spacing" textLength="186" x="231.5" y="387.6417">updated_date : TIMESTAMP</text><line style="stroke:#181818;stroke-width:0.5;" x1="212.5" x2="506.5" y1="394.5948" y2="394.5948"/><ellipse cx="222.5" cy="408.339" fill="#84BE84" rx="3" ry="3" style="stroke:#038048;stroke-width:1.0;"/><text fill="#000000" font-family="sans-serif" font-size="14" lengthAdjust="spacing" textLength="187" x="231.5" y="412.13">Sale_ID : VARCHAR(36) [PK]</text><ellipse cx="222.5" cy="424.8273" fill="#84BE84" rx="3" ry="3" style="stroke:#038048;stroke-width:1.0;"/><text fill="#000000" font-family="sans-serif" font-size="14" lengthAdjust="spacing" textLength="270" x="231.5" y="428.6183">Total_Amt : DECIMAL(10, 2) [NOT NULL]</text><ellipse cx="222.5" cy="441.3155" fill="#84BE84" rx="3" ry="3" style="stroke:#038048;stroke-width:1.0;"/><text fill="#000000" font-family="sans-serif" font-size="14" lengthAdjust="spacing" textLength="250" x="231.5" y="445.1066">C_ID : VARCHAR(36) [FK] [NULLABLE]</text><ellipse cx="222.5" cy="457.8038" fill="#84BE84" rx="3" ry="3" style="stroke:#038048;stroke-width:1.0;"/><text fill="#000000" font-family="sans-serif" font-size="14" lengthAdjust="spacing" textLength="181" x="231.5" y="461.5948">created_by : VARCHAR(36)</text><ellipse cx="222.5" cy="474.2921" fill="#84BE84" rx="3" ry="3" style="stroke:#038048;stroke-width:1.0;"/><text fill="#000000" font-family="sans-serif" font-size="14" lengthAdjust="spacing" textLength="187" x="231.5" y="478.0831">updated_by : VARCHAR(36)</text></g><!--class SalesItems--><g id="elem_SalesItems"><rect codeLine="92" fill="#F1F1F1" height="196.3945" id="SalesItems" rx="2.5" ry="2.5" style="stroke:#181818;stroke-width:0.5;" width="289" x="335" y="15.25"/><ellipse cx="438.75" cy="31.25" fill="#ADD1B2" rx="11" ry="11" style="stroke:#181818;stroke-width:1.0;"/><path d="M442.8643,37.25 L435.1445,37.25 L435.1445,24.8569 L442.8643,24.8569 L442.8643,27.0151 L437.5933,27.0151 L437.5933,29.688 L442.3662,29.688 L442.3662,31.8462 L437.5933,31.8462 L437.5933,35.0918 L442.8643,35.0918 Z " fill="#000000"/><text fill="#000000" font-family="sans-serif" font-size="14" lengthAdjust="spacing" textLength="73" x="459.25" y="36.541">SALE_ITEM</text><line style="stroke:#181818;stroke-width:0.5;" x1="336" x2="623" y1="47.25" y2="47.25"/><ellipse cx="346" cy="60.9941" fill="none" rx="3" ry="3" style="stroke:#038048;stroke-width:1.0;"/><text fill="#000000" font-family="sans-serif" font-size="14" lengthAdjust="spacing" textLength="175" x="355" y="64.7852">Sale_Qty : INT [NOT NULL]</text><ellipse cx="346" cy="77.4824" fill="none" rx="3" ry="3" style="stroke:#038048;stroke-width:1.0;"/><text fill="#000000" font-family="sans-serif" font-size="14" lengthAdjust="spacing" textLength="180" x="355" y="81.2734">created_date : TIMESTAMP</text><ellipse cx="346" cy="93.9707" fill="none" rx="3" ry="3" style="stroke:#038048;stroke-width:1.0;"/><text fill="#000000" font-family="sans-serif" font-size="14" lengthAdjust="spacing" textLength="186" x="355" y="97.7617">updated_date : TIMESTAMP</text><line style="stroke:#181818;stroke-width:0.5;" x1="336" x2="623" y1="104.7148" y2="104.7148"/><ellipse cx="346" cy="118.459" fill="#84BE84" rx="3" ry="3" style="stroke:#038048;stroke-width:1.0;"/><text fill="#000000" font-family="sans-serif" font-size="14" lengthAdjust="spacing" textLength="188" x="355" y="122.25">Med_ID : VARCHAR(36) [FK]</text><ellipse cx="346" cy="134.9473" fill="#84BE84" rx="3" ry="3" style="stroke:#038048;stroke-width:1.0;"/><text fill="#000000" font-family="sans-serif" font-size="14" lengthAdjust="spacing" textLength="187" x="355" y="138.7383">Sale_ID : VARCHAR(36) [FK]</text><ellipse cx="346" cy="151.4355" fill="#84BE84" rx="3" ry="3" style="stroke:#038048;stroke-width:1.0;"/><text fill="#000000" font-family="sans-serif" font-size="14" lengthAdjust="spacing" textLength="263" x="355" y="155.2266">Tot_Price : DECIMAL(10, 2) [NOT NULL]</text><ellipse cx="346" cy="167.9238" fill="#84BE84" rx="3" ry="3" style="stroke:#038048;stroke-width:1.0;"/><text fill="#000000" font-family="sans-serif" font-size="14" lengthAdjust="spacing" textLength="148" x="355" y="171.7148">[PK] (Med_ID, Sale_ID)</text><ellipse cx="346" cy="184.4121" fill="#84BE84" rx="3" ry="3" style="stroke:#038048;stroke-width:1.0;"/><text fill="#000000" font-family="sans-serif" font-size="14" lengthAdjust="spacing" textLength="181" x="355" y="188.2031">created_by : VARCHAR(36)</text><ellipse cx="346" cy="200.9004" fill="#84BE84" rx="3" ry="3" style="stroke:#038048;stroke-width:1.0;"/><text fill="#000000" font-family="sans-serif" font-size="14" lengthAdjust="spacing" textLength="187" x="355" y="204.6914">updated_by : VARCHAR(36)</text></g><!--class LocationRack--><g id="elem_LocationRack"><rect codeLine="104" fill="#F1F1F1" height="146.9297" id="LocationRack" rx="2.5" ry="2.5" style="stroke:#181818;stroke-width:0.5;" width="303" x="1208" y="321.62"/><ellipse cx="1296.75" cy="337.62" fill="#ADD1B2" rx="11" ry="11" style="stroke:#181818;stroke-width:1.0;"/><path d="M1300.8643,343.62 L1293.1445,343.62 L1293.1445,331.2269 L1300.8643,331.2269 L1300.8643,333.3851 L1295.5933,333.3851 L1295.5933,336.058 L1300.3662,336.058 L1300.3662,338.2162 L1295.5933,338.2162 L1295.5933,341.4618 L1300.8643,341.4618 Z " fill="#000000"/><text fill="#000000" font-family="sans-serif" font-size="14" lengthAdjust="spacing" textLength="117" x="1317.25" y="342.911">LOCATION_RACK</text><line style="stroke:#181818;stroke-width:0.5;" x1="1209" x2="1510" y1="353.62" y2="353.62"/><ellipse cx="1219" cy="367.3641" fill="none" rx="3" ry="3" style="stroke:#038048;stroke-width:1.0;"/><text fill="#000000" font-family="sans-serif" font-size="14" lengthAdjust="spacing" textLength="180" x="1228" y="371.1552">created_date : TIMESTAMP</text><ellipse cx="1219" cy="383.8524" fill="none" rx="3" ry="3" style="stroke:#038048;stroke-width:1.0;"/><text fill="#000000" font-family="sans-serif" font-size="14" lengthAdjust="spacing" textLength="186" x="1228" y="387.6434">updated_date : TIMESTAMP</text><line style="stroke:#181818;stroke-width:0.5;" x1="1209" x2="1510" y1="394.5966" y2="394.5966"/><ellipse cx="1219" cy="408.3407" fill="#84BE84" rx="3" ry="3" style="stroke:#038048;stroke-width:1.0;"/><text fill="#000000" font-family="sans-serif" font-size="14" lengthAdjust="spacing" textLength="175" x="1228" y="412.1317">LR_ID : VARCHAR(36) [PK]</text><ellipse cx="1219" cy="424.829" fill="#84BE84" rx="3" ry="3" style="stroke:#038048;stroke-width:1.0;"/><text fill="#000000" font-family="sans-serif" font-size="14" lengthAdjust="spacing" textLength="277" x="1228" y="428.62">LR_POSITION : VARCHAR(50) [NOT NULL]</text><ellipse cx="1219" cy="441.3173" fill="#84BE84" rx="3" ry="3" style="stroke:#038048;stroke-width:1.0;"/><text fill="#000000" font-family="sans-serif" font-size="14" lengthAdjust="spacing" textLength="181" x="1228" y="445.1083">created_by : VARCHAR(36)</text><ellipse cx="1219" cy="457.8055" fill="#84BE84" rx="3" ry="3" style="stroke:#038048;stroke-width:1.0;"/><text fill="#000000" font-family="sans-serif" font-size="14" lengthAdjust="spacing" textLength="187" x="1228" y="461.5966">updated_by : VARCHAR(36)</text></g><!--class Inventory--><g id="elem_Inventory"><rect codeLine="113" fill="#F1F1F1" height="212.8828" id="Inventory" rx="2.5" ry="2.5" style="stroke:#181818;stroke-width:0.5;" width="296" x="1132.5" y="7"/><ellipse cx="1236.75" cy="23" fill="#ADD1B2" rx="11" ry="11" style="stroke:#181818;stroke-width:1.0;"/><path d="M1240.8643,29 L1233.1445,29 L1233.1445,16.6069 L1240.8643,16.6069 L1240.8643,18.7651 L1235.5933,18.7651 L1235.5933,21.438 L1240.3662,21.438 L1240.3662,23.5962 L1235.5933,23.5962 L1235.5933,26.8418 L1240.8643,26.8418 Z " fill="#000000"/><text fill="#000000" font-family="sans-serif" font-size="14" lengthAdjust="spacing" textLength="79" x="1257.25" y="28.291">INVENTORY</text><line style="stroke:#181818;stroke-width:0.5;" x1="1133.5" x2="1427.5" y1="39" y2="39"/><ellipse cx="1143.5" cy="52.7441" fill="none" rx="3" ry="3" style="stroke:#038048;stroke-width:1.0;"/><text fill="#000000" font-family="sans-serif" font-size="14" lengthAdjust="spacing" textLength="151" x="1152.5" y="56.5352">I_Qty : INT [NOT NULL]</text><ellipse cx="1143.5" cy="69.2324" fill="none" rx="3" ry="3" style="stroke:#038048;stroke-width:1.0;"/><text fill="#000000" font-family="sans-serif" font-size="14" lengthAdjust="spacing" textLength="195" x="1152.5" y="73.0234">Mfg_Date : DATE [NOT NULL]</text><ellipse cx="1143.5" cy="85.7207" fill="none" rx="3" ry="3" style="stroke:#038048;stroke-width:1.0;"/><text fill="#000000" font-family="sans-serif" font-size="14" lengthAdjust="spacing" textLength="195" x="1152.5" y="89.5117">Exp_Date : DATE [NOT NULL]</text><ellipse cx="1143.5" cy="102.209" fill="none" rx="3" ry="3" style="stroke:#038048;stroke-width:1.0;"/><text fill="#000000" font-family="sans-serif" font-size="14" lengthAdjust="spacing" textLength="180" x="1152.5" y="106">created_date : TIMESTAMP</text><ellipse cx="1143.5" cy="118.6973" fill="none" rx="3" ry="3" style="stroke:#038048;stroke-width:1.0;"/><text fill="#000000" font-family="sans-serif" font-size="14" lengthAdjust="spacing" textLength="186" x="1152.5" y="122.4883">updated_date : TIMESTAMP</text><line style="stroke:#181818;stroke-width:0.5;" x1="1133.5" x2="1427.5" y1="129.4414" y2="129.4414"/><ellipse cx="1143.5" cy="143.1855" fill="#84BE84" rx="3" ry="3" style="stroke:#038048;stroke-width:1.0;"/><text fill="#000000" font-family="sans-serif" font-size="14" lengthAdjust="spacing" textLength="163" x="1152.5" y="146.9766">I_ID : VARCHAR(36) [PK]</text><ellipse cx="1143.5" cy="159.6738" fill="#84BE84" rx="3" ry="3" style="stroke:#038048;stroke-width:1.0;"/><text fill="#000000" font-family="sans-serif" font-size="14" lengthAdjust="spacing" textLength="270" x="1152.5" y="163.4648">Med_ID : VARCHAR(36) [FK] [NOT NULL]</text><ellipse cx="1143.5" cy="176.1621" fill="#84BE84" rx="3" ry="3" style="stroke:#038048;stroke-width:1.0;"/><text fill="#000000" font-family="sans-serif" font-size="14" lengthAdjust="spacing" textLength="257" x="1152.5" y="179.9531">LR_ID : VARCHAR(36) [FK] [NOT NULL]</text><ellipse cx="1143.5" cy="192.6504" fill="#84BE84" rx="3" ry="3" style="stroke:#038048;stroke-width:1.0;"/><text fill="#000000" font-family="sans-serif" font-size="14" lengthAdjust="spacing" textLength="181" x="1152.5" y="196.4414">created_by : VARCHAR(36)</text><ellipse cx="1143.5" cy="209.1387" fill="#84BE84" rx="3" ry="3" style="stroke:#038048;stroke-width:1.0;"/><text fill="#000000" font-family="sans-serif" font-size="14" lengthAdjust="spacing" textLength="187" x="1152.5" y="212.9297">updated_by : VARCHAR(36)</text></g><!--class CustomerPointConfig--><g id="elem_CustomerPointConfig"><rect codeLine="126" fill="#F1F1F1" height="113.9531" id="CustomerPointConfig" rx="2.5" ry="2.5" style="stroke:#181818;stroke-width:0.5;" width="253" x="1464" y="56.47"/><ellipse cx="1494.75" cy="72.47" fill="#ADD1B2" rx="11" ry="11" style="stroke:#181818;stroke-width:1.0;"/><path d="M1498.8643,78.47 L1491.1445,78.47 L1491.1445,66.0769 L1498.8643,66.0769 L1498.8643,68.2351 L1493.5933,68.2351 L1493.5933,70.908 L1498.3662,70.908 L1498.3662,73.0662 L1493.5933,73.0662 L1493.5933,76.3118 L1498.8643,76.3118 Z " fill="#000000"/><text fill="#000000" font-family="sans-serif" font-size="14" lengthAdjust="spacing" textLength="186" x="1512.25" y="77.761">CUSTOMER_POINT_CONFIG</text><line style="stroke:#181818;stroke-width:0.5;" x1="1465" x2="1716" y1="88.47" y2="88.47"/><ellipse cx="1475" cy="102.2141" fill="none" rx="3" ry="3" style="stroke:#038048;stroke-width:1.0;"/><text fill="#000000" font-family="sans-serif" font-size="14" lengthAdjust="spacing" textLength="227" x="1484" y="106.0052">CPC_Ratio : NUMERIC [NOT NULL]</text><ellipse cx="1475" cy="118.7024" fill="none" rx="3" ry="3" style="stroke:#038048;stroke-width:1.0;"/><text fill="#000000" font-family="sans-serif" font-size="14" lengthAdjust="spacing" textLength="186" x="1484" y="122.4934">updated_date : TIMESTAMP</text><line style="stroke:#181818;stroke-width:0.5;" x1="1465" x2="1716" y1="129.4466" y2="129.4466"/><ellipse cx="1475" cy="143.1907" fill="#84BE84" rx="3" ry="3" style="stroke:#038048;stroke-width:1.0;"/><text fill="#000000" font-family="sans-serif" font-size="14" lengthAdjust="spacing" textLength="187" x="1484" y="146.9817">CPC_ID : VARCHAR(36) [PK]</text><ellipse cx="1475" cy="159.679" fill="#84BE84" rx="3" ry="3" style="stroke:#038048;stroke-width:1.0;"/><text fill="#000000" font-family="sans-serif" font-size="14" lengthAdjust="spacing" textLength="187" x="1484" y="163.47">updated_by : VARCHAR(36)</text></g><!--link Sales to Employee--><g id="link_Sales_Employee"><path codeLine="133" d="M399.37,485.16 C411.08,511.32 416.9147,524.3614 430.0147,553.6214 " fill="none" id="Sales-to-Employee" style="stroke:#181818;stroke-width:1.0;"/><polygon fill="none" points="437.37,570.05,435.4909,551.1696,424.5385,556.0731,437.37,570.05" style="stroke:#181818;stroke-width:1.0;"/><text fill="#000000" font-family="sans-serif" font-size="13" lengthAdjust="spacing" textLength="95" x="422.48" y="536.8484">created_by [FK]</text></g><!--link Sales to Customer--><g id="link_Sales_Customer"><path codeLine="134" d="M304.31,485.16 C278.86,526.25 257.8105,560.219 230.6905,603.989 " fill="none" id="Sales-to-Customer" style="stroke:#181818;stroke-width:1.0;"/><polygon fill="none" points="221.21,619.29,235.7908,607.1492,225.5902,600.8289,221.21,619.29" style="stroke:#181818;stroke-width:1.0;"/><text fill="#000000" font-family="sans-serif" font-size="13" lengthAdjust="spacing" textLength="57" x="280.87" y="536.8484">C_ID [FK]</text></g><!--link SalesItems to Sales--><g id="link_SalesItems_Sales"><path codeLine="135" d="M437.7,211.85 C424.71,242.12 417.5673,258.7683 404.8373,288.4383 " fill="none" id="SalesItems-to-Sales" style="stroke:#181818;stroke-width:1.0;"/><polygon fill="none" points="397.74,304.98,410.3512,290.804,399.3234,286.0725,397.74,304.98" style="stroke:#181818;stroke-width:1.0;"/><text fill="#000000" font-family="sans-serif" font-size="13" lengthAdjust="spacing" textLength="73" x="420.5" y="263.4484">Sale_ID [FK]</text></g><!--link SalesItems to Meds--><g id="link_SalesItems_Meds"><path codeLine="136" d="M612.14,211.96 C644.7,232.51 680.34,252.34 715.5,266.88 C774.3,291.21 796.12,274 855.5,296.88 C861.79,299.31 851.6585,294.6685 857.9885,297.4685 " fill="none" id="SalesItems-to-Meds" style="stroke:#181818;stroke-width:1.0;"/><polygon fill="none" points="874.45,304.75,860.4157,291.9813,855.5614,302.9556,874.45,304.75" style="stroke:#181818;stroke-width:1.0;"/><text fill="#000000" font-family="sans-serif" font-size="13" lengthAdjust="spacing" textLength="74" x="716.5" y="263.4484">Med_ID [FK]</text></g><!--link Purchase to Meds--><g id="link_Purchase_Meds"><path codeLine="137" d="M929.37,211.91 C932.6,230.51 937.13,249.57 943.5,266.88 C948.18,279.62 945.6461,276.6149 952.3661,288.9449 " fill="none" id="Purchase-to-Meds" style="stroke:#181818;stroke-width:1.0;"/><polygon fill="none" points="960.98,304.75,957.6344,286.0736,947.0977,291.8163,960.98,304.75" style="stroke:#181818;stroke-width:1.0;"/><text fill="#000000" font-family="sans-serif" font-size="13" lengthAdjust="spacing" textLength="74" x="944.5" y="263.4484">Med_ID [FK]</text></g><!--link Purchase to Suppliers--><g id="link_Purchase_Suppliers"><path codeLine="138" d="M841.03,211.85 C818.38,239.28 805.1915,255.2307 782.5315,282.6707 " fill="none" id="Purchase-to-Suppliers" style="stroke:#181818;stroke-width:1.0;"/><polygon fill="none" points="771.07,296.55,787.1579,286.4912,777.9051,278.8502,771.07,296.55" style="stroke:#181818;stroke-width:1.0;"/><text fill="#000000" font-family="sans-serif" font-size="13" lengthAdjust="spacing" textLength="71" x="807" y="263.4484">Sup_ID [FK]</text></g><!--link Inventory to Meds--><g id="link_Inventory_Meds"><path codeLine="139" d="M1183.34,220.16 C1157.75,248 1142.5793,264.5062 1117.8693,291.3962 " fill="none" id="Inventory-to-Meds" style="stroke:#181818;stroke-width:1.0;"/><polygon fill="none" points="1105.69,304.65,1122.2873,295.4559,1113.4514,287.3364,1105.69,304.65" style="stroke:#181818;stroke-width:1.0;"/><text fill="#000000" font-family="sans-serif" font-size="13" lengthAdjust="spacing" textLength="74" x="1153" y="263.4484">Med_ID [FK]</text></g><!--link Inventory to LocationRack--><g id="link_Inventory_LocationRack"><path codeLine="140" d="M1310.37,220.16 C1319.89,253.88 1325.3125,273.0891 1334.0325,303.9291 " fill="none" id="Inventory-to-LocationRack" style="stroke:#181818;stroke-width:1.0;"/><polygon fill="none" points="1338.93,321.25,1339.8062,302.2966,1328.2589,305.5616,1338.93,321.25" style="stroke:#181818;stroke-width:1.0;"/><text fill="#000000" font-family="sans-serif" font-size="13" lengthAdjust="spacing" textLength="63" x="1323.37" y="263.4484">LR_ID [FK]</text></g><!--link Meds to MedCategory--><g id="link_Meds_MedCategory"><path codeLine="141" d="M1023.5,485.16 C1023.5,536.98 1023.5,583.82 1023.5,634.24 " fill="none" id="Meds-to-MedCategory" style="stroke:#181818;stroke-width:1.0;"/><polygon fill="none" points="1023.5,652.24,1029.5,634.24,1017.5,634.24,1023.5,652.24" style="stroke:#181818;stroke-width:1.0;"/><text fill="#000000" font-family="sans-serif" font-size="13" lengthAdjust="spacing" textLength="69" x="1024.5" y="536.8484">Cat_ID [FK]</text></g><!--SRC=[pLTRRvim67tlhx3wb6cjb7JA7dYOH1sdyyh5vLAfgYh44ZT5Im01cHfj- - -pmGxN4DINv0rpZZ_xEtmtQ9W5sGvS8frevXD2by1F0Th4wsX7AVXp0S1dW3my0mfuL2tuNRL6Nxv-0i_a_aLWRagJqD_GaZ0TCu9XEi1mDUq5FBi6Vd2HvCyvkMBkPZgjqWLB6yIwNVePPyrK1ubNweg_m8OZrZPzP-lSngJ3WhEBgyVKhouuFogdj55rkMpSKm2w7wox4V8MHbLaB07Rvpjc269TrKQJyHMuAQ15GjaTbfwuYODrP3kgJchWprtzA-NWDbuUtYd1riv_5nTKH8Rj4g9XPEMHOM_ZU1tG91MXmTOzmS5Hu_XtvBIsYbsijd1Th4F2dr14wDgEgGiHuJRDeWrDX8QmHq4uA5tWe7I1ZTo0_Ra11wWDpr5h7Sqyo5BrphIUShrrkeHirofATb9oF-iJdQ43mfRJPZHT946S1L5OOK_6u_4vo22zbzdA7dlSvkW0jpcD9C62jYfLbq3ju-gS4mf4NFxQBbeUsIQBDp-LBOySqQcDpYirxp1Al8TiL-HWKmdYmIZDZefwoawWQeLOh4tHVGTWptqjm7E2ZJokwOiJPVxQKpV7lORTcZ8QewYt6ZeBSJpi8BrK26Tqqvzw-w3f5h467mmSfkB0XEHV1OoAgrp9GqzUg3IJLMji6fwbmljSFIrQ-BoaMlxYbz1Fitg2Z874j34tqZ_BdT1BR3mYmv4j2OU_6L0s9FoHUjFqhbEZ3Xu-74lwwygRzKoxxt4VV0O35Wi4vfO7JMEExshJ5ec2C8DH-1giv1H0UaSlXbey31d1S9bf39l-VlZMHG6zllxxhVpNKgeAvQbVOUr7HgKeXILU59cSLF2LVJNf9ENZW2A3AgViUzymGlaFeCXkbxFAc3vafy6efRaYmZSdvdkbbVtifiY9WdF-0m00]--></g></svg>