<?xml version="1.0" encoding="us-ascii" standalone="no"?><svg xmlns="http://www.w3.org/2000/svg" xmlns:xlink="http://www.w3.org/1999/xlink" contentStyleType="text/css" height="434px" preserveAspectRatio="none" style="width:531px;height:434px;background:#FFFFFF;" version="1.1" viewBox="0 0 531 434" width="531px" zoomAndPan="magnify"><defs/><g><rect fill="none" height="136.5527" style="stroke:#000000;stroke-width:1.5;" width="504.5" x="10" y="200.4199"/><line style="stroke:#181818;stroke-width:0.5;stroke-dasharray:5.0,5.0;" x1="56" x2="56" y1="81.4883" y2="353.9727"/><line style="stroke:#181818;stroke-width:0.5;stroke-dasharray:5.0,5.0;" x1="259.5" x2="259.5" y1="81.4883" y2="353.9727"/><line style="stroke:#181818;stroke-width:0.5;stroke-dasharray:5.0,5.0;" x1="469.5" x2="469.5" y1="81.4883" y2="353.9727"/><text fill="#000000" font-family="sans-serif" font-size="14" lengthAdjust="spacing" textLength="66" x="20" y="78.5352">Employee</text><ellipse cx="56" cy="13.5" fill="#E2E2F0" rx="8" ry="8" style="stroke:#181818;stroke-width:0.5;"/><path d="M56,21.5 L56,48.5 M43,29.5 L69,29.5 M56,48.5 L43,63.5 M56,48.5 L69,63.5 " fill="none" style="stroke:#181818;stroke-width:0.5;"/><text fill="#000000" font-family="sans-serif" font-size="14" lengthAdjust="spacing" textLength="66" x="20" y="366.5078">Employee</text><ellipse cx="56" cy="377.9609" fill="#E2E2F0" rx="8" ry="8" style="stroke:#181818;stroke-width:0.5;"/><path d="M56,385.9609 L56,412.9609 M43,393.9609 L69,393.9609 M56,412.9609 L43,427.9609 M56,412.9609 L69,427.9609 " fill="none" style="stroke:#181818;stroke-width:0.5;"/><rect fill="#E2E2F0" height="30.4883" rx="2.5" ry="2.5" style="stroke:#181818;stroke-width:0.5;" width="123" x="198.5" y="50"/><text fill="#000000" font-family="sans-serif" font-size="14" lengthAdjust="spacing" textLength="109" x="205.5" y="70.5352">Backend Service</text><rect fill="#E2E2F0" height="30.4883" rx="2.5" ry="2.5" style="stroke:#181818;stroke-width:0.5;" width="123" x="198.5" y="352.9727"/><text fill="#000000" font-family="sans-serif" font-size="14" lengthAdjust="spacing" textLength="109" x="205.5" y="373.5078">Backend Service</text><text fill="#000000" font-family="sans-serif" font-size="14" lengthAdjust="spacing" textLength="63" x="435.5" y="78.5352">Database</text><path d="M452,29 C452,19 470,19 470,19 C470,19 488,19 488,29 L488,55 C488,65 470,65 470,65 C470,65 452,65 452,55 L452,29 " fill="#E2E2F0" style="stroke:#181818;stroke-width:1.5;"/><path d="M452,29 C452,39 470,39 470,39 C470,39 488,39 488,29 " fill="none" style="stroke:#181818;stroke-width:1.5;"/><text fill="#000000" font-family="sans-serif" font-size="14" lengthAdjust="spacing" textLength="63" x="435.5" y="366.5078">Database</text><path d="M452,379.4609 C452,369.4609 470,369.4609 470,369.4609 C470,369.4609 488,369.4609 488,379.4609 L488,405.4609 C488,415.4609 470,415.4609 470,415.4609 C470,415.4609 452,415.4609 452,405.4609 L452,379.4609 " fill="#E2E2F0" style="stroke:#181818;stroke-width:1.5;"/><path d="M452,379.4609 C452,389.4609 470,389.4609 470,389.4609 C470,389.4609 488,389.4609 488,379.4609 " fill="none" style="stroke:#181818;stroke-width:1.5;"/><rect fill="#EEEEEE" height="3" style="stroke:#EEEEEE;stroke-width:1.0;" width="524.5" x="0" y="112.1436"/><line style="stroke:#000000;stroke-width:1.0;" x1="0" x2="524.5" y1="112.1436" y2="112.1436"/><line style="stroke:#000000;stroke-width:1.0;" x1="0" x2="524.5" y1="115.1436" y2="115.1436"/><rect fill="#EEEEEE" height="23.3105" style="stroke:#000000;stroke-width:2.0;" width="178" x="173.25" y="101.4883"/><text fill="#000000" font-family="sans-serif" font-size="13" font-weight="bold" lengthAdjust="spacing" textLength="160" x="179.25" y="118.0566">Customer Creation Flow</text><polygon fill="#181818" points="248,152.1094,258,156.1094,248,160.1094,252,156.1094" style="stroke:#181818;stroke-width:1.0;"/><line style="stroke:#181818;stroke-width:1.0;" x1="56" x2="254" y1="156.1094" y2="156.1094"/><text fill="#000000" font-family="sans-serif" font-size="13" font-weight="bold" lengthAdjust="spacing" textLength="9" x="63" y="151.3672">1</text><text fill="#000000" font-family="sans-serif" font-size="13" lengthAdjust="spacing" textLength="167" x="76" y="151.3672">Customer creation request</text><polygon fill="#181818" points="458,181.4199,468,185.4199,458,189.4199,462,185.4199" style="stroke:#181818;stroke-width:1.0;"/><line style="stroke:#181818;stroke-width:1.0;" x1="260" x2="464" y1="185.4199" y2="185.4199"/><text fill="#000000" font-family="sans-serif" font-size="13" font-weight="bold" lengthAdjust="spacing" textLength="9" x="267" y="180.6777">2</text><text fill="#000000" font-family="sans-serif" font-size="13" lengthAdjust="spacing" textLength="28" x="280" y="180.6777">save</text><path d="M10,200.4199 L72,200.4199 L72,207.7305 L62,217.7305 L10,217.7305 L10,200.4199 " fill="#EEEEEE" style="stroke:#000000;stroke-width:1.5;"/><rect fill="none" height="136.5527" style="stroke:#000000;stroke-width:1.5;" width="504.5" x="10" y="200.4199"/><text fill="#000000" font-family="sans-serif" font-size="13" font-weight="bold" lengthAdjust="spacing" textLength="17" x="25" y="213.9883">alt</text><a href="phone no exists" target="_top" title="phone no exists" xlink:actuate="onRequest" xlink:href="phone no exists" xlink:show="new" xlink:title="phone no exists" xlink:type="simple"><text fill="#0000FF" font-family="sans-serif" font-size="11" font-weight="bold" lengthAdjust="spacing" text-decoration="underline" textLength="88" x="87" y="213.0547">phone no exists</text></a><polygon fill="#181818" points="271,235.041,261,239.041,271,243.041,267,239.041" style="stroke:#181818;stroke-width:1.0;"/><line style="stroke:#181818;stroke-width:1.0;" x1="265" x2="469" y1="239.041" y2="239.041"/><text fill="#000000" font-family="sans-serif" font-size="13" font-weight="bold" lengthAdjust="spacing" textLength="9" x="277" y="234.2988">3</text><text fill="#000000" font-family="sans-serif" font-size="13" lengthAdjust="spacing" textLength="173" x="290" y="234.2988">duplicate unique constraint</text><polygon fill="#181818" points="67,264.3516,57,268.3516,67,272.3516,63,268.3516" style="stroke:#181818;stroke-width:1.0;"/><line style="stroke:#181818;stroke-width:1.0;" x1="61" x2="259" y1="268.3516" y2="268.3516"/><text fill="#000000" font-family="sans-serif" font-size="13" font-weight="bold" lengthAdjust="spacing" textLength="9" x="73" y="263.6094">4</text><text fill="#000000" font-family="sans-serif" font-size="13" lengthAdjust="spacing" textLength="101" x="86" y="263.6094">phone no exists</text><line style="stroke:#000000;stroke-width:1.0;stroke-dasharray:2.0,2.0;" x1="10" x2="514.5" y1="277.3516" y2="277.3516"/><polygon fill="#181818" points="271,295.6621,261,299.6621,271,303.6621,267,299.6621" style="stroke:#181818;stroke-width:1.0;"/><line style="stroke:#181818;stroke-width:1.0;" x1="265" x2="469" y1="299.6621" y2="299.6621"/><text fill="#000000" font-family="sans-serif" font-size="13" font-weight="bold" lengthAdjust="spacing" textLength="9" x="277" y="294.9199">5</text><text fill="#000000" font-family="sans-serif" font-size="13" lengthAdjust="spacing" textLength="82" x="290" y="294.9199">save success</text><polygon fill="#181818" points="67,324.9727,57,328.9727,67,332.9727,63,328.9727" style="stroke:#181818;stroke-width:1.0;"/><line style="stroke:#181818;stroke-width:1.0;" x1="61" x2="259" y1="328.9727" y2="328.9727"/><text fill="#000000" font-family="sans-serif" font-size="13" font-weight="bold" lengthAdjust="spacing" textLength="9" x="73" y="324.2305">6</text><text fill="#000000" font-family="sans-serif" font-size="13" lengthAdjust="spacing" textLength="50" x="86" y="324.2305">success</text><!--SRC=[TOv1JWCn34NtFeMLVIymqh2OJdi1beY5cx54r8mJOgU5spUC25I8UcNBJ-z_gfQahYSk0EGj5JoiEQPFPYH5rmy7cOe57pA9uKJ-pB9iHD-VkLo2R-12HYTInddQWFdxTW3ZYFkgbbOkk2zC5fBWCQOhZYFyvEwUUi3mY_kE5twlh0Ozjz7pDA3IXO6YuOlBRqaO9I5_13Lrhu1jMfjxyL9p39wCiKfeHlH9r0e5iGs_q_TY0_un0qVb_-HVPL2hzwpwsDQ1zhW1]--></g></svg>