<?xml version="1.0" encoding="us-ascii" standalone="no"?><svg xmlns="http://www.w3.org/2000/svg" xmlns:xlink="http://www.w3.org/1999/xlink" contentStyleType="text/css" height="506px" preserveAspectRatio="none" style="width:650px;height:506px;background:#FFFFFF;" version="1.1" viewBox="0 0 650 506" width="650px" zoomAndPan="magnify"><defs/><g><rect fill="none" height="208.1289" style="stroke:#000000;stroke-width:1.5;" width="623" x="10" y="200.4199"/><line style="stroke:#181818;stroke-width:0.5;stroke-dasharray:5.0,5.0;" x1="45" x2="45" y1="81.4883" y2="425.5488"/><line style="stroke:#181818;stroke-width:0.5;stroke-dasharray:5.0,5.0;" x1="318" x2="318" y1="81.4883" y2="425.5488"/><line style="stroke:#181818;stroke-width:0.5;stroke-dasharray:5.0,5.0;" x1="588" x2="588" y1="81.4883" y2="425.5488"/><text fill="#000000" font-family="sans-serif" font-size="14" lengthAdjust="spacing" textLength="45" x="20" y="78.5352">Admin</text><ellipse cx="45.5" cy="13.5" fill="#E2E2F0" rx="8" ry="8" style="stroke:#181818;stroke-width:0.5;"/><path d="M45.5,21.5 L45.5,48.5 M32.5,29.5 L58.5,29.5 M45.5,48.5 L32.5,63.5 M45.5,48.5 L58.5,63.5 " fill="none" style="stroke:#181818;stroke-width:0.5;"/><text fill="#000000" font-family="sans-serif" font-size="14" lengthAdjust="spacing" textLength="45" x="20" y="438.084">Admin</text><ellipse cx="45.5" cy="449.5371" fill="#E2E2F0" rx="8" ry="8" style="stroke:#181818;stroke-width:0.5;"/><path d="M45.5,457.5371 L45.5,484.5371 M32.5,465.5371 L58.5,465.5371 M45.5,484.5371 L32.5,499.5371 M45.5,484.5371 L58.5,499.5371 " fill="none" style="stroke:#181818;stroke-width:0.5;"/><rect fill="#E2E2F0" height="30.4883" rx="2.5" ry="2.5" style="stroke:#181818;stroke-width:0.5;" width="123" x="257" y="50"/><text fill="#000000" font-family="sans-serif" font-size="14" lengthAdjust="spacing" textLength="109" x="264" y="70.5352">Backend Service</text><rect fill="#E2E2F0" height="30.4883" rx="2.5" ry="2.5" style="stroke:#181818;stroke-width:0.5;" width="123" x="257" y="424.5488"/><text fill="#000000" font-family="sans-serif" font-size="14" lengthAdjust="spacing" textLength="109" x="264" y="445.084">Backend Service</text><text fill="#000000" font-family="sans-serif" font-size="14" lengthAdjust="spacing" textLength="63" x="554" y="78.5352">Database</text><path d="M570.5,29 C570.5,19 588.5,19 588.5,19 C588.5,19 606.5,19 606.5,29 L606.5,55 C606.5,65 588.5,65 588.5,65 C588.5,65 570.5,65 570.5,55 L570.5,29 " fill="#E2E2F0" style="stroke:#181818;stroke-width:1.5;"/><path d="M570.5,29 C570.5,39 588.5,39 588.5,39 C588.5,39 606.5,39 606.5,29 " fill="none" style="stroke:#181818;stroke-width:1.5;"/><text fill="#000000" font-family="sans-serif" font-size="14" lengthAdjust="spacing" textLength="63" x="554" y="438.084">Database</text><path d="M570.5,451.0371 C570.5,441.0371 588.5,441.0371 588.5,441.0371 C588.5,441.0371 606.5,441.0371 606.5,451.0371 L606.5,477.0371 C606.5,487.0371 588.5,487.0371 588.5,487.0371 C588.5,487.0371 570.5,487.0371 570.5,477.0371 L570.5,451.0371 " fill="#E2E2F0" style="stroke:#181818;stroke-width:1.5;"/><path d="M570.5,451.0371 C570.5,461.0371 588.5,461.0371 588.5,461.0371 C588.5,461.0371 606.5,461.0371 606.5,451.0371 " fill="none" style="stroke:#181818;stroke-width:1.5;"/><rect fill="#EEEEEE" height="3" style="stroke:#EEEEEE;stroke-width:1.0;" width="643" x="0" y="112.1436"/><line style="stroke:#000000;stroke-width:1.0;" x1="0" x2="643" y1="112.1436" y2="112.1436"/><line style="stroke:#000000;stroke-width:1.0;" x1="0" x2="643" y1="115.1436" y2="115.1436"/><rect fill="#EEEEEE" height="23.3105" style="stroke:#000000;stroke-width:2.0;" width="178" x="232.5" y="101.4883"/><text fill="#000000" font-family="sans-serif" font-size="13" font-weight="bold" lengthAdjust="spacing" textLength="160" x="238.5" y="118.0566">Customer Deleting Flow</text><polygon fill="#181818" points="306.5,152.1094,316.5,156.1094,306.5,160.1094,310.5,156.1094" style="stroke:#181818;stroke-width:1.0;"/><line style="stroke:#181818;stroke-width:1.0;" x1="45.5" x2="312.5" y1="156.1094" y2="156.1094"/><text fill="#000000" font-family="sans-serif" font-size="13" font-weight="bold" lengthAdjust="spacing" textLength="9" x="52.5" y="151.3672">1</text><text fill="#000000" font-family="sans-serif" font-size="13" lengthAdjust="spacing" textLength="159" x="65.5" y="151.3672">Customer update request</text><polygon fill="#181818" points="576.5,181.4199,586.5,185.4199,576.5,189.4199,580.5,185.4199" style="stroke:#181818;stroke-width:1.0;"/><line style="stroke:#181818;stroke-width:1.0;" x1="318.5" x2="582.5" y1="185.4199" y2="185.4199"/><text fill="#000000" font-family="sans-serif" font-size="13" font-weight="bold" lengthAdjust="spacing" textLength="9" x="325.5" y="180.6777">2</text><text fill="#000000" font-family="sans-serif" font-size="13" lengthAdjust="spacing" textLength="157" x="338.5" y="180.6777">Fetch sale by customerId</text><path d="M10,200.4199 L72,200.4199 L72,207.7305 L62,217.7305 L10,217.7305 L10,200.4199 " fill="#EEEEEE" style="stroke:#000000;stroke-width:1.5;"/><rect fill="none" height="208.1289" style="stroke:#000000;stroke-width:1.5;" width="623" x="10" y="200.4199"/><text fill="#000000" font-family="sans-serif" font-size="13" font-weight="bold" lengthAdjust="spacing" textLength="17" x="25" y="213.9883">alt</text><a href="sale" target="_top" title="sale" xlink:actuate="onRequest" xlink:href="sale" xlink:show="new" xlink:title="sale" xlink:type="simple"><text fill="#0000FF" font-family="sans-serif" font-size="11" font-weight="bold" lengthAdjust="spacing" text-decoration="underline" textLength="32" x="87" y="213.0547">exists</text></a><polygon fill="#181818" points="329.5,235.041,319.5,239.041,329.5,243.041,325.5,239.041" style="stroke:#181818;stroke-width:1.0;"/><line style="stroke:#181818;stroke-width:1.0;" x1="323.5" x2="587.5" y1="239.041" y2="239.041"/><text fill="#000000" font-family="sans-serif" font-size="13" font-weight="bold" lengthAdjust="spacing" textLength="9" x="335.5" y="234.2988">3</text><text fill="#000000" font-family="sans-serif" font-size="13" lengthAdjust="spacing" textLength="209" x="348.5" y="234.2988">sale record by customer id exists</text><polygon fill="#181818" points="56.5,264.3516,46.5,268.3516,56.5,272.3516,52.5,268.3516" style="stroke:#181818;stroke-width:1.0;"/><line style="stroke:#181818;stroke-width:1.0;" x1="50.5" x2="317.5" y1="268.3516" y2="268.3516"/><text fill="#000000" font-family="sans-serif" font-size="13" font-weight="bold" lengthAdjust="spacing" textLength="9" x="62.5" y="263.6094">4</text><text fill="#000000" font-family="sans-serif" font-size="13" lengthAdjust="spacing" textLength="236" x="75.5" y="263.6094">cannot delete customer is being used</text><line style="stroke:#000000;stroke-width:1.0;stroke-dasharray:2.0,2.0;" x1="10" x2="633" y1="277.3516" y2="277.3516"/><a href="sale" target="_top" title="sale" xlink:actuate="onRequest" xlink:href="sale" xlink:show="new" xlink:title="sale" xlink:type="simple"><text fill="#0000FF" font-family="sans-serif" font-size="11" font-weight="bold" lengthAdjust="spacing" text-decoration="underline" textLength="48" x="15" y="287.9863">not exist</text></a><polygon fill="#181818" points="329.5,308.6172,319.5,312.6172,329.5,316.6172,325.5,312.6172" style="stroke:#181818;stroke-width:1.0;"/><line style="stroke:#181818;stroke-width:1.0;" x1="323.5" x2="587.5" y1="312.6172" y2="312.6172"/><text fill="#000000" font-family="sans-serif" font-size="13" font-weight="bold" lengthAdjust="spacing" textLength="9" x="335.5" y="307.875">5</text><text fill="#000000" font-family="sans-serif" font-size="13" lengthAdjust="spacing" textLength="233" x="348.5" y="307.875">sale record by customer is not exists</text><polygon fill="#181818" points="576.5,337.9277,586.5,341.9277,576.5,345.9277,580.5,341.9277" style="stroke:#181818;stroke-width:1.0;"/><line style="stroke:#181818;stroke-width:1.0;" x1="318.5" x2="582.5" y1="341.9277" y2="341.9277"/><text fill="#000000" font-family="sans-serif" font-size="13" font-weight="bold" lengthAdjust="spacing" textLength="9" x="325.5" y="337.1855">6</text><text fill="#000000" font-family="sans-serif" font-size="13" lengthAdjust="spacing" textLength="38" x="338.5" y="337.1855">delete</text><polygon fill="#181818" points="329.5,367.2383,319.5,371.2383,329.5,375.2383,325.5,371.2383" style="stroke:#181818;stroke-width:1.0;"/><line style="stroke:#181818;stroke-width:1.0;" x1="323.5" x2="587.5" y1="371.2383" y2="371.2383"/><text fill="#000000" font-family="sans-serif" font-size="13" font-weight="bold" lengthAdjust="spacing" textLength="9" x="335.5" y="366.4961">7</text><text fill="#000000" font-family="sans-serif" font-size="13" lengthAdjust="spacing" textLength="46" x="348.5" y="366.4961">deleted</text><polygon fill="#181818" points="56.5,396.5488,46.5,400.5488,56.5,404.5488,52.5,400.5488" style="stroke:#181818;stroke-width:1.0;"/><line style="stroke:#181818;stroke-width:1.0;" x1="50.5" x2="317.5" y1="400.5488" y2="400.5488"/><text fill="#000000" font-family="sans-serif" font-size="13" font-weight="bold" lengthAdjust="spacing" textLength="9" x="62.5" y="395.8066">8</text><text fill="#000000" font-family="sans-serif" font-size="13" lengthAdjust="spacing" textLength="100" x="75.5" y="395.8066">deleted success</text><!--SRC=[bL2zJiGm3Dxz55PtNg1IaIZLISoCw0OtiI0YJKhiSCVRawQjhX8maCd9z-jGrXZoD7828ACnuOETN40IREhKm4n9dN4p1SMUp3i7M-5zVkRqwGmtO4bf964S-aeOjdi3q7Nuc4NZn0a7zgmklEB9nmjs7Qo9T_UxUtlZvhcOCYR-o2mAUsJX3dsB9rRpXaAUSVn2iucUB91NVAdlV7MYSWOifzGwXbGyiOd97kNexAQgeaDaxTcYeH2YebtMu8DCSEHbhIniWNtvXxN2Ggw6_siXD-6F9iloQ_vlbYjY_wY_eIZP61Q1Wdu3]--></g></svg>