<?xml version="1.0" encoding="us-ascii" standalone="no"?><svg xmlns="http://www.w3.org/2000/svg" xmlns:xlink="http://www.w3.org/1999/xlink" contentStyleType="text/css" height="427px" preserveAspectRatio="none" style="width:724px;height:427px;background:#FFFFFF;" version="1.1" viewBox="0 0 724 427" width="724px" zoomAndPan="magnify"><defs/><g><line style="stroke:#181818;stroke-width:0.5;stroke-dasharray:5.0,5.0;" x1="41" x2="41" y1="81.4883" y2="346.6621"/><line style="stroke:#181818;stroke-width:0.5;stroke-dasharray:5.0,5.0;" x1="331.5" x2="331.5" y1="81.4883" y2="346.6621"/><line style="stroke:#181818;stroke-width:0.5;stroke-dasharray:5.0,5.0;" x1="677.5" x2="677.5" y1="81.4883" y2="346.6621"/><text fill="#000000" font-family="sans-serif" font-size="14" lengthAdjust="spacing" textLength="66" x="5" y="78.5352">Employee</text><ellipse cx="41" cy="13.5" fill="#E2E2F0" rx="8" ry="8" style="stroke:#181818;stroke-width:0.5;"/><path d="M41,21.5 L41,48.5 M28,29.5 L54,29.5 M41,48.5 L28,63.5 M41,48.5 L54,63.5 " fill="none" style="stroke:#181818;stroke-width:0.5;"/><text fill="#000000" font-family="sans-serif" font-size="14" lengthAdjust="spacing" textLength="66" x="5" y="359.1973">Employee</text><ellipse cx="41" cy="370.6504" fill="#E2E2F0" rx="8" ry="8" style="stroke:#181818;stroke-width:0.5;"/><path d="M41,378.6504 L41,405.6504 M28,386.6504 L54,386.6504 M41,405.6504 L28,420.6504 M41,405.6504 L54,420.6504 " fill="none" style="stroke:#181818;stroke-width:0.5;"/><rect fill="#E2E2F0" height="30.4883" rx="2.5" ry="2.5" style="stroke:#181818;stroke-width:0.5;" width="123" x="270.5" y="50"/><text fill="#000000" font-family="sans-serif" font-size="14" lengthAdjust="spacing" textLength="109" x="277.5" y="70.5352">Backend Service</text><rect fill="#E2E2F0" height="30.4883" rx="2.5" ry="2.5" style="stroke:#181818;stroke-width:0.5;" width="123" x="270.5" y="345.6621"/><text fill="#000000" font-family="sans-serif" font-size="14" lengthAdjust="spacing" textLength="109" x="277.5" y="366.1973">Backend Service</text><text fill="#000000" font-family="sans-serif" font-size="14" lengthAdjust="spacing" textLength="63" x="643.5" y="78.5352">Database</text><path d="M660,29 C660,19 678,19 678,19 C678,19 696,19 696,29 L696,55 C696,65 678,65 678,65 C678,65 660,65 660,55 L660,29 " fill="#E2E2F0" style="stroke:#181818;stroke-width:1.5;"/><path d="M660,29 C660,39 678,39 678,39 C678,39 696,39 696,29 " fill="none" style="stroke:#181818;stroke-width:1.5;"/><text fill="#000000" font-family="sans-serif" font-size="14" lengthAdjust="spacing" textLength="63" x="643.5" y="359.1973">Database</text><path d="M660,372.1504 C660,362.1504 678,362.1504 678,362.1504 C678,362.1504 696,362.1504 696,372.1504 L696,398.1504 C696,408.1504 678,408.1504 678,408.1504 C678,408.1504 660,408.1504 660,398.1504 L660,372.1504 " fill="#E2E2F0" style="stroke:#181818;stroke-width:1.5;"/><path d="M660,372.1504 C660,382.1504 678,382.1504 678,382.1504 C678,382.1504 696,382.1504 696,372.1504 " fill="none" style="stroke:#181818;stroke-width:1.5;"/><rect fill="#EEEEEE" height="3" style="stroke:#EEEEEE;stroke-width:1.0;" width="717.5" x="0" y="112.1436"/><line style="stroke:#000000;stroke-width:1.0;" x1="0" x2="717.5" y1="112.1436" y2="112.1436"/><line style="stroke:#000000;stroke-width:1.0;" x1="0" x2="717.5" y1="115.1436" y2="115.1436"/><rect fill="#EEEEEE" height="23.3105" style="stroke:#000000;stroke-width:2.0;" width="193" x="262.25" y="101.4883"/><text fill="#000000" font-family="sans-serif" font-size="13" font-weight="bold" lengthAdjust="spacing" textLength="175" x="268.25" y="118.0566">Create Location Rack Flow</text><polygon fill="#181818" points="320,152.1094,330,156.1094,320,160.1094,324,156.1094" style="stroke:#181818;stroke-width:1.0;"/><line style="stroke:#181818;stroke-width:1.0;" x1="41" x2="326" y1="156.1094" y2="156.1094"/><text fill="#000000" font-family="sans-serif" font-size="13" font-weight="bold" lengthAdjust="spacing" textLength="9" x="48" y="151.3672">1</text><text fill="#000000" font-family="sans-serif" font-size="13" lengthAdjust="spacing" textLength="254" x="61" y="151.3672">Create location rack request with details</text><line style="stroke:#181818;stroke-width:1.0;" x1="332" x2="374" y1="185.4199" y2="185.4199"/><line style="stroke:#181818;stroke-width:1.0;" x1="374" x2="374" y1="185.4199" y2="198.4199"/><line style="stroke:#181818;stroke-width:1.0;" x1="333" x2="374" y1="198.4199" y2="198.4199"/><polygon fill="#181818" points="343,194.4199,333,198.4199,343,202.4199,339,198.4199" style="stroke:#181818;stroke-width:1.0;"/><text fill="#000000" font-family="sans-serif" font-size="13" font-weight="bold" lengthAdjust="spacing" textLength="9" x="339" y="180.6777">2</text><text fill="#000000" font-family="sans-serif" font-size="13" lengthAdjust="spacing" textLength="222" x="352" y="180.6777">Map request to LocationRack entity</text><polygon fill="#181818" points="666,223.7305,676,227.7305,666,231.7305,670,227.7305" style="stroke:#181818;stroke-width:1.0;"/><line style="stroke:#181818;stroke-width:1.0;" x1="332" x2="672" y1="227.7305" y2="227.7305"/><text fill="#000000" font-family="sans-serif" font-size="13" font-weight="bold" lengthAdjust="spacing" textLength="9" x="339" y="222.9883">3</text><text fill="#000000" font-family="sans-serif" font-size="13" lengthAdjust="spacing" textLength="193" x="352" y="222.9883">Save LocationRack to database</text><polygon fill="#181818" points="343,253.041,333,257.041,343,261.041,339,257.041" style="stroke:#181818;stroke-width:1.0;"/><line style="stroke:#181818;stroke-width:1.0;" x1="337" x2="677" y1="257.041" y2="257.041"/><text fill="#000000" font-family="sans-serif" font-size="13" font-weight="bold" lengthAdjust="spacing" textLength="9" x="349" y="252.2988">4</text><text fill="#000000" font-family="sans-serif" font-size="13" lengthAdjust="spacing" textLength="82" x="362" y="252.2988">Save success</text><line style="stroke:#181818;stroke-width:1.0;" x1="332" x2="374" y1="286.3516" y2="286.3516"/><line style="stroke:#181818;stroke-width:1.0;" x1="374" x2="374" y1="286.3516" y2="299.3516"/><line style="stroke:#181818;stroke-width:1.0;" x1="333" x2="374" y1="299.3516" y2="299.3516"/><polygon fill="#181818" points="343,295.3516,333,299.3516,343,303.3516,339,299.3516" style="stroke:#181818;stroke-width:1.0;"/><text fill="#000000" font-family="sans-serif" font-size="13" font-weight="bold" lengthAdjust="spacing" textLength="9" x="339" y="281.6094">5</text><text fill="#000000" font-family="sans-serif" font-size="13" lengthAdjust="spacing" textLength="319" x="352" y="281.6094">Map LocationRack entity to LocationRackResponse</text><polygon fill="#181818" points="52,324.6621,42,328.6621,52,332.6621,48,328.6621" style="stroke:#181818;stroke-width:1.0;"/><line style="stroke:#181818;stroke-width:1.0;" x1="46" x2="331" y1="328.6621" y2="328.6621"/><text fill="#000000" font-family="sans-serif" font-size="13" font-weight="bold" lengthAdjust="spacing" textLength="9" x="58" y="323.9199">6</text><text fill="#000000" font-family="sans-serif" font-size="13" lengthAdjust="spacing" textLength="229" x="71" y="323.9199">Success with LocationRackResponse</text><!--SRC=[TP113e8m44NtFSM4lHSWmGMYAzt02OOoYOtGrdQ0S7ihM886TvtaltdpYpqRtNSrEI5Gid5mxcnh9Y903qaS4c7HiPBAecR8KJv8DtCYlYjoWv8Xs21ZZPwWoET0yPaJ8R8CJewG2Qv68YkZeGmuN5epGfQ9LNquHaSQYJOIxaquUlRa6KR5TsY8KRLUn5Esz0tj6cQpUcSjQLOyRR4YJw72WRvpWOkbH2YrNJ-7VIyb-V_-7UdlBILvQtJOlzaHVoDO5i7ITWzx0G00]--></g></svg>