<?xml version="1.0" encoding="us-ascii" standalone="no"?><svg xmlns="http://www.w3.org/2000/svg" xmlns:xlink="http://www.w3.org/1999/xlink" contentStyleType="text/css" height="640px" preserveAspectRatio="none" style="width:910px;height:640px;background:#FFFFFF;" version="1.1" viewBox="0 0 910 640" width="910px" zoomAndPan="magnify"><defs/><g><rect fill="none" height="342.3262" style="stroke:#000000;stroke-width:1.5;" width="883" x="10" y="200.4199"/><rect fill="none" height="178.8184" style="stroke:#000000;stroke-width:1.5;" width="863" x="20" y="283.3516"/><line style="stroke:#181818;stroke-width:0.5;stroke-dasharray:5.0,5.0;" x1="55" x2="55" y1="81.4883" y2="559.7461"/><line style="stroke:#181818;stroke-width:0.5;stroke-dasharray:5.0,5.0;" x1="528" x2="528" y1="81.4883" y2="559.7461"/><line style="stroke:#181818;stroke-width:0.5;stroke-dasharray:5.0,5.0;" x1="838" x2="838" y1="81.4883" y2="559.7461"/><text fill="#000000" font-family="sans-serif" font-size="14" lengthAdjust="spacing" textLength="45" x="30" y="78.5352">Admin</text><ellipse cx="55.5" cy="13.5" fill="#E2E2F0" rx="8" ry="8" style="stroke:#181818;stroke-width:0.5;"/><path d="M55.5,21.5 L55.5,48.5 M42.5,29.5 L68.5,29.5 M55.5,48.5 L42.5,63.5 M55.5,48.5 L68.5,63.5 " fill="none" style="stroke:#181818;stroke-width:0.5;"/><text fill="#000000" font-family="sans-serif" font-size="14" lengthAdjust="spacing" textLength="45" x="30" y="572.2813">Admin</text><ellipse cx="55.5" cy="583.7344" fill="#E2E2F0" rx="8" ry="8" style="stroke:#181818;stroke-width:0.5;"/><path d="M55.5,591.7344 L55.5,618.7344 M42.5,599.7344 L68.5,599.7344 M55.5,618.7344 L42.5,633.7344 M55.5,618.7344 L68.5,633.7344 " fill="none" style="stroke:#181818;stroke-width:0.5;"/><rect fill="#E2E2F0" height="30.4883" rx="2.5" ry="2.5" style="stroke:#181818;stroke-width:0.5;" width="123" x="467" y="50"/><text fill="#000000" font-family="sans-serif" font-size="14" lengthAdjust="spacing" textLength="109" x="474" y="70.5352">Backend Service</text><rect fill="#E2E2F0" height="30.4883" rx="2.5" ry="2.5" style="stroke:#181818;stroke-width:0.5;" width="123" x="467" y="558.7461"/><text fill="#000000" font-family="sans-serif" font-size="14" lengthAdjust="spacing" textLength="109" x="474" y="579.2813">Backend Service</text><text fill="#000000" font-family="sans-serif" font-size="14" lengthAdjust="spacing" textLength="63" x="804" y="78.5352">Database</text><path d="M820.5,29 C820.5,19 838.5,19 838.5,19 C838.5,19 856.5,19 856.5,29 L856.5,55 C856.5,65 838.5,65 838.5,65 C838.5,65 820.5,65 820.5,55 L820.5,29 " fill="#E2E2F0" style="stroke:#181818;stroke-width:1.5;"/><path d="M820.5,29 C820.5,39 838.5,39 838.5,39 C838.5,39 856.5,39 856.5,29 " fill="none" style="stroke:#181818;stroke-width:1.5;"/><text fill="#000000" font-family="sans-serif" font-size="14" lengthAdjust="spacing" textLength="63" x="804" y="572.2813">Database</text><path d="M820.5,585.2344 C820.5,575.2344 838.5,575.2344 838.5,575.2344 C838.5,575.2344 856.5,575.2344 856.5,585.2344 L856.5,611.2344 C856.5,621.2344 838.5,621.2344 838.5,621.2344 C838.5,621.2344 820.5,621.2344 820.5,611.2344 L820.5,585.2344 " fill="#E2E2F0" style="stroke:#181818;stroke-width:1.5;"/><path d="M820.5,585.2344 C820.5,595.2344 838.5,595.2344 838.5,595.2344 C838.5,595.2344 856.5,595.2344 856.5,585.2344 " fill="none" style="stroke:#181818;stroke-width:1.5;"/><rect fill="#EEEEEE" height="3" style="stroke:#EEEEEE;stroke-width:1.0;" width="903" x="0" y="112.1436"/><line style="stroke:#000000;stroke-width:1.0;" x1="0" x2="903" y1="112.1436" y2="112.1436"/><line style="stroke:#000000;stroke-width:1.0;" x1="0" x2="903" y1="115.1436" y2="115.1436"/><rect fill="#EEEEEE" height="23.3105" style="stroke:#000000;stroke-width:2.0;" width="192" x="355.5" y="101.4883"/><text fill="#000000" font-family="sans-serif" font-size="13" font-weight="bold" lengthAdjust="spacing" textLength="174" x="361.5" y="118.0566">Delete Location Rack Flow</text><polygon fill="#181818" points="516.5,152.1094,526.5,156.1094,516.5,160.1094,520.5,156.1094" style="stroke:#181818;stroke-width:1.0;"/><line style="stroke:#181818;stroke-width:1.0;" x1="55.5" x2="522.5" y1="156.1094" y2="156.1094"/><text fill="#000000" font-family="sans-serif" font-size="13" font-weight="bold" lengthAdjust="spacing" textLength="9" x="62.5" y="151.3672">1</text><text fill="#000000" font-family="sans-serif" font-size="13" lengthAdjust="spacing" textLength="232" x="75.5" y="151.3672">Request to delete location rack by ID</text><polygon fill="#181818" points="826.5,181.4199,836.5,185.4199,826.5,189.4199,830.5,185.4199" style="stroke:#181818;stroke-width:1.0;"/><line style="stroke:#181818;stroke-width:1.0;" x1="528.5" x2="832.5" y1="185.4199" y2="185.4199"/><text fill="#000000" font-family="sans-serif" font-size="13" font-weight="bold" lengthAdjust="spacing" textLength="9" x="535.5" y="180.6777">2</text><text fill="#000000" font-family="sans-serif" font-size="13" lengthAdjust="spacing" textLength="150" x="548.5" y="180.6777">Find location rack by ID</text><path d="M10,200.4199 L72,200.4199 L72,207.7305 L62,217.7305 L10,217.7305 L10,200.4199 " fill="#EEEEEE" style="stroke:#000000;stroke-width:1.5;"/><rect fill="none" height="342.3262" style="stroke:#000000;stroke-width:1.5;" width="883" x="10" y="200.4199"/><text fill="#000000" font-family="sans-serif" font-size="13" font-weight="bold" lengthAdjust="spacing" textLength="17" x="25" y="213.9883">alt</text><a href="location rack exists" target="_top" title="location rack exists" xlink:actuate="onRequest" xlink:href="location rack exists" xlink:show="new" xlink:title="location rack exists" xlink:type="simple"><text fill="#0000FF" font-family="sans-serif" font-size="11" font-weight="bold" lengthAdjust="spacing" text-decoration="underline" textLength="109" x="87" y="213.0547">location rack exists</text></a><polygon fill="#181818" points="539.5,235.041,529.5,239.041,539.5,243.041,535.5,239.041" style="stroke:#181818;stroke-width:1.0;"/><line style="stroke:#181818;stroke-width:1.0;" x1="533.5" x2="837.5" y1="239.041" y2="239.041"/><text fill="#000000" font-family="sans-serif" font-size="13" font-weight="bold" lengthAdjust="spacing" textLength="9" x="545.5" y="234.2988">3</text><text fill="#000000" font-family="sans-serif" font-size="13" lengthAdjust="spacing" textLength="167" x="558.5" y="234.2988">Return location rack entity</text><polygon fill="#181818" points="826.5,264.3516,836.5,268.3516,826.5,272.3516,830.5,268.3516" style="stroke:#181818;stroke-width:1.0;"/><line style="stroke:#181818;stroke-width:1.0;" x1="528.5" x2="832.5" y1="268.3516" y2="268.3516"/><text fill="#000000" font-family="sans-serif" font-size="13" font-weight="bold" lengthAdjust="spacing" textLength="9" x="535.5" y="263.6094">4</text><text fill="#000000" font-family="sans-serif" font-size="13" lengthAdjust="spacing" textLength="273" x="548.5" y="263.6094">Check if inventory exists by locationRackId</text><path d="M20,283.3516 L82,283.3516 L82,290.6621 L72,300.6621 L20,300.6621 L20,283.3516 " fill="#EEEEEE" style="stroke:#000000;stroke-width:1.5;"/><rect fill="none" height="178.8184" style="stroke:#000000;stroke-width:1.5;" width="863" x="20" y="283.3516"/><text fill="#000000" font-family="sans-serif" font-size="13" font-weight="bold" lengthAdjust="spacing" textLength="17" x="35" y="296.9199">alt</text><a href="location rack is being used" target="_top" title="location rack is being used" xlink:actuate="onRequest" xlink:href="location rack is being used" xlink:show="new" xlink:title="location rack is being used" xlink:type="simple"><text fill="#0000FF" font-family="sans-serif" font-size="11" font-weight="bold" lengthAdjust="spacing" text-decoration="underline" textLength="152" x="97" y="295.9863">location rack is being used</text></a><polygon fill="#181818" points="539.5,317.9727,529.5,321.9727,539.5,325.9727,535.5,321.9727" style="stroke:#181818;stroke-width:1.0;"/><line style="stroke:#181818;stroke-width:1.0;" x1="533.5" x2="837.5" y1="321.9727" y2="321.9727"/><text fill="#000000" font-family="sans-serif" font-size="13" font-weight="bold" lengthAdjust="spacing" textLength="9" x="545.5" y="317.2305">5</text><text fill="#000000" font-family="sans-serif" font-size="13" lengthAdjust="spacing" textLength="145" x="558.5" y="317.2305">Inventory record exists</text><polygon fill="#181818" points="66.5,347.2832,56.5,351.2832,66.5,355.2832,62.5,351.2832" style="stroke:#181818;stroke-width:1.0;"/><line style="stroke:#181818;stroke-width:1.0;" x1="60.5" x2="527.5" y1="351.2832" y2="351.2832"/><text fill="#000000" font-family="sans-serif" font-size="13" font-weight="bold" lengthAdjust="spacing" textLength="9" x="72.5" y="346.541">6</text><text fill="#000000" font-family="sans-serif" font-size="13" lengthAdjust="spacing" textLength="436" x="85.5" y="346.541">Throw CustomResponseException (LOCATION_RACK_IS_BEING_USED)</text><line style="stroke:#000000;stroke-width:1.0;stroke-dasharray:2.0,2.0;" x1="20" x2="883" y1="360.2832" y2="360.2832"/><a href="location rack is not used" target="_top" title="location rack is not used" xlink:actuate="onRequest" xlink:href="location rack is not used" xlink:show="new" xlink:title="location rack is not used" xlink:type="simple"><text fill="#0000FF" font-family="sans-serif" font-size="11" font-weight="bold" lengthAdjust="spacing" text-decoration="underline" textLength="139" x="25" y="370.918">location rack is not used</text></a><polygon fill="#181818" points="539.5,391.5488,529.5,395.5488,539.5,399.5488,535.5,395.5488" style="stroke:#181818;stroke-width:1.0;"/><line style="stroke:#181818;stroke-width:1.0;" x1="533.5" x2="837.5" y1="395.5488" y2="395.5488"/><text fill="#000000" font-family="sans-serif" font-size="13" font-weight="bold" lengthAdjust="spacing" textLength="9" x="545.5" y="390.8066">7</text><text fill="#000000" font-family="sans-serif" font-size="13" lengthAdjust="spacing" textLength="167" x="558.5" y="390.8066">No inventory record exists</text><polygon fill="#181818" points="826.5,420.8594,836.5,424.8594,826.5,428.8594,830.5,424.8594" style="stroke:#181818;stroke-width:1.0;"/><line style="stroke:#181818;stroke-width:1.0;" x1="528.5" x2="832.5" y1="424.8594" y2="424.8594"/><text fill="#000000" font-family="sans-serif" font-size="13" font-weight="bold" lengthAdjust="spacing" textLength="9" x="535.5" y="420.1172">8</text><text fill="#000000" font-family="sans-serif" font-size="13" lengthAdjust="spacing" textLength="126" x="548.5" y="420.1172">Delete location rack</text><polygon fill="#181818" points="66.5,450.1699,56.5,454.1699,66.5,458.1699,62.5,454.1699" style="stroke:#181818;stroke-width:1.0;"/><line style="stroke:#181818;stroke-width:1.0;" x1="60.5" x2="527.5" y1="454.1699" y2="454.1699"/><text fill="#000000" font-family="sans-serif" font-size="13" font-weight="bold" lengthAdjust="spacing" textLength="9" x="72.5" y="449.4277">9</text><text fill="#000000" font-family="sans-serif" font-size="13" lengthAdjust="spacing" textLength="334" x="85.5" y="449.4277">Return success response with deleted locationRackId</text><line style="stroke:#000000;stroke-width:1.0;stroke-dasharray:2.0,2.0;" x1="10" x2="893" y1="470.1699" y2="470.1699"/><a href="location rack not found" target="_top" title="location rack not found" xlink:actuate="onRequest" xlink:href="location rack not found" xlink:show="new" xlink:title="location rack not found" xlink:type="simple"><text fill="#0000FF" font-family="sans-serif" font-size="11" font-weight="bold" lengthAdjust="spacing" text-decoration="underline" textLength="132" x="15" y="480.8047">location rack not found</text></a><polygon fill="#181818" points="539.5,501.4355,529.5,505.4355,539.5,509.4355,535.5,505.4355" style="stroke:#181818;stroke-width:1.0;"/><line style="stroke:#181818;stroke-width:1.0;" x1="533.5" x2="837.5" y1="505.4355" y2="505.4355"/><text fill="#000000" font-family="sans-serif" font-size="13" font-weight="bold" lengthAdjust="spacing" textLength="18" x="545.5" y="500.6934">10</text><text fill="#000000" font-family="sans-serif" font-size="13" lengthAdjust="spacing" textLength="124" x="567.5" y="500.6934">Return empty result</text><polygon fill="#181818" points="66.5,530.7461,56.5,534.7461,66.5,538.7461,62.5,534.7461" style="stroke:#181818;stroke-width:1.0;"/><line style="stroke:#181818;stroke-width:1.0;" x1="60.5" x2="527.5" y1="534.7461" y2="534.7461"/><text fill="#000000" font-family="sans-serif" font-size="13" font-weight="bold" lengthAdjust="spacing" textLength="18" x="72.5" y="530.0039">11</text><text fill="#000000" font-family="sans-serif" font-size="13" lengthAdjust="spacing" textLength="410" x="94.5" y="530.0039">Throw CustomResponseException (LOCATION_RACK_NOT_EXIST)</text><!--SRC=[hLBDQi904BxlKmmvrKDVGB2WHakeH8WM2gM4TNUiI-DkkZlhpzjt4nDH2NffJXFcc_b-Phade_rsXPOnBiXO6Cgjqi0TH7KLiP9RKaALN1ECkFX1BUjsMo_GxfJ0Y4bEVCKTGZog0N7p7p4s642C1HB2p0XEocZ8mZXC2xE7mO2TI9zVMe8-PFZhqH6G0NcQBDf9MqskZf34hDKG9kDH7wOgr5quNX1yHjSTF2X7BlfY4BuW-PgTlDKtgr2JecCDl-4TRp3qrHgKtWMKiSTcUqNVBgaC9x8UxvAZ0XYL_WRlK3QgEfGbPmQBmbZP49tX5yhgKFkmtDWGyjWxCjiCNMcqmyb1O5bpFytcu-4ocQTvDXo_vSaY7qsIz3L_NqpYNhqLYt3I3hNQq0EjgRa8vA7SAiYuuzHth3LdSbu8T2vGdDp1Nj6cUJQoA_-mXNNQgZojZTVoxhF0RKcL8USBOlyGUZfVvfEFPB7iiR3b3m00]--></g></svg>