<?xml version="1.0" encoding="us-ascii" standalone="no"?><svg xmlns="http://www.w3.org/2000/svg" xmlns:xlink="http://www.w3.org/1999/xlink" contentStyleType="text/css" height="427px" preserveAspectRatio="none" style="width:867px;height:427px;background:#FFFFFF;" version="1.1" viewBox="0 0 867 427" width="867px" zoomAndPan="magnify"><defs/><g><line style="stroke:#181818;stroke-width:0.5;stroke-dasharray:5.0,5.0;" x1="30" x2="30" y1="81.4883" y2="346.6621"/><line style="stroke:#181818;stroke-width:0.5;stroke-dasharray:5.0,5.0;" x1="405" x2="405" y1="81.4883" y2="346.6621"/><line style="stroke:#181818;stroke-width:0.5;stroke-dasharray:5.0,5.0;" x1="820" x2="820" y1="81.4883" y2="346.6621"/><text fill="#000000" font-family="sans-serif" font-size="14" lengthAdjust="spacing" textLength="45" x="5" y="78.5352">Admin</text><ellipse cx="30.5" cy="13.5" fill="#E2E2F0" rx="8" ry="8" style="stroke:#181818;stroke-width:0.5;"/><path d="M30.5,21.5 L30.5,48.5 M17.5,29.5 L43.5,29.5 M30.5,48.5 L17.5,63.5 M30.5,48.5 L43.5,63.5 " fill="none" style="stroke:#181818;stroke-width:0.5;"/><text fill="#000000" font-family="sans-serif" font-size="14" lengthAdjust="spacing" textLength="45" x="5" y="359.1973">Admin</text><ellipse cx="30.5" cy="370.6504" fill="#E2E2F0" rx="8" ry="8" style="stroke:#181818;stroke-width:0.5;"/><path d="M30.5,378.6504 L30.5,405.6504 M17.5,386.6504 L43.5,386.6504 M30.5,405.6504 L17.5,420.6504 M30.5,405.6504 L43.5,420.6504 " fill="none" style="stroke:#181818;stroke-width:0.5;"/><rect fill="#E2E2F0" height="30.4883" rx="2.5" ry="2.5" style="stroke:#181818;stroke-width:0.5;" width="123" x="344" y="50"/><text fill="#000000" font-family="sans-serif" font-size="14" lengthAdjust="spacing" textLength="109" x="351" y="70.5352">Backend Service</text><rect fill="#E2E2F0" height="30.4883" rx="2.5" ry="2.5" style="stroke:#181818;stroke-width:0.5;" width="123" x="344" y="345.6621"/><text fill="#000000" font-family="sans-serif" font-size="14" lengthAdjust="spacing" textLength="109" x="351" y="366.1973">Backend Service</text><text fill="#000000" font-family="sans-serif" font-size="14" lengthAdjust="spacing" textLength="63" x="786" y="78.5352">Database</text><path d="M802.5,29 C802.5,19 820.5,19 820.5,19 C820.5,19 838.5,19 838.5,29 L838.5,55 C838.5,65 820.5,65 820.5,65 C820.5,65 802.5,65 802.5,55 L802.5,29 " fill="#E2E2F0" style="stroke:#181818;stroke-width:1.5;"/><path d="M802.5,29 C802.5,39 820.5,39 820.5,39 C820.5,39 838.5,39 838.5,29 " fill="none" style="stroke:#181818;stroke-width:1.5;"/><text fill="#000000" font-family="sans-serif" font-size="14" lengthAdjust="spacing" textLength="63" x="786" y="359.1973">Database</text><path d="M802.5,372.1504 C802.5,362.1504 820.5,362.1504 820.5,362.1504 C820.5,362.1504 838.5,362.1504 838.5,372.1504 L838.5,398.1504 C838.5,408.1504 820.5,408.1504 820.5,408.1504 C820.5,408.1504 802.5,408.1504 802.5,398.1504 L802.5,372.1504 " fill="#E2E2F0" style="stroke:#181818;stroke-width:1.5;"/><path d="M802.5,372.1504 C802.5,382.1504 820.5,382.1504 820.5,382.1504 C820.5,382.1504 838.5,382.1504 838.5,372.1504 " fill="none" style="stroke:#181818;stroke-width:1.5;"/><rect fill="#EEEEEE" height="3" style="stroke:#EEEEEE;stroke-width:1.0;" width="860" x="0" y="112.1436"/><line style="stroke:#000000;stroke-width:1.0;" x1="0" x2="860" y1="112.1436" y2="112.1436"/><line style="stroke:#000000;stroke-width:1.0;" x1="0" x2="860" y1="115.1436" y2="115.1436"/><rect fill="#EEEEEE" height="23.3105" style="stroke:#000000;stroke-width:2.0;" width="179" x="340.5" y="101.4883"/><text fill="#000000" font-family="sans-serif" font-size="13" font-weight="bold" lengthAdjust="spacing" textLength="161" x="346.5" y="118.0566">Get Location Racks Flow</text><polygon fill="#181818" points="393.5,152.1094,403.5,156.1094,393.5,160.1094,397.5,156.1094" style="stroke:#181818;stroke-width:1.0;"/><line style="stroke:#181818;stroke-width:1.0;" x1="30.5" x2="399.5" y1="156.1094" y2="156.1094"/><text fill="#000000" font-family="sans-serif" font-size="13" font-weight="bold" lengthAdjust="spacing" textLength="9" x="37.5" y="151.3672">1</text><text fill="#000000" font-family="sans-serif" font-size="13" lengthAdjust="spacing" textLength="256" x="50.5" y="151.3672">Request to get location racks with filters</text><line style="stroke:#181818;stroke-width:1.0;" x1="405.5" x2="447.5" y1="185.4199" y2="185.4199"/><line style="stroke:#181818;stroke-width:1.0;" x1="447.5" x2="447.5" y1="185.4199" y2="198.4199"/><line style="stroke:#181818;stroke-width:1.0;" x1="406.5" x2="447.5" y1="198.4199" y2="198.4199"/><polygon fill="#181818" points="416.5,194.4199,406.5,198.4199,416.5,202.4199,412.5,198.4199" style="stroke:#181818;stroke-width:1.0;"/><text fill="#000000" font-family="sans-serif" font-size="13" font-weight="bold" lengthAdjust="spacing" textLength="9" x="412.5" y="180.6777">2</text><text fill="#000000" font-family="sans-serif" font-size="13" lengthAdjust="spacing" textLength="267" x="425.5" y="180.6777">Build Specification based on position filter</text><polygon fill="#181818" points="808.5,223.7305,818.5,227.7305,808.5,231.7305,812.5,227.7305" style="stroke:#181818;stroke-width:1.0;"/><line style="stroke:#181818;stroke-width:1.0;" x1="405.5" x2="814.5" y1="227.7305" y2="227.7305"/><text fill="#000000" font-family="sans-serif" font-size="13" font-weight="bold" lengthAdjust="spacing" textLength="9" x="412.5" y="222.9883">3</text><text fill="#000000" font-family="sans-serif" font-size="13" lengthAdjust="spacing" textLength="378" x="425.5" y="222.9883">Query LocationRack records with Specification and Pageable</text><polygon fill="#181818" points="416.5,253.041,406.5,257.041,416.5,261.041,412.5,257.041" style="stroke:#181818;stroke-width:1.0;"/><line style="stroke:#181818;stroke-width:1.0;" x1="410.5" x2="819.5" y1="257.041" y2="257.041"/><text fill="#000000" font-family="sans-serif" font-size="13" font-weight="bold" lengthAdjust="spacing" textLength="9" x="422.5" y="252.2988">4</text><text fill="#000000" font-family="sans-serif" font-size="13" lengthAdjust="spacing" textLength="246" x="435.5" y="252.2988">Return paginated LocationRack records</text><line style="stroke:#181818;stroke-width:1.0;" x1="405.5" x2="447.5" y1="286.3516" y2="286.3516"/><line style="stroke:#181818;stroke-width:1.0;" x1="447.5" x2="447.5" y1="286.3516" y2="299.3516"/><line style="stroke:#181818;stroke-width:1.0;" x1="406.5" x2="447.5" y1="299.3516" y2="299.3516"/><polygon fill="#181818" points="416.5,295.3516,406.5,299.3516,416.5,303.3516,412.5,299.3516" style="stroke:#181818;stroke-width:1.0;"/><text fill="#000000" font-family="sans-serif" font-size="13" font-weight="bold" lengthAdjust="spacing" textLength="9" x="412.5" y="281.6094">5</text><text fill="#000000" font-family="sans-serif" font-size="13" lengthAdjust="spacing" textLength="354" x="425.5" y="281.6094">Map LocationRack entities to LocationRackResponse list</text><polygon fill="#181818" points="41.5,324.6621,31.5,328.6621,41.5,332.6621,37.5,328.6621" style="stroke:#181818;stroke-width:1.0;"/><line style="stroke:#181818;stroke-width:1.0;" x1="35.5" x2="404.5" y1="328.6621" y2="328.6621"/><text fill="#000000" font-family="sans-serif" font-size="13" font-weight="bold" lengthAdjust="spacing" textLength="9" x="47.5" y="323.9199">6</text><text fill="#000000" font-family="sans-serif" font-size="13" lengthAdjust="spacing" textLength="338" x="60.5" y="323.9199">Return CommonGetResponse with location racks data</text><!--SRC=[RL5BJiGm3Dtd55RtN62a8b4gs804vGHkwYaMQH8IXn6t9ysqLOjcvyH-7pzZ4cVJr5DG2hMu00_3n1OmGbMgIdaCmfezMe46zHVPeRJN-eF23skgr822FKQ2jYa3xVAkbAfhU2Q15wTHs5deCZR2at4Ng6jrbRoxN-bFqD5teYWW3iQCCoik5Do5vHFER8H2LAkDFRn9RB8nJvhFl41d9mFamhl8vUVAi2TecnEy9mg_czFPA0JIBWoBxf4LC_0DHyBUaCfx7vUG5B8UZcnHilWjqfl-Nz4VXybAzann3cJVw2XwPtFaXgFigKgacuL7DqtEvWjiysMLVx7Ez_i3]--></g></svg>