<?xml version="1.0" encoding="us-ascii" standalone="no"?><svg xmlns="http://www.w3.org/2000/svg" xmlns:xlink="http://www.w3.org/1999/xlink" contentStyleType="text/css" height="604px" preserveAspectRatio="none" style="width:694px;height:604px;background:#FFFFFF;" version="1.1" viewBox="0 0 694 604" width="694px" zoomAndPan="magnify"><defs/><g><rect fill="none" height="305.75" style="stroke:#000000;stroke-width:1.5;" width="667" x="10" y="200.4199"/><line style="stroke:#181818;stroke-width:0.5;stroke-dasharray:5.0,5.0;" x1="45" x2="45" y1="81.4883" y2="523.1699"/><line style="stroke:#181818;stroke-width:0.5;stroke-dasharray:5.0,5.0;" x1="319" x2="319" y1="81.4883" y2="523.1699"/><line style="stroke:#181818;stroke-width:0.5;stroke-dasharray:5.0,5.0;" x1="632" x2="632" y1="81.4883" y2="523.1699"/><text fill="#000000" font-family="sans-serif" font-size="14" lengthAdjust="spacing" textLength="45" x="20" y="78.5352">Admin</text><ellipse cx="45.5" cy="13.5" fill="#E2E2F0" rx="8" ry="8" style="stroke:#181818;stroke-width:0.5;"/><path d="M45.5,21.5 L45.5,48.5 M32.5,29.5 L58.5,29.5 M45.5,48.5 L32.5,63.5 M45.5,48.5 L58.5,63.5 " fill="none" style="stroke:#181818;stroke-width:0.5;"/><text fill="#000000" font-family="sans-serif" font-size="14" lengthAdjust="spacing" textLength="45" x="20" y="535.7051">Admin</text><ellipse cx="45.5" cy="547.1582" fill="#E2E2F0" rx="8" ry="8" style="stroke:#181818;stroke-width:0.5;"/><path d="M45.5,555.1582 L45.5,582.1582 M32.5,563.1582 L58.5,563.1582 M45.5,582.1582 L32.5,597.1582 M45.5,582.1582 L58.5,597.1582 " fill="none" style="stroke:#181818;stroke-width:0.5;"/><rect fill="#E2E2F0" height="30.4883" rx="2.5" ry="2.5" style="stroke:#181818;stroke-width:0.5;" width="123" x="258" y="50"/><text fill="#000000" font-family="sans-serif" font-size="14" lengthAdjust="spacing" textLength="109" x="265" y="70.5352">Backend Service</text><rect fill="#E2E2F0" height="30.4883" rx="2.5" ry="2.5" style="stroke:#181818;stroke-width:0.5;" width="123" x="258" y="522.1699"/><text fill="#000000" font-family="sans-serif" font-size="14" lengthAdjust="spacing" textLength="109" x="265" y="542.7051">Backend Service</text><text fill="#000000" font-family="sans-serif" font-size="14" lengthAdjust="spacing" textLength="63" x="598" y="78.5352">Database</text><path d="M614.5,29 C614.5,19 632.5,19 632.5,19 C632.5,19 650.5,19 650.5,29 L650.5,55 C650.5,65 632.5,65 632.5,65 C632.5,65 614.5,65 614.5,55 L614.5,29 " fill="#E2E2F0" style="stroke:#181818;stroke-width:1.5;"/><path d="M614.5,29 C614.5,39 632.5,39 632.5,39 C632.5,39 650.5,39 650.5,29 " fill="none" style="stroke:#181818;stroke-width:1.5;"/><text fill="#000000" font-family="sans-serif" font-size="14" lengthAdjust="spacing" textLength="63" x="598" y="535.7051">Database</text><path d="M614.5,548.6582 C614.5,538.6582 632.5,538.6582 632.5,538.6582 C632.5,538.6582 650.5,538.6582 650.5,548.6582 L650.5,574.6582 C650.5,584.6582 632.5,584.6582 632.5,584.6582 C632.5,584.6582 614.5,584.6582 614.5,574.6582 L614.5,548.6582 " fill="#E2E2F0" style="stroke:#181818;stroke-width:1.5;"/><path d="M614.5,548.6582 C614.5,558.6582 632.5,558.6582 632.5,558.6582 C632.5,558.6582 650.5,558.6582 650.5,548.6582 " fill="none" style="stroke:#181818;stroke-width:1.5;"/><rect fill="#EEEEEE" height="3" style="stroke:#EEEEEE;stroke-width:1.0;" width="687" x="0" y="112.1436"/><line style="stroke:#000000;stroke-width:1.0;" x1="0" x2="687" y1="112.1436" y2="112.1436"/><line style="stroke:#000000;stroke-width:1.0;" x1="0" x2="687" y1="115.1436" y2="115.1436"/><rect fill="#EEEEEE" height="23.3105" style="stroke:#000000;stroke-width:2.0;" width="198" x="244.5" y="101.4883"/><text fill="#000000" font-family="sans-serif" font-size="13" font-weight="bold" lengthAdjust="spacing" textLength="180" x="250.5" y="118.0566">Update Location Rack Flow</text><polygon fill="#181818" points="307.5,152.1094,317.5,156.1094,307.5,160.1094,311.5,156.1094" style="stroke:#181818;stroke-width:1.0;"/><line style="stroke:#181818;stroke-width:1.0;" x1="45.5" x2="313.5" y1="156.1094" y2="156.1094"/><text fill="#000000" font-family="sans-serif" font-size="13" font-weight="bold" lengthAdjust="spacing" textLength="9" x="52.5" y="151.3672">1</text><text fill="#000000" font-family="sans-serif" font-size="13" lengthAdjust="spacing" textLength="237" x="65.5" y="151.3672">Request to update location rack by ID</text><polygon fill="#181818" points="620.5,181.4199,630.5,185.4199,620.5,189.4199,624.5,185.4199" style="stroke:#181818;stroke-width:1.0;"/><line style="stroke:#181818;stroke-width:1.0;" x1="319.5" x2="626.5" y1="185.4199" y2="185.4199"/><text fill="#000000" font-family="sans-serif" font-size="13" font-weight="bold" lengthAdjust="spacing" textLength="9" x="326.5" y="180.6777">2</text><text fill="#000000" font-family="sans-serif" font-size="13" lengthAdjust="spacing" textLength="150" x="339.5" y="180.6777">Find location rack by ID</text><path d="M10,200.4199 L72,200.4199 L72,207.7305 L62,217.7305 L10,217.7305 L10,200.4199 " fill="#EEEEEE" style="stroke:#000000;stroke-width:1.5;"/><rect fill="none" height="305.75" style="stroke:#000000;stroke-width:1.5;" width="667" x="10" y="200.4199"/><text fill="#000000" font-family="sans-serif" font-size="13" font-weight="bold" lengthAdjust="spacing" textLength="17" x="25" y="213.9883">alt</text><a href="location rack exists" target="_top" title="location rack exists" xlink:actuate="onRequest" xlink:href="location rack exists" xlink:show="new" xlink:title="location rack exists" xlink:type="simple"><text fill="#0000FF" font-family="sans-serif" font-size="11" font-weight="bold" lengthAdjust="spacing" text-decoration="underline" textLength="109" x="87" y="213.0547">location rack exists</text></a><polygon fill="#181818" points="330.5,235.041,320.5,239.041,330.5,243.041,326.5,239.041" style="stroke:#181818;stroke-width:1.0;"/><line style="stroke:#181818;stroke-width:1.0;" x1="324.5" x2="631.5" y1="239.041" y2="239.041"/><text fill="#000000" font-family="sans-serif" font-size="13" font-weight="bold" lengthAdjust="spacing" textLength="9" x="336.5" y="234.2988">3</text><text fill="#000000" font-family="sans-serif" font-size="13" lengthAdjust="spacing" textLength="167" x="349.5" y="234.2988">Return location rack entity</text><line style="stroke:#181818;stroke-width:1.0;" x1="319.5" x2="361.5" y1="268.3516" y2="268.3516"/><line style="stroke:#181818;stroke-width:1.0;" x1="361.5" x2="361.5" y1="268.3516" y2="281.3516"/><line style="stroke:#181818;stroke-width:1.0;" x1="320.5" x2="361.5" y1="281.3516" y2="281.3516"/><polygon fill="#181818" points="330.5,277.3516,320.5,281.3516,330.5,285.3516,326.5,281.3516" style="stroke:#181818;stroke-width:1.0;"/><text fill="#000000" font-family="sans-serif" font-size="13" font-weight="bold" lengthAdjust="spacing" textLength="9" x="326.5" y="263.6094">4</text><text fill="#000000" font-family="sans-serif" font-size="13" lengthAdjust="spacing" textLength="251" x="339.5" y="263.6094">Map request data to location rack entity</text><line style="stroke:#181818;stroke-width:1.0;" x1="319.5" x2="361.5" y1="310.6621" y2="310.6621"/><line style="stroke:#181818;stroke-width:1.0;" x1="361.5" x2="361.5" y1="310.6621" y2="323.6621"/><line style="stroke:#181818;stroke-width:1.0;" x1="320.5" x2="361.5" y1="323.6621" y2="323.6621"/><polygon fill="#181818" points="330.5,319.6621,320.5,323.6621,330.5,327.6621,326.5,323.6621" style="stroke:#181818;stroke-width:1.0;"/><text fill="#000000" font-family="sans-serif" font-size="13" font-weight="bold" lengthAdjust="spacing" textLength="9" x="326.5" y="305.9199">5</text><text fill="#000000" font-family="sans-serif" font-size="13" lengthAdjust="spacing" textLength="199" x="339.5" y="305.9199">Set updatedBy and updatedDate</text><polygon fill="#181818" points="620.5,348.9727,630.5,352.9727,620.5,356.9727,624.5,352.9727" style="stroke:#181818;stroke-width:1.0;"/><line style="stroke:#181818;stroke-width:1.0;" x1="319.5" x2="626.5" y1="352.9727" y2="352.9727"/><text fill="#000000" font-family="sans-serif" font-size="13" font-weight="bold" lengthAdjust="spacing" textLength="9" x="326.5" y="348.2305">6</text><text fill="#000000" font-family="sans-serif" font-size="13" lengthAdjust="spacing" textLength="169" x="339.5" y="348.2305">Save updated location rack</text><line style="stroke:#181818;stroke-width:1.0;" x1="319.5" x2="361.5" y1="382.2832" y2="382.2832"/><line style="stroke:#181818;stroke-width:1.0;" x1="361.5" x2="361.5" y1="382.2832" y2="395.2832"/><line style="stroke:#181818;stroke-width:1.0;" x1="320.5" x2="361.5" y1="395.2832" y2="395.2832"/><polygon fill="#181818" points="330.5,391.2832,320.5,395.2832,330.5,399.2832,326.5,395.2832" style="stroke:#181818;stroke-width:1.0;"/><text fill="#000000" font-family="sans-serif" font-size="13" font-weight="bold" lengthAdjust="spacing" textLength="9" x="326.5" y="377.541">7</text><text fill="#000000" font-family="sans-serif" font-size="13" lengthAdjust="spacing" textLength="286" x="339.5" y="377.541">Map updated entity to LocationRackResponse</text><polygon fill="#181818" points="56.5,420.5938,46.5,424.5938,56.5,428.5938,52.5,424.5938" style="stroke:#181818;stroke-width:1.0;"/><line style="stroke:#181818;stroke-width:1.0;" x1="50.5" x2="318.5" y1="424.5938" y2="424.5938"/><text fill="#000000" font-family="sans-serif" font-size="13" font-weight="bold" lengthAdjust="spacing" textLength="9" x="62.5" y="419.8516">8</text><text fill="#000000" font-family="sans-serif" font-size="13" lengthAdjust="spacing" textLength="213" x="75.5" y="419.8516">Return updated location rack data</text><line style="stroke:#000000;stroke-width:1.0;stroke-dasharray:2.0,2.0;" x1="10" x2="677" y1="433.5938" y2="433.5938"/><a href="location rack not found" target="_top" title="location rack not found" xlink:actuate="onRequest" xlink:href="location rack not found" xlink:show="new" xlink:title="location rack not found" xlink:type="simple"><text fill="#0000FF" font-family="sans-serif" font-size="11" font-weight="bold" lengthAdjust="spacing" text-decoration="underline" textLength="132" x="15" y="444.2285">location rack not found</text></a><polygon fill="#181818" points="330.5,464.8594,320.5,468.8594,330.5,472.8594,326.5,468.8594" style="stroke:#181818;stroke-width:1.0;"/><line style="stroke:#181818;stroke-width:1.0;" x1="324.5" x2="631.5" y1="468.8594" y2="468.8594"/><text fill="#000000" font-family="sans-serif" font-size="13" font-weight="bold" lengthAdjust="spacing" textLength="9" x="336.5" y="464.1172">9</text><text fill="#000000" font-family="sans-serif" font-size="13" lengthAdjust="spacing" textLength="124" x="349.5" y="464.1172">Return empty result</text><polygon fill="#181818" points="56.5,494.1699,46.5,498.1699,56.5,502.1699,52.5,498.1699" style="stroke:#181818;stroke-width:1.0;"/><line style="stroke:#181818;stroke-width:1.0;" x1="50.5" x2="318.5" y1="498.1699" y2="498.1699"/><text fill="#000000" font-family="sans-serif" font-size="13" font-weight="bold" lengthAdjust="spacing" textLength="18" x="62.5" y="493.4277">10</text><text fill="#000000" font-family="sans-serif" font-size="13" lengthAdjust="spacing" textLength="222" x="84.5" y="493.4277">error: LOCATION_RACK_NOT_EXIST</text><!--SRC=[bLBHQiCm37ptLuYyxmSA6IJD2c5T2qa7Wp6AacXWbjgPBNVhtyz9ux9cNQ5-aj6TxtGoEjRAxIeoGc3Dsa3IxAG2j10DLIGwD2nhsQ5YIB7-8DKCxL2NPFQofaWqo5YX9SZI0P2DzqY8E8RdplS9bhf6bbf1uUcmQFKNnB4uYjxT1u4P5FJfo3Am1dTaje5fUcPrW3mJmODdPkaC5jBNbt3OChn6vntwbfPjz2R07s_vN9sTKPEdIB7amm3_fNlYF647PdJTHz5Rl-c1adYSjKaFWBuxtdoGD6NruvQufu0vbxfgCZ2ETdgROIdzJWgodLRsZ-2mebCo5rM7iGMr_WjCmrQQuLqxrLpDctQTDsJ8kfR_qITZj9d1SZrFDlbwjIsI-UDsjTvi7rxoSYCy-0S0]--></g></svg>