<?xml version="1.0" encoding="us-ascii" standalone="no"?><svg xmlns="http://www.w3.org/2000/svg" xmlns:xlink="http://www.w3.org/1999/xlink" contentStyleType="text/css" height="385px" preserveAspectRatio="none" style="width:569px;height:385px;background:#FFFFFF;" version="1.1" viewBox="0 0 569 385" width="569px" zoomAndPan="magnify"><defs/><g><line style="stroke:#181818;stroke-width:0.5;stroke-dasharray:5.0,5.0;" x1="30" x2="30" y1="81.4883" y2="304.3516"/><line style="stroke:#181818;stroke-width:0.5;stroke-dasharray:5.0,5.0;" x1="279" x2="279" y1="81.4883" y2="304.3516"/><line style="stroke:#181818;stroke-width:0.5;stroke-dasharray:5.0,5.0;" x1="522" x2="522" y1="81.4883" y2="304.3516"/><text fill="#000000" font-family="sans-serif" font-size="14" lengthAdjust="spacing" textLength="45" x="5" y="78.5352">Admin</text><ellipse cx="30.5" cy="13.5" fill="#E2E2F0" rx="8" ry="8" style="stroke:#181818;stroke-width:0.5;"/><path d="M30.5,21.5 L30.5,48.5 M17.5,29.5 L43.5,29.5 M30.5,48.5 L17.5,63.5 M30.5,48.5 L43.5,63.5 " fill="none" style="stroke:#181818;stroke-width:0.5;"/><text fill="#000000" font-family="sans-serif" font-size="14" lengthAdjust="spacing" textLength="45" x="5" y="316.8867">Admin</text><ellipse cx="30.5" cy="328.3398" fill="#E2E2F0" rx="8" ry="8" style="stroke:#181818;stroke-width:0.5;"/><path d="M30.5,336.3398 L30.5,363.3398 M17.5,344.3398 L43.5,344.3398 M30.5,363.3398 L17.5,378.3398 M30.5,363.3398 L43.5,378.3398 " fill="none" style="stroke:#181818;stroke-width:0.5;"/><rect fill="#E2E2F0" height="30.4883" rx="2.5" ry="2.5" style="stroke:#181818;stroke-width:0.5;" width="123" x="218" y="50"/><text fill="#000000" font-family="sans-serif" font-size="14" lengthAdjust="spacing" textLength="109" x="225" y="70.5352">Backend Service</text><rect fill="#E2E2F0" height="30.4883" rx="2.5" ry="2.5" style="stroke:#181818;stroke-width:0.5;" width="123" x="218" y="303.3516"/><text fill="#000000" font-family="sans-serif" font-size="14" lengthAdjust="spacing" textLength="109" x="225" y="323.8867">Backend Service</text><text fill="#000000" font-family="sans-serif" font-size="14" lengthAdjust="spacing" textLength="63" x="488" y="78.5352">Database</text><path d="M504.5,29 C504.5,19 522.5,19 522.5,19 C522.5,19 540.5,19 540.5,29 L540.5,55 C540.5,65 522.5,65 522.5,65 C522.5,65 504.5,65 504.5,55 L504.5,29 " fill="#E2E2F0" style="stroke:#181818;stroke-width:1.5;"/><path d="M504.5,29 C504.5,39 522.5,39 522.5,39 C522.5,39 540.5,39 540.5,29 " fill="none" style="stroke:#181818;stroke-width:1.5;"/><text fill="#000000" font-family="sans-serif" font-size="14" lengthAdjust="spacing" textLength="63" x="488" y="316.8867">Database</text><path d="M504.5,329.8398 C504.5,319.8398 522.5,319.8398 522.5,319.8398 C522.5,319.8398 540.5,319.8398 540.5,329.8398 L540.5,355.8398 C540.5,365.8398 522.5,365.8398 522.5,365.8398 C522.5,365.8398 504.5,365.8398 504.5,355.8398 L504.5,329.8398 " fill="#E2E2F0" style="stroke:#181818;stroke-width:1.5;"/><path d="M504.5,329.8398 C504.5,339.8398 522.5,339.8398 522.5,339.8398 C522.5,339.8398 540.5,339.8398 540.5,329.8398 " fill="none" style="stroke:#181818;stroke-width:1.5;"/><rect fill="#EEEEEE" height="3" style="stroke:#EEEEEE;stroke-width:1.0;" width="562" x="0" y="112.1436"/><line style="stroke:#000000;stroke-width:1.0;" x1="0" x2="562" y1="112.1436" y2="112.1436"/><line style="stroke:#000000;stroke-width:1.0;" x1="0" x2="562" y1="115.1436" y2="115.1436"/><rect fill="#EEEEEE" height="23.3105" style="stroke:#000000;stroke-width:2.0;" width="156" x="203" y="101.4883"/><text fill="#000000" font-family="sans-serif" font-size="13" font-weight="bold" lengthAdjust="spacing" textLength="138" x="209" y="118.0566">Create Supplier Flow</text><polygon fill="#181818" points="267.5,152.1094,277.5,156.1094,267.5,160.1094,271.5,156.1094" style="stroke:#181818;stroke-width:1.0;"/><line style="stroke:#181818;stroke-width:1.0;" x1="30.5" x2="273.5" y1="156.1094" y2="156.1094"/><text fill="#000000" font-family="sans-serif" font-size="13" font-weight="bold" lengthAdjust="spacing" textLength="9" x="37.5" y="151.3672">1</text><text fill="#000000" font-family="sans-serif" font-size="13" lengthAdjust="spacing" textLength="164" x="50.5" y="151.3672">Request to create supplier</text><polygon fill="#181818" points="510.5,181.4199,520.5,185.4199,510.5,189.4199,514.5,185.4199" style="stroke:#181818;stroke-width:1.0;"/><line style="stroke:#181818;stroke-width:1.0;" x1="279.5" x2="516.5" y1="185.4199" y2="185.4199"/><text fill="#000000" font-family="sans-serif" font-size="13" font-weight="bold" lengthAdjust="spacing" textLength="9" x="286.5" y="180.6777">2</text><text fill="#000000" font-family="sans-serif" font-size="13" lengthAdjust="spacing" textLength="123" x="299.5" y="180.6777">Save supplier entity</text><polygon fill="#181818" points="290.5,210.7305,280.5,214.7305,290.5,218.7305,286.5,214.7305" style="stroke:#181818;stroke-width:1.0;"/><line style="stroke:#181818;stroke-width:1.0;" x1="284.5" x2="521.5" y1="214.7305" y2="214.7305"/><text fill="#000000" font-family="sans-serif" font-size="13" font-weight="bold" lengthAdjust="spacing" textLength="9" x="296.5" y="209.9883">3</text><text fill="#000000" font-family="sans-serif" font-size="13" lengthAdjust="spacing" textLength="206" x="309.5" y="209.9883">Save success and return supplier</text><line style="stroke:#181818;stroke-width:1.0;" x1="279.5" x2="321.5" y1="244.041" y2="244.041"/><line style="stroke:#181818;stroke-width:1.0;" x1="321.5" x2="321.5" y1="244.041" y2="257.041"/><line style="stroke:#181818;stroke-width:1.0;" x1="280.5" x2="321.5" y1="257.041" y2="257.041"/><polygon fill="#181818" points="290.5,253.041,280.5,257.041,290.5,261.041,286.5,257.041" style="stroke:#181818;stroke-width:1.0;"/><text fill="#000000" font-family="sans-serif" font-size="13" font-weight="bold" lengthAdjust="spacing" textLength="9" x="286.5" y="239.2988">4</text><text fill="#000000" font-family="sans-serif" font-size="13" lengthAdjust="spacing" textLength="199" x="299.5" y="239.2988">Map entity to Supplier response</text><polygon fill="#181818" points="41.5,282.3516,31.5,286.3516,41.5,290.3516,37.5,286.3516" style="stroke:#181818;stroke-width:1.0;"/><line style="stroke:#181818;stroke-width:1.0;" x1="35.5" x2="278.5" y1="286.3516" y2="286.3516"/><text fill="#000000" font-family="sans-serif" font-size="13" font-weight="bold" lengthAdjust="spacing" textLength="9" x="47.5" y="281.6094">5</text><text fill="#000000" font-family="sans-serif" font-size="13" lengthAdjust="spacing" textLength="212" x="60.5" y="281.6094">Return supplier creation response</text><!--SRC=[ROvB3i8m34JtFeNLFHUeL2HAnOuDFO6RUX51a-0uHToU_YaIkx4yRsOegNUfQrW0oAWNFBMTTKWHiqbb44ZK6Xl8APPaxkpQwRtgcgMtXZDeIQcXo5YLaw5QxWoWAF0iJCfOfn0UbWKl3__2ee2vxt1SitEyyJDnL5IFPeRY0i7QETYhCiUQ-kyJsQdLDmpj-xJ5Omp7Y3Immfh4_StSe2k59MvSiMqMZi6xo7jcsZ-E_acTbrllDkO3]--></g></svg>