<?xml version="1.0" encoding="us-ascii" standalone="no"?><svg xmlns="http://www.w3.org/2000/svg" xmlns:xlink="http://www.w3.org/1999/xlink" contentStyleType="text/css" height="556px" preserveAspectRatio="none" style="width:569px;height:556px;background:#FFFFFF;" version="1.1" viewBox="0 0 569 556" width="569px" zoomAndPan="magnify"><defs/><g><rect fill="none" height="257.7949" style="stroke:#000000;stroke-width:1.5;" width="542" x="10" y="200.4199"/><rect fill="none" height="107.2422" style="stroke:#000000;stroke-width:1.5;" width="522" x="20" y="283.3516"/><line style="stroke:#181818;stroke-width:0.5;stroke-dasharray:5.0,5.0;" x1="55" x2="55" y1="81.4883" y2="475.2148"/><line style="stroke:#181818;stroke-width:0.5;stroke-dasharray:5.0,5.0;" x1="265" x2="265" y1="81.4883" y2="475.2148"/><line style="stroke:#181818;stroke-width:0.5;stroke-dasharray:5.0,5.0;" x1="497" x2="497" y1="81.4883" y2="475.2148"/><text fill="#000000" font-family="sans-serif" font-size="14" lengthAdjust="spacing" textLength="45" x="30" y="78.5352">Admin</text><ellipse cx="55.5" cy="13.5" fill="#E2E2F0" rx="8" ry="8" style="stroke:#181818;stroke-width:0.5;"/><path d="M55.5,21.5 L55.5,48.5 M42.5,29.5 L68.5,29.5 M55.5,48.5 L42.5,63.5 M55.5,48.5 L68.5,63.5 " fill="none" style="stroke:#181818;stroke-width:0.5;"/><text fill="#000000" font-family="sans-serif" font-size="14" lengthAdjust="spacing" textLength="45" x="30" y="487.75">Admin</text><ellipse cx="55.5" cy="499.2031" fill="#E2E2F0" rx="8" ry="8" style="stroke:#181818;stroke-width:0.5;"/><path d="M55.5,507.2031 L55.5,534.2031 M42.5,515.2031 L68.5,515.2031 M55.5,534.2031 L42.5,549.2031 M55.5,534.2031 L68.5,549.2031 " fill="none" style="stroke:#181818;stroke-width:0.5;"/><rect fill="#E2E2F0" height="30.4883" rx="2.5" ry="2.5" style="stroke:#181818;stroke-width:0.5;" width="123" x="204" y="50"/><text fill="#000000" font-family="sans-serif" font-size="14" lengthAdjust="spacing" textLength="109" x="211" y="70.5352">Backend Service</text><rect fill="#E2E2F0" height="30.4883" rx="2.5" ry="2.5" style="stroke:#181818;stroke-width:0.5;" width="123" x="204" y="474.2148"/><text fill="#000000" font-family="sans-serif" font-size="14" lengthAdjust="spacing" textLength="109" x="211" y="494.75">Backend Service</text><text fill="#000000" font-family="sans-serif" font-size="14" lengthAdjust="spacing" textLength="63" x="463" y="78.5352">Database</text><path d="M479.5,29 C479.5,19 497.5,19 497.5,19 C497.5,19 515.5,19 515.5,29 L515.5,55 C515.5,65 497.5,65 497.5,65 C497.5,65 479.5,65 479.5,55 L479.5,29 " fill="#E2E2F0" style="stroke:#181818;stroke-width:1.5;"/><path d="M479.5,29 C479.5,39 497.5,39 497.5,39 C497.5,39 515.5,39 515.5,29 " fill="none" style="stroke:#181818;stroke-width:1.5;"/><text fill="#000000" font-family="sans-serif" font-size="14" lengthAdjust="spacing" textLength="63" x="463" y="487.75">Database</text><path d="M479.5,500.7031 C479.5,490.7031 497.5,490.7031 497.5,490.7031 C497.5,490.7031 515.5,490.7031 515.5,500.7031 L515.5,526.7031 C515.5,536.7031 497.5,536.7031 497.5,536.7031 C497.5,536.7031 479.5,536.7031 479.5,526.7031 L479.5,500.7031 " fill="#E2E2F0" style="stroke:#181818;stroke-width:1.5;"/><path d="M479.5,500.7031 C479.5,510.7031 497.5,510.7031 497.5,510.7031 C497.5,510.7031 515.5,510.7031 515.5,500.7031 " fill="none" style="stroke:#181818;stroke-width:1.5;"/><rect fill="#EEEEEE" height="3" style="stroke:#EEEEEE;stroke-width:1.0;" width="562" x="0" y="112.1436"/><line style="stroke:#000000;stroke-width:1.0;" x1="0" x2="562" y1="112.1436" y2="112.1436"/><line style="stroke:#000000;stroke-width:1.0;" x1="0" x2="562" y1="115.1436" y2="115.1436"/><rect fill="#EEEEEE" height="23.3105" style="stroke:#000000;stroke-width:2.0;" width="155" x="203.5" y="101.4883"/><text fill="#000000" font-family="sans-serif" font-size="13" font-weight="bold" lengthAdjust="spacing" textLength="137" x="209.5" y="118.0566">Delete Supplier Flow</text><polygon fill="#181818" points="253.5,152.1094,263.5,156.1094,253.5,160.1094,257.5,156.1094" style="stroke:#181818;stroke-width:1.0;"/><line style="stroke:#181818;stroke-width:1.0;" x1="55.5" x2="259.5" y1="156.1094" y2="156.1094"/><text fill="#000000" font-family="sans-serif" font-size="13" font-weight="bold" lengthAdjust="spacing" textLength="9" x="62.5" y="151.3672">1</text><text fill="#000000" font-family="sans-serif" font-size="13" lengthAdjust="spacing" textLength="164" x="75.5" y="151.3672">Request to delete supplier</text><polygon fill="#181818" points="485.5,181.4199,495.5,185.4199,485.5,189.4199,489.5,185.4199" style="stroke:#181818;stroke-width:1.0;"/><line style="stroke:#181818;stroke-width:1.0;" x1="265.5" x2="491.5" y1="185.4199" y2="185.4199"/><text fill="#000000" font-family="sans-serif" font-size="13" font-weight="bold" lengthAdjust="spacing" textLength="9" x="272.5" y="180.6777">2</text><text fill="#000000" font-family="sans-serif" font-size="13" lengthAdjust="spacing" textLength="119" x="285.5" y="180.6777">Find supplier by ID</text><path d="M10,200.4199 L72,200.4199 L72,207.7305 L62,217.7305 L10,217.7305 L10,200.4199 " fill="#EEEEEE" style="stroke:#000000;stroke-width:1.5;"/><rect fill="none" height="257.7949" style="stroke:#000000;stroke-width:1.5;" width="542" x="10" y="200.4199"/><text fill="#000000" font-family="sans-serif" font-size="13" font-weight="bold" lengthAdjust="spacing" textLength="17" x="25" y="213.9883">alt</text><a href="Supplier exists" target="_top" title="Supplier exists" xlink:actuate="onRequest" xlink:href="Supplier exists" xlink:show="new" xlink:title="Supplier exists" xlink:type="simple"><text fill="#0000FF" font-family="sans-serif" font-size="11" font-weight="bold" lengthAdjust="spacing" text-decoration="underline" textLength="82" x="87" y="213.0547">Supplier exists</text></a><polygon fill="#181818" points="276.5,235.041,266.5,239.041,276.5,243.041,272.5,239.041" style="stroke:#181818;stroke-width:1.0;"/><line style="stroke:#181818;stroke-width:1.0;" x1="270.5" x2="496.5" y1="239.041" y2="239.041"/><text fill="#000000" font-family="sans-serif" font-size="13" font-weight="bold" lengthAdjust="spacing" textLength="9" x="282.5" y="234.2988">3</text><text fill="#000000" font-family="sans-serif" font-size="13" lengthAdjust="spacing" textLength="96" x="295.5" y="234.2988">Return supplier</text><polygon fill="#181818" points="485.5,264.3516,495.5,268.3516,485.5,272.3516,489.5,268.3516" style="stroke:#181818;stroke-width:1.0;"/><line style="stroke:#181818;stroke-width:1.0;" x1="265.5" x2="491.5" y1="268.3516" y2="268.3516"/><text fill="#000000" font-family="sans-serif" font-size="13" font-weight="bold" lengthAdjust="spacing" textLength="9" x="272.5" y="263.6094">4</text><text fill="#000000" font-family="sans-serif" font-size="13" lengthAdjust="spacing" textLength="195" x="285.5" y="263.6094">Check if supplier is being used</text><path d="M20,283.3516 L82,283.3516 L82,290.6621 L72,300.6621 L20,300.6621 L20,283.3516 " fill="#EEEEEE" style="stroke:#000000;stroke-width:1.5;"/><rect fill="none" height="107.2422" style="stroke:#000000;stroke-width:1.5;" width="522" x="20" y="283.3516"/><text fill="#000000" font-family="sans-serif" font-size="13" font-weight="bold" lengthAdjust="spacing" textLength="17" x="35" y="296.9199">alt</text><a href="Supplier is being used" target="_top" title="Supplier is being used" xlink:actuate="onRequest" xlink:href="Supplier is being used" xlink:show="new" xlink:title="Supplier is being used" xlink:type="simple"><text fill="#0000FF" font-family="sans-serif" font-size="11" font-weight="bold" lengthAdjust="spacing" text-decoration="underline" textLength="125" x="97" y="295.9863">Supplier is being used</text></a><polygon fill="#181818" points="66.5,317.9727,56.5,321.9727,66.5,325.9727,62.5,321.9727" style="stroke:#181818;stroke-width:1.0;"/><line style="stroke:#181818;stroke-width:1.0;" x1="60.5" x2="264.5" y1="321.9727" y2="321.9727"/><text fill="#000000" font-family="sans-serif" font-size="13" font-weight="bold" lengthAdjust="spacing" textLength="9" x="72.5" y="317.2305">5</text><text fill="#000000" font-family="sans-serif" font-size="13" lengthAdjust="spacing" textLength="173" x="85.5" y="317.2305">Supplier is being used error</text><line style="stroke:#000000;stroke-width:1.0;stroke-dasharray:2.0,2.0;" x1="20" x2="542" y1="330.9727" y2="330.9727"/><polygon fill="#181818" points="276.5,349.2832,266.5,353.2832,276.5,357.2832,272.5,353.2832" style="stroke:#181818;stroke-width:1.0;"/><line style="stroke:#181818;stroke-width:1.0;" x1="270.5" x2="496.5" y1="353.2832" y2="353.2832"/><text fill="#000000" font-family="sans-serif" font-size="13" font-weight="bold" lengthAdjust="spacing" textLength="9" x="282.5" y="348.541">6</text><text fill="#000000" font-family="sans-serif" font-size="13" lengthAdjust="spacing" textLength="95" x="295.5" y="348.541">Delete supplier</text><polygon fill="#181818" points="66.5,378.5938,56.5,382.5938,66.5,386.5938,62.5,382.5938" style="stroke:#181818;stroke-width:1.0;"/><line style="stroke:#181818;stroke-width:1.0;" x1="60.5" x2="264.5" y1="382.5938" y2="382.5938"/><text fill="#000000" font-family="sans-serif" font-size="13" font-weight="bold" lengthAdjust="spacing" textLength="9" x="72.5" y="377.8516">7</text><text fill="#000000" font-family="sans-serif" font-size="13" lengthAdjust="spacing" textLength="156" x="85.5" y="377.8516">Return success response</text><line style="stroke:#000000;stroke-width:1.0;stroke-dasharray:2.0,2.0;" x1="10" x2="552" y1="398.5938" y2="398.5938"/><polygon fill="#181818" points="276.5,416.9043,266.5,420.9043,276.5,424.9043,272.5,420.9043" style="stroke:#181818;stroke-width:1.0;"/><line style="stroke:#181818;stroke-width:1.0;" x1="270.5" x2="496.5" y1="420.9043" y2="420.9043"/><text fill="#000000" font-family="sans-serif" font-size="13" font-weight="bold" lengthAdjust="spacing" textLength="9" x="282.5" y="416.1621">8</text><text fill="#000000" font-family="sans-serif" font-size="13" lengthAdjust="spacing" textLength="117" x="295.5" y="416.1621">Supplier not found</text><polygon fill="#181818" points="66.5,446.2148,56.5,450.2148,66.5,454.2148,62.5,450.2148" style="stroke:#181818;stroke-width:1.0;"/><line style="stroke:#181818;stroke-width:1.0;" x1="60.5" x2="264.5" y1="450.2148" y2="450.2148"/><text fill="#000000" font-family="sans-serif" font-size="13" font-weight="bold" lengthAdjust="spacing" textLength="9" x="72.5" y="445.4727">9</text><text fill="#000000" font-family="sans-serif" font-size="13" lengthAdjust="spacing" textLength="145" x="85.5" y="445.4727">Supplier not exist error</text><!--SRC=[XP3BJWCn34Nt_WehUtvWf45Y65LYIvU8HIPn8UeqcSOEZxydpJogHY2oSkHxVNojamIVJWD506qaH7om9-THCwfIAPXq56VSfBrWfysHl2tjjTvJ_72655WjUj1Cs7T5q2z_1T2ssDD8GhXFqpGwYhWRmoUsBSoyk_jrTeFFT4x4WXBGpYPUJB0oixpl6jovNAzD7BxngGSz2hwe3KDVZeNLAs1-UR5RaAJehzClaehm-4xcYEvmfJZ6WPn_myHaYwKYtWWMS3MvP6xmTmjIZ65UXaQcpLyjtrUd-HkpnJI6c34IJy4lWxCIDaf5sDRpGV0GahVmJuwBi1nyoP1bFm00]--></g></svg>