<?xml version="1.0" encoding="us-ascii" standalone="no"?><svg xmlns="http://www.w3.org/2000/svg" xmlns:xlink="http://www.w3.org/1999/xlink" contentStyleType="text/css" height="401px" preserveAspectRatio="none" style="width:527px;height:401px;background:#FFFFFF;" version="1.1" viewBox="0 0 527 401" width="527px" zoomAndPan="magnify"><defs/><g><line style="stroke:#181818;stroke-width:0.5;stroke-dasharray:5.0,5.0;" x1="30" x2="30" y1="81.4883" y2="320.6621"/><line style="stroke:#181818;stroke-width:0.5;stroke-dasharray:5.0,5.0;" x1="231" x2="231" y1="81.4883" y2="320.6621"/><line style="stroke:#181818;stroke-width:0.5;stroke-dasharray:5.0,5.0;" x1="480" x2="480" y1="81.4883" y2="320.6621"/><text fill="#000000" font-family="sans-serif" font-size="14" lengthAdjust="spacing" textLength="45" x="5" y="78.5352">Admin</text><ellipse cx="30.5" cy="13.5" fill="#E2E2F0" rx="8" ry="8" style="stroke:#181818;stroke-width:0.5;"/><path d="M30.5,21.5 L30.5,48.5 M17.5,29.5 L43.5,29.5 M30.5,48.5 L17.5,63.5 M30.5,48.5 L43.5,63.5 " fill="none" style="stroke:#181818;stroke-width:0.5;"/><text fill="#000000" font-family="sans-serif" font-size="14" lengthAdjust="spacing" textLength="45" x="5" y="333.1973">Admin</text><ellipse cx="30.5" cy="344.6504" fill="#E2E2F0" rx="8" ry="8" style="stroke:#181818;stroke-width:0.5;"/><path d="M30.5,352.6504 L30.5,379.6504 M17.5,360.6504 L43.5,360.6504 M30.5,379.6504 L17.5,394.6504 M30.5,379.6504 L43.5,394.6504 " fill="none" style="stroke:#181818;stroke-width:0.5;"/><rect fill="#E2E2F0" height="30.4883" rx="2.5" ry="2.5" style="stroke:#181818;stroke-width:0.5;" width="123" x="170" y="50"/><text fill="#000000" font-family="sans-serif" font-size="14" lengthAdjust="spacing" textLength="109" x="177" y="70.5352">Backend Service</text><rect fill="#E2E2F0" height="30.4883" rx="2.5" ry="2.5" style="stroke:#181818;stroke-width:0.5;" width="123" x="170" y="319.6621"/><text fill="#000000" font-family="sans-serif" font-size="14" lengthAdjust="spacing" textLength="109" x="177" y="340.1973">Backend Service</text><text fill="#000000" font-family="sans-serif" font-size="14" lengthAdjust="spacing" textLength="63" x="446" y="78.5352">Database</text><path d="M462.5,29 C462.5,19 480.5,19 480.5,19 C480.5,19 498.5,19 498.5,29 L498.5,55 C498.5,65 480.5,65 480.5,65 C480.5,65 462.5,65 462.5,55 L462.5,29 " fill="#E2E2F0" style="stroke:#181818;stroke-width:1.5;"/><path d="M462.5,29 C462.5,39 480.5,39 480.5,39 C480.5,39 498.5,39 498.5,29 " fill="none" style="stroke:#181818;stroke-width:1.5;"/><text fill="#000000" font-family="sans-serif" font-size="14" lengthAdjust="spacing" textLength="63" x="446" y="333.1973">Database</text><path d="M462.5,346.1504 C462.5,336.1504 480.5,336.1504 480.5,336.1504 C480.5,336.1504 498.5,336.1504 498.5,346.1504 L498.5,372.1504 C498.5,382.1504 480.5,382.1504 480.5,382.1504 C480.5,382.1504 462.5,382.1504 462.5,372.1504 L462.5,346.1504 " fill="#E2E2F0" style="stroke:#181818;stroke-width:1.5;"/><path d="M462.5,346.1504 C462.5,356.1504 480.5,356.1504 480.5,356.1504 C480.5,356.1504 498.5,356.1504 498.5,346.1504 " fill="none" style="stroke:#181818;stroke-width:1.5;"/><rect fill="#EEEEEE" height="3" style="stroke:#EEEEEE;stroke-width:1.0;" width="520" x="0" y="112.1436"/><line style="stroke:#000000;stroke-width:1.0;" x1="0" x2="520" y1="112.1436" y2="112.1436"/><line style="stroke:#000000;stroke-width:1.0;" x1="0" x2="520" y1="115.1436" y2="115.1436"/><rect fill="#EEEEEE" height="23.3105" style="stroke:#000000;stroke-width:2.0;" width="142" x="189" y="101.4883"/><text fill="#000000" font-family="sans-serif" font-size="13" font-weight="bold" lengthAdjust="spacing" textLength="124" x="195" y="118.0566">Get Suppliers Flow</text><polygon fill="#181818" points="219.5,152.1094,229.5,156.1094,219.5,160.1094,223.5,156.1094" style="stroke:#181818;stroke-width:1.0;"/><line style="stroke:#181818;stroke-width:1.0;" x1="30.5" x2="225.5" y1="156.1094" y2="156.1094"/><text fill="#000000" font-family="sans-serif" font-size="13" font-weight="bold" lengthAdjust="spacing" textLength="9" x="37.5" y="151.3672">1</text><text fill="#000000" font-family="sans-serif" font-size="13" lengthAdjust="spacing" textLength="153" x="50.5" y="151.3672">Request to get suppliers</text><polygon fill="#181818" points="468.5,181.4199,478.5,185.4199,468.5,189.4199,472.5,185.4199" style="stroke:#181818;stroke-width:1.0;"/><line style="stroke:#181818;stroke-width:1.0;" x1="231.5" x2="474.5" y1="185.4199" y2="185.4199"/><text fill="#000000" font-family="sans-serif" font-size="13" font-weight="bold" lengthAdjust="spacing" textLength="9" x="238.5" y="180.6777">2</text><text fill="#000000" font-family="sans-serif" font-size="13" lengthAdjust="spacing" textLength="212" x="251.5" y="180.6777">Query suppliers with filter criteria</text><polygon fill="#181818" points="242.5,210.7305,232.5,214.7305,242.5,218.7305,238.5,214.7305" style="stroke:#181818;stroke-width:1.0;"/><line style="stroke:#181818;stroke-width:1.0;" x1="236.5" x2="479.5" y1="214.7305" y2="214.7305"/><text fill="#000000" font-family="sans-serif" font-size="13" font-weight="bold" lengthAdjust="spacing" textLength="9" x="248.5" y="209.9883">3</text><text fill="#000000" font-family="sans-serif" font-size="13" lengthAdjust="spacing" textLength="137" x="261.5" y="209.9883">Return suppliers page</text><polygon fill="#181818" points="468.5,240.041,478.5,244.041,468.5,248.041,472.5,244.041" style="stroke:#181818;stroke-width:1.0;"/><line style="stroke:#181818;stroke-width:1.0;" x1="231.5" x2="474.5" y1="244.041" y2="244.041"/><text fill="#000000" font-family="sans-serif" font-size="13" font-weight="bold" lengthAdjust="spacing" textLength="9" x="238.5" y="239.2988">4</text><text fill="#000000" font-family="sans-serif" font-size="13" lengthAdjust="spacing" textLength="164" x="251.5" y="239.2988">Retrieve suppliers content</text><polygon fill="#181818" points="242.5,269.3516,232.5,273.3516,242.5,277.3516,238.5,273.3516" style="stroke:#181818;stroke-width:1.0;"/><line style="stroke:#181818;stroke-width:1.0;" x1="236.5" x2="479.5" y1="273.3516" y2="273.3516"/><text fill="#000000" font-family="sans-serif" font-size="13" font-weight="bold" lengthAdjust="spacing" textLength="9" x="248.5" y="268.6094">5</text><text fill="#000000" font-family="sans-serif" font-size="13" lengthAdjust="spacing" textLength="148" x="261.5" y="268.6094">Return supplier content</text><polygon fill="#181818" points="41.5,298.6621,31.5,302.6621,41.5,306.6621,37.5,302.6621" style="stroke:#181818;stroke-width:1.0;"/><line style="stroke:#181818;stroke-width:1.0;" x1="35.5" x2="230.5" y1="302.6621" y2="302.6621"/><text fill="#000000" font-family="sans-serif" font-size="13" font-weight="bold" lengthAdjust="spacing" textLength="9" x="47.5" y="297.9199">6</text><text fill="#000000" font-family="sans-serif" font-size="13" lengthAdjust="spacing" textLength="164" x="60.5" y="297.9199">Return suppliers response</text><!--SRC=[XOz1JiGm34NtFeNLFHSOgKXJLR26EO4d_GmMdIGupeouFL6XK10IgpZo- -ydKZt5UZx2Y2HuCjvFPuqiXRjbwYYBkGRD4fq72I-8qx9UvmFieW4TJU9ob08UXmKOF-yTKT_pFPmFDUTPOONlvdJblgUFjflRrRpZHxnM56TFV6gHiaPexMlmEEpueSBUljTyLN_c9vqTni6q7IhKNlBJxTNY9fJbXD_Y1fdYWWqMKdH4_qVtXMs4o__-A3QKd6B1Em00]--></g></svg>