<?xml version="1.0" encoding="us-ascii" standalone="no"?><svg xmlns="http://www.w3.org/2000/svg" xmlns:xlink="http://www.w3.org/1999/xlink" contentStyleType="text/css" height="552px" preserveAspectRatio="none" style="width:553px;height:552px;background:#FFFFFF;" version="1.1" viewBox="0 0 553 552" width="553px" zoomAndPan="magnify"><defs/><g><rect fill="none" height="253.7949" style="stroke:#000000;stroke-width:1.5;" width="526" x="10" y="200.4199"/><line style="stroke:#181818;stroke-width:0.5;stroke-dasharray:5.0,5.0;" x1="45" x2="45" y1="81.4883" y2="471.2148"/><line style="stroke:#181818;stroke-width:0.5;stroke-dasharray:5.0,5.0;" x1="294" x2="294" y1="81.4883" y2="471.2148"/><line style="stroke:#181818;stroke-width:0.5;stroke-dasharray:5.0,5.0;" x1="491" x2="491" y1="81.4883" y2="471.2148"/><text fill="#000000" font-family="sans-serif" font-size="14" lengthAdjust="spacing" textLength="45" x="20" y="78.5352">Admin</text><ellipse cx="45.5" cy="13.5" fill="#E2E2F0" rx="8" ry="8" style="stroke:#181818;stroke-width:0.5;"/><path d="M45.5,21.5 L45.5,48.5 M32.5,29.5 L58.5,29.5 M45.5,48.5 L32.5,63.5 M45.5,48.5 L58.5,63.5 " fill="none" style="stroke:#181818;stroke-width:0.5;"/><text fill="#000000" font-family="sans-serif" font-size="14" lengthAdjust="spacing" textLength="45" x="20" y="483.75">Admin</text><ellipse cx="45.5" cy="495.2031" fill="#E2E2F0" rx="8" ry="8" style="stroke:#181818;stroke-width:0.5;"/><path d="M45.5,503.2031 L45.5,530.2031 M32.5,511.2031 L58.5,511.2031 M45.5,530.2031 L32.5,545.2031 M45.5,530.2031 L58.5,545.2031 " fill="none" style="stroke:#181818;stroke-width:0.5;"/><rect fill="#E2E2F0" height="30.4883" rx="2.5" ry="2.5" style="stroke:#181818;stroke-width:0.5;" width="123" x="233" y="50"/><text fill="#000000" font-family="sans-serif" font-size="14" lengthAdjust="spacing" textLength="109" x="240" y="70.5352">Backend Service</text><rect fill="#E2E2F0" height="30.4883" rx="2.5" ry="2.5" style="stroke:#181818;stroke-width:0.5;" width="123" x="233" y="470.2148"/><text fill="#000000" font-family="sans-serif" font-size="14" lengthAdjust="spacing" textLength="109" x="240" y="490.75">Backend Service</text><text fill="#000000" font-family="sans-serif" font-size="14" lengthAdjust="spacing" textLength="63" x="457" y="78.5352">Database</text><path d="M473.5,29 C473.5,19 491.5,19 491.5,19 C491.5,19 509.5,19 509.5,29 L509.5,55 C509.5,65 491.5,65 491.5,65 C491.5,65 473.5,65 473.5,55 L473.5,29 " fill="#E2E2F0" style="stroke:#181818;stroke-width:1.5;"/><path d="M473.5,29 C473.5,39 491.5,39 491.5,39 C491.5,39 509.5,39 509.5,29 " fill="none" style="stroke:#181818;stroke-width:1.5;"/><text fill="#000000" font-family="sans-serif" font-size="14" lengthAdjust="spacing" textLength="63" x="457" y="483.75">Database</text><path d="M473.5,496.7031 C473.5,486.7031 491.5,486.7031 491.5,486.7031 C491.5,486.7031 509.5,486.7031 509.5,496.7031 L509.5,522.7031 C509.5,532.7031 491.5,532.7031 491.5,532.7031 C491.5,532.7031 473.5,532.7031 473.5,522.7031 L473.5,496.7031 " fill="#E2E2F0" style="stroke:#181818;stroke-width:1.5;"/><path d="M473.5,496.7031 C473.5,506.7031 491.5,506.7031 491.5,506.7031 C491.5,506.7031 509.5,506.7031 509.5,496.7031 " fill="none" style="stroke:#181818;stroke-width:1.5;"/><rect fill="#EEEEEE" height="3" style="stroke:#EEEEEE;stroke-width:1.0;" width="546" x="0" y="112.1436"/><line style="stroke:#000000;stroke-width:1.0;" x1="0" x2="546" y1="112.1436" y2="112.1436"/><line style="stroke:#000000;stroke-width:1.0;" x1="0" x2="546" y1="115.1436" y2="115.1436"/><rect fill="#EEEEEE" height="23.3105" style="stroke:#000000;stroke-width:2.0;" width="161" x="192.5" y="101.4883"/><text fill="#000000" font-family="sans-serif" font-size="13" font-weight="bold" lengthAdjust="spacing" textLength="143" x="198.5" y="118.0566">Update Supplier Flow</text><polygon fill="#181818" points="282.5,152.1094,292.5,156.1094,282.5,160.1094,286.5,156.1094" style="stroke:#181818;stroke-width:1.0;"/><line style="stroke:#181818;stroke-width:1.0;" x1="45.5" x2="288.5" y1="156.1094" y2="156.1094"/><text fill="#000000" font-family="sans-serif" font-size="13" font-weight="bold" lengthAdjust="spacing" textLength="9" x="52.5" y="151.3672">1</text><text fill="#000000" font-family="sans-serif" font-size="13" lengthAdjust="spacing" textLength="169" x="65.5" y="151.3672">Request to update supplier</text><polygon fill="#181818" points="479.5,181.4199,489.5,185.4199,479.5,189.4199,483.5,185.4199" style="stroke:#181818;stroke-width:1.0;"/><line style="stroke:#181818;stroke-width:1.0;" x1="294.5" x2="485.5" y1="185.4199" y2="185.4199"/><text fill="#000000" font-family="sans-serif" font-size="13" font-weight="bold" lengthAdjust="spacing" textLength="9" x="301.5" y="180.6777">2</text><text fill="#000000" font-family="sans-serif" font-size="13" lengthAdjust="spacing" textLength="119" x="314.5" y="180.6777">Find supplier by ID</text><path d="M10,200.4199 L72,200.4199 L72,207.7305 L62,217.7305 L10,217.7305 L10,200.4199 " fill="#EEEEEE" style="stroke:#000000;stroke-width:1.5;"/><rect fill="none" height="253.7949" style="stroke:#000000;stroke-width:1.5;" width="526" x="10" y="200.4199"/><text fill="#000000" font-family="sans-serif" font-size="13" font-weight="bold" lengthAdjust="spacing" textLength="17" x="25" y="213.9883">alt</text><a href="Supplier exists" target="_top" title="Supplier exists" xlink:actuate="onRequest" xlink:href="Supplier exists" xlink:show="new" xlink:title="Supplier exists" xlink:type="simple"><text fill="#0000FF" font-family="sans-serif" font-size="11" font-weight="bold" lengthAdjust="spacing" text-decoration="underline" textLength="82" x="87" y="213.0547">Supplier exists</text></a><polygon fill="#181818" points="305.5,235.041,295.5,239.041,305.5,243.041,301.5,239.041" style="stroke:#181818;stroke-width:1.0;"/><line style="stroke:#181818;stroke-width:1.0;" x1="299.5" x2="490.5" y1="239.041" y2="239.041"/><text fill="#000000" font-family="sans-serif" font-size="13" font-weight="bold" lengthAdjust="spacing" textLength="9" x="311.5" y="234.2988">3</text><text fill="#000000" font-family="sans-serif" font-size="13" lengthAdjust="spacing" textLength="96" x="324.5" y="234.2988">Return supplier</text><polygon fill="#181818" points="479.5,264.3516,489.5,268.3516,479.5,272.3516,483.5,268.3516" style="stroke:#181818;stroke-width:1.0;"/><line style="stroke:#181818;stroke-width:1.0;" x1="294.5" x2="485.5" y1="268.3516" y2="268.3516"/><text fill="#000000" font-family="sans-serif" font-size="13" font-weight="bold" lengthAdjust="spacing" textLength="9" x="301.5" y="263.6094">4</text><text fill="#000000" font-family="sans-serif" font-size="13" lengthAdjust="spacing" textLength="145" x="314.5" y="263.6094">Update supplier details</text><polygon fill="#181818" points="305.5,293.6621,295.5,297.6621,305.5,301.6621,301.5,297.6621" style="stroke:#181818;stroke-width:1.0;"/><line style="stroke:#181818;stroke-width:1.0;" x1="299.5" x2="490.5" y1="297.6621" y2="297.6621"/><text fill="#000000" font-family="sans-serif" font-size="13" font-weight="bold" lengthAdjust="spacing" textLength="9" x="311.5" y="292.9199">5</text><text fill="#000000" font-family="sans-serif" font-size="13" lengthAdjust="spacing" textLength="138" x="324.5" y="292.9199">Save updated supplier</text><polygon fill="#181818" points="479.5,322.9727,489.5,326.9727,479.5,330.9727,483.5,326.9727" style="stroke:#181818;stroke-width:1.0;"/><line style="stroke:#181818;stroke-width:1.0;" x1="294.5" x2="485.5" y1="326.9727" y2="326.9727"/><text fill="#000000" font-family="sans-serif" font-size="13" font-weight="bold" lengthAdjust="spacing" textLength="9" x="301.5" y="322.2305">6</text><text fill="#000000" font-family="sans-serif" font-size="13" lengthAdjust="spacing" textLength="160" x="314.5" y="322.2305">Retrieve updated supplier</text><polygon fill="#181818" points="305.5,352.2832,295.5,356.2832,305.5,360.2832,301.5,356.2832" style="stroke:#181818;stroke-width:1.0;"/><line style="stroke:#181818;stroke-width:1.0;" x1="299.5" x2="490.5" y1="356.2832" y2="356.2832"/><text fill="#000000" font-family="sans-serif" font-size="13" font-weight="bold" lengthAdjust="spacing" textLength="9" x="311.5" y="351.541">7</text><text fill="#000000" font-family="sans-serif" font-size="13" lengthAdjust="spacing" textLength="151" x="324.5" y="351.541">Return updated supplier</text><polygon fill="#181818" points="56.5,381.5938,46.5,385.5938,56.5,389.5938,52.5,385.5938" style="stroke:#181818;stroke-width:1.0;"/><line style="stroke:#181818;stroke-width:1.0;" x1="50.5" x2="293.5" y1="385.5938" y2="385.5938"/><text fill="#000000" font-family="sans-serif" font-size="13" font-weight="bold" lengthAdjust="spacing" textLength="9" x="62.5" y="380.8516">8</text><text fill="#000000" font-family="sans-serif" font-size="13" lengthAdjust="spacing" textLength="212" x="75.5" y="380.8516">Return updated supplier response</text><line style="stroke:#000000;stroke-width:1.0;stroke-dasharray:2.0,2.0;" x1="10" x2="536" y1="394.5938" y2="394.5938"/><polygon fill="#181818" points="305.5,412.9043,295.5,416.9043,305.5,420.9043,301.5,416.9043" style="stroke:#181818;stroke-width:1.0;"/><line style="stroke:#181818;stroke-width:1.0;" x1="299.5" x2="490.5" y1="416.9043" y2="416.9043"/><text fill="#000000" font-family="sans-serif" font-size="13" font-weight="bold" lengthAdjust="spacing" textLength="9" x="311.5" y="412.1621">9</text><text fill="#000000" font-family="sans-serif" font-size="13" lengthAdjust="spacing" textLength="117" x="324.5" y="412.1621">Supplier not found</text><polygon fill="#181818" points="56.5,442.2148,46.5,446.2148,56.5,450.2148,52.5,446.2148" style="stroke:#181818;stroke-width:1.0;"/><line style="stroke:#181818;stroke-width:1.0;" x1="50.5" x2="293.5" y1="446.2148" y2="446.2148"/><text fill="#000000" font-family="sans-serif" font-size="13" font-weight="bold" lengthAdjust="spacing" textLength="18" x="62.5" y="441.4727">10</text><text fill="#000000" font-family="sans-serif" font-size="13" lengthAdjust="spacing" textLength="145" x="84.5" y="441.4727">Supplier not exist error</text><!--SRC=[XP31IiGm48RlynH3xhx0GWLBMV1gsPDuc3OZ1Bj9d4nMVNjZjr4ghUOGPfXl_lzdA6lm-Jom0D2eGV3Edfr7IcZcoa0aKJUwI5wnfV65lPt7jUvPBcva0vQK1agCNJi3tT8RWAR1KonpnZx7E3aMF4xX3Pi6hdutjrNxW0_ycZafQi1yNKhB4bJFWdVj0O-kr7M8mmVUTq2JugFvjk5tbpIP9y3oIh2raMRnF-fVo2-7qpe0MbPoKzfIw-d2Is3xfsQn5STxy7R6_tJdA-xIA9nYy8c1f_9jXQ-a3uhF8Nkxux02v-CYYmI1Wdq2]--></g></svg>